<svg width="517" height="451" viewBox="0 0 517 451" fill="none" xmlns="http://www.w3.org/2000/svg">
<path d="M250.837 41.1458C253.859 39.375 257.089 37.9167 260.319 36.9792L262.298 27.5L278.239 27.1875L280.532 36.5625C283.866 37.3958 287.095 38.6458 290.221 40.4167L298.244 35.1042L309.705 46.1458L304.703 54.375C306.475 57.3958 307.933 60.625 308.871 63.8542L318.248 65.8333L318.561 81.7708L309.184 84.0625C308.35 87.3958 307.1 90.625 305.433 93.75L310.746 101.771L299.702 113.229L291.471 108.229C288.45 110 285.22 111.458 281.99 112.396L280.011 121.875L264.07 122.188L261.777 112.812C258.443 111.979 255.213 110.729 252.088 109.062L244.065 114.375L232.604 103.333L237.605 95.1042C235.834 92.0833 234.376 88.8542 233.438 85.625L224.061 83.6458L223.644 67.7083L233.021 65.4167C233.855 62.0833 235.105 58.8542 236.772 55.7292L231.458 47.7083L242.502 36.25L250.837 41.1458ZM259.381 62.3958C252.817 69.1667 253.025 80 259.798 86.5625C266.57 93.125 277.406 92.9167 283.97 86.1458C290.534 79.375 290.325 68.5417 283.553 61.9792C276.676 55.4167 265.945 55.625 259.381 62.3958Z" fill="#F5F5F5"/>
<path d="M184.156 8.02083C185.928 6.97917 187.699 6.14583 189.678 5.625L190.825 0.208333L199.993 0L201.348 5.41667C203.223 5.9375 205.099 6.66667 206.87 7.60417L211.558 4.58333L218.122 10.9375L215.205 15.7292C216.247 17.5 217.08 19.2708 217.601 21.25L223.019 22.3958L223.228 31.5625L217.81 32.9167C217.289 34.7917 216.559 36.6667 215.622 38.4375L218.643 43.125L212.288 49.6875L207.495 46.7708C205.724 47.8125 203.952 48.6458 201.973 49.1667L200.827 54.5833L191.658 54.7917L190.304 49.375C188.428 48.8542 186.553 48.125 184.782 47.1875L180.093 50.2083L173.529 43.8542L176.446 39.0625C175.405 37.2917 174.571 35.5208 174.05 33.5417L168.632 32.3958L168.424 23.2292L173.842 21.875C174.363 20 175.092 18.125 176.03 16.3542L173.008 11.6667L179.364 5.10417L184.156 8.02083ZM189.053 20.2083C185.303 24.1667 185.407 30.3125 189.262 34.1667C193.221 37.9167 199.368 37.8125 203.223 33.9583C206.974 30 206.87 23.8542 203.015 20C199.056 16.1458 192.804 16.25 189.053 20.2083Z" fill="#FF7213"/>
<path d="M477.033 178.333C478.805 177.292 480.576 176.458 482.555 175.937L483.702 170.521L492.87 170.312L494.225 175.729C496.1 176.25 497.975 176.979 499.747 177.917L504.435 174.896L510.999 181.25L508.082 186.042C509.124 187.813 509.957 189.583 510.478 191.562L515.896 192.708L516.104 201.875L510.687 203.229C510.166 205.104 509.436 206.979 508.499 208.75L511.52 213.437L505.165 220L500.372 217.083C498.601 218.125 496.829 218.958 494.85 219.479L493.704 224.896L484.535 225.104L483.181 219.687C481.305 219.167 479.43 218.438 477.659 217.5L472.97 220.521L466.406 214.167L469.323 209.375C468.281 207.604 467.448 205.833 466.927 203.854L461.509 202.708L461.301 193.542L466.719 192.188C467.24 190.312 467.969 188.437 468.907 186.667L465.885 181.979L472.241 175.417L477.033 178.333ZM481.93 190.521C478.179 194.479 478.284 200.625 482.139 204.479C486.098 208.229 492.245 208.125 496.1 204.271C499.851 200.313 499.747 194.167 495.892 190.312C491.933 186.458 485.681 186.667 481.93 190.521Z" fill="#EBEBEB"/>
<path d="M501.726 449.792C501.726 449.896 402.954 450.104 281.053 450.104C159.151 450.104 60.3794 450 60.3794 449.792C60.3794 449.583 159.151 449.479 281.053 449.479C402.954 449.479 501.726 449.583 501.726 449.792Z" fill="#263238"/>
<path d="M453.694 448.958L305.745 448.854C287.929 448.854 273.551 434.375 273.551 416.666L273.655 45.833C273.655 28.0205 288.137 13.6455 305.954 13.6455L453.903 13.7497C471.719 13.7497 486.097 28.2288 486.097 45.9372L485.993 416.771C485.889 434.583 471.511 449.062 453.694 448.958Z" fill="#455A64"/>
<path d="M453.59 26.7705H424.938C421.083 26.7705 417.957 29.9997 417.957 34.0622V39.2705C417.957 43.333 414.832 46.5622 410.977 46.5622H355.027C351.172 46.5622 348.046 43.333 348.046 39.2705V34.0622C348.046 29.9997 344.921 26.7705 341.066 26.7705H330.959H305.85C293.347 26.7705 283.24 36.8747 283.24 49.3747L283.136 411.354C283.136 423.854 293.243 433.958 305.745 433.958L453.382 434.062C465.885 434.062 475.991 423.958 475.991 411.458L476.095 49.4788C476.199 36.8747 466.093 26.7705 453.59 26.7705Z" fill="white"/>
<path d="M476.2 102.916V48.958C475.991 36.6663 465.989 26.7705 453.695 26.7705H425.042C421.187 26.7705 418.062 29.9997 418.062 34.0622V39.2705C418.062 43.333 414.936 46.5622 411.081 46.5622H355.131C351.276 46.5622 348.151 43.333 348.151 39.2705V34.0622C348.151 29.9997 345.025 26.7705 341.17 26.7705H331.064H305.954C293.451 26.7705 283.345 36.8747 283.345 49.3747V103.125H476.2V102.916Z" fill="#EBEBEB"/>
<path d="M322.729 176.042C335.618 176.042 346.067 165.595 346.067 152.708C346.067 139.822 335.618 129.375 322.729 129.375C309.839 129.375 299.39 139.822 299.39 152.708C299.39 165.595 309.839 176.042 322.729 176.042Z" fill="#E0E0E0"/>
<path d="M311.789 158.542L317.936 158.021L332.835 160.521L334.606 171.771L334.398 173.125C327.209 177.083 319.082 177.083 312.205 173.646L311.789 158.542Z" fill="#455A64"/>
<path d="M329.605 160.417C329.605 160.417 334.293 159.479 337.315 163.854C339.19 166.459 340.128 168.229 340.128 168.229C337.732 170.834 335.752 172.917 332.314 174.063L329.605 160.417Z" fill="#455A64"/>
<path d="M311.789 158.542C311.789 158.542 307.725 159.063 306.163 162.5C304.6 165.938 304.287 166.979 304.287 166.979C306.371 169.479 309.08 172.5 312.31 173.542C312.31 173.542 313.039 164.896 313.143 162.396C313.247 159.792 313.352 158.438 311.789 158.542Z" fill="#455A64"/>
<path d="M315.435 136.458C317.623 133.75 320.541 132.292 323.979 132.188C325.958 132.188 326.688 132.604 328.146 132.917C329.501 133.333 330.855 134.062 331.689 135.208C332.731 136.562 333.564 138.229 333.668 139.896C333.877 141.667 334.085 143.437 333.877 145.208C333.773 146.979 333.252 148.75 332.21 150.208L327.73 150.937C325.229 151.042 322.729 151.146 320.332 150.521C317.936 150 315.539 148.646 314.289 146.562C312.518 143.646 313.247 139.167 315.435 136.458Z" fill="#263238"/>
<path d="M311.163 149.479C311.268 148.437 311.789 147.5 312.726 146.979C313.56 146.458 314.81 146.562 315.539 147.187L316.269 148.021C317.415 148.541 318.04 149.791 317.936 150.937C317.832 152.083 316.894 153.229 315.748 153.541C314.602 153.854 313.247 153.541 312.414 152.708C311.372 151.979 310.955 150.625 311.163 149.479Z" fill="#263238"/>
<path d="M311.997 152.5C311.997 152.5 311.684 152.188 311.788 151.563C311.788 150.938 312.205 150.208 312.83 149.583C313.455 148.854 314.081 148.438 314.602 148.125C315.123 147.813 315.539 147.708 315.435 147.708C315.435 147.708 315.018 147.708 314.497 148.021C313.976 148.229 313.247 148.75 312.622 149.479C312.309 149.792 312.101 150.208 311.893 150.625C311.684 150.938 311.58 151.354 311.58 151.667C311.58 151.979 311.684 152.188 311.788 152.396C311.893 152.5 311.997 152.5 311.997 152.5Z" fill="#455A64"/>
<path d="M327.729 159.583V155.417C327.729 155.417 331.376 155 332.418 150.313C332.939 148.021 333.043 144.167 332.939 140.938C332.939 138.125 330.438 134.271 327 134.167L325.437 133.958L319.498 136.354C318.665 136.354 317.935 137.083 317.935 137.917L317.727 157.917L320.436 161.771C322.728 165.104 327.729 163.438 327.729 159.583Z" fill="#FFBE9D"/>
<path d="M325.437 149.271C325.437 149.063 325.646 148.854 325.75 148.646C326.062 148.333 326.583 148.333 327 148.542C327.417 148.75 327.625 149.375 327.521 149.792C327.313 150.104 327 150.313 326.583 150.313C326.479 150.313 326.479 150.313 326.375 150.313C326.062 150.313 325.854 150.208 325.646 150C325.437 149.896 325.333 149.583 325.437 149.271Z" fill="#EB996E"/>
<path d="M330.855 144.271C330.855 144.584 330.543 144.896 330.23 144.896C329.918 144.896 329.605 144.688 329.605 144.271C329.605 143.959 329.918 143.646 330.23 143.646C330.543 143.646 330.855 143.959 330.855 144.271Z" fill="#263238"/>
<path d="M331.793 142.709C331.689 142.813 331.272 142.396 330.647 142.396C330.022 142.396 329.501 142.709 329.396 142.604C329.396 142.604 329.397 142.396 329.709 142.292C329.917 142.188 330.23 141.979 330.647 142.084C331.064 142.084 331.376 142.292 331.584 142.396C331.793 142.604 331.897 142.709 331.793 142.709Z" fill="#263238"/>
<path d="M327.73 147.709C327.73 147.709 328.146 147.604 328.771 147.604C328.98 147.604 329.084 147.604 329.084 147.5C329.084 147.396 329.084 147.188 328.98 146.979C328.876 146.563 328.667 146.146 328.563 145.729C327.938 143.854 327.521 142.396 327.625 142.396C327.73 142.396 328.25 143.854 328.771 145.729C328.876 146.146 329.084 146.667 329.188 146.979C329.292 147.188 329.292 147.396 329.188 147.604C329.188 147.709 328.98 147.813 328.876 147.813C328.771 147.813 328.667 147.813 328.563 147.813C328.146 147.709 327.73 147.709 327.73 147.709Z" fill="#263238"/>
<path d="M327.729 155.417C327.729 155.417 324.5 155.417 321.478 153.333C321.478 153.333 322.937 156.667 327.729 156.563V155.417Z" fill="#EB996E"/>
<path d="M325.75 148.021C325.854 148.021 325.854 148.75 326.375 149.271C327 149.792 327.73 149.792 327.73 149.896C327.73 149.896 327.521 150 327.209 150C326.896 150 326.479 149.896 326.062 149.584C325.75 149.271 325.542 148.854 325.542 148.542C325.646 148.229 325.75 148.021 325.75 148.021Z" fill="#263238"/>
<path d="M331.688 140.313C331.584 140.417 331.063 140.313 330.438 140.313C329.813 140.313 329.396 140.417 329.188 140.313C329.084 140.208 329.188 140.104 329.396 139.896C329.605 139.792 329.917 139.583 330.334 139.583C330.751 139.583 331.063 139.688 331.272 139.792C331.688 140 331.793 140.208 331.688 140.313Z" fill="#263238"/>
<path d="M323.666 144.167C323.666 144.479 323.874 144.792 324.291 144.792C324.604 144.792 324.916 144.584 324.916 144.271C324.916 143.959 324.708 143.646 324.291 143.646C323.979 143.646 323.666 143.854 323.666 144.167Z" fill="#263238"/>
<path d="M322.833 142.5C322.937 142.604 323.353 142.292 323.979 142.292C324.604 142.292 325.125 142.604 325.229 142.604C325.229 142.604 325.229 142.396 325.02 142.292C324.812 142.188 324.5 141.979 324.083 141.979C323.666 141.979 323.353 142.084 323.145 142.292C322.937 142.292 322.833 142.5 322.833 142.5Z" fill="#263238"/>
<path d="M322.52 141.146C322.624 141.25 323.145 141.146 323.77 141.146C324.395 141.146 324.916 141.25 325.02 141.146C325.125 141.042 325.02 140.938 324.812 140.729C324.604 140.625 324.187 140.417 323.77 140.417C323.353 140.417 323.041 140.521 322.728 140.729C322.52 140.834 322.416 141.042 322.52 141.146Z" fill="#263238"/>
<path d="M318.665 145.938C318.665 145.625 318.352 144.688 317.936 144.688C316.998 144.479 315.331 144.479 315.227 146.875C315.018 150.104 318.352 149.583 318.352 149.583C318.352 149.479 318.665 147.188 318.665 145.938Z" fill="#FFBE9D"/>
<path d="M317.519 148.333C317.519 148.333 317.415 148.333 317.415 148.438C317.31 148.438 317.206 148.542 316.998 148.438C316.685 148.333 316.373 147.708 316.477 147.188C316.477 146.875 316.581 146.667 316.685 146.354C316.79 146.146 316.998 145.938 317.102 145.938C317.31 145.938 317.415 146.042 317.415 146.146C317.415 146.25 317.415 146.25 317.415 146.354C317.415 146.354 317.519 146.354 317.519 146.146C317.519 146.042 317.519 146.042 317.415 145.938C317.31 145.834 317.206 145.833 317.102 145.833C316.894 145.833 316.581 146.042 316.477 146.25C316.373 146.458 316.269 146.771 316.269 147.188C316.269 147.813 316.581 148.438 316.998 148.646C317.206 148.75 317.415 148.646 317.519 148.542C317.519 148.333 317.519 148.333 317.519 148.333Z" fill="#EB996E"/>
<path d="M317.936 144.687L318.769 145.521C322.312 142.187 329.188 133.646 328.876 134.167C328.876 134.167 326.479 133.125 323.77 133.646C321.166 134.063 316.165 135.417 316.269 138.542C316.269 141.667 317.936 144.687 317.936 144.687Z" fill="#263238"/>
<path d="M313.143 143.959C313.143 143.959 313.143 143.854 313.143 143.75C313.143 143.646 313.247 143.438 313.351 143.229C313.56 142.813 313.977 142.188 314.706 141.667C315.435 141.146 316.373 140.729 317.415 140.313C318.457 140 319.707 139.688 320.957 139.167C322.208 138.646 323.249 138.021 324.187 137.396C325.125 136.771 325.854 136.042 326.479 135.417C327.104 134.792 327.521 134.271 327.73 133.854C327.834 133.646 327.938 133.542 328.042 133.438C328.146 133.334 328.146 133.333 328.146 133.333C328.146 133.333 328.146 133.438 328.042 133.542C327.938 133.646 327.834 133.854 327.73 133.959C327.417 134.375 327 134.896 326.479 135.521C325.854 136.146 325.125 136.875 324.187 137.5C323.249 138.125 322.208 138.854 320.957 139.271C319.707 139.792 318.561 140.104 317.415 140.417C316.373 140.729 315.435 141.146 314.706 141.667C313.977 142.188 313.56 142.708 313.351 143.125C313.247 143.75 313.247 144.063 313.143 143.959Z" fill="#455A64"/>
<path d="M314.185 144.479C314.185 144.479 314.185 144.167 314.289 143.75C314.393 143.333 314.81 142.708 315.54 142.187C316.165 141.667 317.207 141.354 318.248 141.146C319.29 140.937 320.436 140.625 321.582 140.104C322.729 139.583 323.77 138.958 324.604 138.229C325.438 137.604 326.167 136.875 326.688 136.25C327.209 135.625 327.625 135.104 327.834 134.687C327.938 134.479 328.042 134.375 328.146 134.271C328.251 134.166 328.251 134.167 328.251 134.167C328.251 134.167 328.251 134.271 328.146 134.375C328.042 134.479 328.042 134.687 327.938 134.791C327.73 135.208 327.313 135.729 326.792 136.354C326.271 136.979 325.646 137.708 324.708 138.437C323.875 139.166 322.833 139.792 321.687 140.312C320.541 140.833 319.395 141.146 318.353 141.354C317.311 141.562 316.373 141.875 315.644 142.396C315.019 142.812 314.602 143.437 314.393 143.854C314.185 144.271 314.185 144.479 314.185 144.479Z" fill="#455A64"/>
<path d="M312.205 173.646C312.101 173.646 312.101 172.292 312.101 170.521C312.101 168.854 312.101 167.396 312.205 167.396C312.309 167.396 312.309 168.75 312.309 170.521C312.309 172.188 312.309 173.646 312.205 173.646Z" fill="#263238"/>
<path d="M334.398 173.229C334.398 173.229 334.398 172.812 334.398 172.083C334.398 171.458 334.502 170.521 334.294 169.479C334.085 168.437 333.773 167.604 333.564 166.979C333.356 166.354 333.147 165.938 333.147 165.938C333.147 165.938 333.356 166.25 333.668 166.875C333.981 167.5 334.294 168.333 334.502 169.375C334.71 170.417 334.606 171.354 334.502 172.083C334.502 172.812 334.398 173.229 334.398 173.229Z" fill="#263238"/>
<path d="M441.401 187.708C441.401 187.813 437.546 188.021 432.857 188.021C428.168 188.021 424.313 187.917 424.313 187.708C424.313 187.604 428.168 187.396 432.857 187.396C437.546 187.5 441.401 187.604 441.401 187.708Z" fill="#E0E0E0"/>
<path d="M444.838 188.437C444.734 188.437 444.734 188.437 444.63 188.333L442.963 186.562C442.859 186.458 442.859 186.25 442.963 186.146C443.067 186.041 443.275 186.041 443.38 186.146L444.838 187.708L448.068 184.479C448.172 184.375 448.381 184.375 448.485 184.479C448.589 184.583 448.589 184.791 448.485 184.896L445.151 188.333C445.047 188.333 444.943 188.437 444.838 188.437Z" fill="#FF7213"/>
<path d="M447.235 188.333H446.922C446.818 188.333 446.714 188.229 446.714 188.021C446.714 187.916 446.818 187.812 447.026 187.812H447.235L450.569 184.479C450.673 184.375 450.881 184.375 450.986 184.479C451.09 184.583 451.09 184.791 450.986 184.896L447.652 188.333C447.339 188.333 447.339 188.333 447.235 188.333Z" fill="#FF7213"/>
<path d="M441.401 318.646C441.401 318.75 437.546 318.959 432.857 318.959C428.168 318.959 424.313 318.854 424.313 318.646C424.313 318.542 428.168 318.333 432.857 318.333C437.546 318.333 441.401 318.542 441.401 318.646Z" fill="#E0E0E0"/>
<path d="M444.838 319.271C444.734 319.271 444.734 319.271 444.63 319.167L442.963 317.396C442.859 317.292 442.859 317.083 442.963 316.979C443.067 316.875 443.275 316.875 443.38 316.979L444.838 318.542L448.068 315.312C448.172 315.208 448.381 315.208 448.485 315.312C448.589 315.417 448.589 315.625 448.485 315.729L445.151 319.167C445.047 319.271 444.943 319.271 444.838 319.271Z" fill="#FF7213"/>
<path d="M447.235 319.271H446.922C446.818 319.271 446.714 319.167 446.714 318.958C446.714 318.854 446.818 318.646 447.026 318.75H447.235L450.569 315.417C450.673 315.312 450.881 315.312 450.986 315.417C451.09 315.521 451.09 315.729 450.986 315.833L447.652 319.271C447.339 319.271 447.339 319.271 447.235 319.271Z" fill="#FF7213"/>
<path d="M322.729 321.458C335.618 321.458 346.067 311.012 346.067 298.125C346.067 285.238 335.618 274.792 322.729 274.792C309.839 274.792 299.39 285.238 299.39 298.125C299.39 311.012 309.839 321.458 322.729 321.458Z" fill="#E0E0E0"/>
<path d="M311.789 303.958L317.936 303.438L332.835 305.938L334.606 317.188L334.398 318.542C327.209 322.5 319.082 322.5 312.205 319.062L311.789 303.958Z" fill="#455A64"/>
<path d="M329.605 305.729C329.605 305.729 334.293 304.792 337.315 309.167C339.19 311.771 340.128 313.542 340.128 313.542C337.732 316.146 335.752 318.229 332.314 319.375L329.605 305.729Z" fill="#455A64"/>
<path d="M311.789 303.958C311.789 303.958 307.725 304.479 306.163 307.917C304.6 311.354 304.287 312.396 304.287 312.396C306.371 314.896 309.08 317.917 312.31 318.958C312.31 318.958 313.039 310.312 313.143 307.812C313.247 305.208 313.352 303.854 311.789 303.958Z" fill="#455A64"/>
<path d="M315.435 281.875C317.623 279.167 320.541 277.708 323.979 277.604C325.958 277.604 326.688 278.021 328.146 278.333C329.501 278.75 330.855 279.479 331.689 280.625C332.731 281.979 333.564 283.646 333.668 285.312C333.877 287.083 334.085 288.854 333.877 290.625C333.773 292.396 333.252 294.167 332.21 295.625L327.73 296.354C325.229 296.458 322.729 296.562 320.332 295.937C317.936 295.417 315.539 294.062 314.289 291.979C312.518 289.062 313.247 284.479 315.435 281.875Z" fill="#263238"/>
<path d="M311.163 294.895C311.268 293.854 311.789 292.916 312.726 292.395C313.56 291.875 314.81 291.979 315.539 292.604L316.269 293.437C317.415 293.958 318.04 295.208 317.936 296.354C317.832 297.5 316.894 298.645 315.748 298.958C314.602 299.27 313.247 298.958 312.414 298.125C311.372 297.291 310.955 296.041 311.163 294.895Z" fill="#263238"/>
<path d="M311.997 297.917C311.997 297.917 311.684 297.604 311.788 296.979C311.788 296.354 312.205 295.625 312.83 295C313.455 294.271 314.081 293.854 314.602 293.542C315.123 293.229 315.539 293.125 315.435 293.125C315.435 293.125 315.018 293.125 314.497 293.438C313.976 293.646 313.247 294.167 312.622 294.896C312.309 295.208 312.101 295.625 311.893 296.042C311.684 296.354 311.58 296.771 311.58 297.083C311.58 297.396 311.684 297.604 311.788 297.813C311.893 297.813 311.997 297.917 311.997 297.917Z" fill="#455A64"/>
<path d="M327.834 305.312V301.146C327.834 301.146 331.48 300.729 332.522 296.042C333.043 293.75 333.147 289.896 333.043 286.667C333.043 283.854 330.543 280 327.104 279.896L325.542 279.688L319.603 282.083C318.769 282.083 318.04 282.812 318.04 283.646L317.832 303.646L320.54 307.5C322.728 310.833 327.73 309.271 327.834 305.312Z" fill="#FFBE9D"/>
<path d="M325.437 294.583C325.437 294.375 325.646 294.167 325.75 293.958C326.062 293.646 326.583 293.646 327 293.854C327.417 294.063 327.625 294.687 327.521 295.104C327.313 295.417 327 295.625 326.583 295.625C326.479 295.625 326.479 295.625 326.375 295.625C326.062 295.625 325.854 295.521 325.646 295.313C325.437 295.208 325.333 294.896 325.437 294.583Z" fill="#EB996E"/>
<path d="M330.855 290C330.855 290.313 330.543 290.625 330.23 290.625C329.918 290.625 329.605 290.417 329.605 290C329.605 289.688 329.918 289.375 330.23 289.375C330.543 289.479 330.855 289.688 330.855 290Z" fill="#263238"/>
<path d="M331.793 288.542C331.689 288.646 331.272 288.229 330.647 288.229C330.022 288.229 329.501 288.542 329.396 288.437C329.396 288.437 329.397 288.229 329.709 288.125C329.917 288.021 330.23 287.812 330.647 287.917C331.064 287.917 331.376 288.125 331.584 288.229C331.793 288.333 331.897 288.437 331.793 288.542Z" fill="#263238"/>
<path d="M327.73 293.438C327.73 293.438 328.146 293.333 328.771 293.333C328.98 293.333 329.084 293.333 329.084 293.229C329.084 293.125 329.084 292.917 328.98 292.708C328.876 292.292 328.667 291.875 328.563 291.458C327.938 289.583 327.521 288.125 327.625 288.125C327.73 288.125 328.25 289.583 328.771 291.458C328.876 291.875 329.084 292.396 329.188 292.708C329.292 292.917 329.292 293.125 329.188 293.333C329.188 293.438 328.98 293.542 328.876 293.542C328.771 293.542 328.667 293.542 328.563 293.542C328.146 293.542 327.73 293.438 327.73 293.438Z" fill="#263238"/>
<path d="M327.729 301.146C327.729 301.146 324.5 301.146 321.478 299.062C321.478 299.062 322.937 302.396 327.729 302.292V301.146Z" fill="#EB996E"/>
<path d="M325.75 293.75C325.854 293.75 325.854 294.479 326.375 295C327 295.521 327.73 295.521 327.73 295.625C327.73 295.625 327.521 295.729 327.209 295.729C326.896 295.729 326.479 295.625 326.062 295.312C325.75 295 325.542 294.583 325.542 294.271C325.646 293.958 325.75 293.75 325.75 293.75Z" fill="#263238"/>
<path d="M331.688 286.042C331.584 286.146 331.063 286.042 330.438 286.042C329.813 286.042 329.396 286.146 329.188 286.042C329.084 285.937 329.188 285.833 329.396 285.625C329.605 285.521 329.917 285.312 330.334 285.312C330.751 285.312 331.063 285.417 331.272 285.521C331.688 285.833 331.793 285.937 331.688 286.042Z" fill="#263238"/>
<path d="M323.666 290C323.666 290.312 323.874 290.625 324.291 290.625C324.604 290.625 324.916 290.416 324.916 290.104C324.916 289.791 324.708 289.479 324.291 289.479C323.979 289.375 323.666 289.687 323.666 290Z" fill="#263238"/>
<path d="M322.833 288.229C322.937 288.333 323.353 288.021 323.979 288.021C324.604 288.021 325.125 288.333 325.229 288.333C325.229 288.333 325.229 288.125 325.02 288.021C324.812 287.917 324.5 287.708 324.083 287.708C323.666 287.708 323.353 287.813 323.145 288.021C322.937 288.125 322.833 288.229 322.833 288.229Z" fill="#263238"/>
<path d="M322.52 286.875C322.624 286.979 323.145 286.875 323.77 286.875C324.395 286.875 324.916 286.979 325.02 286.875C325.125 286.771 325.02 286.667 324.812 286.458C324.604 286.354 324.187 286.146 323.77 286.146C323.353 286.146 323.041 286.25 322.728 286.458C322.52 286.667 322.416 286.771 322.52 286.875Z" fill="#263238"/>
<path d="M318.665 291.354C318.665 291.042 318.352 290.104 317.936 290.104C316.998 289.896 315.331 289.896 315.227 292.292C315.018 295.521 318.352 295 318.352 295C318.352 294.792 318.665 292.604 318.665 291.354Z" fill="#FFBE9D"/>
<path d="M317.519 293.646C317.519 293.646 317.415 293.646 317.415 293.75C317.31 293.75 317.206 293.854 316.998 293.75C316.685 293.646 316.373 293.021 316.477 292.5C316.477 292.187 316.581 291.979 316.685 291.666C316.79 291.458 316.998 291.25 317.102 291.25C317.31 291.25 317.415 291.354 317.415 291.458C317.415 291.562 317.415 291.562 317.415 291.666C317.415 291.666 317.519 291.666 317.519 291.458C317.519 291.354 317.519 291.354 317.415 291.25C317.31 291.146 317.206 291.146 317.102 291.146C316.894 291.146 316.581 291.354 316.477 291.562C316.373 291.771 316.269 292.083 316.269 292.5C316.269 293.125 316.581 293.75 316.998 293.958C317.206 294.062 317.415 293.958 317.519 293.854C317.519 293.75 317.519 293.646 317.519 293.646Z" fill="#EB996E"/>
<path d="M317.936 290.104L318.769 290.937C322.312 287.604 329.188 279.062 328.876 279.583C328.876 279.583 326.479 278.542 323.77 279.062C321.166 279.479 316.165 280.833 316.269 283.958C316.269 286.979 317.936 290.104 317.936 290.104Z" fill="#263238"/>
<path d="M313.143 289.375C313.143 289.375 313.143 289.271 313.143 289.167C313.143 289.063 313.247 288.854 313.351 288.646C313.56 288.229 313.977 287.604 314.706 287.083C315.435 286.563 316.373 286.146 317.415 285.729C318.457 285.417 319.707 285.104 320.957 284.583C322.208 284.063 323.249 283.438 324.187 282.813C325.125 282.187 325.854 281.458 326.479 280.833C327.104 280.208 327.521 279.688 327.73 279.271C327.834 279.063 327.938 278.958 328.042 278.854C328.146 278.75 328.146 278.75 328.146 278.75C328.146 278.75 328.146 278.854 328.042 278.958C327.938 279.062 327.834 279.271 327.73 279.375C327.417 279.792 327 280.313 326.479 280.938C325.854 281.563 325.125 282.292 324.187 282.917C323.249 283.542 322.208 284.271 320.957 284.687C319.707 285.208 318.561 285.521 317.415 285.833C316.373 286.146 315.435 286.563 314.706 287.083C313.977 287.604 313.56 288.125 313.351 288.542C313.247 289.167 313.247 289.375 313.143 289.375Z" fill="#455A64"/>
<path d="M314.185 289.896C314.185 289.896 314.185 289.583 314.289 289.166C314.393 288.75 314.81 288.125 315.54 287.604C316.165 287.083 317.207 286.771 318.248 286.562C319.29 286.354 320.436 286.041 321.582 285.521C322.729 285 323.77 284.375 324.604 283.646C325.438 283.021 326.167 282.291 326.688 281.666C327.209 281.041 327.625 280.521 327.834 280.104C327.938 279.896 328.042 279.791 328.146 279.687C328.251 279.583 328.251 279.583 328.251 279.583C328.251 279.583 328.251 279.687 328.146 279.791C328.042 279.896 328.042 280.104 327.938 280.208C327.73 280.625 327.313 281.146 326.792 281.771C326.271 282.396 325.646 283.125 324.708 283.854C323.875 284.583 322.833 285.208 321.687 285.729C320.541 286.25 319.395 286.562 318.353 286.771C317.311 286.979 316.373 287.291 315.644 287.812C315.019 288.229 314.602 288.854 314.393 289.271C314.185 289.687 314.185 289.896 314.185 289.896Z" fill="#455A64"/>
<path d="M312.205 318.958C312.101 318.958 312.101 317.604 312.101 315.833C312.101 314.167 312.101 312.708 312.205 312.708C312.309 312.708 312.309 314.063 312.309 315.833C312.309 317.604 312.309 318.958 312.205 318.958Z" fill="#263238"/>
<path d="M334.398 318.542C334.398 318.542 334.398 318.125 334.398 317.396C334.398 316.771 334.502 315.833 334.294 314.792C334.085 313.75 333.773 312.917 333.564 312.292C333.356 311.667 333.147 311.25 333.147 311.25C333.147 311.25 333.356 311.563 333.668 312.188C333.981 312.813 334.294 313.646 334.502 314.688C334.71 315.729 334.606 316.667 334.502 317.396C334.502 318.125 334.398 318.542 334.398 318.542Z" fill="#263238"/>
<path d="M450.818 311.771H371.217C367.258 311.771 364.028 308.542 364.028 304.583V287.083L355.276 279.271H364.028H450.818C454.777 279.271 458.007 282.5 458.007 286.458V304.583C458.007 308.646 454.777 311.771 450.818 311.771Z" fill="#EBEBEB"/>
<path d="M449.776 288.854C449.776 288.958 432.377 289.167 410.913 289.167C389.45 289.167 372.051 289.062 372.051 288.854C372.051 288.646 389.45 288.542 410.913 288.542C432.377 288.646 449.776 288.75 449.776 288.854Z" fill="white"/>
<path d="M449.776 294.583C449.776 294.688 432.377 294.896 410.913 294.896C389.45 294.896 372.051 294.792 372.051 294.583C372.051 294.375 389.45 294.271 410.913 294.271C432.377 294.375 449.776 294.479 449.776 294.583Z" fill="white"/>
<path d="M449.776 300.312C449.776 300.417 432.377 300.625 410.913 300.625C389.45 300.625 372.051 300.521 372.051 300.312C372.051 300.104 389.45 300 410.913 300C432.377 300 449.776 300.104 449.776 300.312Z" fill="white"/>
<path d="M450.818 182.292H371.217C367.258 182.292 364.028 179.062 364.028 175.104V141.667L355.276 133.854H364.028H450.818C454.777 133.854 458.007 137.083 458.007 141.041V175.104C458.007 179.167 454.777 182.292 450.818 182.292Z" fill="#EBEBEB"/>
<path d="M449.776 143.542C449.776 143.646 432.377 143.854 410.913 143.854C389.45 143.854 372.051 143.75 372.051 143.542C372.051 143.333 389.45 143.229 410.913 143.229C432.377 143.229 449.776 143.333 449.776 143.542Z" fill="white"/>
<path d="M449.776 149.167C449.776 149.271 432.377 149.479 410.913 149.479C389.45 149.479 372.051 149.375 372.051 149.167C372.051 148.958 389.45 148.854 410.913 148.854C432.377 148.958 449.776 149.062 449.776 149.167Z" fill="white"/>
<path d="M449.776 154.896C449.776 155 432.377 155.208 410.913 155.208C389.45 155.208 372.051 155.104 372.051 154.896C372.051 154.688 389.45 154.583 410.913 154.583C432.377 154.688 449.776 154.792 449.776 154.896Z" fill="white"/>
<path d="M449.776 160.625C449.776 160.729 432.377 160.938 410.913 160.938C389.45 160.938 372.051 160.833 372.051 160.625C372.051 160.417 389.45 160.312 410.913 160.312C432.377 160.313 449.776 160.521 449.776 160.625Z" fill="white"/>
<path d="M449.776 166.354C449.776 166.458 432.377 166.667 410.913 166.667C389.45 166.667 372.051 166.562 372.051 166.354C372.051 166.146 389.45 166.042 410.913 166.042C432.377 166.042 449.776 166.146 449.776 166.354Z" fill="white"/>
<path d="M449.776 173.229C449.776 173.333 432.377 173.542 410.913 173.542C389.45 173.542 372.051 173.437 372.051 173.229C372.051 173.021 389.45 172.917 410.913 172.917C432.377 172.917 449.776 173.021 449.776 173.229Z" fill="white"/>
<path d="M368.572 74.0622C368.572 71.7705 370.343 70.208 372.635 70.208C373.99 70.208 375.032 70.7288 375.761 71.5622L374.615 72.6038C374.094 71.9788 373.469 71.7705 372.739 71.7705C371.281 71.7705 370.343 72.8122 370.343 74.1663C370.343 75.6247 371.385 76.5622 372.739 76.5622C373.469 76.5622 374.094 76.2497 374.615 75.6247L375.761 76.6663C375.032 77.4997 373.99 78.0205 372.635 78.0205C370.343 77.9163 368.572 76.3538 368.572 74.0622Z" fill="#263238"/>
<path d="M382.741 74.479V77.8123H381.074V74.7915C381.074 73.854 380.658 73.4373 379.928 73.4373C379.095 73.4373 378.574 73.9582 378.574 74.9998V77.9165H376.907V69.7915H378.574V72.604C378.991 72.1873 379.72 71.8748 380.449 71.8748C381.699 71.979 382.741 72.7082 382.741 74.479Z" fill="#263238"/>
<path d="M389.41 74.4792V77.8125H387.847V77.0833C387.534 77.6042 386.909 77.9167 386.076 77.9167C384.721 77.9167 383.888 77.1875 383.888 76.1458C383.888 75.1042 384.617 74.375 386.388 74.375H387.743C387.743 73.6458 387.326 73.2292 386.388 73.2292C385.763 73.2292 385.138 73.4375 384.721 73.75L384.096 72.6042C384.721 72.1875 385.659 71.875 386.597 71.875C388.368 71.9792 389.41 72.8125 389.41 74.4792ZM387.743 76.0417V75.4167H386.597C385.763 75.4167 385.555 75.7292 385.555 76.1458C385.555 76.5625 385.867 76.875 386.492 76.875C387.013 76.7708 387.534 76.5625 387.743 76.0417Z" fill="#263238"/>
<path d="M394.619 77.4998C394.307 77.7082 393.786 77.9165 393.265 77.9165C391.91 77.9165 391.077 77.1873 391.077 75.8332V73.4373H390.139V72.1873H391.077V70.729H392.744V72.1873H394.203V73.4373H392.744V75.8332C392.744 76.354 393.056 76.5623 393.473 76.5623C393.682 76.5623 393.994 76.4582 394.203 76.354L394.619 77.4998Z" fill="#263238"/>
<path d="M424.417 85.625C424.417 85.7292 406.705 85.9375 384.721 85.9375C362.841 85.9375 345.025 85.8333 345.025 85.625C345.025 85.4167 362.737 85.3125 384.721 85.3125C406.601 85.4167 424.417 85.5208 424.417 85.625Z" fill="#263238"/>
<path d="M459.529 74.0625C460.565 74.0625 461.405 73.223 461.405 72.1875C461.405 71.152 460.565 70.3125 459.529 70.3125C458.493 70.3125 457.654 71.152 457.654 72.1875C457.654 73.223 458.493 74.0625 459.529 74.0625Z" fill="#263238"/>
<path d="M461.405 77.604C461.405 78.6457 460.571 79.479 459.529 79.479C458.487 79.479 457.654 78.6457 457.654 77.604C457.654 76.5623 458.487 75.729 459.529 75.729C460.571 75.729 461.405 76.5623 461.405 77.604Z" fill="#263238"/>
<path d="M461.405 82.9165C461.405 83.9582 460.571 84.7915 459.529 84.7915C458.487 84.7915 457.654 83.9582 457.654 82.9165C457.654 81.8748 458.487 81.0415 459.529 81.0415C460.571 81.1457 461.405 81.979 461.405 82.9165Z" fill="#263238"/>
<path d="M309.496 78.4376C309.392 78.4376 309.288 78.4376 309.184 78.3334L304.287 74.7918C304.183 74.6876 304.079 74.5834 304.079 74.3751C304.079 74.1668 304.183 74.0626 304.287 73.9584L309.184 70.4168C309.392 70.2084 309.705 70.3126 309.913 70.5209C310.122 70.7293 310.017 71.0418 309.809 71.2501L305.537 74.3751L309.809 77.5001C310.017 77.7084 310.122 78.0209 309.913 78.2293C309.809 78.3334 309.705 78.4376 309.496 78.4376Z" fill="#263238"/>
<path d="M443.38 232.917C443.484 233.542 444.11 233.958 444.735 233.854C445.36 233.75 445.777 233.125 445.672 232.5C445.568 231.875 444.943 231.458 444.318 231.562C443.693 231.667 443.276 232.292 443.38 232.917Z" fill="white"/>
<path d="M430.356 232.708C430.46 233.333 431.086 233.75 431.711 233.646C432.336 233.542 432.753 232.917 432.648 232.292C432.544 231.667 431.919 231.25 431.294 231.354C430.669 231.458 430.252 232.083 430.356 232.708Z" fill="white"/>
<path d="M440.15 232.292C440.15 232.292 440.254 232.396 440.254 232.604C440.254 232.812 440.254 233.021 440.15 233.437C440.046 233.75 439.838 234.167 439.525 234.479C439.212 234.791 438.691 235.104 438.17 235.104C437.65 235.104 437.129 235 436.712 234.687C436.295 234.479 436.087 234.062 435.878 233.854C435.774 233.541 435.67 233.229 435.67 233.125C435.67 232.917 435.67 232.812 435.774 232.812C435.878 232.812 435.878 233.229 436.191 233.646C436.399 233.854 436.608 234.166 436.92 234.375C437.233 234.583 437.65 234.687 438.066 234.687C438.483 234.687 438.9 234.479 439.108 234.166C439.421 233.958 439.629 233.646 439.733 233.333C440.15 232.708 440.046 232.396 440.15 232.292Z" fill="white"/>
<path d="M309.184 254.063H388.785C392.744 254.063 395.974 250.833 395.974 246.875V223.75L404.726 215.938H395.974H309.184C305.225 215.938 301.995 219.167 301.995 223.125V246.875C301.995 250.833 305.225 254.063 309.184 254.063Z" fill="#EBEBEB"/>
<path d="M385.242 227.292C385.242 227.396 368.885 227.604 348.568 227.604C328.355 227.604 311.893 227.5 311.893 227.292C311.893 227.187 328.251 226.979 348.568 226.979C368.885 227.083 385.242 227.187 385.242 227.292Z" fill="white"/>
<path d="M385.242 233.542C385.242 233.646 368.885 233.854 348.568 233.854C328.355 233.854 311.893 233.75 311.893 233.542C311.893 233.437 328.251 233.229 348.568 233.229C368.885 233.229 385.242 233.333 385.242 233.542Z" fill="white"/>
<path d="M385.242 239.688C385.242 239.792 368.885 240 348.568 240C328.355 240 311.893 239.896 311.893 239.688C311.893 239.583 328.251 239.375 348.568 239.375C368.885 239.375 385.242 239.479 385.242 239.688Z" fill="white"/>
<path d="M385.242 245.833C385.242 245.938 368.885 246.146 348.568 246.146C328.355 246.146 311.893 246.042 311.893 245.833C311.893 245.729 328.251 245.521 348.568 245.521C368.885 245.625 385.242 245.729 385.242 245.833Z" fill="white"/>
<path d="M309.184 383.542H388.784C392.744 383.542 395.974 380.312 395.974 376.354V353.229L404.725 345.417H395.974H309.184C305.224 345.417 301.995 348.646 301.995 352.604V376.354C301.995 380.312 305.224 383.542 309.184 383.542Z" fill="#EBEBEB"/>
<path d="M309.184 419.688H388.784C392.744 419.688 395.974 416.458 395.974 412.5V404.896L404.725 397.083H395.974H309.184C305.224 397.083 301.995 400.313 301.995 404.271V412.604C301.995 416.458 305.224 419.688 309.184 419.688Z" fill="#EBEBEB"/>
<path d="M385.242 356.771C385.242 356.875 368.884 357.083 348.567 357.083C328.355 357.083 311.893 356.979 311.893 356.771C311.893 356.563 328.25 356.458 348.567 356.458C368.884 356.458 385.242 356.563 385.242 356.771Z" fill="white"/>
<path d="M385.242 362.916C385.242 363.021 368.884 363.229 348.567 363.229C328.355 363.229 311.893 363.125 311.893 362.916C311.893 362.812 328.25 362.604 348.567 362.604C368.884 362.708 385.242 362.812 385.242 362.916Z" fill="white"/>
<path d="M385.242 369.166C385.242 369.271 368.884 369.479 348.567 369.479C328.355 369.479 311.893 369.375 311.893 369.166C311.893 368.958 328.25 368.854 348.567 368.854C368.884 368.854 385.242 368.958 385.242 369.166Z" fill="white"/>
<path d="M385.242 375.312C385.242 375.417 368.884 375.625 348.567 375.625C328.355 375.625 311.893 375.521 311.893 375.312C311.893 375.104 328.25 375 348.567 375C368.884 375 385.242 375.208 385.242 375.312Z" fill="white"/>
<path d="M385.555 408.646C385.555 408.75 369.301 408.958 349.297 408.958C329.293 408.958 313.039 408.854 313.039 408.646C313.039 408.438 329.293 408.333 349.297 408.333C369.301 408.438 385.555 408.542 385.555 408.646Z" fill="white"/>
<path d="M119.038 393.646C121.851 394.271 124.248 396.25 125.81 398.646C127.373 401.146 127.998 403.959 128.311 406.875C128.832 412.396 126.957 418.542 124.56 423.542C119.142 420.521 116.642 413.854 115.6 410.313C113.724 404.792 114.141 393.75 119.038 393.646Z" fill="#455A64"/>
<path d="M131.645 431.354C130.29 428.438 130.811 424.792 132.791 422.188C134.666 419.583 137.792 418.021 141.022 417.604C142.48 417.396 144.147 417.5 145.189 418.542C146.231 419.479 146.44 421.042 146.023 422.396C145.606 423.75 144.773 424.896 143.731 425.833C140.292 429.167 136.333 431.667 131.645 431.354Z" fill="#455A64"/>
<path d="M129.248 449.167C129.248 449.167 129.248 448.75 129.144 448.021C129.144 447.188 129.144 446.146 129.04 444.896C129.04 442.292 128.936 438.542 130.082 434.583C131.228 430.729 133.416 427.604 135.396 425.833C136.438 424.896 137.271 424.375 137.896 423.958C138.209 423.75 138.521 423.646 138.625 423.542C138.834 423.438 138.938 423.438 138.938 423.438C138.938 423.542 137.479 424.167 135.5 425.937C133.624 427.708 131.541 430.833 130.395 434.583C129.248 438.438 129.248 442.083 129.248 444.688C129.248 446.042 129.248 447.083 129.248 447.813C129.353 448.75 129.353 449.167 129.248 449.167Z" fill="#263238"/>
<path d="M119.455 401.979C119.455 401.979 119.559 402.187 119.663 402.5C119.767 402.812 119.871 403.333 120.08 403.854C120.392 405.104 120.809 406.771 121.33 408.958C122.372 413.229 123.726 419.271 125.185 425.833C126.539 432.5 127.686 438.542 128.415 442.917C128.832 445.104 129.04 446.875 129.248 448.125C129.353 448.75 129.353 449.167 129.457 449.583C129.457 449.896 129.561 450.104 129.457 450.104C129.457 450.104 129.353 449.896 129.353 449.583C129.248 449.271 129.144 448.75 129.04 448.229C128.832 446.979 128.519 445.208 128.102 443.021C127.269 438.646 126.123 432.604 124.768 426.042C123.414 419.375 122.059 413.437 121.122 409.062C120.601 406.979 120.288 405.208 119.976 403.958C119.871 403.437 119.767 402.917 119.663 402.604C119.559 402.187 119.455 401.979 119.455 401.979Z" fill="#263238"/>
<path d="M124.456 436.25C122.06 429.896 116.329 424.896 109.765 423.333C108.098 422.916 106.014 422.916 104.973 424.271C103.931 425.625 104.66 427.604 105.598 429.062C109.557 435.104 117.371 438.229 124.456 436.666" fill="#455A64"/>
<path d="M111.536 428.333C111.536 428.333 111.953 428.333 112.578 428.542C112.891 428.646 113.307 428.75 113.828 428.854C114.245 429.063 114.87 429.167 115.391 429.479C115.912 429.688 116.641 430 117.267 430.313C117.892 430.625 118.621 431.042 119.246 431.458C120.601 432.396 122.059 433.542 123.31 434.896C124.56 436.25 125.602 437.813 126.435 439.271C126.852 440 127.165 440.729 127.477 441.354C127.79 441.979 127.998 442.708 128.206 443.229C128.415 443.854 128.519 444.375 128.623 444.896C128.727 445.417 128.832 445.833 128.832 446.146C128.936 446.875 128.936 447.188 128.936 447.188C128.832 447.188 128.727 445.625 127.894 443.334C127.686 442.709 127.477 442.083 127.165 441.458C126.852 440.833 126.539 440.104 126.123 439.375C125.289 438.021 124.247 436.459 122.997 435.104C121.747 433.75 120.288 432.604 119.038 431.667C118.308 431.25 117.683 430.833 117.058 430.521C116.433 430.104 115.808 429.896 115.287 429.583C113.099 428.75 111.536 428.438 111.536 428.333Z" fill="#263238"/>
<circle cx="441.34" cy="233.34" r="23.34" fill="#EBEBEB"/>
<mask id="mask0_813_5064" style="mask-type:alpha" maskUnits="userSpaceOnUse" x="418" y="210" width="47" height="47">
<circle cx="441.34" cy="233.34" r="23.34" fill="#EBEBEB"/>
</mask>
<g mask="url(#mask0_813_5064)">
<path d="M432.308 239.963C431.311 238.784 430.223 237.605 429.497 236.245C428.772 234.885 428.319 233.343 428.5 231.802C428.681 230.895 429.044 230.079 429.044 229.172C429.135 227.903 428.591 226.633 429.044 225.454C429.769 223.641 432.218 223.369 433.669 222.099C434.847 221.102 435.391 219.56 436.661 218.653C437.749 217.928 439.2 217.928 440.56 218.109C441.92 218.291 443.19 218.653 444.55 218.472C445.457 218.381 446.363 217.928 447.27 217.747C448.177 217.565 449.174 217.475 450.081 217.928C450.897 218.472 451.35 219.56 450.806 220.376C452.348 219.651 454.252 220.83 454.706 222.462C455.159 224.094 454.252 225.817 452.983 226.905C451.713 227.993 449.99 228.447 448.358 228.809C443.643 229.716 438.565 229.172 434.575 226.633" fill="#263238"/>
<path d="M453.889 244.95C453.708 242.048 452.892 236.154 452.166 230.804C451.35 225.001 446.182 220.92 440.378 221.283H439.834C433.668 222.099 430.857 227.812 431.764 233.978L433.578 256.194L440.854 258.139L448.721 256.194L448.358 252.295C448.358 252.295 454.252 251.025 453.889 244.95Z" fill="#FFBE9D"/>
<path d="M448.358 252.204C448.358 252.204 444.64 252.748 440.378 250.481C440.378 250.481 442.555 254.652 448.449 253.745L448.358 252.204Z" fill="#EB996E"/>
<path d="M450.262 235.972C450.353 236.426 449.99 236.788 449.536 236.879C449.083 236.97 448.63 236.607 448.63 236.154C448.539 235.7 448.902 235.338 449.355 235.247C449.718 235.156 450.171 235.519 450.262 235.972Z" fill="#263238"/>
<path d="M451.078 233.797C450.987 233.887 450.262 233.434 449.355 233.525C448.449 233.615 447.814 234.069 447.723 233.978C447.632 233.887 447.723 233.706 448.086 233.525C448.358 233.252 448.811 233.071 449.446 232.98C449.99 232.98 450.534 233.162 450.806 233.343C450.988 233.615 451.078 233.797 451.078 233.797Z" fill="#263238"/>
<path d="M441.557 236.608C441.647 237.061 441.285 237.424 440.831 237.514C440.378 237.605 439.925 237.242 439.925 236.789C439.834 236.336 440.197 235.973 440.65 235.882C441.103 235.791 441.466 236.154 441.557 236.608Z" fill="#263238"/>
<path d="M442.011 234.612C441.92 234.703 441.195 234.34 440.288 234.34C439.381 234.431 438.746 234.885 438.656 234.794C438.565 234.703 438.656 234.522 439.018 234.34C439.29 234.068 439.744 233.887 440.379 233.796C440.923 233.796 441.467 233.978 441.739 234.159C442.011 234.34 442.101 234.522 442.011 234.612Z" fill="#263238"/>
<path d="M445.819 241.232C445.819 241.141 446.363 241.051 447.27 240.869C447.542 240.869 447.723 240.779 447.723 240.597C447.723 240.416 447.633 240.144 447.542 239.872C447.27 239.328 446.998 238.693 446.726 238.149C445.547 235.701 444.731 233.615 444.822 233.615C444.912 233.615 445.91 235.519 447.089 238.058C447.361 238.693 447.633 239.237 447.905 239.781C447.995 240.053 448.177 240.325 448.086 240.688C447.995 240.869 447.905 241.051 447.723 241.051C447.542 241.141 447.451 241.141 447.361 241.141C446.454 241.232 445.819 241.232 445.819 241.232Z" fill="#263238"/>
<path d="M442.011 230.985C441.92 231.257 441.013 231.167 439.925 231.348C438.837 231.53 438.021 231.892 437.84 231.711C437.749 231.62 437.93 231.348 438.202 231.076C438.565 230.804 439.109 230.532 439.744 230.441C440.378 230.351 441.013 230.351 441.376 230.532C441.829 230.713 442.101 230.895 442.011 230.985Z" fill="#263238"/>
<path d="M450.534 231.167C450.353 231.348 449.718 231.167 448.993 231.258C448.267 231.258 447.632 231.53 447.451 231.258C447.36 231.167 447.451 230.895 447.723 230.714C447.995 230.532 448.448 230.351 448.993 230.26C449.537 230.26 449.99 230.442 450.262 230.623C450.534 230.895 450.625 231.076 450.534 231.167Z" fill="#263238"/>
<path d="M432.489 238.421C432.399 238.421 428.318 237.515 428.681 241.595C429.044 245.675 433.487 244.315 433.487 244.225C433.487 244.043 432.489 238.421 432.489 238.421Z" fill="#FFBE9D"/>
<path d="M431.764 242.864C431.764 242.864 431.673 242.955 431.583 242.955C431.401 243.046 431.22 243.046 431.038 243.046C430.585 242.955 430.132 242.32 430.041 241.504C429.95 241.142 430.041 240.779 430.132 240.507C430.222 240.235 430.404 239.963 430.585 239.872C430.766 239.781 430.948 239.872 431.038 240.053C431.129 240.144 431.129 240.235 431.129 240.235C431.129 240.235 431.22 240.144 431.129 239.963C431.129 239.872 431.038 239.781 430.948 239.691C430.857 239.6 430.676 239.6 430.585 239.6C430.313 239.691 430.041 239.963 429.86 240.326C429.769 240.688 429.678 241.051 429.769 241.504C429.86 242.32 430.404 243.046 430.948 243.136C431.22 243.227 431.492 243.046 431.583 242.955C431.764 242.955 431.764 242.864 431.764 242.864Z" fill="#EB996E"/>
<path d="M451.803 225.182C451.531 226.814 448.267 228.265 445.456 228.175C442.917 228.084 441.647 226.814 439.834 225.998C438.655 225.454 438.655 225.454 437.114 225.726C435.844 225.908 435.209 227.449 434.484 228.537C435.844 231.53 435.3 234.975 434.756 238.149C434.665 238.512 434.575 238.874 434.303 239.146C433.849 239.509 433.124 239.328 432.67 238.874C431.945 238.24 431.582 237.242 431.401 236.245C430.857 234.068 430.676 231.802 431.038 229.625C431.401 227.449 432.308 225.273 433.759 223.641C435.663 221.555 438.383 220.376 441.194 220.286C444.005 220.104 446.816 221.011 449.083 222.553C450.262 223.187 451.259 224.094 451.803 225.182Z" fill="#263238"/>
<path d="M446.454 243.227C445.729 242.864 445.094 242.592 444.369 242.229C444.278 242.139 444.097 242.139 444.006 242.139C443.825 242.139 443.734 242.229 443.643 242.411C443.19 242.955 443.008 243.862 443.371 244.496C443.734 245.131 444.641 245.494 445.366 245.222C446.091 244.95 446.454 244.134 446.454 243.227Z" fill="#EB996E"/>
<path d="M445.366 245.403C445.366 245.403 444.912 245.766 444.187 245.494C443.824 245.403 443.371 245.131 443.099 244.587C442.827 244.134 442.736 243.499 442.918 242.864C443.008 242.592 443.19 242.32 443.462 242.139C443.552 242.048 443.643 241.958 443.824 241.867C443.915 241.776 444.278 241.776 444.368 241.867C444.822 242.139 445.185 242.32 445.457 242.592C446.091 242.955 446.454 243.318 446.363 243.318C446.363 243.408 445.91 243.227 445.275 242.864C444.912 242.683 444.55 242.502 444.187 242.32C444.096 242.32 444.096 242.32 444.006 242.32C443.915 242.411 443.824 242.411 443.734 242.502C443.552 242.683 443.462 242.864 443.371 243.136C443.19 243.59 443.28 244.043 443.462 244.496C443.643 244.859 444.006 245.131 444.278 245.313C444.912 245.494 445.366 245.403 445.366 245.403Z" fill="#263238"/>
<path d="M444.731 236.064C444.641 236.064 444.731 235.701 444.55 235.066C444.368 234.431 443.915 233.525 443.008 232.799C442.102 232.074 440.56 231.711 439.109 232.255C437.658 232.709 436.48 234.25 436.48 236.064C436.48 237.877 437.658 239.328 439.109 239.872C440.56 240.416 442.011 240.053 443.008 239.328C443.915 238.602 444.368 237.696 444.55 237.061C444.731 236.426 444.731 236.064 444.731 236.064C444.731 236.064 444.731 236.154 444.731 236.336C444.731 236.517 444.731 236.789 444.641 237.152C444.55 237.786 444.096 238.784 443.099 239.6C442.102 240.416 440.469 240.869 438.928 240.325C437.296 239.781 435.936 238.149 435.936 236.154C435.936 234.159 437.296 232.436 438.928 231.983C440.56 231.439 442.192 231.892 443.099 232.709C444.096 233.525 444.55 234.522 444.641 235.157C444.731 235.519 444.731 235.792 444.731 235.973C444.731 235.973 444.731 236.064 444.731 236.064Z" fill="#263238"/>
<path d="M454.887 235.61C454.796 235.61 454.887 235.247 454.705 234.612C454.524 233.978 454.071 233.071 453.164 232.436C452.257 231.711 450.806 231.348 449.446 231.892C448.086 232.346 446.817 233.887 446.907 235.61C446.907 237.333 448.086 238.784 449.446 239.328C450.806 239.872 452.348 239.509 453.164 238.784C454.071 238.149 454.524 237.242 454.705 236.607C454.887 236.063 454.887 235.61 454.887 235.61C454.887 235.61 454.887 235.701 454.887 235.882C454.887 236.063 454.887 236.335 454.796 236.607C454.705 237.242 454.252 238.24 453.255 238.965C452.348 239.781 450.716 240.234 449.174 239.6C447.633 239.056 446.272 237.423 446.272 235.519C446.272 233.615 447.633 231.892 449.174 231.439C450.716 230.895 452.348 231.348 453.255 232.074C454.252 232.89 454.615 233.796 454.796 234.431C454.887 234.794 454.887 235.066 454.887 235.157C454.977 235.519 454.977 235.61 454.887 235.61Z" fill="#263238"/>
<path d="M446.636 234.704C446.545 234.794 446.182 234.522 445.638 234.522C445.094 234.522 444.731 234.794 444.641 234.704C444.55 234.613 444.913 234.069 445.638 234.069C446.364 234.069 446.726 234.613 446.636 234.704Z" fill="#263238"/>
<path d="M436.48 235.428C436.57 235.519 435.754 236.244 434.666 237.06C433.578 237.877 432.671 238.421 432.581 238.33C432.49 238.239 433.306 237.514 434.394 236.698C435.482 235.882 436.389 235.338 436.48 235.428Z" fill="#263238"/>
</g>
<circle cx="441.34" cy="363.34" r="23.34" fill="#EBEBEB"/>
<mask id="mask1_813_5064" style="mask-type:alpha" maskUnits="userSpaceOnUse" x="418" y="340" width="47" height="47">
<circle cx="441.34" cy="363.34" r="23.34" fill="#EBEBEB"/>
</mask>
<g mask="url(#mask1_813_5064)">
<path d="M432.308 369.963C431.311 368.784 430.223 367.605 429.497 366.245C428.772 364.885 428.319 363.343 428.5 361.802C428.681 360.895 429.044 360.079 429.044 359.172C429.135 357.903 428.591 356.633 429.044 355.454C429.769 353.641 432.218 353.369 433.669 352.099C434.847 351.102 435.391 349.56 436.661 348.653C437.749 347.928 439.2 347.928 440.56 348.109C441.92 348.291 443.19 348.653 444.55 348.472C445.457 348.381 446.363 347.928 447.27 347.747C448.177 347.565 449.174 347.475 450.081 347.928C450.897 348.472 451.35 349.56 450.806 350.376C452.348 349.651 454.252 350.83 454.706 352.462C455.159 354.094 454.252 355.817 452.983 356.905C451.713 357.993 449.99 358.447 448.358 358.809C443.643 359.716 438.565 359.172 434.575 356.633" fill="#263238"/>
<path d="M453.889 374.95C453.708 372.048 452.892 366.154 452.166 360.804C451.35 355.001 446.182 350.92 440.378 351.283H439.834C433.668 352.099 430.857 357.812 431.764 363.978L433.578 386.194L440.854 388.139L448.721 386.194L448.358 382.295C448.358 382.295 454.252 381.025 453.889 374.95Z" fill="#FFBE9D"/>
<path d="M448.358 382.204C448.358 382.204 444.64 382.748 440.378 380.481C440.378 380.481 442.555 384.652 448.449 383.745L448.358 382.204Z" fill="#EB996E"/>
<path d="M450.262 365.972C450.353 366.426 449.99 366.788 449.536 366.879C449.083 366.97 448.63 366.607 448.63 366.154C448.539 365.7 448.902 365.338 449.355 365.247C449.718 365.156 450.171 365.519 450.262 365.972Z" fill="#263238"/>
<path d="M451.078 363.797C450.987 363.887 450.262 363.434 449.355 363.525C448.449 363.615 447.814 364.069 447.723 363.978C447.632 363.887 447.723 363.706 448.086 363.525C448.358 363.252 448.811 363.071 449.446 362.98C449.99 362.98 450.534 363.162 450.806 363.343C450.988 363.615 451.078 363.797 451.078 363.797Z" fill="#263238"/>
<path d="M441.557 366.608C441.647 367.061 441.285 367.424 440.831 367.514C440.378 367.605 439.925 367.242 439.925 366.789C439.834 366.336 440.197 365.973 440.65 365.882C441.103 365.791 441.466 366.154 441.557 366.608Z" fill="#263238"/>
<path d="M442.011 364.612C441.92 364.703 441.195 364.34 440.288 364.34C439.381 364.431 438.746 364.885 438.656 364.794C438.565 364.703 438.656 364.522 439.018 364.34C439.29 364.068 439.744 363.887 440.379 363.796C440.923 363.796 441.467 363.978 441.739 364.159C442.011 364.34 442.101 364.522 442.011 364.612Z" fill="#263238"/>
<path d="M445.819 371.232C445.819 371.141 446.363 371.051 447.27 370.869C447.542 370.869 447.723 370.779 447.723 370.597C447.723 370.416 447.633 370.144 447.542 369.872C447.27 369.328 446.998 368.693 446.726 368.149C445.547 365.701 444.731 363.615 444.822 363.615C444.912 363.615 445.91 365.519 447.089 368.058C447.361 368.693 447.633 369.237 447.905 369.781C447.995 370.053 448.177 370.325 448.086 370.688C447.995 370.869 447.905 371.051 447.723 371.051C447.542 371.141 447.451 371.141 447.361 371.141C446.454 371.232 445.819 371.232 445.819 371.232Z" fill="#263238"/>
<path d="M442.011 360.985C441.92 361.257 441.013 361.167 439.925 361.348C438.837 361.53 438.021 361.892 437.84 361.711C437.749 361.62 437.93 361.348 438.202 361.076C438.565 360.804 439.109 360.532 439.744 360.441C440.378 360.351 441.013 360.351 441.376 360.532C441.829 360.713 442.101 360.895 442.011 360.985Z" fill="#263238"/>
<path d="M450.534 361.167C450.353 361.348 449.718 361.167 448.993 361.258C448.267 361.258 447.632 361.53 447.451 361.258C447.36 361.167 447.451 360.895 447.723 360.714C447.995 360.532 448.448 360.351 448.993 360.26C449.537 360.26 449.99 360.442 450.262 360.623C450.534 360.895 450.625 361.076 450.534 361.167Z" fill="#263238"/>
<path d="M432.489 368.421C432.399 368.421 428.318 367.515 428.681 371.595C429.044 375.675 433.487 374.315 433.487 374.225C433.487 374.043 432.489 368.421 432.489 368.421Z" fill="#FFBE9D"/>
<path d="M431.764 372.864C431.764 372.864 431.673 372.955 431.583 372.955C431.401 373.046 431.22 373.046 431.038 373.046C430.585 372.955 430.132 372.32 430.041 371.504C429.95 371.142 430.041 370.779 430.132 370.507C430.222 370.235 430.404 369.963 430.585 369.872C430.766 369.781 430.948 369.872 431.038 370.053C431.129 370.144 431.129 370.235 431.129 370.235C431.129 370.235 431.22 370.144 431.129 369.963C431.129 369.872 431.038 369.781 430.948 369.691C430.857 369.6 430.676 369.6 430.585 369.6C430.313 369.691 430.041 369.963 429.86 370.326C429.769 370.688 429.678 371.051 429.769 371.504C429.86 372.32 430.404 373.046 430.948 373.136C431.22 373.227 431.492 373.046 431.583 372.955C431.764 372.955 431.764 372.864 431.764 372.864Z" fill="#EB996E"/>
<path d="M451.803 355.182C451.531 356.814 448.267 358.265 445.456 358.175C442.917 358.084 441.647 356.814 439.834 355.998C438.655 355.454 438.655 355.454 437.114 355.726C435.844 355.908 435.209 357.449 434.484 358.537C435.844 361.53 435.3 364.975 434.756 368.149C434.665 368.512 434.575 368.874 434.303 369.146C433.849 369.509 433.124 369.328 432.67 368.874C431.945 368.24 431.582 367.242 431.401 366.245C430.857 364.068 430.676 361.802 431.038 359.625C431.401 357.449 432.308 355.273 433.759 353.641C435.663 351.555 438.383 350.376 441.194 350.286C444.005 350.104 446.816 351.011 449.083 352.553C450.262 353.187 451.259 354.094 451.803 355.182Z" fill="#263238"/>
<path d="M446.454 373.227C445.729 372.864 445.094 372.592 444.369 372.229C444.278 372.139 444.097 372.139 444.006 372.139C443.825 372.139 443.734 372.229 443.643 372.411C443.19 372.955 443.008 373.862 443.371 374.496C443.734 375.131 444.641 375.494 445.366 375.222C446.091 374.95 446.454 374.134 446.454 373.227Z" fill="#EB996E"/>
<path d="M445.366 375.403C445.366 375.403 444.912 375.766 444.187 375.494C443.824 375.403 443.371 375.131 443.099 374.587C442.827 374.134 442.736 373.499 442.918 372.864C443.008 372.592 443.19 372.32 443.462 372.139C443.552 372.048 443.643 371.958 443.824 371.867C443.915 371.776 444.278 371.776 444.368 371.867C444.822 372.139 445.185 372.32 445.457 372.592C446.091 372.955 446.454 373.318 446.363 373.318C446.363 373.408 445.91 373.227 445.275 372.864C444.912 372.683 444.55 372.502 444.187 372.32C444.096 372.32 444.096 372.32 444.006 372.32C443.915 372.411 443.824 372.411 443.734 372.502C443.552 372.683 443.462 372.864 443.371 373.136C443.19 373.59 443.28 374.043 443.462 374.496C443.643 374.859 444.006 375.131 444.278 375.313C444.912 375.494 445.366 375.403 445.366 375.403Z" fill="#263238"/>
<path d="M444.731 366.064C444.641 366.064 444.731 365.701 444.55 365.066C444.368 364.431 443.915 363.525 443.008 362.799C442.102 362.074 440.56 361.711 439.109 362.255C437.658 362.709 436.48 364.25 436.48 366.064C436.48 367.877 437.658 369.328 439.109 369.872C440.56 370.416 442.011 370.053 443.008 369.328C443.915 368.602 444.368 367.696 444.55 367.061C444.731 366.426 444.731 366.064 444.731 366.064C444.731 366.064 444.731 366.154 444.731 366.336C444.731 366.517 444.731 366.789 444.641 367.152C444.55 367.786 444.096 368.784 443.099 369.6C442.102 370.416 440.469 370.869 438.928 370.325C437.296 369.781 435.936 368.149 435.936 366.154C435.936 364.159 437.296 362.436 438.928 361.983C440.56 361.439 442.192 361.892 443.099 362.709C444.096 363.525 444.55 364.522 444.641 365.157C444.731 365.519 444.731 365.792 444.731 365.973C444.731 365.973 444.731 366.064 444.731 366.064Z" fill="#263238"/>
<path d="M454.887 365.61C454.796 365.61 454.887 365.247 454.705 364.612C454.524 363.978 454.071 363.071 453.164 362.436C452.257 361.711 450.806 361.348 449.446 361.892C448.086 362.346 446.817 363.887 446.907 365.61C446.907 367.333 448.086 368.784 449.446 369.328C450.806 369.872 452.348 369.509 453.164 368.784C454.071 368.149 454.524 367.242 454.705 366.607C454.887 366.063 454.887 365.61 454.887 365.61C454.887 365.61 454.887 365.701 454.887 365.882C454.887 366.063 454.887 366.335 454.796 366.607C454.705 367.242 454.252 368.24 453.255 368.965C452.348 369.781 450.716 370.234 449.174 369.6C447.633 369.056 446.272 367.423 446.272 365.519C446.272 363.615 447.633 361.892 449.174 361.439C450.716 360.895 452.348 361.348 453.255 362.074C454.252 362.89 454.615 363.796 454.796 364.431C454.887 364.794 454.887 365.066 454.887 365.157C454.977 365.519 454.977 365.61 454.887 365.61Z" fill="#263238"/>
<path d="M446.636 364.704C446.545 364.794 446.182 364.522 445.638 364.522C445.094 364.522 444.731 364.794 444.641 364.704C444.55 364.613 444.913 364.069 445.638 364.069C446.364 364.069 446.726 364.613 446.636 364.704Z" fill="#263238"/>
<path d="M436.48 365.428C436.57 365.519 435.754 366.244 434.666 367.06C433.578 367.877 432.671 368.421 432.581 368.33C432.49 368.239 433.306 367.514 434.394 366.698C435.482 365.882 436.389 365.338 436.48 365.428Z" fill="#263238"/>
</g>
<path d="M103.048 87.8721H21.868H0.197754L16.9704 99.9484V123.765C16.9704 126.516 19.1844 128.73 21.9351 128.73H103.115C105.865 128.73 108.079 126.516 108.079 123.765V92.8368C108.079 90.0861 105.798 87.8721 103.048 87.8721Z" fill="#F5F5F5"/>
<path d="M98.7539 104.645C98.7539 104.712 83.256 104.846 64.0681 104.846C44.9473 104.846 29.3823 104.779 29.3823 104.645C29.3823 104.578 44.8802 104.443 64.0681 104.443C83.256 104.51 98.7539 104.578 98.7539 104.645Z" fill="#E0E0E0"/>
<path d="M98.7539 113.836C98.7539 113.903 83.256 114.037 64.0681 114.037C44.9473 114.037 29.3823 113.97 29.3823 113.836C29.3823 113.769 44.8802 113.635 64.0681 113.635C83.256 113.635 98.7539 113.702 98.7539 113.836Z" fill="#E0E0E0"/>
<path d="M349.195 351.202H56.7479C51.3806 351.202 46.9526 346.842 46.9526 341.407V154.627C46.9526 149.26 51.3135 144.832 56.7479 144.832H349.195C354.563 144.832 358.991 149.193 358.991 154.627V341.407C358.991 346.842 354.63 351.202 349.195 351.202Z" fill="#FF7213"/>
<path d="M362.882 355.899H48.697C42.1221 355.899 36.7549 350.532 36.7549 343.957V337.852H374.824V343.957C374.824 350.599 369.457 355.899 362.882 355.899Z" fill="#FF7213"/>
<path d="M172.21 335.906L176.437 342.615H235.41L239.368 335.906H172.21Z" fill="#B34800"/>
<path d="M356.307 335.906C356.307 336.04 287.069 336.107 201.663 336.107C116.257 336.107 47.0195 336.04 47.0195 335.906C47.0195 335.772 116.257 335.705 201.663 335.705C287.069 335.705 356.307 335.839 356.307 335.906Z" fill="#263238"/>
<path d="M346.646 330.471H58.09C56.8823 330.471 55.876 329.465 55.876 328.257V158.921C55.876 157.713 56.8823 156.707 58.09 156.707H346.646C347.854 156.707 348.86 157.713 348.86 158.921V328.257C348.793 329.532 347.854 330.471 346.646 330.471Z" fill="#EBEBEB"/>
<path d="M348.525 330.74H55.6074L55.8758 169.723H348.525V330.74Z" fill="white"/>
<path d="M79.9615 163.416C79.9615 164.691 78.888 165.764 77.6133 165.764C76.3386 165.764 75.2651 164.691 75.2651 163.416C75.2651 162.141 76.3386 161.068 77.6133 161.068C78.888 161.068 79.9615 162.141 79.9615 163.416Z" fill="#263238"/>
<path d="M65.7383 163.416C65.7383 164.691 64.6649 165.764 63.3902 165.764C62.1154 165.764 61.042 164.691 61.042 163.416C61.042 162.141 62.1154 161.068 63.3902 161.068C64.732 161.135 65.7383 162.141 65.7383 163.416Z" fill="#263238"/>
<path d="M72.5811 163.416C72.5811 164.691 71.5077 165.764 70.2329 165.764C68.9582 165.764 67.8848 164.691 67.8848 163.416C67.8848 162.141 68.9582 161.068 70.2329 161.068C71.5077 161.135 72.5811 162.141 72.5811 163.416Z" fill="#263238"/>
<path d="M349.061 325.842H55.8755V330.539H349.061V325.842Z" fill="#B24800"/>
<path d="M195.499 222H115.665C113.186 222 111.164 220 111.164 217.548V196.839L105.685 192H111.164H195.499C197.978 192 200 194 200 196.452V217.548C200 220.065 197.978 222 195.499 222Z" fill="#EBEBEB"/>
<path d="M192.187 198C192.187 198.065 175.173 198.194 154.187 198.194C133.2 198.194 116.187 198.129 116.187 198C116.187 197.871 133.2 197.807 154.187 197.807C175.173 197.807 192.187 197.871 192.187 198Z" fill="white"/>
<path d="M192.187 201.484C192.187 201.549 175.173 201.678 154.187 201.678C133.2 201.678 116.187 201.613 116.187 201.484C116.187 201.355 133.2 201.291 154.187 201.291C175.173 201.355 192.187 201.42 192.187 201.484Z" fill="white"/>
<path d="M192.187 205.032C192.187 205.097 175.173 205.226 154.187 205.226C133.2 205.226 116.187 205.161 116.187 205.032C116.187 204.903 133.2 204.839 154.187 204.839C175.173 204.903 192.187 204.968 192.187 205.032Z" fill="white"/>
<path d="M192.187 208.581C192.187 208.645 175.173 208.774 154.187 208.774C133.2 208.774 116.187 208.71 116.187 208.581C116.187 208.452 133.2 208.387 154.187 208.387C175.173 208.387 192.187 208.516 192.187 208.581Z" fill="white"/>
<path d="M192.187 212.129C192.187 212.194 175.173 212.323 154.187 212.323C133.2 212.323 116.187 212.258 116.187 212.129C116.187 212 133.2 211.936 154.187 211.936C175.173 211.936 192.187 212 192.187 212.129Z" fill="white"/>
<path d="M192.187 216.387C192.187 216.451 175.173 216.58 154.187 216.58C133.2 216.58 116.187 216.516 116.187 216.387C116.187 216.258 133.2 216.193 154.187 216.193C175.173 216.193 192.187 216.258 192.187 216.387Z" fill="white"/>
<path d="M84.6111 220.903C92.6806 220.903 99.2222 214.433 99.2222 206.452C99.2222 198.47 92.6806 192 84.6111 192C76.5416 192 70 198.47 70 206.452C70 214.433 76.5416 220.903 84.6111 220.903Z" fill="#E0E0E0"/>
<path d="M77.7622 210.065L81.6107 209.742L90.9383 211.291L92.0472 218.258L91.9167 219.097C87.416 221.549 82.3282 221.549 78.0231 219.42L77.7622 210.065Z" fill="#455A64"/>
<path d="M88.916 211.226C88.916 211.226 91.8513 210.645 93.7429 213.355C94.917 214.968 95.5041 216.065 95.5041 216.065C94.0038 217.678 92.7645 218.968 90.6119 219.678L88.916 211.226Z" fill="#455A64"/>
<path d="M77.7623 210.065C77.7623 210.065 75.2184 210.388 74.24 212.517C73.2616 214.646 73.0659 215.291 73.0659 215.291C74.3705 216.839 76.0664 218.71 78.0885 219.355C78.0885 219.355 78.5451 214 78.6103 212.452C78.6755 210.839 78.7408 210 77.7623 210.065Z" fill="#455A64"/>
<path d="M80.0449 196.387C81.4147 194.709 83.2411 193.806 85.3937 193.742C86.633 193.742 87.0896 194 88.0028 194.193C88.8507 194.451 89.6987 194.903 90.2205 195.613C90.8728 196.451 91.3946 197.484 91.4599 198.516C91.5903 199.613 91.7208 200.709 91.5903 201.806C91.5251 202.903 91.199 204 90.5467 204.903L87.7419 205.355C86.1764 205.419 84.6109 205.484 83.1107 205.097C81.6104 204.774 80.1102 203.935 79.3274 202.645C78.2185 200.838 78.6751 198.064 80.0449 196.387Z" fill="#263238"/>
<path d="M77.3705 204.451C77.4357 203.806 77.7619 203.225 78.3489 202.903C78.8707 202.58 79.6535 202.645 80.1101 203.032L80.5667 203.548C81.2842 203.871 81.6755 204.645 81.6103 205.354C81.5451 206.064 80.9581 206.774 80.2406 206.967C79.523 207.161 78.6751 206.967 78.1532 206.451C77.501 206 77.24 205.161 77.3705 204.451Z" fill="#263238"/>
<path d="M77.8923 206.322C77.8923 206.322 77.6966 206.129 77.7618 205.742C77.7618 205.354 78.0227 204.903 78.4141 204.516C78.8054 204.064 79.1968 203.806 79.523 203.613C79.8491 203.419 80.11 203.354 80.0448 203.354C80.0448 203.354 79.7839 203.354 79.4577 203.548C79.1316 203.677 78.675 204 78.2836 204.451C78.0879 204.645 77.9575 204.903 77.827 205.161C77.6966 205.354 77.6313 205.613 77.6313 205.806C77.6313 206 77.6966 206.129 77.7618 206.258C77.827 206.322 77.8923 206.322 77.8923 206.322Z" fill="#455A64"/>
<path d="M87.7419 210.709V208.129C87.7419 208.129 90.0249 207.871 90.6771 204.967C91.0033 203.548 91.0685 201.161 91.0033 199.161C91.0033 197.419 89.4378 195.032 87.2853 194.967L86.3069 194.838L82.5888 196.322C82.067 196.322 81.6104 196.774 81.6104 197.29L81.48 209.677L83.1759 212.064C84.6109 214.129 87.7419 213.096 87.7419 210.709Z" fill="#FFBE9D"/>
<path d="M86.3068 204.322C86.3068 204.193 86.4373 204.064 86.5025 203.935C86.6982 203.742 87.0243 203.742 87.2852 203.871C87.5462 204 87.6766 204.387 87.6114 204.645C87.4809 204.838 87.2852 204.967 87.0243 204.967C86.9591 204.967 86.9591 204.967 86.8939 204.967C86.6982 204.967 86.5678 204.903 86.4373 204.774C86.3068 204.709 86.2416 204.516 86.3068 204.322Z" fill="#EB996E"/>
<path d="M89.6988 201.225C89.6988 201.419 89.5031 201.613 89.3074 201.613C89.1117 201.613 88.916 201.484 88.916 201.225C88.916 201.032 89.1117 200.838 89.3074 200.838C89.5031 200.838 89.6988 201.032 89.6988 201.225Z" fill="#263238"/>
<path d="M90.2859 200.258C90.2207 200.322 89.9598 200.064 89.5684 200.064C89.177 200.064 88.8509 200.258 88.7856 200.193C88.7856 200.193 88.7857 200.064 88.9813 200C89.1118 199.935 89.3075 199.806 89.5684 199.871C89.8293 199.871 90.025 200 90.1554 200.064C90.2859 200.193 90.3511 200.258 90.2859 200.258Z" fill="#263238"/>
<path d="M87.7417 203.354C87.7417 203.354 88.0026 203.29 88.394 203.29C88.5245 203.29 88.5897 203.29 88.5897 203.225C88.5897 203.161 88.5897 203.032 88.5244 202.903C88.4592 202.645 88.3288 202.387 88.2635 202.128C87.8722 200.967 87.6113 200.064 87.6765 200.064C87.7417 200.064 88.0679 200.967 88.394 202.128C88.4592 202.387 88.5897 202.709 88.6549 202.903C88.7201 203.032 88.7201 203.161 88.6549 203.29C88.6549 203.354 88.5244 203.419 88.4592 203.419C88.394 203.419 88.3288 203.419 88.2635 203.419C88.0026 203.354 87.7417 203.354 87.7417 203.354Z" fill="#263238"/>
<path d="M87.7418 208.129C87.7418 208.129 85.7197 208.129 83.8281 206.838C83.8281 206.838 84.7413 208.903 87.7418 208.838V208.129Z" fill="#EB996E"/>
<path d="M86.5025 203.548C86.5677 203.548 86.5677 203.999 86.8939 204.322C87.2853 204.645 87.7419 204.645 87.7419 204.709C87.7419 204.709 87.6114 204.774 87.4157 204.774C87.2201 204.774 86.9591 204.709 86.6982 204.516C86.5025 204.322 86.3721 204.064 86.3721 203.87C86.4373 203.677 86.5025 203.548 86.5025 203.548Z" fill="#263238"/>
<path d="M90.2205 198.774C90.1552 198.838 89.8291 198.774 89.4377 198.774C89.0463 198.774 88.7854 198.838 88.655 198.774C88.5898 198.709 88.655 198.645 88.7854 198.516C88.9159 198.451 89.1116 198.322 89.3725 198.322C89.6334 198.322 89.8291 198.387 89.9596 198.451C90.2205 198.58 90.2857 198.709 90.2205 198.774Z" fill="#263238"/>
<path d="M85.1978 201.161C85.1978 201.355 85.3282 201.548 85.5891 201.548C85.7848 201.548 85.9805 201.419 85.9805 201.225C85.9805 201.032 85.85 200.838 85.5891 200.838C85.3934 200.838 85.1978 200.967 85.1978 201.161Z" fill="#263238"/>
<path d="M84.6763 200.129C84.7415 200.193 85.0024 200 85.3938 200C85.7851 200 86.1113 200.193 86.1765 200.193C86.1765 200.193 86.1765 200.064 86.0461 200C85.9156 199.935 85.7199 199.806 85.459 199.806C85.1981 199.806 85.0024 199.871 84.8719 200C84.7415 200 84.6763 200.129 84.6763 200.129Z" fill="#263238"/>
<path d="M84.4802 199.29C84.5454 199.355 84.8715 199.29 85.2629 199.29C85.6543 199.29 85.9804 199.355 86.0456 199.29C86.1109 199.225 86.0456 199.161 85.9152 199.032C85.7847 198.967 85.5238 198.838 85.2629 198.838C85.002 198.838 84.8063 198.903 84.6106 199.032C84.4802 199.096 84.415 199.225 84.4802 199.29Z" fill="#263238"/>
<path d="M82.0671 202.258C82.0671 202.064 81.8714 201.484 81.6105 201.484C81.0234 201.355 79.9798 201.355 79.9146 202.839C79.7841 204.839 81.8714 204.516 81.8714 204.516C81.8714 204.451 82.0671 203.032 82.0671 202.258Z" fill="#FFBE9D"/>
<path d="M81.3496 203.742C81.3496 203.742 81.2844 203.742 81.2844 203.806C81.2192 203.806 81.1539 203.871 81.0235 203.806C80.8278 203.742 80.6321 203.355 80.6973 203.032C80.6973 202.839 80.7626 202.709 80.8278 202.516C80.893 202.387 81.0235 202.258 81.0887 202.258C81.2192 202.258 81.2844 202.322 81.2844 202.387C81.2844 202.451 81.2844 202.451 81.2844 202.516C81.2844 202.516 81.3496 202.516 81.3496 202.387C81.3496 202.322 81.3496 202.322 81.2844 202.258C81.2192 202.193 81.1539 202.193 81.0887 202.193C80.9583 202.193 80.7626 202.322 80.6973 202.451C80.6321 202.58 80.5669 202.774 80.5669 203.032C80.5669 203.419 80.7626 203.806 81.0235 203.935C81.1539 204 81.2844 203.935 81.3496 203.871C81.3496 203.742 81.3496 203.742 81.3496 203.742Z" fill="#EB996E"/>
<path d="M81.6106 201.484L82.1324 202C84.3501 199.935 88.6552 194.645 88.4595 194.968C88.4595 194.968 86.9593 194.322 85.2633 194.645C83.6326 194.903 80.5017 195.742 80.5669 197.677C80.5669 199.613 81.6106 201.484 81.6106 201.484Z" fill="#263238"/>
<path d="M78.6099 201.032C78.6099 201.032 78.6099 200.968 78.6099 200.903C78.6099 200.839 78.6751 200.71 78.7403 200.581C78.8708 200.323 79.1317 199.936 79.5883 199.613C80.0449 199.29 80.6319 199.032 81.2842 198.774C81.9365 198.581 82.7192 198.387 83.502 198.065C84.2847 197.742 84.937 197.355 85.524 196.968C86.1111 196.581 86.5677 196.129 86.9591 195.742C87.3504 195.355 87.6114 195.032 87.7418 194.774C87.807 194.645 87.8723 194.581 87.9375 194.516C88.0027 194.452 88.0027 194.452 88.0027 194.452C88.0027 194.452 88.0027 194.516 87.9375 194.581C87.8723 194.645 87.807 194.774 87.7418 194.839C87.5461 195.097 87.2852 195.419 86.9591 195.807C86.5677 196.194 86.1111 196.645 85.524 197.032C84.937 197.419 84.2847 197.871 83.502 198.129C82.7192 198.452 82.0017 198.645 81.2842 198.839C80.6319 199.032 80.0449 199.29 79.5883 199.613C79.1317 199.936 78.8708 200.258 78.7403 200.516C78.6751 200.903 78.6751 201.097 78.6099 201.032Z" fill="#455A64"/>
<path d="M79.2622 201.355C79.2622 201.355 79.2622 201.161 79.3274 200.903C79.3926 200.645 79.6536 200.258 80.1102 199.936C80.5015 199.613 81.1538 199.419 81.8061 199.29C82.4584 199.161 83.1759 198.968 83.8934 198.645C84.6109 198.323 85.2632 197.936 85.785 197.484C86.3068 197.097 86.7634 196.645 87.0896 196.258C87.4157 195.871 87.6766 195.548 87.8071 195.29C87.8723 195.161 87.9375 195.097 88.0028 195.032C88.068 194.968 88.068 194.968 88.068 194.968C88.068 194.968 88.068 195.032 88.0028 195.097C87.9375 195.161 87.9375 195.29 87.8723 195.355C87.7418 195.613 87.4809 195.936 87.1548 196.323C86.8286 196.71 86.4373 197.161 85.8502 197.613C85.3284 198.065 84.6761 198.452 83.9586 198.774C83.2411 199.097 82.5236 199.29 81.8713 199.419C81.219 199.548 80.632 199.742 80.1754 200.065C79.784 200.323 79.5231 200.71 79.3927 200.968C79.2622 201.226 79.2622 201.355 79.2622 201.355Z" fill="#455A64"/>
<path d="M78.0227 219.419C77.9575 219.419 77.9575 218.581 77.9575 217.484C77.9575 216.452 77.9575 215.548 78.0227 215.548C78.0879 215.548 78.088 216.387 78.088 217.484C78.088 218.516 78.0879 219.419 78.0227 219.419Z" fill="#263238"/>
<path d="M91.9166 219.161C91.9166 219.161 91.9166 218.903 91.9166 218.451C91.9166 218.064 91.9818 217.484 91.8513 216.839C91.7209 216.193 91.5252 215.677 91.3947 215.29C91.2642 214.903 91.1338 214.645 91.1338 214.645C91.1338 214.645 91.2642 214.839 91.4599 215.226C91.6556 215.613 91.8513 216.129 91.9818 216.774C92.1122 217.419 92.047 218 91.9818 218.451C91.9818 218.903 91.9166 219.161 91.9166 219.161Z" fill="#263238"/>
<path d="M195.499 311H115.665C113.186 311 111.164 309 111.164 306.548V285.839L105.685 281H111.164H195.499C197.978 281 200 283 200 285.452V306.548C200 309.065 197.978 311 195.499 311Z" fill="#EBEBEB"/>
<path d="M193.187 287C193.187 287.065 176.173 287.194 155.187 287.194C134.2 287.194 117.187 287.129 117.187 287C117.187 286.871 134.2 286.807 155.187 286.807C176.173 286.807 193.187 286.871 193.187 287Z" fill="white"/>
<path d="M193.187 290.484C193.187 290.549 176.173 290.678 155.187 290.678C134.2 290.678 117.187 290.613 117.187 290.484C117.187 290.355 134.2 290.291 155.187 290.291C176.173 290.355 193.187 290.42 193.187 290.484Z" fill="white"/>
<path d="M193.187 294.032C193.187 294.097 176.173 294.226 155.187 294.226C134.2 294.226 117.187 294.161 117.187 294.032C117.187 293.903 134.2 293.839 155.187 293.839C176.173 293.903 193.187 293.968 193.187 294.032Z" fill="white"/>
<path d="M193.187 297.581C193.187 297.645 176.173 297.774 155.187 297.774C134.2 297.774 117.187 297.71 117.187 297.581C117.187 297.452 134.2 297.387 155.187 297.387C176.173 297.387 193.187 297.516 193.187 297.581Z" fill="white"/>
<path d="M193.187 301.129C193.187 301.194 176.173 301.323 155.187 301.323C134.2 301.323 117.187 301.258 117.187 301.129C117.187 301 134.2 300.936 155.187 300.936C176.173 300.936 193.187 301 193.187 301.129Z" fill="white"/>
<path d="M193.187 305.387C193.187 305.451 176.173 305.58 155.187 305.58C134.2 305.58 117.187 305.516 117.187 305.387C117.187 305.258 134.2 305.193 155.187 305.193C176.173 305.193 193.187 305.258 193.187 305.387Z" fill="white"/>
<path d="M84.6111 309.903C92.6806 309.903 99.2222 303.433 99.2222 295.452C99.2222 287.47 92.6806 281 84.6111 281C76.5416 281 70 287.47 70 295.452C70 303.433 76.5416 309.903 84.6111 309.903Z" fill="#E0E0E0"/>
<path d="M77.7622 299.065L81.6107 298.742L90.9383 300.291L92.0472 307.258L91.9167 308.097C87.416 310.549 82.3282 310.549 78.0231 308.42L77.7622 299.065Z" fill="#455A64"/>
<path d="M88.916 300.226C88.916 300.226 91.8513 299.645 93.7429 302.355C94.917 303.968 95.5041 305.065 95.5041 305.065C94.0038 306.678 92.7645 307.968 90.6119 308.678L88.916 300.226Z" fill="#455A64"/>
<path d="M77.7623 299.065C77.7623 299.065 75.2184 299.388 74.24 301.517C73.2616 303.646 73.0659 304.291 73.0659 304.291C74.3705 305.839 76.0664 307.71 78.0885 308.355C78.0885 308.355 78.5451 303 78.6103 301.452C78.6755 299.839 78.7408 299 77.7623 299.065Z" fill="#455A64"/>
<path d="M80.0449 285.387C81.4147 283.709 83.2411 282.806 85.3937 282.742C86.633 282.742 87.0896 283 88.0028 283.193C88.8507 283.451 89.6987 283.903 90.2205 284.613C90.8728 285.451 91.3946 286.484 91.4599 287.516C91.5903 288.613 91.7208 289.709 91.5903 290.806C91.5251 291.903 91.199 293 90.5467 293.903L87.7419 294.355C86.1764 294.419 84.6109 294.484 83.1107 294.097C81.6104 293.774 80.1102 292.935 79.3274 291.645C78.2185 289.838 78.6751 287.064 80.0449 285.387Z" fill="#263238"/>
<path d="M77.3705 293.451C77.4357 292.806 77.7619 292.225 78.3489 291.903C78.8707 291.58 79.6535 291.645 80.1101 292.032L80.5667 292.548C81.2842 292.871 81.6755 293.645 81.6103 294.354C81.5451 295.064 80.9581 295.774 80.2406 295.967C79.523 296.161 78.6751 295.967 78.1532 295.451C77.501 295 77.24 294.161 77.3705 293.451Z" fill="#263238"/>
<path d="M77.8923 295.322C77.8923 295.322 77.6966 295.129 77.7618 294.742C77.7618 294.354 78.0227 293.903 78.4141 293.516C78.8054 293.064 79.1968 292.806 79.523 292.613C79.8491 292.419 80.11 292.354 80.0448 292.354C80.0448 292.354 79.7839 292.354 79.4577 292.548C79.1316 292.677 78.675 293 78.2836 293.451C78.0879 293.645 77.9575 293.903 77.827 294.161C77.6966 294.354 77.6313 294.613 77.6313 294.806C77.6313 295 77.6966 295.129 77.7618 295.258C77.827 295.322 77.8923 295.322 77.8923 295.322Z" fill="#455A64"/>
<path d="M87.7419 299.709V297.129C87.7419 297.129 90.0249 296.871 90.6771 293.967C91.0033 292.548 91.0685 290.161 91.0033 288.161C91.0033 286.419 89.4378 284.032 87.2853 283.967L86.3069 283.838L82.5888 285.322C82.067 285.322 81.6104 285.774 81.6104 286.29L81.48 298.677L83.1759 301.064C84.6109 303.129 87.7419 302.096 87.7419 299.709Z" fill="#FFBE9D"/>
<path d="M86.3068 293.322C86.3068 293.193 86.4373 293.064 86.5025 292.935C86.6982 292.742 87.0243 292.742 87.2852 292.871C87.5462 293 87.6766 293.387 87.6114 293.645C87.4809 293.838 87.2852 293.967 87.0243 293.967C86.9591 293.967 86.9591 293.967 86.8939 293.967C86.6982 293.967 86.5678 293.903 86.4373 293.774C86.3068 293.709 86.2416 293.516 86.3068 293.322Z" fill="#EB996E"/>
<path d="M89.6988 290.225C89.6988 290.419 89.5031 290.613 89.3074 290.613C89.1117 290.613 88.916 290.484 88.916 290.225C88.916 290.032 89.1117 289.838 89.3074 289.838C89.5031 289.838 89.6988 290.032 89.6988 290.225Z" fill="#263238"/>
<path d="M90.2859 289.258C90.2207 289.322 89.9598 289.064 89.5684 289.064C89.177 289.064 88.8509 289.258 88.7856 289.193C88.7856 289.193 88.7857 289.064 88.9813 289C89.1118 288.935 89.3075 288.806 89.5684 288.871C89.8293 288.871 90.025 289 90.1554 289.064C90.2859 289.193 90.3511 289.258 90.2859 289.258Z" fill="#263238"/>
<path d="M87.7417 292.354C87.7417 292.354 88.0026 292.29 88.394 292.29C88.5245 292.29 88.5897 292.29 88.5897 292.225C88.5897 292.161 88.5897 292.032 88.5244 291.903C88.4592 291.645 88.3288 291.387 88.2635 291.128C87.8722 289.967 87.6113 289.064 87.6765 289.064C87.7417 289.064 88.0679 289.967 88.394 291.128C88.4592 291.387 88.5897 291.709 88.6549 291.903C88.7201 292.032 88.7201 292.161 88.6549 292.29C88.6549 292.354 88.5244 292.419 88.4592 292.419C88.394 292.419 88.3288 292.419 88.2635 292.419C88.0026 292.354 87.7417 292.354 87.7417 292.354Z" fill="#263238"/>
<path d="M87.7418 297.129C87.7418 297.129 85.7197 297.129 83.8281 295.838C83.8281 295.838 84.7413 297.903 87.7418 297.838V297.129Z" fill="#EB996E"/>
<path d="M86.5025 292.548C86.5677 292.548 86.5677 292.999 86.8939 293.322C87.2853 293.645 87.7419 293.645 87.7419 293.709C87.7419 293.709 87.6114 293.774 87.4157 293.774C87.2201 293.774 86.9591 293.709 86.6982 293.516C86.5025 293.322 86.3721 293.064 86.3721 292.87C86.4373 292.677 86.5025 292.548 86.5025 292.548Z" fill="#263238"/>
<path d="M90.2205 287.774C90.1552 287.838 89.8291 287.774 89.4377 287.774C89.0463 287.774 88.7854 287.838 88.655 287.774C88.5898 287.709 88.655 287.645 88.7854 287.516C88.9159 287.451 89.1116 287.322 89.3725 287.322C89.6334 287.322 89.8291 287.387 89.9596 287.451C90.2205 287.58 90.2857 287.709 90.2205 287.774Z" fill="#263238"/>
<path d="M85.1978 290.161C85.1978 290.355 85.3282 290.548 85.5891 290.548C85.7848 290.548 85.9805 290.419 85.9805 290.225C85.9805 290.032 85.85 289.838 85.5891 289.838C85.3934 289.838 85.1978 289.967 85.1978 290.161Z" fill="#263238"/>
<path d="M84.6763 289.129C84.7415 289.193 85.0024 289 85.3938 289C85.7851 289 86.1113 289.193 86.1765 289.193C86.1765 289.193 86.1765 289.064 86.0461 289C85.9156 288.935 85.7199 288.806 85.459 288.806C85.1981 288.806 85.0024 288.871 84.8719 289C84.7415 289 84.6763 289.129 84.6763 289.129Z" fill="#263238"/>
<path d="M84.4802 288.29C84.5454 288.355 84.8715 288.29 85.2629 288.29C85.6543 288.29 85.9804 288.355 86.0456 288.29C86.1109 288.225 86.0456 288.161 85.9152 288.032C85.7847 287.967 85.5238 287.838 85.2629 287.838C85.002 287.838 84.8063 287.903 84.6106 288.032C84.4802 288.096 84.415 288.225 84.4802 288.29Z" fill="#263238"/>
<path d="M82.0671 291.258C82.0671 291.064 81.8714 290.484 81.6105 290.484C81.0234 290.355 79.9798 290.355 79.9146 291.839C79.7841 293.839 81.8714 293.516 81.8714 293.516C81.8714 293.451 82.0671 292.032 82.0671 291.258Z" fill="#FFBE9D"/>
<path d="M81.3496 292.742C81.3496 292.742 81.2844 292.742 81.2844 292.806C81.2192 292.806 81.1539 292.871 81.0235 292.806C80.8278 292.742 80.6321 292.355 80.6973 292.032C80.6973 291.839 80.7626 291.709 80.8278 291.516C80.893 291.387 81.0235 291.258 81.0887 291.258C81.2192 291.258 81.2844 291.322 81.2844 291.387C81.2844 291.451 81.2844 291.451 81.2844 291.516C81.2844 291.516 81.3496 291.516 81.3496 291.387C81.3496 291.322 81.3496 291.322 81.2844 291.258C81.2192 291.193 81.1539 291.193 81.0887 291.193C80.9583 291.193 80.7626 291.322 80.6973 291.451C80.6321 291.58 80.5669 291.774 80.5669 292.032C80.5669 292.419 80.7626 292.806 81.0235 292.935C81.1539 293 81.2844 292.935 81.3496 292.871C81.3496 292.742 81.3496 292.742 81.3496 292.742Z" fill="#EB996E"/>
<path d="M81.6106 290.484L82.1324 291C84.3501 288.935 88.6552 283.645 88.4595 283.968C88.4595 283.968 86.9593 283.322 85.2633 283.645C83.6326 283.903 80.5017 284.742 80.5669 286.677C80.5669 288.613 81.6106 290.484 81.6106 290.484Z" fill="#263238"/>
<path d="M78.6099 290.032C78.6099 290.032 78.6099 289.968 78.6099 289.903C78.6099 289.839 78.6751 289.71 78.7403 289.581C78.8708 289.323 79.1317 288.936 79.5883 288.613C80.0449 288.29 80.6319 288.032 81.2842 287.774C81.9365 287.581 82.7192 287.387 83.502 287.065C84.2847 286.742 84.937 286.355 85.524 285.968C86.1111 285.581 86.5677 285.129 86.9591 284.742C87.3504 284.355 87.6114 284.032 87.7418 283.774C87.807 283.645 87.8723 283.581 87.9375 283.516C88.0027 283.452 88.0027 283.452 88.0027 283.452C88.0027 283.452 88.0027 283.516 87.9375 283.581C87.8723 283.645 87.807 283.774 87.7418 283.839C87.5461 284.097 87.2852 284.419 86.9591 284.807C86.5677 285.194 86.1111 285.645 85.524 286.032C84.937 286.419 84.2847 286.871 83.502 287.129C82.7192 287.452 82.0017 287.645 81.2842 287.839C80.6319 288.032 80.0449 288.29 79.5883 288.613C79.1317 288.936 78.8708 289.258 78.7403 289.516C78.6751 289.903 78.6751 290.097 78.6099 290.032Z" fill="#455A64"/>
<path d="M79.2622 290.355C79.2622 290.355 79.2622 290.161 79.3274 289.903C79.3926 289.645 79.6536 289.258 80.1102 288.936C80.5015 288.613 81.1538 288.419 81.8061 288.29C82.4584 288.161 83.1759 287.968 83.8934 287.645C84.6109 287.323 85.2632 286.936 85.785 286.484C86.3068 286.097 86.7634 285.645 87.0896 285.258C87.4157 284.871 87.6766 284.548 87.8071 284.29C87.8723 284.161 87.9375 284.097 88.0028 284.032C88.068 283.968 88.068 283.968 88.068 283.968C88.068 283.968 88.068 284.032 88.0028 284.097C87.9375 284.161 87.9375 284.29 87.8723 284.355C87.7418 284.613 87.4809 284.936 87.1548 285.323C86.8286 285.71 86.4373 286.161 85.8502 286.613C85.3284 287.065 84.6761 287.452 83.9586 287.774C83.2411 288.097 82.5236 288.29 81.8713 288.419C81.219 288.548 80.632 288.742 80.1754 289.065C79.784 289.323 79.5231 289.71 79.3927 289.968C79.2622 290.226 79.2622 290.355 79.2622 290.355Z" fill="#455A64"/>
<path d="M78.0227 308.419C77.9575 308.419 77.9575 307.581 77.9575 306.484C77.9575 305.452 77.9575 304.548 78.0227 304.548C78.0879 304.548 78.088 305.387 78.088 306.484C78.088 307.516 78.0879 308.419 78.0227 308.419Z" fill="#263238"/>
<path d="M91.9166 308.161C91.9166 308.161 91.9166 307.903 91.9166 307.451C91.9166 307.064 91.9818 306.484 91.8513 305.839C91.7209 305.193 91.5252 304.677 91.3947 304.29C91.2642 303.903 91.1338 303.645 91.1338 303.645C91.1338 303.645 91.2642 303.839 91.4599 304.226C91.6556 304.613 91.8513 305.129 91.9818 305.774C92.1122 306.419 92.047 307 91.9818 307.451C91.9818 307.903 91.9166 308.161 91.9166 308.161Z" fill="#263238"/>
<path d="M211 205.533L221.768 186.567C216.996 178.858 214.304 169.803 214.304 160.015C214.304 131.994 236.94 109.357 264.961 109.357C292.981 109.357 315.618 131.994 315.618 160.015C315.618 188.035 292.981 210.672 264.961 210.672C253.337 210.672 242.569 206.756 234.004 200.026L211 205.533Z" fill="#FAFAFA"/>
<path d="M211 205.532C212.101 205.287 219.321 203.574 234.004 200.271H234.248L234.126 200.026L233.881 200.271C236.818 202.473 240.244 204.676 244.282 206.511C248.32 208.346 252.97 209.815 258.231 210.426C260.801 210.794 263.493 210.916 266.307 210.794C267.653 210.671 269.121 210.671 270.467 210.549C271.935 210.304 273.281 210.059 274.75 209.937C280.501 208.836 286.374 206.633 291.88 203.207C297.386 199.781 302.403 195.254 306.441 189.625C310.479 183.997 313.538 177.267 315.006 170.048C316.475 162.828 316.352 154.997 314.395 147.533C312.437 140.069 308.888 132.728 303.504 126.732L301.424 124.407C300.69 123.673 299.956 123.061 299.222 122.327C298.488 121.715 297.754 120.859 296.897 120.369L294.45 118.534C293.716 117.922 292.737 117.433 291.88 116.821C291.024 116.331 290.167 115.72 289.311 115.23C288.454 114.741 287.475 114.374 286.619 113.884C285.762 113.517 284.906 113.028 283.927 112.661C276.585 109.724 268.754 108.623 261.168 109.112C253.704 109.602 246.485 111.804 240.366 115.23C234.126 118.656 228.987 123.306 224.949 128.445C220.911 133.584 218.097 139.213 216.262 144.841C214.548 150.47 214.059 156.098 214.059 161.36C214.181 166.621 215.16 171.394 216.506 175.554C217.852 179.714 219.688 183.385 221.645 186.444V186.321C214.916 198.68 211.612 204.676 211 205.532C211.489 204.553 214.916 198.68 221.89 186.689V186.566V186.444C220.055 183.385 218.219 179.836 216.873 175.554C215.527 171.394 214.548 166.621 214.426 161.482C214.426 156.343 214.916 150.715 216.629 145.208C218.342 139.58 221.278 134.074 225.194 128.934C229.232 123.918 234.371 119.39 240.489 115.964C246.607 112.538 253.704 110.458 261.168 109.846C268.632 109.357 276.34 110.458 283.56 113.272C284.539 113.517 285.395 114.006 286.252 114.496C287.108 114.985 287.965 115.352 288.944 115.842C289.8 116.331 290.657 116.821 291.513 117.433C292.37 117.922 293.226 118.411 293.96 119.023L296.408 120.859C297.264 121.47 297.876 122.205 298.732 122.816C299.467 123.551 300.323 124.162 300.935 124.897L303.015 127.099C308.277 133.095 311.825 140.314 313.783 147.656C315.618 155.12 315.74 162.706 314.395 169.925C312.926 177.144 309.99 183.752 305.952 189.258C301.914 194.887 296.897 199.414 291.513 202.718C286.129 206.144 280.256 208.224 274.627 209.448C273.159 209.692 271.813 209.937 270.345 210.059C268.999 210.182 267.531 210.182 266.185 210.304C263.493 210.426 260.801 210.304 258.231 209.937C253.092 209.325 248.442 207.857 244.404 206.022C240.367 204.186 236.94 202.106 234.004 199.781L233.025 199.047L233.759 200.026L233.881 199.781C219.321 203.574 212.101 205.287 211 205.532Z" fill="#263238"/>
<path d="M278.666 157.934C278.666 160.626 280.868 162.828 283.56 162.828C286.252 162.828 288.454 160.626 288.454 157.934C288.454 155.242 286.252 153.04 283.56 153.04C280.868 153.04 278.666 155.242 278.666 157.934Z" fill="#FF7213"/>
<path d="M258.843 157.934C258.843 160.626 261.046 162.828 263.738 162.828C266.43 162.828 268.632 160.626 268.632 157.934C268.632 155.242 266.43 153.04 263.738 153.04C261.046 153.04 258.843 155.242 258.843 157.934Z" fill="#FF7213"/>
<path d="M239.021 155.487C237.675 157.812 238.409 160.871 240.856 162.217C243.181 163.563 246.24 162.828 247.586 160.381C248.932 158.056 248.198 154.997 245.75 153.651C243.426 152.305 240.367 153.162 239.021 155.487Z" fill="#FF7213"/>
<circle cx="306.34" cy="250.34" r="23.34" fill="#EBEBEB"/>
<mask id="mask2_813_5064" style="mask-type:alpha" maskUnits="userSpaceOnUse" x="283" y="227" width="47" height="47">
<circle cx="306.34" cy="250.34" r="23.34" fill="#EBEBEB"/>
</mask>
<g mask="url(#mask2_813_5064)">
<path d="M297.308 256.963C296.311 255.784 295.223 254.605 294.497 253.245C293.772 251.885 293.319 250.343 293.5 248.802C293.681 247.895 294.044 247.079 294.044 246.172C294.135 244.903 293.591 243.633 294.044 242.454C294.769 240.641 297.218 240.369 298.669 239.099C299.847 238.102 300.391 236.56 301.661 235.653C302.749 234.928 304.2 234.928 305.56 235.109C306.92 235.291 308.19 235.653 309.55 235.472C310.457 235.381 311.363 234.928 312.27 234.747C313.177 234.565 314.174 234.475 315.081 234.928C315.897 235.472 316.35 236.56 315.806 237.376C317.348 236.651 319.252 237.83 319.706 239.462C320.159 241.094 319.252 242.817 317.983 243.905C316.713 244.993 314.99 245.447 313.358 245.809C308.643 246.716 303.565 246.172 299.575 243.633" fill="#263238"/>
<path d="M318.889 261.95C318.708 259.048 317.892 253.154 317.166 247.804C316.35 242.001 311.182 237.92 305.378 238.283H304.834C298.668 239.099 295.857 244.812 296.764 250.978L298.578 273.194L305.854 275.139L313.721 273.194L313.358 269.295C313.358 269.295 319.252 268.025 318.889 261.95Z" fill="#FFBE9D"/>
<path d="M313.358 269.204C313.358 269.204 309.64 269.748 305.378 267.481C305.378 267.481 307.555 271.652 313.449 270.745L313.358 269.204Z" fill="#EB996E"/>
<path d="M315.262 252.972C315.353 253.426 314.99 253.788 314.536 253.879C314.083 253.97 313.63 253.607 313.63 253.154C313.539 252.7 313.902 252.338 314.355 252.247C314.718 252.156 315.171 252.519 315.262 252.972Z" fill="#263238"/>
<path d="M316.078 250.797C315.987 250.887 315.262 250.434 314.355 250.525C313.449 250.615 312.814 251.069 312.723 250.978C312.632 250.887 312.723 250.706 313.086 250.525C313.358 250.252 313.811 250.071 314.446 249.98C314.99 249.98 315.534 250.162 315.806 250.343C315.988 250.615 316.078 250.797 316.078 250.797Z" fill="#263238"/>
<path d="M306.557 253.608C306.647 254.061 306.285 254.424 305.831 254.514C305.378 254.605 304.925 254.242 304.925 253.789C304.834 253.336 305.197 252.973 305.65 252.882C306.103 252.791 306.466 253.154 306.557 253.608Z" fill="#263238"/>
<path d="M307.011 251.612C306.92 251.703 306.195 251.34 305.288 251.34C304.381 251.431 303.746 251.885 303.656 251.794C303.565 251.703 303.656 251.522 304.018 251.34C304.29 251.068 304.744 250.887 305.379 250.796C305.923 250.796 306.467 250.978 306.739 251.159C307.011 251.34 307.101 251.522 307.011 251.612Z" fill="#263238"/>
<path d="M310.819 258.232C310.819 258.141 311.363 258.051 312.27 257.869C312.542 257.869 312.723 257.779 312.723 257.597C312.723 257.416 312.633 257.144 312.542 256.872C312.27 256.328 311.998 255.693 311.726 255.149C310.547 252.701 309.731 250.615 309.822 250.615C309.912 250.615 310.91 252.519 312.089 255.058C312.361 255.693 312.633 256.237 312.905 256.781C312.995 257.053 313.177 257.325 313.086 257.688C312.995 257.869 312.905 258.051 312.723 258.051C312.542 258.141 312.451 258.141 312.361 258.141C311.454 258.232 310.819 258.232 310.819 258.232Z" fill="#263238"/>
<path d="M307.011 247.985C306.92 248.257 306.013 248.167 304.925 248.348C303.837 248.53 303.021 248.892 302.84 248.711C302.749 248.62 302.93 248.348 303.202 248.076C303.565 247.804 304.109 247.532 304.744 247.441C305.378 247.351 306.013 247.351 306.376 247.532C306.829 247.713 307.101 247.895 307.011 247.985Z" fill="#263238"/>
<path d="M315.534 248.167C315.353 248.348 314.718 248.167 313.993 248.258C313.267 248.258 312.632 248.53 312.451 248.258C312.36 248.167 312.451 247.895 312.723 247.714C312.995 247.532 313.448 247.351 313.993 247.26C314.537 247.26 314.99 247.442 315.262 247.623C315.534 247.895 315.625 248.076 315.534 248.167Z" fill="#263238"/>
<path d="M297.489 255.421C297.399 255.421 293.318 254.515 293.681 258.595C294.044 262.675 298.487 261.315 298.487 261.225C298.487 261.043 297.489 255.421 297.489 255.421Z" fill="#FFBE9D"/>
<path d="M296.764 259.864C296.764 259.864 296.673 259.955 296.583 259.955C296.401 260.046 296.22 260.046 296.038 260.046C295.585 259.955 295.132 259.32 295.041 258.504C294.95 258.142 295.041 257.779 295.132 257.507C295.222 257.235 295.404 256.963 295.585 256.872C295.766 256.781 295.948 256.872 296.038 257.053C296.129 257.144 296.129 257.235 296.129 257.235C296.129 257.235 296.22 257.144 296.129 256.963C296.129 256.872 296.038 256.781 295.948 256.691C295.857 256.6 295.676 256.6 295.585 256.6C295.313 256.691 295.041 256.963 294.86 257.326C294.769 257.688 294.678 258.051 294.769 258.504C294.86 259.32 295.404 260.046 295.948 260.136C296.22 260.227 296.492 260.046 296.583 259.955C296.764 259.955 296.764 259.864 296.764 259.864Z" fill="#EB996E"/>
<path d="M316.803 242.182C316.531 243.814 313.267 245.265 310.456 245.175C307.917 245.084 306.647 243.814 304.834 242.998C303.655 242.454 303.655 242.454 302.114 242.726C300.844 242.908 300.209 244.449 299.484 245.537C300.844 248.53 300.3 251.975 299.756 255.149C299.665 255.512 299.575 255.874 299.303 256.146C298.849 256.509 298.124 256.328 297.67 255.874C296.945 255.24 296.582 254.242 296.401 253.245C295.857 251.068 295.676 248.802 296.038 246.625C296.401 244.449 297.308 242.273 298.759 240.641C300.663 238.555 303.383 237.376 306.194 237.286C309.005 237.104 311.816 238.011 314.083 239.553C315.262 240.187 316.259 241.094 316.803 242.182Z" fill="#263238"/>
<path d="M311.454 260.227C310.729 259.864 310.094 259.592 309.369 259.229C309.278 259.139 309.097 259.139 309.006 259.139C308.825 259.139 308.734 259.229 308.643 259.411C308.19 259.955 308.008 260.862 308.371 261.496C308.734 262.131 309.641 262.494 310.366 262.222C311.091 261.95 311.454 261.134 311.454 260.227Z" fill="#EB996E"/>
<path d="M310.366 262.403C310.366 262.403 309.912 262.766 309.187 262.494C308.824 262.403 308.371 262.131 308.099 261.587C307.827 261.134 307.736 260.499 307.918 259.864C308.008 259.592 308.19 259.32 308.462 259.139C308.552 259.048 308.643 258.958 308.824 258.867C308.915 258.776 309.278 258.776 309.368 258.867C309.822 259.139 310.185 259.32 310.457 259.592C311.091 259.955 311.454 260.318 311.363 260.318C311.363 260.408 310.91 260.227 310.275 259.864C309.912 259.683 309.55 259.502 309.187 259.32C309.096 259.32 309.096 259.32 309.006 259.32C308.915 259.411 308.824 259.411 308.734 259.502C308.552 259.683 308.462 259.864 308.371 260.136C308.19 260.59 308.28 261.043 308.462 261.496C308.643 261.859 309.006 262.131 309.278 262.313C309.912 262.494 310.366 262.403 310.366 262.403Z" fill="#263238"/>
<path d="M309.731 253.064C309.641 253.064 309.731 252.701 309.55 252.066C309.368 251.431 308.915 250.525 308.008 249.799C307.102 249.074 305.56 248.711 304.109 249.255C302.658 249.709 301.48 251.25 301.48 253.064C301.48 254.877 302.658 256.328 304.109 256.872C305.56 257.416 307.011 257.053 308.008 256.328C308.915 255.602 309.368 254.696 309.55 254.061C309.731 253.426 309.731 253.064 309.731 253.064C309.731 253.064 309.731 253.154 309.731 253.336C309.731 253.517 309.731 253.789 309.641 254.152C309.55 254.786 309.096 255.784 308.099 256.6C307.102 257.416 305.469 257.869 303.928 257.325C302.296 256.781 300.936 255.149 300.936 253.154C300.936 251.159 302.296 249.436 303.928 248.983C305.56 248.439 307.192 248.892 308.099 249.709C309.096 250.525 309.55 251.522 309.641 252.157C309.731 252.519 309.731 252.792 309.731 252.973C309.731 252.973 309.731 253.064 309.731 253.064Z" fill="#263238"/>
<path d="M319.887 252.61C319.796 252.61 319.887 252.247 319.705 251.612C319.524 250.978 319.071 250.071 318.164 249.436C317.257 248.711 315.806 248.348 314.446 248.892C313.086 249.346 311.817 250.887 311.907 252.61C311.907 254.333 313.086 255.784 314.446 256.328C315.806 256.872 317.348 256.509 318.164 255.784C319.071 255.149 319.524 254.242 319.705 253.607C319.887 253.063 319.887 252.61 319.887 252.61C319.887 252.61 319.887 252.701 319.887 252.882C319.887 253.063 319.887 253.335 319.796 253.607C319.705 254.242 319.252 255.24 318.255 255.965C317.348 256.781 315.716 257.234 314.174 256.6C312.633 256.056 311.272 254.423 311.272 252.519C311.272 250.615 312.633 248.892 314.174 248.439C315.716 247.895 317.348 248.348 318.255 249.074C319.252 249.89 319.615 250.796 319.796 251.431C319.887 251.794 319.887 252.066 319.887 252.157C319.977 252.519 319.977 252.61 319.887 252.61Z" fill="#263238"/>
<path d="M311.636 251.704C311.545 251.794 311.182 251.522 310.638 251.522C310.094 251.522 309.731 251.794 309.641 251.704C309.55 251.613 309.913 251.069 310.638 251.069C311.364 251.069 311.726 251.613 311.636 251.704Z" fill="#263238"/>
<path d="M301.48 252.428C301.57 252.519 300.754 253.244 299.666 254.06C298.578 254.877 297.671 255.421 297.581 255.33C297.49 255.239 298.306 254.514 299.394 253.698C300.482 252.882 301.389 252.338 301.48 252.428Z" fill="#263238"/>
</g>
<path d="M174.189 271.125H253.79C257.749 271.125 260.979 267.896 260.979 263.938V240.813L269.731 233H260.979H174.189C170.23 233 167 236.229 167 240.187V263.938C167 267.896 170.23 271.125 174.189 271.125Z" fill="#EBEBEB"/>
<path d="M250.247 244.354C250.247 244.458 233.89 244.667 213.573 244.667C193.36 244.667 176.898 244.562 176.898 244.354C176.898 244.25 193.256 244.042 213.573 244.042C233.89 244.146 250.247 244.25 250.247 244.354Z" fill="white"/>
<path d="M250.247 250.604C250.247 250.708 233.89 250.917 213.573 250.917C193.36 250.917 176.898 250.812 176.898 250.604C176.898 250.5 193.256 250.292 213.573 250.292C233.89 250.292 250.247 250.396 250.247 250.604Z" fill="white"/>
<path d="M250.247 256.75C250.247 256.854 233.89 257.062 213.573 257.062C193.36 257.062 176.898 256.958 176.898 256.75C176.898 256.646 193.256 256.438 213.573 256.438C233.89 256.438 250.247 256.542 250.247 256.75Z" fill="white"/>
<path d="M250.247 262.896C250.247 263 233.89 263.208 213.573 263.208C193.36 263.208 176.898 263.104 176.898 262.896C176.898 262.792 193.256 262.583 213.573 262.583C233.89 262.688 250.247 262.792 250.247 262.896Z" fill="white"/>
<path d="M164.629 368H240.039H260.233L244.668 379.271V401.411C244.668 403.961 242.588 406.04 240.039 406.04H164.629C162.08 406.04 160 403.961 160 401.411V372.629C160 370.08 162.08 368 164.629 368Z" fill="#F5F5F5"/>
<path d="M168.655 383.632C168.655 383.699 183.079 383.766 200.858 383.766C218.637 383.766 233.062 383.699 233.062 383.632C233.062 383.565 218.637 383.498 200.858 383.498C183.079 383.498 168.655 383.565 168.655 383.632Z" fill="#E0E0E0"/>
<path d="M168.655 392.153C168.655 392.22 183.079 392.287 200.858 392.287C218.637 392.287 233.062 392.22 233.062 392.153C233.062 392.086 218.637 392.019 200.858 392.019C183.079 391.951 168.655 392.019 168.655 392.153Z" fill="#E0E0E0"/>
</svg>
