<svg width="149" height="43" viewBox="0 0 149 43" fill="none" xmlns="http://www.w3.org/2000/svg">
<path d="M148.019 38.0407C148.019 40.3322 146.124 42.1884 143.781 42.1884H5.07103C2.72841 42.1884 0.826904 40.3322 0.826904 38.0407V4.96415C0.826904 2.67371 2.72841 0.811035 5.07103 0.811035H143.78C146.124 0.811035 148.018 2.67371 148.018 4.96415L148.019 38.0407Z" fill="black"/>
<path d="M143.333 0.861348C145.886 0.861348 147.963 2.88638 147.963 5.375V37.625C147.963 40.1136 145.886 42.1387 143.333 42.1387H5.51282C2.96038 42.1387 0.883429 40.1136 0.883429 37.625V5.375C0.883429 2.88638 2.96038 0.861348 5.51282 0.861348H143.333ZM143.333 4.63461e-06H5.51282C2.48215 4.63461e-06 0 2.4201 0 5.375V37.625C0 40.5799 2.48215 43 5.51282 43H143.333C146.364 43 148.846 40.5799 148.846 37.625V5.375C148.846 2.4201 146.364 4.63461e-06 143.333 4.63461e-06Z" fill="#A6A6A6"/>
<path d="M33.2182 21.2676C33.1862 17.8029 36.1278 16.1173 36.2623 16.0388C34.5964 13.6706 32.0142 13.347 31.1068 13.3212C28.938 13.0987 26.8343 14.5865 25.7295 14.5865C24.6027 14.5865 22.9015 13.3427 21.0679 13.3793C18.7084 13.4148 16.5011 14.7467 15.2905 16.815C12.7921 21.0322 14.6554 27.2296 17.0491 30.6384C18.2464 32.3079 19.6456 34.1719 21.477 34.1064C23.2686 34.0343 23.9379 32.9927 26.1 32.9927C28.2423 32.9927 28.8708 34.1064 30.7385 34.0644C32.6614 34.0343 33.872 32.3874 35.0275 30.7029C36.4112 28.7894 36.9669 26.9049 36.9889 26.8082C36.9437 26.7931 33.2545 25.4204 33.2182 21.2676Z" fill="white"/>
<path d="M29.69 11.0788C30.6536 9.90381 31.3129 8.30528 31.1299 6.68311C29.7352 6.74331 27.9909 7.62373 26.9865 8.77291C26.0978 9.78556 25.304 11.4454 25.509 13.0063C27.0758 13.1202 28.6844 12.2355 29.69 11.0788Z" fill="white"/>
<path d="M59.1471 33.8666H56.6431L55.2716 29.6645H50.5041L49.1975 33.8666H46.7598L51.4831 19.5605H54.4005L59.1471 33.8666ZM54.8581 27.9015L53.6177 24.1658C53.4865 23.7842 53.2406 22.8855 52.8779 21.4708H52.8338C52.6894 22.0793 52.4567 22.978 52.137 24.1658L50.9186 27.9015H54.8581Z" fill="white"/>
<path d="M71.294 28.5816C71.294 30.336 70.8078 31.7228 69.8353 32.7408C68.9643 33.647 67.8827 34.0996 66.5916 34.0996C65.1979 34.0996 64.1968 33.6116 63.5871 32.6355H63.543V38.0696H61.1923V26.9466C61.1923 25.8436 61.1626 24.7116 61.1052 23.5506H63.1725L63.3037 25.1857H63.3478C64.1318 23.9538 65.3214 23.3389 66.9179 23.3389C68.166 23.3389 69.208 23.8194 70.0415 24.7815C70.8772 25.7447 71.294 27.0111 71.294 28.5816ZM68.8993 28.6655C68.8993 27.6614 68.6677 26.8337 68.2024 26.1822C67.6941 25.5028 67.0117 25.1631 66.1561 25.1631C65.5761 25.1631 65.0491 25.3523 64.5783 25.7254C64.1064 26.1016 63.7977 26.5929 63.6532 27.2013C63.5805 27.4851 63.5441 27.7173 63.5441 27.9001V29.6201C63.5441 30.3704 63.78 31.0036 64.2519 31.5207C64.7238 32.0378 65.3369 32.2958 66.091 32.2958C66.9764 32.2958 67.6655 31.9625 68.1583 31.2982C68.6523 30.6327 68.8993 29.7555 68.8993 28.6655Z" fill="white"/>
<path d="M83.4631 28.5816C83.4631 30.336 82.9769 31.7228 82.0033 32.7408C81.1334 33.647 80.0517 34.0996 78.7606 34.0996C77.367 34.0996 76.3659 33.6116 75.7573 32.6355H75.7132V38.0696H73.3625V26.9466C73.3625 25.8436 73.3327 24.7116 73.2754 23.5506H75.3427L75.4739 25.1857H75.518C76.3008 23.9538 77.4905 23.3389 79.0881 23.3389C80.3351 23.3389 81.377 23.8194 82.2128 24.7815C83.0452 25.7447 83.4631 27.0111 83.4631 28.5816ZM81.0683 28.6655C81.0683 27.6614 80.8357 26.8337 80.3704 26.1822C79.8621 25.5028 79.1818 25.1631 78.3251 25.1631C77.7441 25.1631 77.2182 25.3523 76.7463 25.7254C76.2744 26.1016 75.9667 26.5929 75.8223 27.2013C75.7506 27.4851 75.7132 27.7173 75.7132 27.9001V29.6201C75.7132 30.3704 75.9491 31.0036 76.4188 31.5207C76.8907 32.0367 77.5037 32.2958 78.2601 32.2958C79.1454 32.2958 79.8345 31.9625 80.3274 31.2982C80.8213 30.6327 81.0683 29.7555 81.0683 28.6655Z" fill="white"/>
<path d="M97.0686 29.8549C97.0686 31.0718 96.6353 32.0619 95.7654 32.8262C94.8094 33.6615 93.4786 34.0786 91.7686 34.0786C90.1897 34.0786 88.9239 33.7819 87.9658 33.1874L88.5105 31.2771C89.5425 31.8856 90.6748 32.1909 91.9086 32.1909C92.794 32.1909 93.4831 31.9952 93.9781 31.6061C94.471 31.2169 94.7168 30.6945 94.7168 30.043C94.7168 29.4625 94.5139 28.9734 94.1071 28.5767C93.7025 28.1801 93.0266 27.8113 92.0828 27.4706C89.5138 26.5364 88.2304 25.1679 88.2304 23.3684C88.2304 22.1923 88.6803 21.228 89.5811 20.4777C90.4786 19.7262 91.6759 19.3511 93.1732 19.3511C94.5084 19.3511 95.6176 19.5779 96.503 20.0305L95.9153 21.8988C95.0884 21.4602 94.1534 21.2409 93.1071 21.2409C92.2802 21.2409 91.6341 21.4398 91.171 21.8354C90.7796 22.1891 90.5833 22.6202 90.5833 23.1308C90.5833 23.6962 90.8071 24.1638 91.257 24.5315C91.6484 24.8712 92.3595 25.2389 93.3915 25.6355C94.654 26.1311 95.5812 26.7105 96.1777 27.3749C96.772 28.0371 97.0686 28.8659 97.0686 29.8549Z" fill="white"/>
<path d="M104.841 25.2708H102.25V30.2792C102.25 31.5531 102.706 32.1895 103.621 32.1895C104.041 32.1895 104.39 32.154 104.665 32.0831L104.73 33.8235C104.267 33.9923 103.658 34.0772 102.902 34.0772C101.974 34.0772 101.248 33.8009 100.725 33.2494C100.203 32.6969 99.9408 31.7702 99.9408 30.4684V25.2686H98.3972V23.5486H99.9408V21.6599L102.25 20.9805V23.5486H104.841V25.2708Z" fill="white"/>
<path d="M116.531 28.624C116.531 30.2096 116.066 31.5114 115.137 32.5294C114.164 33.5776 112.872 34.1 111.261 34.1C109.708 34.1 108.472 33.598 107.551 32.5939C106.629 31.5899 106.168 30.3225 106.168 28.7949C106.168 27.1964 106.642 25.887 107.594 24.869C108.543 23.8499 109.824 23.3403 111.435 23.3403C112.987 23.3403 114.237 23.8424 115.179 24.8475C116.081 25.8225 116.531 27.0813 116.531 28.624ZM114.092 28.6981C114.092 27.7468 113.884 26.9308 113.461 26.2504C112.969 25.4269 112.264 25.0163 111.351 25.0163C110.406 25.0163 109.688 25.428 109.196 26.2504C108.773 26.9319 108.565 27.7607 108.565 28.7411C108.565 29.6925 108.773 30.5084 109.196 31.1878C109.704 32.0113 110.414 32.4219 111.33 32.4219C112.228 32.4219 112.932 32.0027 113.44 31.1663C113.874 30.473 114.092 29.6484 114.092 28.6981Z" fill="white"/>
<path d="M124.172 25.5663C123.939 25.5243 123.691 25.5028 123.431 25.5028C122.604 25.5028 121.964 25.8071 121.515 26.4166C121.123 26.9541 120.927 27.6335 120.927 28.4537V33.8663H118.577L118.599 26.7993C118.599 25.6103 118.57 24.5278 118.511 23.5517H120.559L120.645 25.5254H120.71C120.958 24.8471 121.349 24.301 121.885 23.8914C122.409 23.5227 122.974 23.3389 123.584 23.3389C123.801 23.3389 123.998 23.3539 124.172 23.3808V25.5663Z" fill="white"/>
<path d="M134.685 28.2207C134.685 28.6314 134.657 28.9775 134.599 29.2603H127.547C127.574 30.2794 127.915 31.0587 128.57 31.5962C129.164 32.0768 129.933 32.3176 130.877 32.3176C131.921 32.3176 132.873 32.1552 133.73 31.8295L134.098 33.4205C133.097 33.8462 131.915 34.058 130.551 34.058C128.911 34.058 127.623 33.5871 126.686 32.6465C125.751 31.7059 125.282 30.4428 125.282 28.8582C125.282 27.3027 125.718 26.0073 126.59 24.9742C127.503 23.8713 128.737 23.3198 130.289 23.3198C131.814 23.3198 132.968 23.8713 133.752 24.9742C134.373 25.8504 134.685 26.934 134.685 28.2207ZM132.443 27.6263C132.459 26.9469 132.306 26.3599 131.987 25.8643C131.58 25.2269 130.955 24.9087 130.114 24.9087C129.345 24.9087 128.72 25.2193 128.243 25.8428C127.851 26.3384 127.619 26.9329 127.547 27.6252H132.443V27.6263Z" fill="white"/>
<path d="M54.0807 10.7596C54.0807 12.0249 53.6915 12.9773 52.9142 13.617C52.1942 14.2071 51.171 14.5028 49.8458 14.5028C49.1886 14.5028 48.6263 14.4748 48.1555 14.4189V7.50557C48.7696 7.40882 49.4312 7.35938 50.1456 7.35938C51.4081 7.35938 52.3596 7.62705 53.0013 8.1624C53.7202 8.76762 54.0807 9.633 54.0807 10.7596ZM52.8624 10.7908C52.8624 9.97055 52.6397 9.34167 52.1942 8.90307C51.7488 8.46555 51.0983 8.24625 50.2416 8.24625C49.8777 8.24625 49.5679 8.2699 49.311 8.31935V13.575C49.4532 13.5965 49.7134 13.6062 50.0916 13.6062C50.9759 13.6062 51.6584 13.3665 52.1391 12.887C52.6198 12.4076 52.8624 11.7088 52.8624 10.7908Z" fill="white"/>
<path d="M60.5407 11.8646C60.5407 12.644 60.3125 13.2825 59.856 13.7835C59.3775 14.2984 58.7436 14.5553 57.9519 14.5553C57.1889 14.5553 56.5814 14.3091 56.1283 13.8146C55.6762 13.3212 55.4502 12.6988 55.4502 11.9484C55.4502 11.1637 55.6828 10.5198 56.1503 10.0199C56.6178 9.52001 57.2463 9.26953 58.0379 9.26953C58.8009 9.26953 59.4139 9.51571 59.8781 10.0091C60.3191 10.4886 60.5407 11.1078 60.5407 11.8646ZM59.3422 11.9011C59.3422 11.4335 59.2386 11.0325 59.0324 10.6982C58.7899 10.294 58.4448 10.0919 57.996 10.0919C57.5318 10.0919 57.179 10.294 56.9365 10.6982C56.7292 11.0325 56.6266 11.44 56.6266 11.9216C56.6266 12.3892 56.7303 12.7902 56.9365 13.1245C57.1867 13.5287 57.5351 13.7308 57.985 13.7308C58.426 13.7308 58.7722 13.5255 59.0214 13.1137C59.2353 12.773 59.3422 12.3688 59.3422 11.9011Z" fill="white"/>
<path d="M69.2024 9.37256L67.5761 14.4401H66.5176L65.844 12.2396C65.6731 11.6903 65.5342 11.1442 65.4261 10.6024H65.4052C65.3048 11.1592 65.1659 11.7042 64.9873 12.2396L64.2717 14.4401H63.2011L61.6719 9.37256H62.8593L63.447 11.7816C63.5892 12.3514 63.7061 12.8943 63.7998 13.4081H63.8208C63.9068 12.9846 64.049 12.4449 64.2497 11.7924L64.9873 9.37363H65.9289L66.6356 11.7408C66.8065 12.3181 66.9454 12.8738 67.0524 13.4092H67.0844C67.1626 12.8878 67.2806 12.332 67.4372 11.7408L68.0678 9.37363H69.2024V9.37256Z" fill="white"/>
<path d="M75.1927 14.4401H74.0373V11.5376C74.0373 10.6432 73.6888 10.196 72.9898 10.196C72.6469 10.196 72.3702 10.3185 72.1552 10.5647C71.9424 10.8109 71.8343 11.1011 71.8343 11.4333V14.439H70.6789V10.8206C70.6789 10.3755 70.6645 9.89284 70.637 9.37039H71.6524L71.7064 10.1627H71.7384C71.8729 9.91649 72.0736 9.71331 72.3371 9.55099C72.6502 9.36179 73.0009 9.26611 73.3845 9.26611C73.8697 9.26611 74.2732 9.41876 74.5941 9.72514C74.9932 10.1003 75.1927 10.6604 75.1927 11.4043V14.4401Z" fill="white"/>
<path d="M78.379 14.4401H77.2246V7.04736H78.379V14.4401Z" fill="white"/>
<path d="M85.1819 11.8646C85.1819 12.644 84.9536 13.2825 84.4972 13.7835C84.0186 14.2984 83.3836 14.5553 82.593 14.5553C81.829 14.5553 81.2214 14.3091 80.7694 13.8146C80.3173 13.3212 80.0913 12.6988 80.0913 11.9484C80.0913 11.1637 80.324 10.5198 80.7914 10.0199C81.2589 9.52001 81.8874 9.26953 82.6779 9.26953C83.442 9.26953 84.0539 9.51571 84.5192 10.0091C84.9602 10.4886 85.1819 11.1078 85.1819 11.8646ZM83.9823 11.9011C83.9823 11.4335 83.8786 11.0325 83.6724 10.6982C83.431 10.294 83.0848 10.0919 82.6371 10.0919C82.1718 10.0919 81.819 10.294 81.5776 10.6982C81.3703 11.0325 81.2677 11.44 81.2677 11.9216C81.2677 12.3892 81.3714 12.7902 81.5776 13.1245C81.8278 13.5287 82.1763 13.7308 82.6261 13.7308C83.0671 13.7308 83.4122 13.5255 83.6614 13.1137C83.8764 12.773 83.9823 12.3688 83.9823 11.9011Z" fill="white"/>
<path d="M90.774 14.4403H89.7365L89.6505 13.8566H89.6185C89.2635 14.322 88.7574 14.5553 88.1003 14.5553C87.6096 14.5553 87.2127 14.4016 86.9139 14.0963C86.6427 13.8189 86.5071 13.4739 86.5071 13.0643C86.5071 12.4451 86.7717 11.9732 87.3042 11.6464C87.8357 11.3196 88.5832 11.1594 89.5457 11.1669V11.0723C89.5457 10.4047 89.1863 10.0715 88.4663 10.0715C87.9536 10.0715 87.5016 10.1973 87.1113 10.4467L86.8764 9.70706C87.3594 9.41573 87.9559 9.26953 88.6593 9.26953C90.0176 9.26953 90.699 9.96828 90.699 11.3658V13.232C90.699 13.7383 90.7244 14.1414 90.774 14.4403ZM89.5744 12.6988V11.9173C88.2998 11.8958 87.6626 12.2365 87.6626 12.9385C87.6626 13.203 87.7353 13.4008 87.8842 13.533C88.033 13.6652 88.2227 13.7308 88.4487 13.7308C88.7023 13.7308 88.9393 13.6523 89.1554 13.4964C89.3726 13.3395 89.506 13.1406 89.5557 12.8966C89.5678 12.8418 89.5744 12.7751 89.5744 12.6988Z" fill="white"/>
<path d="M97.34 14.4401H96.3146L96.2605 13.6264H96.2286C95.9011 14.2456 95.3432 14.5552 94.5593 14.5552C93.933 14.5552 93.4115 14.3154 92.9981 13.836C92.5846 13.3565 92.3784 12.7341 92.3784 11.9698C92.3784 11.1496 92.6022 10.4852 93.0521 9.97781C93.4876 9.50481 94.0212 9.26831 94.6563 9.26831C95.3542 9.26831 95.8427 9.49729 96.1205 9.95631H96.1426V7.04736H97.2992V13.0749C97.2992 13.5683 97.3124 14.023 97.34 14.4401ZM96.1426 12.303V11.4581C96.1426 11.3119 96.1315 11.1936 96.1106 11.1033C96.0455 10.8324 95.9055 10.6045 95.6927 10.4207C95.4777 10.2369 95.2186 10.1444 94.9198 10.1444C94.4887 10.1444 94.1513 10.3111 93.9033 10.6454C93.6574 10.9797 93.5328 11.4065 93.5328 11.9279C93.5328 12.4288 93.6508 12.8352 93.8878 13.148C94.1381 13.4812 94.4755 13.6479 94.8978 13.6479C95.2771 13.6479 95.5803 13.5092 95.8107 13.2308C96.0334 12.9738 96.1426 12.6642 96.1426 12.303Z" fill="white"/>
<path d="M107.222 11.8646C107.222 12.644 106.994 13.2825 106.537 13.7835C106.059 14.2984 105.426 14.5553 104.633 14.5553C103.871 14.5553 103.264 14.3091 102.81 13.8146C102.358 13.3212 102.132 12.6988 102.132 11.9484C102.132 11.1637 102.364 10.5198 102.832 10.0199C103.299 9.52001 103.928 9.26953 104.72 9.26953C105.482 9.26953 106.096 9.51571 106.559 10.0091C107.001 10.4886 107.222 11.1078 107.222 11.8646ZM106.025 11.9011C106.025 11.4335 105.921 11.0325 105.715 10.6982C105.471 10.294 105.127 10.0919 104.677 10.0919C104.214 10.0919 103.862 10.294 103.618 10.6982C103.411 11.0325 103.308 11.44 103.308 11.9216C103.308 12.3892 103.412 12.7902 103.618 13.1245C103.868 13.5287 104.217 13.7308 104.666 13.7308C105.107 13.7308 105.455 13.5255 105.704 13.1137C105.917 12.773 106.025 12.3688 106.025 11.9011Z" fill="white"/>
<path d="M113.435 14.4401H112.281V11.5376C112.281 10.6432 111.932 10.196 111.232 10.196C110.889 10.196 110.612 10.3185 110.399 10.5647C110.185 10.8109 110.078 11.1011 110.078 11.4333V14.439H108.921V10.8206C108.921 10.3755 108.908 9.89284 108.88 9.37039H109.895L109.949 10.1627H109.981C110.116 9.91649 110.317 9.71331 110.579 9.55099C110.894 9.36179 111.243 9.26611 111.628 9.26611C112.112 9.26611 112.516 9.41876 112.836 9.72514C113.237 10.1003 113.435 10.6604 113.435 11.4043V14.4401Z" fill="white"/>
<path d="M121.212 10.2168H119.939V12.6785C119.939 13.3042 120.165 13.617 120.613 13.617C120.82 13.617 120.992 13.5998 121.128 13.5643L121.158 14.4189C120.929 14.5028 120.629 14.5447 120.26 14.5447C119.804 14.5447 119.449 14.4093 119.192 14.1384C118.934 13.8675 118.806 13.4117 118.806 12.772V10.2168H118.046V9.37289H118.806V8.44409L119.938 8.11084V9.37182H121.21V10.2168H121.212Z" fill="white"/>
<path d="M127.329 14.4401H126.172V11.5591C126.172 10.6508 125.824 10.196 125.126 10.196C124.59 10.196 124.224 10.4594 124.023 10.9862C123.989 11.0969 123.969 11.2323 123.969 11.3914V14.4391H122.815V7.04736H123.969V10.1014H123.991C124.355 9.54566 124.877 9.26831 125.552 9.26831C126.031 9.26831 126.427 9.42096 126.741 9.72734C127.132 10.109 127.329 10.6766 127.329 11.4269V14.4401Z" fill="white"/>
<path d="M133.638 11.6667C133.638 11.8688 133.623 12.0386 133.595 12.1773H130.13C130.146 12.6783 130.311 13.0599 130.632 13.3243C130.925 13.5608 131.303 13.6791 131.766 13.6791C132.279 13.6791 132.746 13.5995 133.168 13.4394L133.348 14.222C132.856 14.4305 132.276 14.5348 131.604 14.5348C130.799 14.5348 130.165 14.3037 129.707 13.8414C129.246 13.3792 129.018 12.7589 129.018 11.9806C129.018 11.2163 129.23 10.5799 129.659 10.0725C130.107 9.53067 130.712 9.25977 131.476 9.25977C132.224 9.25977 132.792 9.53067 133.175 10.0725C133.485 10.5025 133.638 11.0346 133.638 11.6667ZM132.536 11.3754C132.545 11.041 132.469 10.7529 132.312 10.51C132.111 10.1972 131.806 10.0402 131.392 10.0402C131.015 10.0402 130.708 10.1929 130.473 10.4992C130.281 10.7433 130.168 11.0346 130.13 11.3754H132.536Z" fill="white"/>
</svg>
