<svg width="424" height="451" viewBox="0 0 424 451" fill="none" xmlns="http://www.w3.org/2000/svg">
<g clip-path="url(#clip0_460_99)">
<path d="M0 203.618V255.31C0 264.649 7.60441 272.251 16.947 272.251H202.494C211.837 272.251 219.441 264.649 219.441 255.31V211.545L242.581 187.329L17.0556 186.677C7.60441 186.568 0 194.17 0 203.618Z" fill="#F5F5F5"/>
<path d="M192.066 217.953L23.6824 217.192L23.791 211.98L192.174 212.849L192.066 217.953Z" fill="#E0E0E0"/>
<path d="M192.066 235.002L23.6824 234.242L23.791 229.03L192.174 229.79L192.066 235.002Z" fill="#E0E0E0"/>
<path d="M125.536 246.055L125.51 251.268L192.103 251.595L192.129 246.382L125.536 246.055Z" fill="#E0E0E0"/>
<path d="M171.968 382.367V434.059C171.968 443.398 179.573 451 188.915 451H374.463C383.805 451 391.41 443.398 391.41 434.059V390.295L414.549 366.078L189.024 365.426C179.573 365.318 171.968 372.919 171.968 382.367Z" fill="#F5F5F5"/>
<path d="M364.903 395.399L196.52 394.639V389.426L364.903 390.186V395.399Z" fill="#E0E0E0"/>
<path d="M364.903 412.448L196.52 411.58V406.476L364.903 407.236V412.448Z" fill="#E0E0E0"/>
<path d="M298.213 423.471L298.187 428.683L364.78 429.011L364.806 423.798L298.213 423.471Z" fill="#E0E0E0"/>
<path d="M99.1831 8.68774H208.578C214.01 8.68774 218.355 13.0316 218.355 18.4614V71.9993C218.355 77.4291 214.01 81.773 208.578 81.773H115.696C110.264 81.773 105.918 77.4291 105.918 71.9993V15.5293L99.1831 8.68774Z" fill="#F5F5F5"/>
<path d="M162.626 60.7052V95.0216C162.626 101.212 157.628 106.316 151.328 106.316H28.3535C22.1613 106.316 17.0555 101.32 17.0555 95.0216V66.0264L1.73804 49.9542L151.328 49.5198C157.52 49.5198 162.626 54.5152 162.626 60.7052Z" fill="#E0E0E0"/>
<path d="M35.1975 70.2618L146.874 69.7188V66.3523L35.1975 66.8953V70.2618Z" fill="#F5F5F5"/>
<path d="M35.1975 81.5557L146.874 81.0127V77.6462L35.1975 78.1892V81.5557Z" fill="#F5F5F5"/>
<path d="M79.4039 88.9406L35.1897 89.1582L35.2068 92.6333L79.421 92.4157L79.4039 88.9406Z" fill="#F5F5F5"/>
<path d="M395.755 219.799V254.115C395.755 260.305 390.758 265.409 384.457 265.409H261.483C255.291 265.409 250.185 260.414 250.185 254.115V225.12L234.868 209.048L384.457 208.613C390.758 208.613 395.755 213.609 395.755 219.799Z" fill="#E0E0E0"/>
<path d="M268.327 229.355L380.003 228.921V225.446L268.327 225.989V229.355Z" fill="#F5F5F5"/>
<path d="M268.327 240.649L380.003 240.215V236.74L268.327 237.283V240.649Z" fill="#F5F5F5"/>
<path d="M312.536 248.036L268.322 248.254L268.339 251.729L312.553 251.511L312.536 248.036Z" fill="#F5F5F5"/>
<path d="M290.38 390.186C272.02 372.268 271.695 344.576 276.474 320.467C277.235 316.449 277.561 312.106 280.059 308.848C282.558 305.59 287.447 303.961 290.814 306.241C293.53 308.196 294.291 311.888 295.485 315.038C297.115 319.273 299.939 322.965 303.524 325.68C305.914 327.418 308.956 328.721 311.672 327.743C315.474 326.44 316.669 321.662 317.321 317.644C318.516 310.151 319.711 302.658 320.906 295.165C321.558 291.146 322.21 287.02 324.056 283.436C325.903 279.852 329.271 276.703 333.29 276.269C337.31 275.834 341.655 278.766 341.872 282.893C341.981 284.631 341.329 286.26 341.221 287.889C341.112 289.626 341.546 291.581 343.067 292.232C344.588 292.993 346.435 292.124 347.739 291.146C352.519 287.78 356.212 283.002 359.688 278.224C363.165 273.445 366.641 268.558 371.095 264.758C375.549 260.957 381.415 258.242 387.173 258.893C392.931 259.545 398.58 264.106 399.014 269.97C399.557 275.834 395.32 281.047 390.975 285.065C384.566 291.038 377.179 295.925 369.357 299.834C367.945 300.486 366.424 301.246 365.663 302.658C364.36 305.155 366.424 308.305 368.922 309.608C371.747 311.128 375.006 311.345 378.156 312.214C381.198 313.083 384.348 315.038 385.109 318.187C386.087 322.531 381.958 326.332 378.048 328.612C370.335 333.173 361.861 336.322 353.17 338.06C350.02 338.712 346.761 339.146 344.045 340.775C341.329 342.512 339.265 345.879 340.243 348.92C341.221 351.96 344.805 353.481 347.956 353.481C351.106 353.372 354.148 352.178 357.298 351.526C363.165 350.331 370.226 351.852 372.942 357.282C374.789 360.757 374.245 365.209 372.507 368.793C370.769 372.376 367.836 375.2 364.794 377.698C354.257 386.602 341.546 393.118 327.967 395.507C314.388 397.679 302.329 396.919 290.38 390.186Z" fill="#FF7213"/>
<path d="M287.121 408.105C289.619 398.657 293.53 387.689 299.07 376.069C304.611 364.449 311.781 352.178 319.711 339.689C321.666 336.54 323.622 333.499 325.577 330.458C327.533 327.418 329.488 324.377 331.552 321.553C335.68 315.906 340.026 310.694 344.371 306.024C348.716 301.246 352.953 296.902 356.973 292.884C360.992 288.866 364.794 285.174 368.488 281.916C375.766 275.4 382.176 270.948 386.738 268.016C389.02 266.495 390.866 265.518 392.061 264.758C392.605 264.432 393.148 264.106 393.474 263.997C393.8 263.78 393.908 263.78 394.017 263.78C394.017 263.78 393.908 263.889 393.582 264.106C393.256 264.323 392.822 264.649 392.17 264.975C390.975 265.735 389.237 266.821 386.956 268.341C382.502 271.382 376.092 275.943 368.922 282.35C365.337 285.608 361.535 289.3 357.516 293.318C353.496 297.337 349.26 301.789 345.023 306.459C340.677 311.237 336.332 316.341 332.313 321.988C330.248 324.811 328.402 327.743 326.446 330.893C324.491 333.933 322.535 337.083 320.58 340.123C312.65 352.612 305.48 364.883 299.939 376.395C294.29 388.014 290.38 398.874 287.881 408.322" fill="#263238"/>
<path d="M331.769 321.445C331.769 321.445 331.661 320.793 331.661 319.707C331.661 318.513 331.661 316.884 331.661 314.82C331.769 310.694 332.095 305.047 332.421 298.857C332.747 292.667 333.073 287.02 333.073 282.893C333.073 280.83 333.073 279.201 333.073 278.006C333.073 276.812 333.073 276.269 333.182 276.269C333.182 276.269 333.29 276.92 333.399 278.006C333.508 279.201 333.616 280.83 333.616 282.893C333.725 287.02 333.616 292.667 333.182 298.857C332.856 305.047 332.421 310.585 332.204 314.82C332.095 316.775 331.987 318.404 331.987 319.707C331.878 320.793 331.878 321.445 331.769 321.445Z" fill="#263238"/>
<path d="M385 320.25C385 320.25 384.24 320.25 382.936 320.142C381.633 320.033 379.677 319.925 377.287 319.816C372.507 319.599 365.772 319.382 358.493 319.599C351.106 319.816 344.48 320.25 339.7 320.685C337.31 320.902 335.354 321.119 334.051 321.228C332.747 321.336 331.987 321.445 331.987 321.445C331.987 321.445 332.747 321.228 334.051 321.011C335.354 320.793 337.31 320.468 339.7 320.142C344.48 319.49 351.215 318.947 358.602 318.839C365.989 318.621 372.725 318.839 377.505 319.273C379.894 319.49 381.85 319.707 383.154 319.925C384.348 320.033 385 320.25 385 320.25Z" fill="#263238"/>
<path d="M299.831 375.2C299.831 375.2 299.722 374.983 299.614 374.548C299.505 374.005 299.288 373.354 299.07 372.485C298.527 370.748 297.875 368.141 297.115 364.992C295.594 358.693 293.747 349.897 291.901 340.123C290.054 330.35 288.316 321.553 286.903 315.255C286.252 312.214 285.708 309.608 285.274 307.762C285.057 306.893 284.948 306.241 284.839 305.698C284.731 305.264 284.731 304.938 284.731 304.938C284.731 304.938 284.839 305.155 284.948 305.59C285.057 306.133 285.274 306.784 285.491 307.653C286.034 309.391 286.686 311.997 287.447 315.146C288.967 321.445 290.814 330.241 292.661 340.015C294.508 349.788 296.246 358.585 297.658 364.883C298.31 367.924 298.853 370.53 299.288 372.376C299.505 373.245 299.614 373.897 299.722 374.44C299.831 374.874 299.939 375.2 299.831 375.2Z" fill="#263238"/>
<path d="M372.181 364.34C372.181 364.34 371.964 364.449 371.421 364.557C370.878 364.666 370.117 364.775 369.357 364.883C367.402 365.209 364.794 365.535 361.644 366.078C355.126 367.055 346.109 368.575 336.115 370.204C326.12 371.833 317.104 373.245 310.586 374.114C307.327 374.548 304.611 374.874 302.764 375.091C301.895 375.2 301.243 375.2 300.591 375.308C300.157 375.308 299.831 375.308 299.831 375.308C299.831 375.308 300.048 375.2 300.591 375.091C301.135 374.983 301.895 374.874 302.655 374.765C304.611 374.44 307.218 374.114 310.368 373.571C316.887 372.594 325.903 371.073 335.898 369.444C345.892 367.815 354.909 366.404 361.427 365.535C364.686 365.1 367.402 364.775 369.248 364.557C370.117 364.449 370.769 364.449 371.421 364.34C371.856 364.232 372.181 364.232 372.181 364.34Z" fill="#263238"/>
<path d="M107.548 145.953C104.18 143.347 102.66 138.786 103.42 134.551C104.072 130.316 106.788 126.623 110.373 124.234C112.002 123.148 113.957 122.279 115.913 122.822C117.651 123.365 118.955 125.103 119.281 126.84C119.606 128.687 119.281 130.533 118.629 132.27C116.565 138.243 113.414 143.564 107.548 145.953Z" fill="#455A64"/>
<path d="M102.116 156.161C95.4896 150.08 85.8211 147.582 77.1304 149.646C74.9577 150.189 72.4591 151.383 72.0246 153.555C71.6987 155.836 73.6541 157.682 75.6095 158.876C83.8657 163.655 94.9464 162.786 102.334 156.704" fill="#455A64"/>
<path d="M70.1779 109.139C73.8714 108.162 77.8909 109.031 81.1499 110.985C84.409 112.94 86.9076 115.981 88.9716 119.13C92.8825 125.32 94.2947 133.682 94.512 141.067C86.3644 140.741 79.4118 134.334 76.0441 130.859C70.721 125.32 64.5289 112.18 70.1779 109.139Z" fill="#455A64"/>
<path d="M114.392 167.238C113.958 166.369 113.089 165.718 112.328 164.198C110.807 161.048 108.743 156.487 107.765 151.057C106.788 145.628 107.44 140.524 108.743 137.266C109.395 135.637 110.155 134.334 110.699 133.465C111.242 132.705 111.676 132.27 111.676 132.27C111.785 132.379 110.373 134.116 109.286 137.374C108.091 140.632 107.548 145.628 108.526 150.84C109.504 156.053 111.459 160.614 112.871 163.872" fill="#263238"/>
<path d="M114.501 167.347C113.414 165.935 112.002 164.089 110.264 161.917C106.679 157.247 101.682 150.84 96.1414 143.89C90.601 136.94 85.4952 130.641 81.693 126.08C79.9548 123.908 78.434 122.062 77.3476 120.759C76.3699 119.456 75.7181 118.804 75.8267 118.696C75.8267 118.696 76.4785 119.347 77.5649 120.542C78.6512 121.736 80.2808 123.474 82.1275 125.755C85.9297 130.207 91.1442 136.397 96.7932 143.347C102.334 150.297 107.222 156.813 110.698 161.483C112.437 163.872 113.849 165.827 114.718 167.13" fill="#263238"/>
<path d="M82.2363 154.424C82.2363 154.315 82.7795 154.207 83.6486 153.99C84.0831 153.881 84.7349 153.772 85.3867 153.664C86.0385 153.555 86.799 153.447 87.668 153.447C89.4062 153.338 91.4703 153.338 93.6429 153.664C95.9243 153.99 98.3142 154.532 100.813 155.51C103.203 156.487 105.484 157.682 107.331 158.985C109.178 160.288 110.699 161.591 111.894 162.894C112.545 163.437 112.98 164.089 113.414 164.632C113.849 165.175 114.175 165.609 114.501 166.044C115.044 166.804 114.935 167.238 114.935 167.238C114.827 167.347 113.958 165.609 111.568 163.329C110.373 162.134 108.852 160.94 107.005 159.637C105.158 158.442 102.986 157.247 100.596 156.379C98.2056 155.51 95.8156 154.858 93.6429 154.533C91.4703 154.207 89.4062 154.098 87.7767 154.098C84.3004 154.098 82.2363 154.641 82.2363 154.424Z" fill="#263238"/>
<path d="M264.416 431.561L138.943 431.018C123.843 430.91 111.676 418.638 111.785 403.543L113.089 89.0489C113.197 73.954 125.473 61.7913 140.573 61.7913L266.046 62.3342C281.146 62.4428 293.313 74.7142 293.204 89.8091L291.901 404.304C291.792 419.398 279.516 431.561 264.416 431.561Z" fill="#263238"/>
<path d="M265.828 73.3025L241.494 73.1939C238.235 73.1939 235.628 75.9088 235.519 79.3839V83.8363C235.519 87.2028 232.804 90.0263 229.544 90.0263L182.071 89.8091C178.812 89.8091 176.205 86.9856 176.205 83.6191V79.1667C176.205 75.8002 173.598 72.9767 170.339 72.9767H161.757L140.573 72.7595C130.035 72.7595 121.345 81.23 121.345 91.7639L120.041 398.657C120.041 409.191 128.514 417.878 139.052 417.878L264.307 418.421C274.845 418.421 283.536 409.951 283.536 399.417L284.839 92.524C284.948 81.9902 276.366 73.3025 265.828 73.3025Z" fill="#FAFAFA"/>
<path d="M194.999 389.1C194.999 390.295 193.804 391.272 192.392 391.272C190.979 391.272 189.784 390.295 189.784 388.992C189.784 387.797 190.979 386.82 192.392 386.82C193.804 386.928 194.999 387.906 194.999 389.1Z" fill="#455A64"/>
<path d="M202.929 389.1C202.929 390.295 201.734 391.272 200.322 391.272C198.91 391.272 197.715 390.295 197.715 388.992C197.715 387.797 198.91 386.82 200.322 386.82C201.734 386.82 202.929 387.906 202.929 389.1Z" fill="#455A64"/>
<path d="M210.968 389.209C210.968 390.403 209.773 391.381 208.361 391.381C206.949 391.381 205.754 390.403 205.754 389.1C205.754 387.906 206.949 386.928 208.361 386.928C209.882 386.928 210.968 387.906 210.968 389.209Z" fill="#455A64"/>
<path d="M158.823 221.21C160.888 221.536 283.97 245.645 283.97 245.645V221.21H158.823Z" fill="#EBEBEB"/>
<path d="M120.041 376.286C120.041 376.286 253.987 357.39 252.792 357.933C251.597 358.476 120.041 357.933 120.041 357.933V376.286Z" fill="#EBEBEB"/>
<path d="M275.605 17.9185C275.714 17.9185 275.931 24.6514 275.931 33.0133C275.931 41.3752 275.823 48.1082 275.605 48.1082C275.388 48.1082 275.28 41.3752 275.28 33.0133C275.28 24.76 275.388 17.9185 275.605 17.9185Z" fill="#263238"/>
<path d="M329.162 52.7778C329.271 52.8864 323.079 55.8185 315.474 59.185C307.87 62.5515 301.569 65.1578 301.569 65.0492C301.46 64.9406 307.653 62.0085 315.257 58.642C322.861 55.2755 329.054 52.5606 329.162 52.7778Z" fill="#263238"/>
<path d="M327.859 0C327.859 0 327.75 0.217192 327.533 0.542981C327.315 0.977366 326.989 1.52035 326.555 2.17192C325.794 3.58367 324.491 5.53841 322.97 8.03612C319.928 12.9229 315.583 19.5473 310.586 26.8233C305.588 34.0992 301.243 40.615 298.093 45.5018C296.572 47.8909 295.268 49.8457 294.399 51.2574C293.965 51.909 293.639 52.452 293.421 52.7777C293.204 53.1035 293.096 53.3207 292.987 53.3207C292.987 53.3207 293.096 53.1035 293.313 52.7777C293.53 52.3434 293.856 51.8004 294.291 51.1488C295.051 49.7371 296.355 47.7823 297.875 45.2846C300.917 40.3978 305.263 33.7734 310.26 26.4975C315.257 19.2215 319.602 12.7058 322.753 7.81893C324.274 5.42981 325.577 3.47508 326.446 2.06333C326.881 1.41175 327.207 0.86877 327.424 0.542981C327.641 0.217192 327.75 0 327.859 0Z" fill="#263238"/>
<path d="M402.925 127.818H158.063C152.74 127.818 148.503 132.053 148.503 137.374V213.283C148.503 218.604 152.74 222.839 158.063 222.839H176.314C177.834 230.767 179.464 240.758 179.464 240.758L195.976 222.839H402.925C408.248 222.839 412.485 218.604 412.485 213.283V137.374C412.485 132.161 408.248 127.818 402.925 127.818Z" fill="#FF7213"/>
<path d="M301.895 169.084C301.895 169.193 272.781 169.41 236.823 169.41C200.865 169.41 171.751 169.301 171.751 169.084C171.751 168.975 200.865 168.758 236.823 168.758C272.672 168.758 301.895 168.867 301.895 169.084Z" fill="#F5F5F5"/>
<path d="M301.894 157.356C301.894 157.464 272.78 157.682 236.822 157.682C200.865 157.682 171.75 157.573 171.75 157.356C171.75 157.247 200.865 157.03 236.822 157.03C272.672 157.139 301.894 157.247 301.894 157.356Z" fill="#F5F5F5"/>
<path d="M301.895 180.595C301.895 180.704 272.781 180.921 236.823 180.921C200.865 180.921 171.751 180.813 171.751 180.595C171.751 180.487 200.865 180.27 236.823 180.27C272.672 180.27 301.895 180.378 301.895 180.595Z" fill="#F5F5F5"/>
<path d="M256.92 192.541C256.92 192.649 237.801 192.867 214.227 192.867C190.653 192.867 171.534 192.758 171.534 192.541C171.534 192.324 190.653 192.215 214.227 192.215C237.909 192.215 256.92 192.432 256.92 192.541Z" fill="#F5F5F5"/>
<path d="M292.226 264.432H45.3005C41.6069 264.432 38.5652 267.472 38.5652 271.165V351.526C38.5652 355.218 41.6069 358.259 45.3005 358.259H224.656L240.951 375.96C240.951 375.96 242.689 365.969 244.101 358.259H292.226C295.92 358.259 298.962 355.218 298.962 351.526V271.165C298.962 267.364 295.92 264.432 292.226 264.432Z" fill="#455A64"/>
<path d="M282.558 305.807C282.558 305.915 253.444 306.133 217.486 306.133C181.528 306.133 152.414 306.024 152.414 305.807C152.414 305.698 181.528 305.481 217.486 305.481C253.444 305.481 282.558 305.698 282.558 305.807Z" fill="#F5F5F5"/>
<path d="M282.557 294.187C282.557 294.296 253.443 294.513 217.485 294.513C181.527 294.513 152.413 294.404 152.413 294.187C152.413 293.97 181.527 293.861 217.485 293.861C253.443 293.861 282.557 293.97 282.557 294.187Z" fill="#F5F5F5"/>
<path d="M282.558 317.318C282.558 317.427 253.444 317.644 217.486 317.644C181.528 317.644 152.414 317.535 152.414 317.318C152.414 317.101 181.528 316.992 217.486 316.992C253.444 317.101 282.558 317.209 282.558 317.318Z" fill="#F5F5F5"/>
<path d="M237.692 329.264C237.692 329.372 218.572 329.59 194.999 329.59C171.425 329.59 152.305 329.481 152.305 329.264C152.305 329.155 171.425 328.938 194.999 328.938C218.572 329.047 237.692 329.155 237.692 329.264Z" fill="#F5F5F5"/>
<path d="M341.329 95.6733C341.438 93.7185 339.7 90.895 338.07 89.3747C336.441 87.7457 335.354 85.6824 336.223 82.4245C336.875 79.9268 338.505 80.144 339.048 78.7323C339.482 77.6463 339.265 76.4517 339.374 75.2572C339.7 71.2391 344.045 68.0898 347.956 69.1758C349.042 65.3749 352.627 62.4428 356.538 62.0084C360.449 61.5741 364.577 63.746 366.424 67.2211C368.705 66.0265 371.53 66.1351 373.702 67.3297C375.875 68.5242 377.396 70.9133 377.613 73.411C379.786 71.7821 383.153 72.4337 384.892 74.497C386.63 76.5603 386.738 79.7096 385.435 82.0987C384.131 84.4879 381.524 86.0082 378.917 86.4426C376.201 86.877 373.485 86.2254 371.095 85.0308C368.705 83.8363 366.532 82.0987 364.686 80.144" fill="#263238"/>
<path d="M359.145 220.45C385.124 220.45 406.184 199.884 406.184 174.514C406.184 149.144 385.124 128.578 359.145 128.578C333.167 128.578 312.107 149.144 312.107 174.514C312.107 199.884 333.167 220.45 359.145 220.45Z" fill="#E0E0E0"/>
<path d="M406.293 174.514L401.078 161.157L382.393 172.885L399.014 198.514C399.123 198.514 405.858 189.826 406.293 174.514Z" fill="#EB996E"/>
<path d="M354.8 145.627C361.535 145.627 367.076 140.415 367.401 133.79C367.727 128.252 367.945 122.931 367.945 122.931C367.945 122.931 378.156 122.171 379.134 112.18C380.112 102.189 380.22 78.9493 380.22 78.9493C368.922 72.9765 355.234 73.6281 344.48 80.4697L343.502 81.1212L342.307 133.03C342.198 139.98 347.847 145.627 354.8 145.627Z" fill="#FFBE9D"/>
<path d="M360.775 94.4785C361.535 94.6957 361.97 95.5645 361.753 96.3247C361.535 97.0848 360.666 97.5192 359.906 97.302C359.145 97.0848 358.711 96.2161 358.928 95.4559C359.145 94.5871 359.906 94.1527 360.775 94.4785Z" fill="#263238"/>
<path d="M363.491 94.9129C363.273 95.1301 362.404 94.2613 360.992 94.1527C359.58 94.0441 358.493 94.6957 358.385 94.4785C358.276 94.3699 358.493 94.0441 358.928 93.8269C359.363 93.5011 360.123 93.2839 360.992 93.2839C361.861 93.3925 362.622 93.7183 362.948 94.0441C363.491 94.5871 363.599 94.9129 363.491 94.9129Z" fill="#263238"/>
<path d="M375.984 94.4785C376.744 94.6957 377.178 95.5645 376.961 96.3247C376.744 97.0848 375.875 97.5192 375.114 97.302C374.354 97.0848 373.919 96.2161 374.137 95.4559C374.463 94.5871 375.223 94.1527 375.984 94.4785Z" fill="#263238"/>
<path d="M379.025 95.0215C378.808 95.2387 377.939 94.3699 376.527 94.2613C375.114 94.1527 374.028 94.8043 373.92 94.5871C373.811 94.4785 374.028 94.1527 374.463 93.9356C374.897 93.6098 375.658 93.3926 376.527 93.3926C377.396 93.5012 378.156 93.827 378.482 94.1527C379.025 94.5871 379.134 94.9129 379.025 95.0215Z" fill="#263238"/>
<path d="M368.488 105.773C368.488 105.664 369.357 105.555 370.769 105.447C371.095 105.447 371.421 105.338 371.421 105.23C371.53 105.012 371.421 104.578 371.204 104.144C370.878 103.166 370.66 102.297 370.335 101.211C369.14 97.0848 368.379 93.7183 368.596 93.6097C368.814 93.5011 369.9 96.8676 371.095 100.994C371.421 101.972 371.638 102.949 371.855 103.926C371.964 104.361 372.181 104.904 371.964 105.447C371.855 105.773 371.53 105.881 371.312 105.99C371.095 105.99 370.878 105.99 370.66 105.99C369.357 105.99 368.488 105.881 368.488 105.773Z" fill="#263238"/>
<path d="M367.945 122.822C367.945 122.822 361.535 122.822 355.017 118.044C355.017 118.044 357.516 125.537 367.727 125.428L367.945 122.822Z" fill="#EB996E"/>
<path d="M343.176 95.8903C343.176 95.1301 342.524 94.3699 341.764 94.3699C339.917 94.2613 336.767 94.9129 336.332 100.125C335.789 107.51 342.959 105.772 343.067 105.555C343.067 105.447 343.176 98.8223 343.176 95.8903Z" fill="#FFBE9D"/>
<path d="M341.438 102.623C341.438 102.623 341.329 102.732 341.112 102.84C340.895 102.949 340.569 102.949 340.134 102.84C339.374 102.515 338.831 101.212 338.831 99.9084C338.831 99.2568 339.048 98.6052 339.374 98.0622C339.591 97.5193 340.026 97.1935 340.46 97.1935C340.895 97.0849 341.112 97.4107 341.221 97.6279C341.329 97.845 341.221 97.9536 341.329 97.9536C341.329 97.9536 341.547 97.845 341.438 97.5193C341.438 97.4107 341.329 97.1935 341.221 97.0849C341.003 96.9763 340.786 96.8677 340.569 96.8677C340.026 96.8677 339.482 97.3021 339.157 97.9536C338.831 98.4966 338.613 99.2568 338.505 100.017C338.396 101.537 339.157 102.949 340.134 103.383C340.677 103.601 341.112 103.383 341.329 103.275C341.438 102.84 341.547 102.623 341.438 102.623Z" fill="#EB996E"/>
<path d="M356.973 91.0034C357.299 91.4378 358.602 91.2206 360.34 91.2206C361.97 91.112 363.273 91.112 363.599 90.6776C363.925 90.1346 362.296 88.9401 360.232 89.0487C357.95 89.1573 356.538 90.569 356.973 91.0034Z" fill="#263238"/>
<path d="M373.159 90.5692C373.376 91.2208 374.571 91.438 375.984 91.438C377.396 91.438 378.591 91.2208 378.699 90.5692C378.917 89.9176 377.613 89.0489 375.875 89.0489C374.245 88.9403 372.942 89.9176 373.159 90.5692Z" fill="#263238"/>
<path d="M381.633 82.2073C381.633 82.2073 375.549 85.1394 367.619 81.2299C362.404 78.6236 356.321 77.3204 355.017 78.4064C353.714 79.4924 353.388 84.8136 348.282 86.3339C348.282 86.3339 348.608 96.542 344.588 96.2162C340.46 95.8904 343.067 80.0354 343.067 80.0354L353.062 75.1485L363.925 73.0852L374.137 74.497L382.067 76.6689L381.633 82.2073Z" fill="#263238"/>
<path d="M313.41 141.284C324.056 130.315 342.85 131.51 342.85 131.51L358.385 142.587L367.184 132.379C367.184 132.379 376.418 133.356 385.109 137.917L385.761 138.134V138.243C392.605 141.935 402.273 150.84 411.398 159.419L400.426 169.627L388.259 180.487C388.259 180.487 388.259 180.595 388.259 180.704C388.151 181.356 389.997 196.233 391.844 207.527C380.764 218.061 366.641 222.622 350.889 219.907C345.892 219.038 343.502 217.844 338.831 216.649C331.987 214.912 327.098 208.939 326.446 201.88C325.577 192.432 325.034 180.704 325.034 180.704" fill="#455A64"/>
<path d="M376.853 134.333C376.853 134.333 377.179 134.985 377.504 136.071C377.939 137.157 378.482 138.895 379.134 140.958C380.438 145.085 382.067 150.84 383.588 157.139C385.109 163.546 386.304 169.41 387.064 173.645C387.39 175.817 387.716 177.446 387.825 178.641C388.042 179.835 388.042 180.487 388.042 180.487C388.042 180.487 387.825 179.835 387.607 178.641C387.39 177.338 387.064 175.709 386.63 173.645C385.761 169.41 384.566 163.654 383.045 157.247C381.524 150.84 379.894 145.193 378.699 141.066C378.156 139.112 377.613 137.374 377.287 136.18C377.07 134.985 376.853 134.333 376.853 134.333Z" fill="#263238"/>
<path d="M386.956 173.428C386.847 173.32 391.518 169.41 397.385 164.632C403.251 159.854 408.031 156.161 408.139 156.27C408.248 156.379 403.577 160.288 397.711 165.066C391.844 169.844 386.956 173.537 386.956 173.428Z" fill="#263238"/>
<path opacity="0.2" d="M327.424 156.378L317.864 187.763L321.449 189.609L324.926 180.704C324.926 180.704 328.51 162.025 327.424 156.378Z" fill="black"/>
<g opacity="0.2">
<path opacity="0.2" d="M375.875 134.333C380.981 137.048 368.162 143.564 362.296 143.347L366.532 132.161C366.532 132.27 374.137 133.465 375.875 134.333Z" fill="black"/>
</g>
<path d="M341.221 132.27V124.017C341.221 124.017 357.407 128.144 358.059 137.917C358.059 137.917 360.123 127.166 368.488 126.623L369.683 141.718L359.906 150.189H350.02L342.198 143.456L341.221 133.03" fill="#455A64"/>
<path d="M361.753 184.396C361.753 184.396 361.753 183.745 361.753 182.659C361.753 181.464 361.753 179.835 361.753 177.772C361.753 173.645 361.644 167.998 361.101 161.808C360.558 155.618 359.797 149.971 359.037 145.953C358.711 143.999 358.385 142.37 358.168 141.175C357.95 140.089 357.842 139.438 357.95 139.438C357.95 139.438 358.168 140.089 358.385 141.175C358.711 142.261 359.037 143.89 359.363 145.953C360.123 149.971 360.992 155.618 361.535 161.917C362.078 168.216 362.078 173.863 361.97 177.989C361.861 180.052 361.861 181.681 361.753 182.876C361.861 183.745 361.753 184.396 361.753 184.396Z" fill="#263238"/>
<path d="M357.298 134.985C357.298 134.985 356.973 134.876 356.321 135.094C355.669 135.311 355.126 136.071 354.691 137.157C353.714 139.329 352.41 142.478 351.649 146.17L351.541 146.496L351.215 146.279C350.237 145.736 349.26 145.084 348.282 144.433C346.326 143.13 344.588 141.718 343.067 140.415C342.307 139.763 341.655 138.894 341.329 138.026C341.003 137.157 340.786 136.288 340.786 135.528C340.677 134.008 341.003 132.704 341.112 131.944C341.329 131.075 341.438 130.641 341.438 130.641C341.438 130.641 341.438 131.075 341.329 131.944C341.221 132.813 341.003 134.008 341.112 135.528C341.221 136.288 341.329 137.048 341.655 137.917C341.981 138.677 342.633 139.437 343.393 140.089C344.914 141.392 346.761 142.695 348.608 143.998C349.585 144.65 350.563 145.302 351.541 145.845L351.106 146.062C351.975 142.369 353.279 139.22 354.365 137.048C354.583 136.505 354.909 136.071 355.234 135.637C355.56 135.311 355.886 134.985 356.321 134.985C356.973 134.768 357.407 134.985 357.298 134.985Z" fill="#263238"/>
<path d="M368.488 126.623C368.488 126.623 368.596 127.057 368.596 127.926C368.705 128.904 368.705 130.098 368.814 131.51C368.922 133.03 369.14 134.768 369.466 136.722C369.574 137.7 369.9 138.677 369.683 139.872C369.357 141.066 368.488 141.935 367.51 142.587C366.206 143.564 364.903 144.324 363.925 145.302L363.491 145.736V145.084C363.273 141.609 362.078 138.786 361.101 137.048C360.123 135.202 359.254 134.225 359.254 134.225C359.254 134.225 359.471 134.442 359.906 134.876C360.34 135.311 360.775 135.962 361.427 136.94C362.513 138.786 363.817 141.609 364.034 145.193L363.599 145.084C364.577 143.998 365.989 143.238 367.184 142.261C368.053 141.609 368.814 140.741 369.14 139.872C369.357 138.894 369.031 137.917 368.922 136.94C368.596 134.985 368.488 133.139 368.379 131.727C368.271 130.207 368.271 129.012 368.271 128.143C368.379 127.057 368.488 126.623 368.488 126.623Z" fill="#263238"/>
<path d="M420.741 128.687C420.089 129.447 396.19 161.374 396.19 161.374L399.557 163.329L424.109 131.836L420.741 128.687Z" fill="#263238"/>
<path d="M324.817 153.881C324.817 153.881 349.911 190.043 351.432 190.695C354.365 192.107 388.802 162.351 392.061 159.528C392.496 158.876 393.474 157.682 395.32 155.075C395.32 155.075 398.036 142.696 400.969 143.673C403.903 144.65 399.34 149.971 401.295 154.641C403.142 159.311 411.833 148.125 412.159 147.148L414.332 144.216C414.332 144.216 416.613 150.84 416.504 153.555C415.961 162.46 407.596 172.885 407.596 172.885C407.596 172.885 370.009 219.473 344.154 220.885C336.767 221.319 323.513 200.251 314.714 184.505C309.391 174.949 311.998 163.003 320.906 156.487L324.817 153.881Z" fill="#FFBE9D"/>
<path d="M412.159 155.293C412.05 155.293 412.919 153.772 413.788 152.035C414.657 150.189 415.309 148.777 415.418 148.777C415.527 148.777 414.983 150.406 414.114 152.143C413.245 153.989 412.268 155.293 412.159 155.293Z" fill="#EB996E"/>
<path d="M320.471 136.288C320.471 136.288 293.53 145.845 313.519 191.238L344.697 172.451L340.243 161.808L320.471 136.288Z" fill="#455A64"/>
<path d="M318.407 137.049C318.407 137.049 319.602 136.831 321.666 137.374C322.644 137.592 323.948 138.134 325.251 138.895C326.555 139.655 327.859 140.741 329.162 142.153C331.769 144.867 334.268 148.668 336.441 153.121C338.722 157.573 340.895 162.569 343.067 167.781C343.719 169.41 344.371 170.931 345.023 172.342L345.132 172.559L344.914 172.668C335.898 177.555 328.076 182.225 322.536 185.591C319.711 187.329 317.538 188.74 316.017 189.718C315.257 190.152 314.714 190.586 314.279 190.804C313.845 191.021 313.628 191.129 313.628 191.129C313.628 191.129 313.845 190.912 314.171 190.695C314.605 190.369 315.148 190.043 315.909 189.5C317.43 188.415 319.602 187.003 322.318 185.265C327.859 181.79 335.68 177.121 344.697 172.125L344.588 172.451C343.937 170.931 343.285 169.41 342.633 167.89C340.46 162.569 338.288 157.573 336.115 153.229C333.834 148.886 331.552 145.085 328.945 142.37C327.641 140.958 326.338 139.872 325.143 139.112C323.948 138.352 322.753 137.809 321.666 137.591C319.602 137.049 318.407 137.157 318.407 137.049Z" fill="#263238"/>
<path d="M376.418 69.8274C376.418 69.8274 376.527 69.936 376.527 70.2618C376.527 70.5876 376.635 71.0219 376.635 71.6735C376.527 72.8681 376.092 74.7142 374.571 76.3432C373.05 77.9721 370.226 79.0581 367.293 78.1893C365.881 77.7549 364.468 76.8862 363.599 75.4744C363.165 74.8228 362.948 73.8455 363.056 72.9767C363.165 72.1079 363.599 71.2391 364.36 70.6962C365.12 70.1532 366.207 70.1532 366.967 70.479C367.727 70.8048 368.488 71.4563 368.705 72.2165C369.357 73.8455 368.922 75.583 367.945 76.7776C366.098 79.2753 362.73 79.4925 360.775 78.2979C359.797 77.8635 358.928 77.4291 358.059 77.3205C357.19 77.1033 356.538 77.3205 355.995 77.5377C354.909 78.0807 354.474 78.6237 354.474 78.5151C354.474 78.5151 354.583 78.4065 354.8 78.1893C354.909 78.0807 355.017 77.9721 355.234 77.7549C355.452 77.6463 355.669 77.4291 355.886 77.3205C356.429 76.9947 357.19 76.8862 358.059 76.9948C358.928 77.1033 359.906 77.5377 360.883 77.9721C361.427 78.1893 361.861 78.4065 362.404 78.5151C362.947 78.6237 363.599 78.6237 364.142 78.5151C365.337 78.2979 366.532 77.6463 367.402 76.5604C368.162 75.4744 368.596 73.9541 368.053 72.5423C367.619 71.2391 365.772 70.3704 364.468 71.1305C363.817 71.5649 363.491 72.2165 363.382 72.9767C363.273 73.7369 363.491 74.3884 363.817 75.04C364.577 76.3432 365.881 77.1033 367.184 77.5377C369.9 78.2979 372.616 77.4291 374.028 75.9088C375.549 74.3884 375.984 72.6509 376.201 71.4563C376.635 70.479 376.418 69.8274 376.418 69.8274Z" fill="#455A64"/>
<path d="M370.552 110.768C370.552 110.877 370.226 110.985 369.574 110.985C369.031 110.985 368.162 110.877 367.293 110.442C366.424 110.008 365.881 109.465 365.555 108.922C365.229 108.379 365.12 108.053 365.229 108.053C365.337 107.945 366.098 109.248 367.619 109.899C369.14 110.768 370.552 110.66 370.552 110.768Z" fill="#263238"/>
<path d="M342.09 105.99C342.09 105.99 342.416 106.424 342.09 107.184C341.873 107.51 341.547 107.945 341.003 108.053C340.46 108.162 339.808 108.053 339.265 107.619C338.831 107.184 338.505 106.641 338.505 105.99C338.505 105.447 338.722 105.013 339.048 104.687C339.591 104.035 340.134 104.035 340.134 104.035C340.134 104.144 339.7 104.361 339.374 104.904C339.048 105.447 338.831 106.424 339.591 107.076C339.917 107.402 340.46 107.51 340.786 107.402C341.221 107.293 341.438 107.076 341.655 106.859C342.09 106.424 341.981 105.99 342.09 105.99Z" fill="#263238"/>
<path d="M378.265 73.5195C378.265 73.5195 378.7 74.1711 378.808 75.4743C378.917 76.7774 378.482 78.6236 377.179 80.1439C375.875 81.6643 374.028 82.3158 372.725 82.4244C371.421 82.533 370.661 82.2072 370.661 82.2072C370.661 82.0986 371.421 82.2072 372.616 82.0986C373.811 81.8814 375.44 81.2299 376.635 79.8181C377.83 78.4064 378.265 76.6688 378.265 75.4743C378.374 74.2797 378.156 73.5195 378.265 73.5195Z" fill="#455A64"/>
<path d="M341.547 164.306C341.655 164.415 334.485 168.107 325.577 172.559C316.669 177.012 309.391 180.378 309.282 180.27C309.174 180.161 316.343 176.469 325.251 172.016C334.159 167.673 341.438 164.198 341.547 164.306Z" fill="#E0E0E0"/>
<path d="M335.028 152.035C335.137 152.143 328.728 155.727 320.797 159.962C312.867 164.197 306.349 167.564 306.24 167.455C306.132 167.347 312.541 163.763 320.471 159.528C328.402 155.184 334.92 151.926 335.028 152.035Z" fill="#E0E0E0"/>
<path d="M328.728 142.044C328.728 142.153 327.533 142.804 325.577 143.89C323.405 145.085 320.797 146.605 317.756 148.234C314.822 149.971 312.107 151.492 310.042 152.686C308.087 153.772 306.783 154.532 306.783 154.424C306.783 154.315 307.87 153.555 309.825 152.361C311.781 151.166 314.496 149.537 317.538 147.8C320.58 146.062 323.405 144.65 325.469 143.564C327.315 142.587 328.619 142.044 328.728 142.044Z" fill="#E0E0E0"/>
<path d="M352.519 139.763C352.519 139.872 351.65 139.763 350.455 139.22C349.26 138.677 347.63 137.7 346.109 136.397C344.588 134.985 343.393 133.573 342.524 132.596C341.655 131.51 341.221 130.858 341.329 130.858C341.438 130.858 341.981 131.401 342.85 132.379C343.719 133.356 345.023 134.768 346.435 136.071C347.956 137.374 349.477 138.352 350.672 139.003C351.758 139.437 352.519 139.655 352.519 139.763Z" fill="#E0E0E0"/>
<path d="M368.379 133.791C368.488 133.791 367.836 135.637 366.098 137.048C364.36 138.46 362.513 138.895 362.513 138.677C362.404 138.569 364.143 137.917 365.772 136.614C367.402 135.311 368.271 133.791 368.379 133.791Z" fill="#E0E0E0"/>
<path d="M396.624 150.188C396.624 150.188 396.407 150.297 395.972 150.297C395.538 150.406 394.886 150.406 394.234 150.514C392.713 150.731 390.541 150.84 387.825 151.057C382.393 151.492 374.789 151.926 366.532 152.252C358.168 152.578 350.672 152.686 345.131 152.578C342.416 152.578 340.134 152.469 338.613 152.469C337.853 152.469 337.31 152.36 336.875 152.36C336.441 152.36 336.223 152.36 336.223 152.252C336.223 152.252 336.441 152.252 336.875 152.252C337.31 152.252 337.962 152.252 338.613 152.252C340.243 152.252 342.416 152.252 345.131 152.252C350.563 152.143 358.168 152.035 366.424 151.709C374.789 151.383 382.284 151.057 387.716 150.731C390.432 150.514 392.605 150.406 394.126 150.297C394.886 150.297 395.429 150.188 395.864 150.188C396.407 150.188 396.624 150.188 396.624 150.188Z" fill="#E0E0E0"/>
<path d="M388.042 163.003C388.042 163.003 387.39 163.112 386.304 163.329C385.109 163.437 383.479 163.654 381.415 163.872C377.287 164.306 371.53 164.632 365.229 164.958C358.928 165.175 353.17 165.283 349.042 165.283C346.978 165.283 345.24 165.175 344.154 165.175C342.959 165.175 342.307 165.066 342.307 165.066C342.307 165.066 342.959 164.958 344.154 164.958C345.457 164.958 347.087 164.958 349.042 164.849C353.17 164.74 358.928 164.632 365.229 164.415C371.53 164.197 377.287 163.872 381.415 163.546C383.371 163.437 385.109 163.329 386.304 163.22C387.39 163.003 388.042 163.003 388.042 163.003Z" fill="#E0E0E0"/>
<path d="M368.596 178.966C368.596 179.075 367.184 179.292 365.012 179.509C362.73 179.727 359.688 179.944 356.321 180.161C352.953 180.378 349.803 180.378 347.521 180.378C345.24 180.378 343.937 180.27 343.937 180.27C343.937 180.161 345.349 180.161 347.521 180.052C349.911 179.944 352.953 179.835 356.321 179.618C359.688 179.401 362.622 179.292 365.012 179.184C367.184 178.966 368.596 178.858 368.596 178.966Z" fill="#E0E0E0"/>
<path d="M343.719 141.284C343.719 141.392 340.352 141.501 336.332 141.61C332.204 141.827 328.945 142.044 328.836 141.827C328.836 141.718 332.095 141.175 336.223 141.067C340.352 140.849 343.719 141.067 343.719 141.284Z" fill="#E0E0E0"/>
<path d="M389.563 140.632C389.563 140.741 385.218 140.849 379.895 140.849C374.571 140.849 370.226 140.632 370.226 140.524C370.226 140.415 374.571 140.306 379.895 140.306C385.218 140.306 389.563 140.524 389.563 140.632Z" fill="#E0E0E0"/>
<path d="M391.193 206.767C391.193 206.767 390.867 206.984 390.215 207.31C389.563 207.636 388.585 208.07 387.39 208.613C385 209.591 381.524 210.785 377.613 211.763C373.702 212.631 370.117 213.066 367.51 213.174C366.207 213.283 365.12 213.283 364.36 213.283C363.599 213.283 363.273 213.283 363.273 213.174C363.273 213.066 364.903 213.066 367.51 212.74C370.117 212.523 373.702 211.98 377.505 211.111C381.415 210.242 384.783 209.048 387.282 208.179C389.672 207.31 391.193 206.659 391.193 206.767Z" fill="#E0E0E0"/>
<path d="M97.7709 354.566C123.75 354.566 144.81 334.486 144.81 309.716C144.81 284.946 123.75 264.866 97.7709 264.866C71.7921 264.866 50.7322 284.946 50.7322 309.716C50.7322 334.486 71.7921 354.566 97.7709 354.566Z" fill="#E0E0E0"/>
<path d="M88.1023 201.554C80.6065 201.989 77.6734 209.699 76.8043 211.437C75.9353 213.174 75.8266 215.129 75.6093 217.084C75.3921 219.038 75.1748 220.993 74.1971 222.731C72.5676 225.337 69.0913 226.749 68.1136 229.681C67.0272 233.047 69.7431 236.522 69.0913 239.998C68.6567 241.844 67.3531 243.364 66.9186 245.21C66.3754 247.056 66.9186 249.12 67.8963 250.857C70.3949 255.092 75.3921 257.156 80.2806 257.373C85.1692 257.59 89.9491 256.07 94.5117 254.658" fill="#263238"/>
<path d="M121.019 211.219C120.258 212.848 121.019 214.695 122.105 215.998C123.3 217.301 124.821 218.17 126.124 219.256C127.428 220.342 128.732 221.753 128.84 223.491C128.949 225.12 128.188 226.64 128.406 228.269C128.949 232.287 135.467 233.59 135.793 237.608C136.01 240.323 133.186 242.821 134.055 245.427C134.381 246.405 135.141 247.165 135.684 248.142C137.531 251.183 136.227 255.418 133.62 257.807C130.904 260.196 127.211 261.065 123.734 261.174C120.693 261.282 117.325 260.848 115.587 258.35C113.957 256.178 114.283 253.138 114.609 250.423C116.13 237.717 115.913 224.794 115.587 211.98" fill="#263238"/>
<path d="M90.0577 270.079C90.1664 263.346 90.0577 256.396 90.0577 256.396C90.0577 256.396 81.4756 254.875 79.8461 243.581C78.2166 232.83 80.9325 209.699 80.9325 209.699C93.4254 204.812 107.439 206.659 116.13 216.758L114.826 271.056C114.718 277.355 109.069 282.242 102.333 282.024C95.4895 281.807 90.0577 276.486 90.0577 270.079Z" fill="#FFBE9D"/>
<path d="M83.3223 227.509C83.3223 228.269 83.8654 228.921 84.7345 229.03C85.495 229.03 86.1468 228.487 86.2554 227.726C86.2554 226.966 85.7122 226.315 84.8431 226.206C83.9741 226.206 83.3223 226.749 83.3223 227.509Z" fill="#263238"/>
<path d="M80.9324 226.423C81.1496 226.64 82.236 225.772 83.7569 225.88C86.69 226.315 86.5814 226.749 86.5814 226.532C86.69 226.423 86.4727 226.097 86.0382 225.772C85.6037 225.446 84.7346 225.011 83.7569 225.011C82.7792 225.011 82.0187 225.337 81.4755 225.663C81.041 225.989 80.9324 226.315 80.9324 226.423Z" fill="#263238"/>
<path d="M99.1831 227.944C99.1831 228.704 99.7263 229.355 100.595 229.464C101.356 229.464 102.008 228.921 102.116 228.161C102.116 227.401 101.573 226.749 100.704 226.64C99.8349 226.64 99.1831 227.183 99.1831 227.944Z" fill="#263238"/>
<path d="M97.119 226.966C97.3363 227.183 98.4226 226.315 99.9435 226.423C101.464 226.423 102.659 227.183 102.768 227.075C102.877 226.966 102.659 226.64 102.225 226.315C101.79 225.989 100.921 225.554 99.9435 225.554C98.9658 225.554 98.2053 225.88 97.6622 226.206C97.2276 226.532 97.0104 226.858 97.119 226.966Z" fill="#263238"/>
<path d="M91.3614 238.043C91.3614 237.934 90.3837 237.826 88.8628 237.608C88.4282 237.608 88.1023 237.5 87.9937 237.174C87.8851 236.848 88.1023 236.414 88.3196 235.98C88.7541 235.002 89.08 234.025 89.5146 232.939C91.1441 228.704 92.4477 225.12 92.2304 225.12C92.0132 225.011 90.6009 228.486 88.8628 232.722C88.4282 233.808 88.1023 234.785 87.6678 235.762C87.5592 236.197 87.2333 236.74 87.4505 237.283C87.5592 237.608 87.8851 237.826 88.1023 237.826C88.3196 237.934 88.5369 237.934 88.7541 237.934C90.3837 238.151 91.3614 238.151 91.3614 238.043Z" fill="#263238"/>
<path d="M90.0576 256.396C90.0576 256.396 97.662 256.939 105.158 252.595C105.158 252.595 101.464 260.305 90.1662 259.11L90.0576 256.396Z" fill="#EB996E"/>
<path d="M92.0132 241.844C92.5564 241.083 93.5341 240.758 94.5118 240.866C95.1636 240.975 95.8154 241.301 96.25 241.844C96.6845 242.387 96.6845 243.147 96.3586 243.69C95.9241 244.233 95.055 244.45 94.2946 244.233C93.5341 244.016 92.8823 243.473 92.3391 243.038C92.1219 242.93 92.0132 242.712 91.9046 242.604C91.796 242.278 91.796 242.061 92.0132 241.844Z" fill="#EB996E"/>
<path d="M95.9239 239.238C95.7067 239.238 95.598 240.866 94.1858 242.061C92.7735 243.256 90.9268 243.038 90.9268 243.256C90.9268 243.364 91.3613 243.581 92.1217 243.581C92.8822 243.581 93.9685 243.364 94.8376 242.713C95.7067 241.952 96.1412 240.975 96.1412 240.324C96.2498 239.563 96.0326 239.238 95.9239 239.238Z" fill="#263238"/>
<path d="M111.241 208.831C107.113 214.695 96.2499 220.776 88.4282 222.079C89.2973 220.885 94.0772 217.953 95.0549 216.758C91.47 219.364 86.4728 222.948 81.8015 223.165C81.2583 223.165 80.6065 223.165 80.172 222.948C79.5202 222.622 79.4115 221.862 79.3029 221.211C78.977 218.496 79.1943 213.717 79.6288 211.002C80.0634 208.288 81.367 205.573 83.6483 203.727C86.69 201.446 90.9268 200.794 95.0549 200.686C98.4226 200.577 102.007 200.794 105.049 201.989C108.2 203.184 110.807 205.681 111.241 208.505" fill="#263238"/>
<path d="M123.083 235.002C123.626 232.07 124.06 229.355 124.169 227.509C124.495 221.754 122.865 200.36 102.877 201.989L102.116 208.071C102.116 208.071 99.0744 228.921 112.002 229.03C112.002 229.03 112.762 235.22 118.629 241.301C118.411 241.41 121.888 241.301 123.083 235.002Z" fill="#263238"/>
<path d="M111.893 229.138C113.088 228.921 114.392 228.921 115.478 229.464C116.565 229.898 117.651 230.767 118.085 231.853C118.52 232.939 118.52 234.242 118.085 235.437C117.651 236.631 116.89 237.609 116.021 238.477C115.37 239.129 114.718 239.672 113.849 239.889C112.98 240.106 112.002 239.998 111.35 239.455" fill="#FFBE9D"/>
<path d="M112.436 236.414C112.328 236.414 112.762 237.174 113.957 236.957C114.501 236.848 115.044 236.414 115.37 235.762C115.696 235.219 115.913 234.568 116.021 233.808C116.13 233.048 115.913 232.287 115.587 231.636C115.152 231.093 114.609 230.658 114.066 230.658C112.98 230.658 112.545 231.419 112.654 231.419C112.762 231.527 113.197 231.093 113.957 231.31C114.718 231.419 115.37 232.396 115.152 233.699C115.044 234.894 114.501 236.088 113.849 236.305C113.088 236.631 112.545 236.305 112.436 236.414Z" fill="#EB996E"/>
<path d="M114.066 206.55C115.587 207.419 117.434 207.636 119.172 207.202C120.91 206.767 122.431 205.573 123.3 204.052C123.843 203.075 124.169 201.88 123.952 200.794C123.517 199.274 122.105 198.297 120.584 197.862C118.411 197.319 115.913 197.862 114.283 199.383C112.654 200.903 111.893 203.401 112.654 205.573C113.414 207.745 115.587 209.265 117.868 209.156" fill="#263238"/>
<path d="M115.913 239.02C114.826 239.78 113.631 240.649 112.762 241.735C111.893 242.821 111.241 244.124 111.459 245.536C111.567 246.296 111.785 247.056 111.676 247.817C111.567 248.903 110.698 249.663 110.046 250.531C108.634 252.812 109.177 256.07 111.024 258.025C112.871 259.979 115.695 260.957 118.411 261.065C120.041 261.065 121.67 260.848 122.974 259.979C124.821 258.676 125.581 256.178 125.581 253.898" fill="#263238"/>
<path d="M117.216 211.111C117.325 211.111 116.89 211.98 116.021 213.174C115.152 214.369 113.849 215.889 112.219 217.41C110.481 218.821 108.743 219.907 107.439 220.559C106.136 221.21 105.266 221.428 105.266 221.428C105.158 221.21 108.526 219.907 111.893 216.975C115.152 214.043 117.108 211.002 117.216 211.111Z" fill="#455A64"/>
<path d="M119.28 211.002C119.389 211.002 119.28 212.088 118.954 213.717C118.52 215.346 117.759 217.627 116.456 219.907C115.044 222.188 113.523 223.925 112.219 225.011C110.916 226.097 110.046 226.64 109.938 226.64C109.829 226.532 113.305 224.034 116.021 219.581C118.629 215.129 119.172 210.894 119.28 211.002Z" fill="#455A64"/>
<path d="M75.9354 220.016C76.1526 220.016 76.3699 221.862 76.9131 224.143C77.5649 226.314 78.3253 228.052 78.2167 228.161C78.1081 228.269 77.0217 226.64 76.3699 224.36C75.7181 221.971 75.7181 220.016 75.9354 220.016Z" fill="#455A64"/>
<path d="M123.843 258.459C123.843 258.35 124.386 259.002 125.473 259.002C126.016 259.002 126.776 258.893 127.428 258.35C128.08 257.916 128.623 257.156 128.84 256.178C129.058 255.201 129.058 254.115 128.84 252.92C128.623 251.726 128.188 250.531 127.754 249.228C127.319 247.925 126.993 246.405 127.319 244.884C127.537 243.255 128.623 241.952 129.058 240.54C129.601 239.129 129.383 237.5 128.732 236.305C128.08 235.002 126.993 234.025 125.799 233.59C125.147 233.373 124.495 233.047 123.952 232.722C123.409 232.396 122.757 231.961 122.431 231.418C121.779 230.224 121.779 229.029 121.779 228.052C121.779 226.966 121.888 226.097 121.67 225.337C121.453 224.577 121.236 223.925 120.801 223.491C120.041 222.622 119.28 222.622 119.389 222.622C119.389 222.622 119.606 222.622 119.824 222.622C120.15 222.731 120.584 222.948 121.019 223.382C121.453 223.817 121.779 224.468 121.996 225.337C122.214 226.206 122.214 227.183 122.214 228.16C122.214 229.138 122.214 230.332 122.865 231.31C123.517 232.287 124.712 232.722 126.016 233.265C127.319 233.699 128.623 234.785 129.275 236.197C129.927 237.608 130.253 239.346 129.601 240.866C129.058 242.387 128.08 243.69 127.863 245.101C127.645 246.513 127.971 247.925 128.297 249.228C128.732 250.531 129.166 251.834 129.383 253.029C129.601 254.224 129.601 255.418 129.275 256.504C128.949 257.59 128.406 258.35 127.645 258.893C126.885 259.328 126.124 259.545 125.581 259.436C124.929 259.436 124.495 259.219 124.278 259.002C123.952 258.567 123.843 258.459 123.843 258.459Z" fill="#455A64"/>
<path d="M116.021 257.699C116.021 257.699 116.13 258.024 116.673 258.242C117.108 258.459 118.194 258.459 118.737 257.699C119.28 256.83 119.28 255.527 118.52 254.332C117.868 253.138 116.673 251.943 116.347 250.097C116.13 249.228 116.347 248.251 116.999 247.599C117.542 246.948 118.194 246.513 118.52 245.97C119.389 244.884 119.389 243.581 119.28 242.495C119.172 241.409 118.846 240.649 118.629 239.997C118.411 239.454 118.303 239.129 118.411 239.129C118.411 239.129 118.629 239.454 118.846 239.997C119.063 240.54 119.498 241.409 119.606 242.495C119.823 243.581 119.823 245.101 118.846 246.296C118.411 246.948 117.759 247.382 117.325 247.925C116.89 248.468 116.673 249.228 116.89 249.988C117.108 251.509 118.303 252.703 118.954 254.115C119.606 255.418 119.715 257.047 118.954 258.024C118.629 258.567 117.977 258.785 117.542 258.785C117.108 258.785 116.673 258.785 116.347 258.567C115.913 258.133 115.913 257.699 116.021 257.699Z" fill="#455A64"/>
<path d="M73.4368 254.875C73.4368 254.875 73.1109 254.549 72.5677 254.007C72.0245 253.355 71.2641 252.486 70.7209 251.183C70.395 250.531 70.2864 249.663 70.2864 248.794C70.2864 247.925 70.6123 246.948 71.2641 246.188C71.9159 245.427 72.8936 244.993 73.5454 244.233C74.1972 243.473 74.1972 242.495 73.9799 241.409C73.7627 240.432 73.2195 239.455 72.785 238.586C72.3504 237.717 71.9159 236.74 71.6986 235.762C71.4814 234.785 71.6986 233.699 72.2418 233.047C72.785 232.287 73.3281 231.853 73.8713 231.31C74.9577 230.441 75.6095 229.464 75.7181 228.704C75.8267 227.943 75.6095 227.509 75.7181 227.509C75.7181 227.509 75.8267 227.618 75.9354 227.835C76.044 228.052 76.044 228.378 76.044 228.812C75.9354 229.681 75.2836 230.767 74.1972 231.744C73.654 232.287 73.1109 232.722 72.6763 233.482C72.2418 234.133 72.0245 235.002 72.2418 235.871C72.3504 236.74 72.785 237.608 73.3281 238.586C73.7627 239.455 74.3058 240.432 74.6317 241.627C74.849 242.713 74.849 244.016 74.0886 244.884C73.3281 245.753 72.3504 246.079 71.8073 246.839C71.2641 247.491 70.9382 248.359 70.9382 249.12C70.9382 249.88 71.0468 250.64 71.2641 251.292C71.8073 252.595 72.4591 253.464 73.0022 254.115C73.1109 254.441 73.4368 254.767 73.4368 254.875Z" fill="#455A64"/>
<path d="M118.737 207.962C118.628 208.07 117.868 206.333 116.13 205.138C114.392 203.835 112.654 203.509 112.654 203.401C112.654 203.292 114.609 203.292 116.456 204.704C118.303 206.116 118.846 207.962 118.737 207.962Z" fill="#FF7213"/>
<path d="M120.258 197.645C120.367 197.645 120.693 198.079 121.019 198.84C121.344 199.708 121.453 200.903 121.127 202.315C120.801 203.618 119.932 204.704 119.28 205.247C118.629 205.79 118.085 206.007 118.085 205.898C118.085 205.79 118.52 205.573 119.063 204.921C119.606 204.269 120.258 203.401 120.693 202.206C121.019 201.011 120.91 199.817 120.801 199.057C120.367 198.079 120.15 197.645 120.258 197.645Z" fill="#455A64"/>
<path opacity="0.3" d="M65.072 331.218C65.072 331.218 92.0134 356.847 108.091 352.177C124.169 347.508 128.84 335.454 128.84 335.454L129.275 331.11L127.645 330.024L65.8325 325.028L65.072 331.218Z" fill="black"/>
<path d="M49.1028 307.219L54.3172 293.861L73.0023 305.59L56.3813 331.218C56.3813 331.218 49.646 322.422 49.1028 307.219Z" fill="#EB996E"/>
<path d="M70.1778 270.296C78.8685 265.735 90.0579 264.432 90.0579 264.432C93.3169 270.948 103.637 271.816 109.829 267.364L115.044 263.78C115.044 263.78 115.804 263.78 117.216 263.889C129.492 264.975 139.595 274.097 142.094 286.26C142.963 290.604 143.723 295.708 143.397 300.377C142.746 312.214 130.47 313.3 130.47 313.3C130.47 313.3 129.818 325.029 129.058 334.476C128.406 341.535 124.821 346.856 118.303 349.788C113.523 351.96 110.807 353.046 104.615 354.024C88.8629 356.521 73.7627 350.549 63.7684 339.906C65.6151 328.612 67.4619 313.952 67.2446 313.3C67.2446 313.192 67.2446 313.083 67.2446 313.083L55.0776 302.223L48.125 296.468C48.2336 296.468 63.3338 273.988 70.1778 270.296Z" fill="#FF7213"/>
<path d="M85.2779 277.681C85.2779 277.789 84.1915 276.812 82.2361 276.812C81.2584 276.812 80.0634 277.138 79.0857 277.898C78.6512 278.332 78.2166 278.875 77.6735 279.418C77.2389 279.961 76.5871 280.613 75.718 280.721C74.849 280.938 73.9799 280.504 73.4367 280.07C72.7849 279.635 72.2417 279.201 71.6986 278.875C70.6122 278.223 69.4172 278.332 68.5482 278.549C67.6791 278.875 67.0273 279.418 66.7014 279.852C66.3755 280.287 66.2668 280.613 66.1582 280.504C66.1582 280.504 66.1582 280.178 66.4841 279.635C66.81 279.201 67.3532 278.549 68.3309 278.115C69.3086 277.681 70.7208 277.572 71.9158 278.332C72.5676 278.658 73.1108 279.092 73.654 279.418C74.1972 279.744 74.849 280.07 75.5008 279.961C76.1526 279.852 76.6957 279.309 77.1303 278.875C77.5648 278.332 77.9994 277.789 78.6512 277.355C79.7375 276.486 81.0411 276.269 82.1275 276.269C83.2138 276.269 83.9742 276.595 84.4088 276.92C85.0606 277.355 85.2779 277.572 85.2779 277.681Z" fill="#FAFAFA"/>
<path d="M97.6621 293.861C97.5535 293.97 96.9017 292.775 95.0549 292.124C94.1858 291.798 92.9909 291.689 91.7959 292.124C91.2527 292.341 90.6009 292.775 90.0577 293.101C89.4059 293.427 88.6455 293.861 87.7764 293.753C86.9073 293.644 86.2555 292.992 85.821 292.45C85.3865 291.907 84.9519 291.255 84.5174 290.821C83.7569 289.843 82.562 289.517 81.5842 289.517C80.6065 289.517 79.8461 289.843 79.4116 290.169C78.977 290.495 78.7598 290.712 78.6511 290.712C78.6511 290.712 78.7598 290.386 79.1943 290.06C79.6288 289.735 80.3893 289.3 81.4756 289.192C82.4533 289.083 83.8656 289.409 84.8433 290.495C85.2778 291.038 85.7124 291.581 86.1469 292.124C86.5814 292.667 87.1246 293.101 87.7764 293.21C88.4282 293.318 89.08 292.992 89.7318 292.667C90.3836 292.341 90.9268 291.907 91.5786 291.689C92.8822 291.255 94.1858 291.364 95.1636 291.798C96.1413 292.124 96.7931 292.775 97.119 293.21C97.5535 293.535 97.6621 293.861 97.6621 293.861Z" fill="#FAFAFA"/>
<path d="M125.147 270.079C125.147 270.187 123.952 269.536 121.996 269.862C121.019 270.079 119.932 270.622 119.172 271.599C118.737 272.034 118.52 272.685 118.086 273.337C117.76 273.988 117.217 274.64 116.456 275.074C115.587 275.4 114.718 275.183 114.066 274.966C113.414 274.748 112.763 274.423 112.111 274.205C110.916 273.771 109.721 274.097 108.96 274.64C108.091 275.183 107.657 275.834 107.439 276.269C107.222 276.703 107.114 277.029 107.114 277.029C107.114 277.029 107.114 276.703 107.222 276.16C107.439 275.617 107.874 274.857 108.743 274.314C109.612 273.771 110.916 273.337 112.328 273.771C112.98 273.988 113.632 274.314 114.283 274.531C114.935 274.748 115.587 274.857 116.239 274.64C116.891 274.423 117.325 273.771 117.651 273.228C117.977 272.577 118.303 271.925 118.737 271.382C119.606 270.296 120.91 269.753 121.888 269.644C122.866 269.427 123.735 269.644 124.278 269.753C124.93 269.862 125.147 270.079 125.147 270.079Z" fill="#FAFAFA"/>
<path d="M112.436 287.889C112.328 287.997 111.893 287.02 110.481 286.477C109.829 286.26 108.851 286.151 107.982 286.368C107.548 286.477 107.113 286.803 106.57 287.02C106.027 287.237 105.484 287.563 104.723 287.454C104.072 287.346 103.528 286.803 103.202 286.368C102.877 285.934 102.551 285.391 102.333 285.065C101.79 284.305 100.921 283.979 100.161 283.979C98.6398 283.979 97.988 284.739 97.8794 284.739C97.8794 284.739 97.988 284.522 98.3139 284.196C98.6398 283.979 99.2916 283.653 100.161 283.653C100.921 283.653 102.008 283.979 102.768 284.848C103.094 285.282 103.42 285.717 103.746 286.151C104.072 286.585 104.397 286.911 104.941 287.02C105.918 287.237 106.896 286.26 107.874 286.042C108.96 285.717 109.938 285.934 110.698 286.26C112.219 286.911 112.545 287.997 112.436 287.889Z" fill="#FAFAFA"/>
<path d="M84.5175 302.983C84.4088 303.092 83.9743 302.115 82.562 301.572C81.9102 301.354 80.9325 301.246 80.0634 301.463C79.6289 301.572 79.1944 301.897 78.6512 302.115C78.108 302.332 77.5648 302.658 76.8044 302.549C76.1526 302.44 75.6094 301.897 75.2835 301.463C74.9576 301.029 74.6317 300.486 74.4145 300.16C73.8713 299.4 73.0022 299.074 72.2418 299.074C70.7209 299.074 70.0691 299.834 69.9604 299.834C69.9604 299.834 70.0691 299.617 70.395 299.291C70.7209 299.074 71.3727 298.748 72.2418 298.748C73.0022 298.748 74.0886 299.074 74.849 299.943C75.1749 300.377 75.5008 300.811 75.8267 301.246C76.1526 301.68 76.4785 302.006 77.0217 302.115C77.9994 302.332 78.9771 301.354 79.9548 301.137C81.0412 300.811 82.0189 301.029 82.7793 301.354C84.1915 301.897 84.5175 302.983 84.5175 302.983Z" fill="#FAFAFA"/>
<path d="M110.59 303.309C110.59 303.418 109.829 302.658 108.308 302.658C107.548 302.658 106.679 302.766 105.918 303.418C105.593 303.744 105.158 304.069 104.832 304.504C104.398 304.938 103.963 305.373 103.203 305.481C102.442 305.59 101.899 305.264 101.356 304.938C100.921 304.612 100.487 304.287 100.052 303.961C99.2917 303.418 98.314 303.418 97.6622 303.635C96.25 304.069 95.8154 305.155 95.8154 305.047C95.8154 305.047 95.8154 304.83 96.0327 304.395C96.25 304.069 96.7931 303.527 97.5536 303.201C98.314 302.875 99.4004 302.875 100.378 303.418C100.813 303.744 101.247 304.069 101.682 304.395C102.116 304.721 102.551 304.938 103.094 304.83C104.072 304.721 104.723 303.526 105.593 302.875C106.462 302.223 107.548 302.115 108.308 302.115C110.047 302.332 110.698 303.309 110.59 303.309Z" fill="#FAFAFA"/>
<path d="M102.008 315.255C102.008 315.363 101.247 314.603 99.7264 314.603C98.9659 314.603 98.0968 314.712 97.3364 315.363C97.0105 315.689 96.576 316.015 96.25 316.449C95.8155 316.884 95.381 317.318 94.6205 317.427C93.8601 317.535 93.3169 317.21 92.7738 316.884C92.3392 316.558 91.9047 316.232 91.4701 315.906C90.7097 315.363 89.732 315.363 89.0802 315.581C87.6679 316.015 87.2334 317.101 87.2334 316.992C87.2334 316.992 87.2334 316.775 87.4507 316.341C87.6679 316.015 88.2111 315.472 88.9715 315.146C89.732 314.82 90.8183 314.82 91.796 315.363C92.2306 315.689 92.6651 316.015 93.0996 316.341C93.5342 316.667 93.9687 316.884 94.5119 316.775C95.4896 316.667 96.1414 315.472 97.0105 314.82C97.8796 314.169 98.9659 314.06 99.7264 314.06C101.356 314.277 102.008 315.146 102.008 315.255Z" fill="#FAFAFA"/>
<path d="M83.757 344.793C83.6483 344.901 83.2138 343.924 81.8015 343.381C81.1497 343.164 80.172 343.055 79.3029 343.381C78.8684 343.49 78.4339 343.815 77.8907 344.033C77.3475 344.25 76.8044 344.576 76.0439 344.467C75.3921 344.358 74.8489 343.815 74.523 343.381C74.1971 342.947 73.8712 342.512 73.654 342.078C73.1108 341.318 72.2417 340.992 71.4813 340.992C69.9604 340.992 69.3086 341.861 69.2 341.752C69.2 341.752 69.3086 341.535 69.6345 341.209C69.9604 340.883 70.6122 340.666 71.3726 340.558C72.1331 340.558 73.2194 340.775 73.9799 341.644C74.3058 342.078 74.6317 342.512 74.9576 342.947C75.2835 343.381 75.718 343.707 76.1526 343.815C77.1303 343.924 78.108 343.055 79.0857 342.73C80.172 342.404 81.1497 342.621 81.9102 342.947C83.4311 343.707 83.757 344.793 83.757 344.793Z" fill="#FAFAFA"/>
<path d="M105.049 351.091C105.049 351.2 104.289 350.44 102.768 350.331C102.008 350.331 101.139 350.44 100.378 350.983C100.052 351.309 99.6177 351.634 99.2918 352.069C98.8573 352.503 98.4227 352.938 97.6623 353.046C96.9018 353.155 96.3587 352.829 95.9241 352.503C95.4896 352.177 95.0551 351.852 94.6205 351.526C93.8601 350.983 92.8824 350.983 92.2306 351.2C90.8183 351.634 90.3838 352.612 90.2751 352.612C90.2751 352.612 90.2751 352.395 90.6011 351.96C90.8183 351.634 91.3615 351.091 92.1219 350.874C92.8824 350.548 93.9687 350.548 94.9464 351.2C95.381 351.526 95.8155 351.852 96.25 352.177C96.6846 352.503 97.1191 352.72 97.6623 352.612C98.64 352.503 99.2918 351.309 100.161 350.766C101.03 350.114 102.116 350.005 102.877 350.114C104.506 350.223 105.158 351.091 105.049 351.091Z" fill="#FAFAFA"/>
<path d="M34.7629 261.282C35.4147 262.043 59.3143 293.97 59.3143 293.97L55.9466 295.925L31.3953 264.432L34.7629 261.282Z" fill="#263238"/>
<path d="M127.971 284.088C127.971 284.088 105.592 322.748 104.072 323.399C101.138 324.811 66.7014 295.056 63.4424 292.232C63.0078 291.581 62.0301 290.386 60.1833 287.78C60.1833 287.78 57.4675 275.4 54.5343 276.377C51.6012 277.355 56.1638 282.676 54.2084 287.345C52.3616 292.015 43.6709 280.83 43.345 279.852L41.1723 276.92C41.1723 276.92 38.891 283.545 38.9996 286.259C39.5428 295.164 47.9076 305.59 47.9076 305.59C47.9076 305.59 81.9102 348.268 107.765 349.68C115.152 350.114 129.383 328.721 138.183 312.974C143.506 303.418 141.007 293.753 132.208 287.345L127.971 284.088Z" fill="#FFBE9D"/>
<path d="M43.2364 287.889C43.1278 287.889 42.2587 286.585 41.281 284.739C40.4119 282.893 39.8688 281.373 39.9774 281.373C40.086 281.373 40.7378 282.893 41.6069 284.631C42.5846 286.477 43.3451 287.889 43.2364 287.889Z" fill="#EB996E"/>
<path d="M126.885 273.337C126.016 273.88 105.158 312.54 105.158 312.54L131.991 333.499C131.991 333.499 138.943 316.341 142.637 302.332C143.615 298.531 143.071 288.432 141.659 284.522C139.704 278.984 136.662 280.395 132.099 277.138L126.885 273.337Z" fill="#FF7213"/>
<g opacity="0.7">
<path opacity="0.7" d="M135.684 273.337C135.684 273.337 135.467 273.228 134.924 272.902C134.381 272.685 133.62 272.359 132.534 272.359C131.447 272.359 130.252 272.902 129.057 273.771C127.863 274.64 126.668 275.943 125.581 277.572C124.495 279.092 123.517 281.047 122.322 283.002C121.236 284.956 120.041 287.128 118.737 289.3C116.239 293.753 113.414 298.64 110.481 303.744C108.743 306.893 107.005 309.825 105.375 312.649L105.267 312.323C112.545 318.078 118.846 323.074 123.408 326.657C125.581 328.395 127.428 329.807 128.623 330.893C129.166 331.327 129.709 331.761 130.035 332.087C130.361 332.304 130.47 332.522 130.47 332.522C130.47 332.522 130.252 332.413 129.927 332.196C129.601 331.87 129.057 331.544 128.514 331.11C127.211 330.132 125.364 328.721 123.191 326.983C118.629 323.4 112.219 318.513 104.941 312.757L104.723 312.649L104.832 312.431C106.462 309.608 108.2 306.567 109.938 303.526C112.871 298.422 115.695 293.536 118.194 289.192C119.498 287.02 120.693 284.848 121.779 282.893C122.974 280.938 123.952 279.092 125.038 277.463C126.233 275.943 127.428 274.64 128.623 273.662C129.927 272.794 131.23 272.251 132.317 272.251C133.403 272.251 134.272 272.577 134.706 272.902C134.924 273.011 135.141 273.228 135.25 273.228C135.684 273.228 135.684 273.337 135.684 273.337Z" fill="black"/>
</g>
<path d="M127.754 309.608C127.645 309.716 127.211 308.739 125.799 308.196C125.147 307.979 124.169 307.87 123.3 308.087C122.865 308.196 122.431 308.522 121.888 308.739C121.345 308.956 120.801 309.282 120.041 309.173C119.389 309.065 118.846 308.522 118.52 308.087C118.194 307.653 117.868 307.11 117.651 306.784C117.108 306.024 116.239 305.698 115.478 305.698C113.957 305.698 113.306 306.459 113.197 306.459C113.197 306.459 113.306 306.241 113.632 305.916C113.957 305.698 114.609 305.373 115.478 305.373C116.239 305.373 117.325 305.698 118.086 306.567C118.411 307.001 118.737 307.436 119.063 307.87C119.389 308.305 119.715 308.63 120.258 308.739C121.236 308.956 122.214 307.979 123.191 307.762C124.278 307.436 125.255 307.653 126.016 307.979C127.428 308.522 127.754 309.608 127.754 309.608Z" fill="#FAFAFA"/>
<path d="M140.03 304.612C139.921 304.612 139.704 303.635 138.509 302.766C137.966 302.332 137.097 302.006 136.119 302.006C135.684 302.006 135.141 302.223 134.598 302.332C134.055 302.44 133.403 302.549 132.751 302.223C132.099 301.897 131.774 301.246 131.556 300.703C131.339 300.16 131.23 299.617 131.013 299.182C130.687 298.314 129.927 297.771 129.166 297.554C127.754 297.119 126.776 297.771 126.776 297.662C126.776 297.662 126.885 297.445 127.32 297.336C127.754 297.119 128.406 297.011 129.166 297.228C129.927 297.445 130.904 297.988 131.339 299.074C131.556 299.617 131.665 300.051 131.882 300.594C132.099 301.137 132.317 301.572 132.751 301.789C133.62 302.223 134.815 301.572 135.902 301.572C136.988 301.572 137.966 302.006 138.509 302.549C140.03 303.526 140.03 304.612 140.03 304.612Z" fill="#FAFAFA"/>
<path d="M140.573 288.649C140.464 288.649 140.247 287.671 139.052 286.803C138.509 286.368 137.64 286.042 136.662 286.042C136.227 286.042 135.684 286.26 135.141 286.368C134.598 286.477 133.946 286.585 133.294 286.26C132.642 285.934 132.317 285.282 132.099 284.739C131.882 284.196 131.773 283.653 131.556 283.219C131.23 282.35 130.47 281.807 129.709 281.59C128.297 281.156 127.319 281.807 127.319 281.699C127.319 281.699 127.428 281.481 127.863 281.373C128.297 281.156 128.949 281.047 129.709 281.264C130.47 281.481 131.447 282.024 131.882 283.11C132.099 283.653 132.208 284.088 132.425 284.631C132.642 285.174 132.86 285.608 133.294 285.825C134.163 286.26 135.358 285.608 136.445 285.608C137.531 285.608 138.509 286.042 139.052 286.585C140.573 287.454 140.681 288.649 140.573 288.649Z" fill="#FAFAFA"/>
<path d="M134.707 325.354C134.598 325.354 134.381 324.377 133.186 323.508C132.642 323.074 131.773 322.748 130.796 322.748C130.361 322.748 129.818 322.965 129.275 323.074C128.732 323.182 128.08 323.291 127.428 322.965C126.776 322.639 126.45 321.988 126.233 321.445C126.016 320.902 125.907 320.359 125.69 319.924C125.364 319.056 124.604 318.513 123.843 318.296C122.431 317.861 121.453 318.513 121.453 318.404C121.453 318.404 121.562 318.187 121.996 318.078C122.431 317.861 123.083 317.753 123.843 317.97C124.604 318.187 125.581 318.73 126.016 319.816C126.233 320.359 126.342 320.793 126.559 321.336C126.776 321.879 126.993 322.314 127.428 322.531C128.297 322.965 129.492 322.314 130.578 322.314C131.665 322.314 132.642 322.748 133.186 323.291C134.707 324.268 134.707 325.354 134.707 325.354Z" fill="#FAFAFA"/>
</g>
<defs>
<clipPath id="clip0_460_99">
<rect width="424" height="451" fill="white"/>
</clipPath>
</defs>
</svg>
