<svg width="459" height="465" viewBox="0 0 459 465" fill="none" xmlns="http://www.w3.org/2000/svg">
<g clip-path="url(#clip0_461_1244)">
<path d="M76.1802 257.327C76.1802 257.327 66.4846 259.884 74.6886 280.769C82.7861 301.653 88.8592 312.202 88.8592 312.202C88.8592 312.202 90.2443 316.997 86.1956 317.317C82.2534 317.636 73.8362 315.399 71.5988 319.981C69.3613 324.775 72.4511 329.784 79.2701 334.578C86.089 339.373 100.686 350.455 102.071 351.52C103.349 352.479 104.521 354.824 101.858 355.463C99.1942 356.102 79.8028 356.209 80.3355 365.372C80.9748 374.643 102.177 384.872 104.521 386.044C106.865 387.216 107.292 388.281 106.972 389.56C106.652 390.839 100.153 390.306 94.6127 390.519C89.0723 390.732 82.6796 392.011 83.5319 397.339C84.2777 402.666 96.3174 414.813 127.748 421.1L142.558 423.018L151.828 411.297C170.26 385.085 170.58 367.93 167.49 363.561C164.4 359.192 158.966 362.709 154.811 366.331C150.656 369.954 146.288 374.856 145.222 374.216C144.05 373.471 143.73 372.405 144.583 369.954C145.435 367.504 153.746 345.447 147.886 338.308C141.919 331.275 127.855 344.594 125.511 345.98C123.167 347.365 122.421 344.914 122.634 343.316C122.847 341.718 125.831 323.603 127.429 315.399C129.027 307.194 127.855 301.44 122.954 299.522C118.159 297.711 113.684 305.17 110.595 307.62C107.505 310.071 105.161 305.702 105.161 305.702C105.161 305.702 102.284 293.875 93.7603 273.204C85.2367 252.426 76.2868 257.434 76.2868 257.434" fill="#EBEBEB"/>
<path d="M142.878 426.534C136.698 411.297 126.15 384.019 116.987 360.578C107.824 337.242 99.5137 316.038 93.3341 300.801C90.2442 293.129 87.7937 286.949 86.0889 282.687C85.2366 280.556 84.5973 278.958 84.0646 277.785C83.8515 277.253 83.6384 276.826 83.5318 276.507C83.4253 276.187 83.4253 276.081 83.4253 276.081C83.4253 276.081 83.5318 276.187 83.6384 276.507C83.7449 276.826 83.958 277.253 84.1711 277.785C84.5973 278.958 85.3431 280.556 86.1955 282.687C88.0068 286.949 90.4573 293.129 93.5472 300.694C99.7268 315.932 108.144 337.136 117.307 360.471C126.47 383.806 137.018 411.191 143.091 426.428" fill="#E0E0E0"/>
<path d="M83.3188 323.604C83.3188 323.604 83.6385 323.71 84.2778 324.03C84.917 324.349 85.7694 324.776 86.9414 325.308C89.1789 326.374 92.1622 327.972 95.5716 329.784C98.8746 331.595 101.751 333.193 104.095 334.365C105.161 334.898 106.013 335.324 106.652 335.751C107.292 336.07 107.611 336.283 107.611 336.283C107.611 336.283 107.292 336.177 106.652 335.857C106.013 335.538 105.161 335.111 103.989 334.579C101.751 333.513 98.768 331.915 95.4651 330.103C92.1622 328.398 89.1789 326.8 86.9414 325.521C85.876 324.989 85.0236 324.562 84.3843 324.136C83.6385 323.817 83.3188 323.604 83.3188 323.604Z" fill="#E0E0E0"/>
<path d="M108.677 335.431C108.57 335.324 111.554 328.931 115.283 321.153C119.012 313.268 122.208 306.981 122.315 307.088C122.421 307.194 119.438 313.587 115.709 321.366C111.873 329.144 108.783 335.431 108.677 335.431Z" fill="#E0E0E0"/>
<path d="M121.143 371.979C121.143 371.979 121.356 371.659 121.888 371.126C122.421 370.487 123.06 369.741 123.913 368.889C125.618 366.971 127.855 364.413 130.306 361.43C132.756 358.446 134.887 355.676 136.379 353.651C137.124 352.692 137.657 351.947 138.19 351.307C138.616 350.775 138.829 350.455 138.936 350.455C138.936 350.455 138.723 350.774 138.403 351.414C137.977 352.053 137.444 352.906 136.698 353.865C135.207 355.889 133.182 358.766 130.732 361.75C128.281 364.733 125.937 367.29 124.126 369.102C123.274 370.061 122.528 370.7 121.995 371.233C121.462 371.659 121.143 371.979 121.143 371.979Z" fill="#E0E0E0"/>
<path d="M95.8914 366.332C95.8914 366.332 96.211 366.332 96.8503 366.438C97.5961 366.545 98.4485 366.758 99.6205 366.971C101.964 367.397 105.054 368.036 108.57 368.782C112.086 369.528 115.176 370.167 117.52 370.7C118.586 370.913 119.438 371.126 120.184 371.34C120.823 371.553 121.143 371.553 121.143 371.659C121.143 371.766 120.823 371.659 120.184 371.553C119.438 371.446 118.586 371.233 117.414 371.02C115.07 370.594 111.98 369.954 108.464 369.208C104.948 368.463 101.858 367.823 99.5139 367.291C98.4485 367.077 97.5961 366.864 96.8503 366.651C96.211 366.438 95.8914 366.332 95.8914 366.332Z" fill="#E0E0E0"/>
<path d="M102.817 400.002C102.817 400.002 103.243 400.002 104.095 400.216C105.054 400.429 106.226 400.535 107.611 400.855C110.595 401.388 114.643 402.134 119.118 403.092C123.593 403.945 127.642 404.797 130.519 405.437C131.904 405.756 133.076 405.969 133.928 406.183C134.78 406.396 135.207 406.502 135.207 406.502C135.207 406.502 134.78 406.502 133.928 406.289C132.969 406.076 131.797 405.969 130.412 405.65C127.429 405.117 123.38 404.371 118.905 403.412C114.43 402.56 110.381 401.707 107.505 401.068C106.12 400.748 104.948 400.535 104.095 400.322C103.243 400.109 102.817 400.002 102.817 400.002Z" fill="#E0E0E0"/>
<path d="M134.461 406.076C134.461 406.076 134.781 405.65 135.313 405.01C135.953 404.264 136.805 403.305 137.764 402.133C139.788 399.683 142.665 396.273 145.648 392.437C148.632 388.601 151.295 385.085 153.213 382.421C154.172 381.142 154.918 380.183 155.45 379.331C155.983 378.585 156.303 378.265 156.303 378.265C156.303 378.265 156.09 378.692 155.557 379.437C155.024 380.183 154.385 381.249 153.426 382.634C151.615 385.298 149.058 388.814 145.968 392.757C142.985 396.593 140.108 400.002 137.977 402.453C136.911 403.625 136.059 404.584 135.42 405.223C134.781 405.756 134.461 406.076 134.461 406.076Z" fill="#E0E0E0"/>
<path d="M367.583 456.156L293.641 333.726C291.297 329.89 292.575 324.989 296.411 322.644L371.206 277.466C375.042 275.121 379.943 276.4 382.287 280.236L456.23 402.666C458.574 406.502 457.295 411.404 453.46 413.748L378.664 458.926C374.722 461.164 369.821 459.885 367.583 456.156Z" fill="#EBEBEB"/>
<path d="M427.569 401.92C422.348 405.01 415.636 403.412 412.439 398.191C409.35 392.97 410.948 386.257 416.169 383.06C421.389 379.97 428.102 381.568 431.298 386.789C434.388 392.011 432.683 398.724 427.569 401.92Z" fill="white"/>
<path d="M428.741 415.346C427.782 415.346 426.929 415.239 425.971 415.026C422.987 414.28 420.43 412.469 418.832 409.805C415.529 404.371 417.34 397.232 422.774 394.035C428.208 390.732 435.347 392.543 438.543 397.978C441.846 403.412 440.035 410.551 434.601 413.748C432.79 414.813 430.765 415.346 428.741 415.346ZM428.634 393.396C426.716 393.396 424.905 393.929 423.2 394.888C420.856 396.379 419.152 398.617 418.406 401.281C417.767 403.945 418.193 406.822 419.578 409.166C422.561 414.067 428.954 415.666 433.962 412.682C438.863 409.699 440.461 403.305 437.478 398.297C435.986 395.953 433.748 394.248 431.085 393.502C430.339 393.502 429.487 393.396 428.634 393.396Z" fill="white"/>
<path d="M328.694 319.661L321.13 324.243L320.703 323.497L327.522 319.341L326.457 317.53L327.096 317.104L328.694 319.661Z" fill="white"/>
<path d="M326.457 331.595L325.817 332.021L322.621 326.693L323.154 326.374L328.162 327.652C329.547 327.972 330.079 327.865 330.612 327.546C331.464 327.013 331.678 326.054 330.932 324.882C330.399 324.029 329.76 323.497 328.801 323.284L328.907 322.431C329.973 322.644 330.932 323.284 331.571 324.456C332.53 325.947 332.317 327.439 331.038 328.185C330.292 328.611 329.547 328.824 327.948 328.398L323.9 327.333L326.457 331.595Z" fill="white"/>
<path d="M332.53 338.734L331.571 337.242L329.547 338.414L329.12 337.668L331.145 336.496L328.588 332.234L329.12 331.915L336.579 332.874L337.111 333.726L329.866 332.767L331.891 336.07L333.595 335.005L334.022 335.75L332.317 336.816L333.276 338.308L332.53 338.734Z" fill="white"/>
<path d="M339.562 350.348L338.603 348.856L336.579 350.029L336.153 349.283L338.177 348.111L335.62 343.848L336.153 343.529L343.611 344.488L344.144 345.34L336.898 344.381L338.923 347.684L340.628 346.619L341.054 347.365L339.349 348.43L340.308 349.922L339.562 350.348Z" fill="white"/>
<path d="M343.824 356.848C342.545 357.594 340.947 357.381 339.882 355.463C339.242 354.397 338.923 353.119 339.242 352.16H340.095C339.882 352.906 339.988 354.078 340.627 355.037C341.373 356.315 342.439 356.635 343.398 356.102C344.357 355.463 344.57 354.504 343.398 352.586L342.439 350.988L346.487 349.07L348.938 353.225L348.299 353.651L346.168 350.242L343.611 351.414L344.25 352.373C345.529 354.61 345.102 355.996 343.824 356.848Z" fill="white"/>
<path d="M348.405 364.307C347.02 365.159 345.422 364.626 344.57 363.135C343.398 361.11 344.037 359.192 346.488 357.7C349.045 356.102 351.282 356.741 352.454 358.766C352.88 359.405 353.093 360.151 353.093 360.791L352.241 360.897C352.241 360.364 352.028 359.725 351.708 359.192C350.749 357.594 349.045 357.168 347.02 358.34C346.807 358.446 346.594 358.553 346.381 358.766C347.446 358.659 348.405 359.299 349.045 360.258C350.004 361.856 349.79 363.454 348.405 364.307ZM347.873 363.561C348.832 362.922 349.045 361.856 348.405 360.684C347.66 359.512 346.488 359.192 345.529 359.725C344.676 360.258 344.357 361.43 345.102 362.708C345.742 363.774 346.914 364.094 347.873 363.561Z" fill="white"/>
<path d="M354.478 374.642C353.2 375.388 351.708 375.069 350.536 373.257C349.897 372.192 349.577 370.913 349.897 369.954H350.749C350.536 370.7 350.749 371.872 351.282 372.831C352.028 374.11 352.987 374.429 353.946 373.897C354.905 373.364 355.011 372.405 354.265 370.913L353.946 370.38L354.478 370.061L358.421 370.593L356.077 366.758L356.716 366.331L359.699 371.233L359.166 371.552L355.224 371.02C356.077 372.618 355.757 373.897 354.478 374.642Z" fill="white"/>
<path d="M359.166 382.208C357.781 383.06 356.183 382.527 355.331 381.036C354.159 379.011 354.798 377.093 357.249 375.601C359.806 374.003 362.043 374.642 363.215 376.667C363.641 377.306 363.854 378.052 363.854 378.691L363.002 378.798C363.002 378.265 362.789 377.626 362.469 377.093C361.51 375.495 359.806 375.069 357.781 376.241C357.568 376.347 357.355 376.454 357.142 376.667C358.207 376.56 359.166 377.2 359.806 378.159C360.871 379.757 360.552 381.355 359.166 382.208ZM358.74 381.462C359.699 380.822 359.912 379.757 359.273 378.585C358.527 377.413 357.355 377.093 356.396 377.626C355.544 378.159 355.224 379.331 355.97 380.609C356.609 381.675 357.675 382.101 358.74 381.462Z" fill="white"/>
<path d="M368.649 385.937L368.116 386.257L359.167 387.322L358.634 386.47L367.371 385.404L365.027 381.568L363.641 382.421L363.215 381.675L365.346 380.396L368.649 385.937Z" fill="white"/>
<path d="M375.255 396.806L374.722 397.125L365.772 398.191L365.24 397.338L373.976 396.273L371.632 392.437L370.247 393.289L369.821 392.544L371.952 391.265L375.255 396.806Z" fill="white"/>
<path d="M374.296 407.461C372.911 408.314 371.419 407.674 370.354 405.863C369.288 404.051 369.395 402.453 370.78 401.601C371.739 401.068 372.591 401.174 373.55 401.92C373.337 400.961 373.657 400.215 374.509 399.683C375.788 398.937 377.173 399.576 378.132 401.174C379.09 402.773 378.984 404.264 377.705 405.01C376.96 405.437 376.107 405.437 375.361 404.797C375.468 406.076 375.148 406.928 374.296 407.461ZM373.763 406.715C374.722 406.182 374.829 405.01 373.976 403.625C373.124 402.24 372.058 401.814 371.206 402.453C370.247 402.986 370.141 404.158 370.993 405.543C371.739 406.822 372.804 407.248 373.763 406.715ZM374.616 403.305C375.361 404.478 376.32 404.904 377.066 404.371C377.918 403.838 378.025 402.773 377.279 401.707C376.64 400.535 375.681 400.109 374.829 400.642C373.976 401.068 373.87 402.133 374.616 403.305Z" fill="white"/>
<path d="M380.476 413.748C377.919 415.346 375.681 414.707 374.509 412.682C374.083 412.043 373.87 411.297 373.87 410.658L374.722 410.551C374.722 411.084 374.935 411.723 375.255 412.256C376.214 413.854 377.919 414.28 379.943 413.108C380.156 413.002 380.369 412.895 380.582 412.682C379.517 412.789 378.558 412.149 377.919 411.19C376.96 409.699 377.279 408.1 378.664 407.248C380.05 406.395 381.648 406.928 382.5 408.42C383.566 410.444 382.82 412.362 380.476 413.748ZM381.328 411.83C382.18 411.297 382.5 410.125 381.754 408.846C381.115 407.781 380.05 407.354 378.984 407.994C378.025 408.633 377.812 409.699 378.451 410.871C379.197 412.043 380.369 412.362 381.328 411.83Z" fill="white"/>
<path d="M388.786 419.182L381.221 423.764L380.795 423.018L387.614 418.862L386.549 417.051L387.188 416.625L388.786 419.182Z" fill="white"/>
<path d="M386.655 431.116L386.016 431.542L382.82 426.214L383.352 425.895L388.36 427.173C389.745 427.493 390.278 427.386 390.811 427.067C391.663 426.534 391.876 425.575 391.13 424.403C390.597 423.55 389.958 423.018 388.999 422.805L389.106 421.952C390.171 422.165 391.13 422.805 391.769 423.977C392.728 425.468 392.515 426.96 391.237 427.706C390.491 428.132 389.745 428.345 388.147 427.919L384.098 426.854L386.655 431.116Z" fill="white"/>
<path d="M392.196 436.976C390.917 437.722 389.425 437.402 388.253 435.591C387.614 434.525 387.295 433.247 387.614 432.288H388.467C388.253 433.034 388.467 434.206 388.999 435.165C389.745 436.443 390.704 436.763 391.663 436.23C392.622 435.698 392.728 434.739 391.983 433.247L391.663 432.714L392.196 432.394L396.138 432.927L393.794 429.091L394.433 428.665L397.416 433.567L396.884 433.886L392.941 433.353C393.794 434.952 393.368 436.337 392.196 436.976Z" fill="white"/>
<path d="M349.324 383.53L346.041 385.514L382.631 446.07L385.914 444.086L349.324 383.53Z" fill="white"/>
<path d="M360.621 417.051L357.338 419.035L376.129 450.134L379.412 448.15L360.621 417.051Z" fill="white"/>
<path d="M344.996 331.915L335.087 315.505C333.595 313.055 334.341 309.751 336.898 308.26L346.807 302.293C349.257 300.801 352.56 301.547 354.052 304.104L363.961 320.513C365.452 322.964 364.707 326.267 362.15 327.759L352.241 333.726C349.684 335.218 346.487 334.472 344.996 331.915Z" fill="#E0E0E0"/>
<path d="M337.538 307.833L338.71 307.088L346.594 320.194C347.553 321.685 349.471 322.218 350.962 321.259C352.454 320.3 352.987 318.382 352.028 316.891L344.143 303.784L345.315 303.039L353.2 316.145C354.478 318.276 353.839 321.153 351.602 322.538C349.471 323.817 346.594 323.177 345.209 320.94L337.538 307.833Z" fill="#EBEBEB"/>
<path d="M352.115 321.527L350.928 322.243L356.32 331.185L357.507 330.47L352.115 321.527Z" fill="#EBEBEB"/>
<path d="M408.28 358.568L368.777 293.178L363.123 296.594L402.626 361.984L408.28 358.568Z" fill="white"/>
<path d="M186.136 0C185.283 11.5078 186.136 32.9251 181.98 43.687C177.825 54.4489 172.178 65.5305 161.737 70.3254C148.845 76.2924 133.609 73.7351 119.864 77.2514C98.2354 82.6856 82.6796 102.505 75.9673 123.709C69.2549 144.913 70.0007 167.715 70.853 189.985L181.022 205.329C181.022 205.329 181.554 160.576 191.25 148.323C200.839 136.069 246.547 125.094 261.57 91.6361C275.102 61.4814 279.257 13.7454 279.257 13.7454L186.136 0Z" fill="#F5F5F5"/>
<path d="M213.092 30.2613L211.707 27.5974C211.494 27.5974 211.281 27.5974 211.068 27.5974L209.043 27.3843L208.724 29.7285L207.978 29.6219L208.937 22.0566L211.707 22.3763C213.625 22.5894 214.69 23.7615 214.477 25.3598C214.371 26.5319 213.625 27.2778 212.453 27.4909L213.944 30.2613H213.092ZM213.625 25.3598C213.731 24.1877 213.092 23.3353 211.6 23.2287L209.576 23.0156L209.15 26.745L211.174 26.9581C212.559 27.0647 213.518 26.5319 213.625 25.3598Z" fill="#E0E0E0"/>
<path d="M221.083 30.5809L220.976 31.2203L215.649 30.5809L216.608 23.0156L221.722 23.6549L221.616 24.2943L217.247 23.7615L216.928 26.4253L220.87 26.9581L220.763 27.5974L216.821 27.0647L216.502 29.8351L221.083 30.5809Z" fill="#E0E0E0"/>
<path d="M222.681 27.5974C223.001 25.3598 224.812 23.9746 227.05 24.2942C228.115 24.4008 229.074 24.9335 229.713 25.6794L229.18 26.1056C228.648 25.3598 227.902 25.0401 227.05 24.9335C225.238 24.7204 223.747 25.8925 223.534 27.7039C223.32 29.5153 224.492 31.0071 226.304 31.2202C227.156 31.3268 227.902 31.1136 228.648 30.5809L229.074 31.1136C228.328 31.753 227.263 31.9661 226.197 31.8595C223.853 31.6464 222.362 29.835 222.681 27.5974Z" fill="#E0E0E0"/>
<path d="M235.999 32.3925L235.893 33.0318L230.565 32.3925L231.524 24.8271L236.639 25.4665L236.532 26.1058L232.164 25.573L231.844 28.2369L235.786 28.7696L235.68 29.409L231.737 28.8762L231.418 31.6466L235.999 32.3925Z" fill="#E0E0E0"/>
<path d="M238.663 25.7861L239.409 25.8927L238.45 33.458L237.704 33.3514L238.663 25.7861Z" fill="#E0E0E0"/>
<path d="M247.506 29.5153C247.293 31.1136 246.015 31.9661 244.097 31.7529L242.073 31.5398L241.753 33.884L241.007 33.7775L241.966 26.2122L244.736 26.5318C246.654 26.7449 247.719 27.917 247.506 29.5153ZM246.654 29.4088C246.761 28.2367 246.121 27.3842 244.63 27.2777L242.605 27.0646L242.179 30.794L244.203 31.0071C245.695 31.2202 246.547 30.5809 246.654 29.4088Z" fill="#E0E0E0"/>
<path d="M250.703 27.917L248.039 27.5973L248.146 26.958L254.219 27.7039L254.112 28.3432L251.449 28.0235L250.596 34.843L249.85 34.7364L250.703 27.917Z" fill="#E0E0E0"/>
<path d="M238.77 48.5886C238.77 48.6951 228.754 47.523 216.395 45.8182C204.036 44.1133 194.02 42.6216 194.02 42.515C194.02 42.4085 204.036 43.5805 216.395 45.2854C228.754 46.9903 238.77 48.482 238.77 48.5886Z" fill="#E0E0E0"/>
<path d="M237.597 57.6455C237.597 57.752 227.582 56.5799 215.223 54.8751C202.863 53.1702 192.848 51.6785 192.848 51.5719C192.848 51.4653 202.863 52.6374 215.223 54.3423C227.582 55.9406 237.597 57.4323 237.597 57.6455Z" fill="#E0E0E0"/>
<path d="M233.442 66.7026C233.442 66.8091 223.427 65.6371 211.068 63.9322C198.708 62.2273 188.693 60.7356 188.693 60.629C188.693 60.5225 198.708 61.6946 211.068 63.3994C223.427 65.1043 233.442 66.596 233.442 66.7026Z" fill="#E0E0E0"/>
<path d="M225.984 75.9729C225.984 76.0794 215.969 74.9073 203.609 73.2025C191.25 71.4976 181.235 70.0058 181.235 69.8993C181.235 69.7927 191.25 70.9648 203.609 72.6697C215.969 74.3745 225.984 75.8663 225.984 75.9729Z" fill="#E0E0E0"/>
<path d="M214.051 85.2429C214.051 85.3494 204.035 84.1773 191.676 82.4725C179.317 80.7676 169.302 79.2759 169.302 79.1693C169.302 79.0628 179.317 80.2348 191.676 81.9397C204.142 83.538 214.051 85.0298 214.051 85.2429Z" fill="#E0E0E0"/>
<path d="M258.8 51.5719C258.8 51.6785 256.35 51.4654 253.26 50.9326C250.276 50.3998 247.826 49.8671 247.826 49.7605C247.826 49.654 250.276 49.8671 253.366 50.3998C256.456 50.9326 258.907 51.4654 258.8 51.5719Z" fill="#E0E0E0"/>
<path d="M258.481 59.6701C258.481 59.7766 256.03 59.5635 252.94 59.0308C249.957 58.498 247.506 57.9652 247.506 57.8587C247.506 57.7521 249.957 57.9652 253.047 58.498C256.03 58.9242 258.481 59.457 258.481 59.6701Z" fill="#E0E0E0"/>
<path d="M255.71 70.645C255.71 70.7516 253.26 70.5385 250.17 70.0057C247.187 69.4729 244.736 68.9402 244.736 68.8336C244.736 68.6205 247.187 68.9401 250.276 69.4729C253.366 70.0057 255.71 70.5385 255.71 70.645Z" fill="#E0E0E0"/>
<path d="M251.768 80.0217C251.768 80.1283 249.318 79.9152 246.228 79.3824C243.245 78.8496 240.794 78.3169 240.794 78.2103C240.794 77.9972 243.244 78.3169 246.334 78.8496C249.424 79.3824 251.875 79.9152 251.768 80.0217Z" fill="#E0E0E0"/>
<path d="M243.351 88.9724C243.351 89.0789 240.9 88.8658 237.811 88.3331C234.827 87.8003 232.377 87.2675 232.377 87.161C232.377 86.9479 234.827 87.2675 237.917 87.8003C241.007 88.2265 243.351 88.7593 243.351 88.9724Z" fill="#E0E0E0"/>
<path d="M203.929 96.4311C203.929 96.5377 188.799 94.6197 170.26 91.9559C151.721 89.292 136.698 87.0544 136.698 86.9478C136.698 86.8413 151.828 88.7593 170.367 91.4231C188.906 94.0869 203.929 96.3246 203.929 96.4311Z" fill="#E0E0E0"/>
<path d="M196.151 105.914C196.151 105.914 195.938 105.914 195.405 105.808C194.873 105.701 194.127 105.595 193.274 105.488C191.356 105.168 188.693 104.849 185.496 104.316C178.891 103.25 169.834 101.865 159.819 100.373C149.804 98.7752 140.747 97.2834 134.248 96.2179C131.051 95.6851 128.388 95.2589 126.47 94.8327C125.511 94.6196 124.872 94.513 124.339 94.4065C123.806 94.2999 123.593 94.1934 123.593 94.1934C123.593 94.1934 123.806 94.1934 124.339 94.2999C124.872 94.4065 125.618 94.513 126.47 94.6196C128.388 94.9392 131.051 95.2589 134.248 95.7917C140.854 96.8572 149.91 98.2424 159.925 99.7341C169.941 101.332 178.891 102.824 185.496 103.89C188.693 104.423 191.356 104.849 193.274 105.168C194.127 105.275 194.873 105.488 195.405 105.595C195.831 105.808 196.151 105.808 196.151 105.914Z" fill="#E0E0E0"/>
<path d="M182.087 114.439C182.193 114.545 181.128 114.439 179.317 114.225C177.505 114.012 174.948 113.586 171.645 113.16C165.146 112.201 156.303 110.922 146.501 109.324C136.698 107.832 127.748 106.34 121.356 105.275C118.159 104.742 115.602 104.316 113.791 103.996C112.939 103.89 112.299 103.677 111.767 103.57C111.34 103.463 111.021 103.463 111.021 103.357C111.021 103.357 111.234 103.357 111.767 103.463C112.299 103.57 112.939 103.677 113.897 103.783C115.815 104.103 118.372 104.422 121.569 104.849C128.068 105.808 136.911 107.193 146.714 108.685C156.516 110.283 165.359 111.668 171.859 112.627C177.612 113.799 180.702 114.225 182.087 114.439Z" fill="#E0E0E0"/>
<path d="M229.287 101.652C229.287 101.759 226.836 101.546 223.747 101.013C220.763 100.48 218.313 99.9472 218.313 99.8407C218.313 99.6276 220.763 99.9472 223.853 100.48C226.943 100.906 229.287 101.439 229.287 101.652Z" fill="#E0E0E0"/>
<path d="M218.419 107.619C218.419 107.726 215.969 107.513 212.879 106.98C209.895 106.447 207.445 105.914 207.445 105.808C207.445 105.595 209.895 105.914 212.985 106.447C216.075 106.98 218.419 107.513 218.419 107.619Z" fill="#E0E0E0"/>
<path d="M203.822 117.848C203.822 117.955 201.372 117.742 198.282 117.209C195.299 116.676 192.848 116.144 192.848 116.037C192.848 115.824 195.299 116.144 198.389 116.676C201.372 117.209 203.822 117.742 203.822 117.848Z" fill="#E0E0E0"/>
<path d="M175.907 133.938C175.907 134.045 157.262 131.381 134.354 127.864C111.447 124.348 92.8015 121.365 92.8015 121.152C92.8015 121.045 111.447 123.709 134.354 127.225C157.262 130.741 175.907 133.725 175.907 133.938Z" fill="#E0E0E0"/>
<path d="M164.72 154.076C164.72 154.183 158.54 153.331 151.082 152.158C143.624 150.986 137.551 149.814 137.551 149.708C137.551 149.601 143.73 150.454 151.189 151.626C158.647 152.798 164.72 153.97 164.72 154.076Z" fill="#E0E0E0"/>
<path d="M459 458.287C459 458.394 356.183 458.607 229.5 458.607C102.71 458.607 0 458.5 0 458.287C0 458.074 102.71 457.968 229.5 457.968C356.29 458.074 459 458.181 459 458.287Z" fill="#263238"/>
<path d="M113.898 96.8572L114.004 101.119C114.004 101.119 115.709 134.151 115.602 139.159C115.496 144.167 98.9812 172.51 98.9812 172.51L109.103 189.133L133.396 145.446L127.536 98.562L127.429 97.3899" fill="#FFBE9D"/>
<path d="M126.257 91.7427C126.151 91.423 122.954 79.7021 122.954 79.7021L110.169 87.0543C110.169 88.1199 114.004 96.7507 114.004 96.7507L116.242 99.0949C116.242 99.0949 127.323 97.9228 127.536 97.8163C127.749 97.7097 126.257 91.7427 126.257 91.7427Z" fill="#FFBE9D"/>
<path d="M123.38 80.5544C123.38 80.5544 123.487 80.661 123.487 80.7675C124.02 82.0461 125.405 87.9066 124.765 88.3328C124.02 88.8656 121.889 88.8656 121.569 88.1197C121.249 87.3738 119.971 80.6609 119.971 80.6609C119.971 80.6609 119.864 79.5954 121.569 78.8495C122.634 78.6364 123.38 80.5544 123.38 80.5544Z" fill="#FFBE9D"/>
<path d="M119.331 79.3823C119.331 79.3823 119.438 79.4888 119.438 79.5954C119.971 80.874 121.356 86.7345 120.717 87.1607C119.971 87.6935 117.84 87.6935 117.52 86.9476C117.201 86.2017 115.922 79.4888 115.922 79.4888C115.922 79.4888 115.815 78.4233 117.52 77.6774C118.586 77.4643 119.331 79.3823 119.331 79.3823Z" fill="#FFBE9D"/>
<path d="M115.602 79.1691C115.602 79.1691 115.709 79.2757 115.709 79.3823C116.242 80.6609 117.627 86.5213 116.988 86.9476C116.242 87.4803 114.111 87.4803 113.791 86.7344C113.472 85.9886 112.193 79.2757 112.193 79.2757C112.193 79.2757 112.086 78.2102 113.791 77.4643C114.857 77.2512 115.602 79.1691 115.602 79.1691Z" fill="#FFBE9D"/>
<path d="M111.98 79.0627C111.98 79.0627 112.086 79.1693 112.086 79.2758C112.619 80.5545 114.004 86.4149 113.365 86.8411C112.619 87.3739 110.488 87.3739 110.169 86.628C109.849 85.8821 108.57 79.1693 108.57 79.1693C108.57 79.1693 108.464 78.1037 110.169 77.3578C111.234 77.1447 111.98 79.0627 111.98 79.0627Z" fill="#FFBE9D"/>
<path d="M121.143 86.5215C121.249 86.5215 121.036 85.1363 120.717 83.6445C120.397 82.0462 119.971 80.7676 119.864 80.8741C119.758 80.8741 119.971 82.2593 120.291 83.7511C120.61 85.3494 121.036 86.628 121.143 86.5215Z" fill="#EB996E"/>
<path d="M117.627 87.4805C117.733 87.4805 117.414 85.5625 116.881 83.3249C116.348 81.0873 115.922 79.2759 115.816 79.2759C115.709 79.2759 116.029 81.1938 116.561 83.4315C117.094 85.6691 117.52 87.4805 117.627 87.4805Z" fill="#EB996E"/>
<g opacity="0.78">
<g opacity="0.78">
<path opacity="0.78" d="M114.111 88.1197C114.217 88.1197 113.898 86.2017 113.365 83.9641C112.832 81.7265 112.406 79.915 112.299 79.915C112.193 79.915 112.513 81.833 113.045 84.0706C113.471 86.3083 114.004 88.1197 114.111 88.1197Z" fill="#EB996E"/>
</g>
</g>
<path d="M116.881 95.685L113.045 92.595C111.341 91.2098 110.275 89.2918 109.956 87.0542L109.742 85.3493L121.356 83.0051C121.356 83.0051 121.462 87.3738 118.053 87.3738L122.208 89.5049L116.881 95.685Z" fill="#FFBE9D"/>
<path d="M121.676 90.464C121.569 90.464 121.356 90.0378 120.717 89.2919C120.077 88.6526 118.799 87.9067 117.201 87.9067H115.922L117.094 87.4805C117.946 87.1608 118.799 86.8411 119.758 86.5215C120.717 85.8822 121.569 84.8166 121.462 83.538C121.462 83.4314 121.462 83.3249 121.356 83.2183L121.676 83.4314C118.373 84.2839 115.496 84.9232 113.258 85.2428C112.193 85.4559 111.341 85.5625 110.701 85.6691C110.062 85.7756 109.742 85.7756 109.742 85.6691C109.742 85.5625 111.021 85.3494 113.152 84.8166C115.283 84.3904 118.266 83.6445 121.462 82.7921L121.676 82.6855L121.782 82.8987C121.782 83.0052 121.889 83.1118 121.889 83.3249C121.995 84.0707 121.782 84.8166 121.356 85.4559C120.93 86.0953 120.397 86.5215 119.864 86.8411C118.905 87.1608 117.946 87.4805 117.094 87.8001L116.988 87.3739C118.799 87.4805 120.077 88.3329 120.717 89.0788C121.569 89.8246 121.676 90.3574 121.676 90.464Z" fill="#EB996E"/>
<path d="M120.93 85.0298C121.036 84.9232 121.249 85.5625 121.782 86.0953C122.102 86.3084 122.528 86.5215 122.954 86.3084C123.38 86.0953 123.487 85.456 123.487 84.8166C123.38 83.538 123.274 82.2594 123.167 81.4069C123.061 80.5545 122.954 80.0217 122.954 80.0217C123.061 80.0217 123.274 80.4479 123.487 81.4069C123.7 82.2594 123.806 83.538 124.02 84.8166C124.126 85.5625 123.913 86.4149 123.167 86.7346C122.421 87.1608 121.782 86.7346 121.462 86.4149C121.143 86.0953 121.036 85.6691 120.93 85.456C120.93 85.1363 120.93 85.0298 120.93 85.0298Z" fill="#EB996E"/>
<path d="M81.0813 123.602C83.9581 123.389 86.5152 125.2 88.5395 127.225C90.4574 129.249 92.0556 131.7 94.0799 133.725C95.5716 135.216 97.3829 136.495 98.3418 138.413C99.8334 141.503 98.5549 145.339 100.366 148.216C101.432 149.814 103.243 150.773 104.308 152.265C105.693 154.183 105.587 156.847 105.267 159.191C105.054 160.789 104.735 162.601 103.563 163.773C102.71 164.732 101.432 165.265 100.26 165.584C90.9901 168.781 80.8682 168.994 71.4922 166.223" fill="#263238"/>
<path d="M61.5834 142.675C60.5179 134.471 66.4845 127.012 74.7951 126.266C82.573 125.52 89.4984 131.381 90.6704 139.052C91.7359 145.872 92.5883 152.691 92.5883 155.249C92.4817 162.814 88.1133 165.691 86.3021 166.543C85.8759 166.756 84.8104 166.969 84.2777 167.076C84.2777 167.076 84.2777 167.076 84.2777 167.183L85.9824 175.813C86.7282 181.461 83.5319 186.469 77.9915 187.321C72.3445 188.174 67.8696 183.805 67.0172 178.158L61.5834 142.675Z" fill="#FFBE9D"/>
<path d="M89.3919 143.421C89.2853 143.634 88.3264 143.101 87.0479 143.208C85.7693 143.421 84.9169 144.167 84.8104 144.06C84.7039 143.954 84.8104 143.741 85.2366 143.315C85.5562 142.995 86.1955 142.569 87.0479 142.462C87.7937 142.356 88.5395 142.569 88.9657 142.782C89.2853 143.102 89.3919 143.421 89.3919 143.421Z" fill="#263238"/>
<path d="M78.0979 145.872C77.9914 146.085 77.0325 145.552 75.7539 145.659C74.4754 145.872 73.623 146.618 73.5165 146.511C73.4099 146.405 73.5165 146.192 73.9426 145.765C74.2623 145.446 74.9016 145.019 75.7539 144.913C76.4997 144.806 77.2456 145.019 77.6718 145.233C77.9914 145.552 78.0979 145.872 78.0979 145.872Z" fill="#263238"/>
<path d="M82.4664 151.945C82.4664 151.839 83.2122 151.626 84.4908 151.306C84.8104 151.2 85.1301 151.093 85.1301 150.88C85.1301 150.667 85.0235 150.347 84.8104 149.921C84.3842 149.175 83.9581 148.429 83.5319 147.577C81.7206 144.274 80.3355 141.503 80.442 141.397C80.5486 141.29 82.1468 143.954 84.0646 147.257C84.4908 148.11 84.917 148.855 85.3432 149.601C85.5562 149.921 85.7693 150.347 85.6628 150.88C85.6628 151.093 85.4497 151.306 85.2366 151.413C85.0235 151.519 84.8104 151.519 84.7039 151.519C83.3188 151.839 82.4664 152.052 82.4664 151.945Z" fill="#263238"/>
<path d="M84.2777 167.076C84.2777 167.076 79.3766 168.248 72.7708 165.371C72.7708 165.371 75.6475 171.551 84.7039 169.42L84.2777 167.076Z" fill="#EB996E"/>
<path d="M82.3599 155.035C81.8272 154.503 80.9748 154.289 80.229 154.503C79.6962 154.609 79.1635 155.035 78.8439 155.462C78.5242 155.994 78.6308 156.634 78.9504 156.953C79.3766 157.38 80.1224 157.38 80.6552 157.166C81.1879 156.953 81.7206 156.421 82.1468 155.994C82.2533 155.888 82.3599 155.781 82.4664 155.568C82.573 155.462 82.573 155.248 82.3599 155.035Z" fill="#EB996E"/>
<path d="M78.8439 153.331C79.057 153.331 79.2701 154.716 80.5487 155.462C81.8272 156.314 83.3189 155.888 83.3189 156.101C83.3189 156.208 82.9992 156.421 82.36 156.527C81.7207 156.634 80.8683 156.527 80.016 156.101C79.1636 155.568 78.7374 154.822 78.6309 154.29C78.6309 153.757 78.7374 153.331 78.8439 153.331Z" fill="#263238"/>
<path d="M77.139 141.823C77.0325 142.142 75.7539 142.249 74.2623 142.569C72.7706 142.888 71.5986 143.528 71.3855 143.314C71.279 143.208 71.3855 142.782 71.9182 142.462C72.3444 142.036 73.0903 141.61 73.9426 141.397C74.795 141.183 75.6474 141.183 76.2866 141.29C76.9259 141.397 77.2456 141.61 77.139 141.823Z" fill="#263238"/>
<path d="M88.1133 139.585C87.9002 139.905 87.0479 139.692 85.9824 139.905C84.9169 140.011 84.0646 140.331 83.8515 140.118C83.7449 140.011 83.8515 139.692 84.1711 139.372C84.4908 139.052 85.13 138.733 85.8759 138.626C86.6217 138.52 87.261 138.733 87.6871 138.946C88.0068 139.159 88.2199 139.372 88.1133 139.585Z" fill="#263238"/>
<path d="M92.1623 137.347C90.5641 139.692 85.663 138.306 82.6797 136.602C79.5899 138.733 75.2215 137.774 72.984 134.577C71.2793 136.708 67.7633 136.069 66.5913 133.618C65.3127 131.167 66.0585 127.758 67.7633 125.627C69.468 123.495 72.0251 122.43 74.5822 121.897C80.5488 120.832 87.0481 123.069 90.5641 128.503C92.1623 131.061 93.1212 134.47 92.1623 137.347Z" fill="#263238"/>
<path d="M68.1893 125.52C62.649 124.454 57.2151 129.995 56.6824 134.044C55.7235 140.97 56.6824 141.823 55.4038 145.126C54.5515 147.257 51.7813 149.495 50.6093 151.732C49.4373 154.076 49.4373 158.125 50.2896 160.683C51.0354 162.814 53.9122 168.781 53.9122 168.781C53.9122 168.781 62.2228 168.461 66.4846 167.396C67.5501 167.076 68.7221 166.756 69.4679 166.01C70.3203 165.264 68.6155 162.707 68.7221 161.642C69.1483 158.552 71.4923 156.847 70.7465 153.757C69.8941 149.708 66.6977 149.495 66.8043 145.445C66.8043 143.208 70.1072 140.118 70.4268 137.987C70.6399 135.856 71.9185 128.29 68.1893 125.52Z" fill="#263238"/>
<path d="M58.7067 169.1C58.7067 169.1 58.2806 168.674 57.6413 167.822C56.8955 166.969 55.9366 165.691 55.1907 163.879C54.3384 162.068 53.6991 159.83 54.0187 157.166C54.2318 154.609 55.4038 151.839 57.7478 149.921C58.9198 148.962 60.1984 148.323 61.3704 147.364C62.5424 146.405 63.2882 145.126 63.7144 143.847C64.1406 142.569 64.2471 141.29 64.3537 140.118C64.4602 138.946 64.6733 137.88 64.993 137.028C65.5257 135.11 66.8042 134.044 67.8697 133.618C68.8286 133.192 69.5744 133.298 69.4679 133.298C69.4679 133.298 69.3614 133.192 69.0417 133.192C68.7221 133.192 68.2959 133.192 67.7632 133.405C66.6977 133.831 65.3126 134.897 64.6733 136.921C64.3537 137.88 64.1406 138.946 63.9275 140.118C63.7144 141.29 63.6079 142.462 63.1817 143.741C62.7555 145.019 62.1162 146.085 60.9442 146.937C59.8788 147.79 58.6002 148.536 57.3217 149.495C54.8711 151.519 53.6991 154.396 53.486 157.06C53.2729 159.724 54.0187 162.174 54.8711 163.879C55.7235 165.691 56.7889 166.969 57.5347 167.822C57.9609 168.248 58.174 168.568 58.3871 168.781C58.6002 168.994 58.7067 169.1 58.7067 169.1Z" fill="#455A64"/>
<path d="M99.4073 165.478C99.4073 165.478 99.5139 165.371 99.6204 165.158C99.727 164.945 99.9401 164.625 100.047 164.199C100.366 163.347 100.792 162.068 100.792 160.47C100.792 158.871 100.366 156.847 99.1942 155.035C98.6615 154.076 97.8091 153.331 97.0633 152.372C96.3175 151.519 95.6782 150.56 95.3586 149.388C94.8259 147.044 95.6782 144.7 95.4651 142.569C95.3586 140.438 94.8259 138.52 93.9735 137.134C93.1211 135.749 92.1622 134.79 91.4164 134.257C90.9902 134.044 90.7771 133.831 90.564 133.725C90.3509 133.618 90.2444 133.512 90.2444 133.618C90.2444 133.618 90.6706 133.938 91.3098 134.471C92.0557 135.003 92.908 135.962 93.7604 137.347C94.5062 138.733 95.039 140.544 95.1455 142.675C95.1455 143.741 95.039 144.806 94.9324 145.978C94.8259 147.15 94.7193 148.323 95.0389 149.601C95.3586 150.88 96.1044 151.945 96.8502 152.798C97.5961 153.65 98.3419 154.503 98.9812 155.355C100.153 157.06 100.579 158.978 100.579 160.576C100.579 162.174 100.26 163.453 100.047 164.306C99.6204 165.051 99.3008 165.478 99.4073 165.478Z" fill="#455A64"/>
<path d="M75.7542 122.856C75.7542 122.963 77.1392 122.643 79.3767 123.069C81.5076 123.389 84.5975 124.561 86.8349 127.118C89.0724 129.676 90.0313 132.766 90.4575 134.897C90.7771 137.134 90.564 138.52 90.6706 138.52C90.6706 138.52 90.7771 138.2 90.8837 137.561C90.9902 136.921 90.9902 135.962 90.8837 134.897C90.564 132.659 89.6051 129.569 87.3677 126.799C85.0237 124.135 81.8273 123.069 79.5898 122.75C78.4178 122.643 77.5654 122.643 76.9262 122.75C76.0738 122.75 75.7542 122.856 75.7542 122.856Z" fill="#455A64"/>
<path d="M83.7449 133.938C83.7449 133.938 83.8515 133.618 83.8515 133.085C83.8515 132.552 83.8515 131.7 83.6384 130.741C83.2122 128.823 81.8271 126.159 79.1635 124.667C76.4998 123.069 73.5165 123.176 71.5987 123.709C70.6398 124.028 69.894 124.348 69.4678 124.667C69.0416 124.987 68.722 125.2 68.8285 125.2C68.8285 125.307 69.894 124.561 71.7053 124.135C73.5165 123.709 76.3933 123.709 78.8438 125.2C81.4009 126.692 82.6795 129.143 83.2122 130.954C83.8515 132.659 83.6384 133.938 83.7449 133.938Z" fill="#455A64"/>
<path d="M59.6658 218.009C59.6658 218.009 63.3949 226.426 63.1818 230.369C62.9688 234.311 59.1331 247.204 59.1331 247.204L104.202 251.467L104.415 241.024L103.03 198.19L128.175 159.937L109.21 148.962L90.7772 174.002L86.0892 172.191L65.8455 174.748V178.371L65.3128 178.477C65.3128 178.477 58.92 179.649 52.7403 183.379C45.4952 187.854 41.7661 196.378 43.0447 204.796C43.897 209.911 45.4952 216.091 48.4785 219.714C54.232 226.533 59.6658 218.009 59.6658 218.009Z" fill="#FF7213"/>
<path d="M53.273 198.083C53.273 198.083 50.929 184.977 51.6748 184.018C52.4207 182.846 61.9033 178.797 62.1164 179.223L64.2473 193.608L53.273 198.083Z" fill="#FAFAFA"/>
<path d="M91.6297 198.722L90.5642 223.869H100.047V198.722H91.6297Z" fill="#FAFAFA"/>
<path d="M75.9675 211.296C75.9675 211.296 76.1806 211.296 76.5002 211.296C76.9264 211.296 77.4591 211.296 78.0984 211.296C79.59 211.296 81.721 211.189 84.2781 211.189H84.4911V211.402C84.5977 217.476 84.5977 226.426 84.5977 236.549V236.869H84.2781C84.065 236.869 83.9584 236.869 83.7453 236.869C80.6555 236.869 77.6722 236.869 74.7955 236.869H74.4758V236.549C74.7955 229.303 75.1151 223.017 75.3282 218.435C75.4347 216.304 75.5413 214.492 75.6478 213.214C75.6478 212.681 75.7544 212.255 75.7544 211.829C75.9675 211.509 75.9675 211.296 75.9675 211.296C75.9675 211.296 75.9675 211.509 75.9675 211.829C75.9675 212.255 75.9675 212.681 75.9675 213.214C75.9675 214.492 75.8609 216.304 75.8609 218.435C75.6478 222.91 75.4347 229.197 75.2216 236.336L74.902 236.016C77.6722 236.016 80.762 236.016 83.8519 236.016C84.065 236.016 84.2781 236.016 84.3846 236.016L84.065 236.336C84.065 226.32 84.065 217.263 84.1715 211.189L84.3846 211.402C81.8275 211.402 79.8031 211.296 78.3115 211.296C77.6722 211.296 77.0329 211.296 76.6067 211.296C76.1806 211.296 75.9675 211.296 75.9675 211.296Z" fill="#FAFAFA"/>
<path d="M112.513 183.272L102.497 176.879L111.341 164.093L121.569 170.06L112.513 183.272Z" fill="#FAFAFA"/>
<g opacity="0.4">
<path opacity="0.4" d="M102.497 184.018H73.1973V193.501H102.497V184.018Z" fill="white"/>
</g>
<path d="M102.071 209.911C102.071 209.911 102.071 209.591 102.071 209.058C102.178 208.525 102.284 207.673 102.284 206.714C102.497 204.689 102.604 201.919 102.284 198.935C101.965 195.845 101.432 193.182 100.899 191.264C100.366 189.346 99.9402 188.174 100.047 188.174C100.047 188.174 100.26 188.387 100.473 188.919C100.686 189.452 101.006 190.198 101.325 191.157C101.965 193.075 102.604 195.845 102.923 198.935C103.243 202.026 103.03 204.796 102.71 206.82C102.604 207.779 102.391 208.632 102.284 209.165C102.178 209.591 102.071 209.911 102.071 209.911Z" fill="#263238"/>
<path d="M116.348 153.224C116.455 153.224 115.709 154.077 114.644 155.462C113.578 156.74 111.98 158.552 110.169 160.47C109.529 161.216 108.89 161.855 108.251 162.494L108.144 162.707L107.931 162.601C106.333 161.535 104.948 160.576 103.989 159.83C103.03 159.085 102.497 158.658 102.497 158.658C102.497 158.658 103.137 158.978 104.202 159.617C105.268 160.257 106.653 161.109 108.251 162.175H107.931C108.57 161.535 109.103 160.789 109.742 160.044C111.447 158.126 113.152 156.314 114.324 155.142C115.496 153.864 116.242 153.118 116.348 153.224Z" fill="#FAFAFA"/>
<path d="M126.683 162.281C126.683 162.388 125.511 161.855 123.7 160.896C121.889 159.937 119.438 158.658 116.775 157.273C114.111 155.781 111.66 154.503 109.849 153.437C108.144 152.478 107.079 151.839 107.079 151.732C107.079 151.626 108.251 152.158 110.062 153.117C111.873 154.076 114.324 155.355 116.988 156.74C119.651 158.232 122.102 159.511 123.913 160.576C125.618 161.535 126.683 162.174 126.683 162.281Z" fill="#263238"/>
<path d="M25.3579 423.551L20.4568 445.394L11.72 461.59C11.0807 462.762 11.6135 464.254 12.7855 464.787C13.4247 465.106 14.2771 465.106 14.9164 464.68C18.9651 462.336 33.9881 453.492 34.3078 451.894C34.6274 449.976 40.9136 429.198 40.9136 429.198L25.3579 423.551Z" fill="#FF7213"/>
<g opacity="0.6">
<path opacity="0.6" d="M12.7854 464.68L34.6273 450.402L34.4142 451.361C34.2011 452.107 33.775 452.853 33.1357 453.386C31.3244 454.664 26.4233 458.074 15.0229 464.68C14.277 465 13.4247 465.106 12.7854 464.68Z" fill="white"/>
</g>
<g opacity="0.6">
<g opacity="0.6">
<path opacity="0.6" d="M31.8573 442.304C31.218 442.517 30.7918 443.37 31.0049 444.009C31.218 444.648 31.9638 445.074 32.6031 444.861C33.2424 444.648 33.7751 443.689 33.4555 443.05C33.1358 442.411 32.1769 441.984 31.6442 442.411" fill="white"/>
</g>
</g>
<path d="M20.0307 456.476C19.9242 456.476 19.7111 455.197 18.5391 454.344C17.4736 453.385 16.1951 453.385 16.1951 453.279C16.1951 453.172 16.5147 453.172 17.0474 453.172C17.5802 453.172 18.326 453.492 18.8587 454.025C19.498 454.558 19.8176 455.197 20.0307 455.73C20.1373 456.156 20.1373 456.476 20.0307 456.476Z" fill="#263238"/>
<path d="M17.7931 459.033C17.6865 459.14 17.1538 458.181 16.0883 457.648C15.0229 457.008 14.064 457.008 14.064 456.902C14.064 456.795 15.236 456.582 16.408 457.222C17.4734 457.861 17.8996 458.926 17.7931 459.033Z" fill="#263238"/>
<path d="M23.8663 453.386C23.7598 453.492 22.9074 452.107 21.4158 451.041C19.9241 449.976 18.3259 449.656 18.3259 449.55C18.3259 449.443 20.0307 449.55 21.6289 450.722C23.3336 451.894 23.9729 453.386 23.8663 453.386Z" fill="#263238"/>
<path d="M25.8907 446.886C25.7842 446.992 24.7187 446.247 23.2271 445.714C21.7354 445.288 20.3503 445.394 20.3503 445.181C20.3503 445.074 21.7354 444.755 23.3336 445.181C24.9318 445.82 25.9973 446.886 25.8907 446.886Z" fill="#263238"/>
<path d="M27.4889 440.599C27.3824 440.706 26.3169 439.64 24.7187 439.321C23.014 439.001 21.7355 439.427 21.6289 439.321C21.6289 439.214 21.9485 439.001 22.4813 438.894C23.014 438.681 23.8664 438.681 24.8253 438.788C25.6777 439.001 26.4235 439.427 26.9562 439.747C27.2758 440.173 27.4889 440.493 27.4889 440.599Z" fill="#263238"/>
<path d="M24.9318 438.148C24.9318 438.148 24.9318 437.829 25.1449 437.296C25.358 436.763 25.6776 436.017 26.3169 435.272C26.6366 434.952 27.0627 434.419 27.702 434.313C28.0217 434.206 28.4478 434.419 28.6609 434.739C28.874 435.058 28.874 435.485 28.7675 435.804C28.4478 437.19 26.8496 438.255 25.2515 438.042C23.6533 437.829 22.4813 436.55 22.1616 435.272C22.0551 434.952 22.0551 434.526 22.3747 434.206C22.5878 433.886 23.1205 433.886 23.4402 433.993C24.0795 434.206 24.3991 434.739 24.7187 435.058C25.358 435.804 25.6776 436.55 25.7842 437.083C25.8907 437.616 25.9973 437.935 25.8907 437.935C25.7842 437.935 25.5711 436.763 24.3991 435.272C24.0795 434.952 23.7598 434.526 23.3336 434.313C23.1205 434.206 22.9074 434.313 22.8009 434.419C22.6944 434.526 22.6944 434.845 22.6944 435.165C23.014 436.231 24.0795 437.403 25.4645 437.509C26.8496 437.722 28.1282 436.763 28.4478 435.698C28.5544 435.485 28.5544 435.165 28.4478 434.952C28.3413 434.739 28.1282 434.632 27.9151 434.739C27.4889 434.845 27.0627 435.165 26.7431 435.485C25.2515 436.87 25.0384 438.148 24.9318 438.148Z" fill="#263238"/>
<g opacity="0.3">
<path opacity="0.3" d="M24.7186 425.895L24.0793 428.985L39.5285 433.567L40.8071 429.198L25.3579 423.551L24.7186 425.895Z" fill="black"/>
</g>
<path d="M95.9979 431.649L94.7193 449.123C94.7193 449.123 111.98 456.263 112.086 459.566L78.0981 458.181L79.0571 430.903L95.9979 431.649Z" fill="#FF7213"/>
<g opacity="0.6">
<g opacity="0.6">
<path opacity="0.6" d="M84.1714 447.206C83.5321 447.312 82.9994 448.058 83.1059 448.697C83.2125 449.337 83.9583 449.869 84.5976 449.763C85.2368 449.656 85.8761 448.804 85.663 448.165C85.4499 447.525 84.5976 446.992 83.9583 447.312" fill="white"/>
</g>
</g>
<g opacity="0.6">
<path opacity="0.6" d="M78.0981 458.181L78.3112 455.41L110.701 457.648C110.701 457.648 112.193 458.394 111.98 459.459L78.0981 458.181Z" fill="white"/>
</g>
<path d="M95.252 448.91C95.252 449.123 94.3996 449.123 93.5472 449.656C92.6949 450.082 92.2687 450.828 92.0556 450.722C91.949 450.722 92.1621 449.656 93.2276 449.123C94.293 448.591 95.252 448.804 95.252 448.91Z" fill="#263238"/>
<path d="M98.6614 450.509C98.6614 450.722 97.9156 450.935 97.3829 451.574C96.7436 452.214 96.6371 452.959 96.424 452.959C96.3174 452.959 96.2109 452 96.9567 451.148C97.7025 450.402 98.6614 450.402 98.6614 450.509Z" fill="#263238"/>
<path d="M100.579 454.877C100.473 454.877 100.26 454.025 100.686 453.172C101.112 452.32 101.964 452 101.964 452.107C102.071 452.213 101.538 452.746 101.112 453.492C100.792 454.131 100.686 454.877 100.579 454.877Z" fill="#263238"/>
<path d="M95.0389 444.968C94.9324 445.075 94.1866 444.861 93.2276 444.861C92.2687 444.861 91.5229 445.181 91.4164 444.968C91.3098 444.861 92.0556 444.222 93.1211 444.222C94.3997 444.222 95.1455 444.755 95.0389 444.968Z" fill="#263238"/>
<g opacity="0.3">
<path opacity="0.3" d="M95.6783 435.058L95.4652 438.148L78.844 437.403L78.9505 433.78L95.6783 435.058Z" fill="black"/>
</g>
<path d="M95.2521 441.345C95.2521 441.452 94.6128 441.452 93.5474 441.239C93.0146 441.132 92.3753 440.919 91.8426 440.599C91.523 440.493 91.2033 440.28 90.8837 440.067C90.7772 439.96 90.5641 439.853 90.351 439.64C90.1379 439.427 90.1379 439.001 90.351 438.788C90.5641 438.575 90.8837 438.468 91.0968 438.468C91.3099 438.468 91.523 438.575 91.7361 438.575C92.1623 438.681 92.4819 438.788 92.8015 439.001C93.4408 439.321 93.9735 439.747 94.2932 440.067C95.039 440.812 95.2521 441.452 95.2521 441.452C95.1455 441.452 94.8259 440.919 94.0801 440.386C93.6539 440.067 93.2277 439.747 92.5884 439.427C92.2688 439.321 91.9492 439.214 91.6295 439.108C91.3099 439.001 90.9903 439.001 90.8837 439.108C90.8837 439.214 90.8837 439.214 90.8837 439.321C90.9903 439.427 91.0968 439.534 91.2033 439.64C91.523 439.853 91.8426 440.067 92.0557 440.173C92.5884 440.493 93.2277 440.706 93.6539 440.919C94.6128 441.239 95.2521 441.345 95.2521 441.345Z" fill="#263238"/>
<path d="M95.039 441.665C94.9324 441.665 94.7193 441.132 94.6128 439.96C94.6128 439.427 94.7193 438.788 94.9324 438.148C95.039 437.829 95.2521 437.509 95.3586 437.083C95.5717 436.763 95.7848 436.337 96.4241 436.23C96.7437 436.23 97.0633 436.55 97.0633 436.763C97.1699 436.976 97.1699 437.189 97.1699 437.403C97.1699 437.829 97.1699 438.148 97.1699 438.575C97.0633 439.321 96.7437 439.853 96.4241 440.279C95.6782 441.132 95.039 441.345 95.039 441.238C95.039 441.132 95.5717 440.812 96.1044 440.066C96.3175 439.64 96.6372 439.107 96.7437 438.468C96.7437 438.148 96.8503 437.829 96.7437 437.509C96.7437 437.189 96.5306 436.87 96.4241 436.87C96.211 436.87 95.9979 437.083 95.7848 437.403C95.5717 437.722 95.4652 438.042 95.3586 438.255C95.1455 438.894 95.039 439.427 94.9324 439.96C94.9324 441.025 95.1455 441.558 95.039 441.665Z" fill="#263238"/>
<path d="M52.9534 208.206L61.6902 208.739C62.2229 211.616 64.1408 215.984 64.1408 215.984C71.1728 203.731 76.7132 187.321 77.9917 180.715C77.7786 180.076 77.5656 179.33 77.2459 178.477C76.9263 177.518 77.2459 175.707 77.3525 174.748C77.5656 173.256 77.9917 171.338 78.0983 170.379C78.5245 167.609 78.9507 167.183 79.9096 167.502C81.1881 167.929 79.3768 175.387 80.4423 175.494C80.975 175.6 81.7209 173.043 81.9339 170.912C82.147 168.781 83.1059 162.388 83.7452 161.962C84.7041 161.322 85.663 162.281 85.3434 164.412C85.1303 166.543 84.8107 172.723 85.8761 172.83C86.9416 172.937 87.9005 162.281 87.9005 162.281C87.9005 162.281 87.6874 159.937 88.966 160.044C91.31 160.15 89.4987 171.338 89.2856 172.404C89.1791 173.15 90.3511 173.256 90.4576 172.51C90.5642 171.658 91.0969 161.855 93.4409 161.962C95.2522 162.068 92.0558 171.232 93.0147 173.363C93.9736 175.494 94.7195 166.117 96.4242 166.224C97.0635 166.224 97.4897 166.437 96.3176 171.658C95.6784 174.535 93.8671 179.756 92.2689 184.018C89.6053 198.723 77.6721 245.5 58.92 236.975C48.4785 232.18 43.5774 208.419 43.5774 208.419L52.9534 208.206Z" fill="#FFBE9D"/>
<path d="M92.5885 184.018C92.5885 184.018 92.5885 183.911 92.6951 183.698C92.8016 183.485 92.9082 183.166 93.0147 182.739C93.3344 181.887 93.7605 180.715 94.1867 179.223C94.7195 177.731 95.3587 175.813 95.998 173.576C96.3176 172.51 96.6373 171.232 96.8504 169.953C96.9569 169.314 97.0635 168.674 97.17 167.928C97.17 167.609 97.2766 167.289 97.17 166.863C97.17 166.543 97.0635 166.224 96.8504 166.224C96.5307 166.117 96.4242 166.33 96.2111 166.65C95.998 166.969 95.8915 167.289 95.7849 167.609C95.5718 168.355 95.3587 169.101 95.1456 169.846C94.9325 170.592 94.7194 171.445 94.5064 172.191C94.3998 172.617 94.2933 172.936 93.9736 173.469C93.8671 173.469 93.8671 173.576 93.7605 173.576C93.654 173.576 93.5474 173.576 93.4409 173.469C93.3344 173.363 93.2278 173.256 93.2278 173.15C93.1213 172.936 93.0147 172.723 93.0147 172.51C92.9082 170.699 93.2278 168.994 93.5474 167.183C93.654 166.33 93.8671 165.371 93.9736 164.412C94.0802 163.986 94.0802 163.453 94.0802 163.027C94.0802 162.601 93.9736 162.068 93.8671 161.961C93.654 161.855 93.2278 162.175 93.0147 162.494C92.8016 162.92 92.5885 163.347 92.482 163.773C92.1624 164.732 91.9493 165.691 91.8427 166.65C91.6296 167.609 91.5231 168.674 91.4165 169.633C91.4165 170.166 91.31 170.699 91.31 171.125L91.2034 171.871C91.2034 172.084 91.2034 172.51 90.8838 172.723C90.5642 172.936 90.138 172.936 89.8183 172.723C89.6052 172.617 89.4987 172.404 89.4987 172.191C89.4987 172.084 89.4987 171.978 89.4987 171.871V171.658C89.6052 171.125 89.6052 170.592 89.7118 170.06C89.8183 168.994 90.0314 167.928 90.138 166.863C90.2445 165.797 90.3511 164.732 90.3511 163.666C90.3511 162.601 90.3511 161.429 90.0314 160.47C89.9249 160.15 89.8183 159.937 89.6052 159.83C89.3922 159.724 89.1791 159.83 88.966 160.044C88.6463 160.47 88.6463 161.216 88.6463 161.748C88.4332 163.879 88.2201 165.904 87.9005 167.928C87.794 168.994 87.5809 169.953 87.3678 170.912C87.2612 171.125 87.2612 171.445 87.1547 171.658C87.0481 171.871 87.0481 172.191 86.622 172.404C86.3023 172.51 86.0892 172.404 85.9827 172.297C85.8761 172.191 85.7696 171.978 85.7696 171.871C85.663 171.658 85.663 171.338 85.5565 171.125C85.2369 169.101 85.3434 167.183 85.5565 165.265C85.5565 164.306 85.8761 163.347 85.663 162.494C85.5565 162.068 85.45 161.642 85.1303 161.429C85.0238 161.322 84.8107 161.322 84.7041 161.322C84.5976 161.322 84.491 161.429 84.491 161.429C84.3845 161.535 84.3845 161.429 84.3845 161.535C84.0648 162.281 83.8518 163.24 83.6387 163.986C83.4256 164.838 83.319 165.691 83.2125 166.543C83.1059 167.396 82.9994 168.248 82.8929 168.994C82.7863 169.846 82.6798 170.592 82.5732 171.445C82.4667 172.191 82.2536 173.043 81.9339 173.789C81.8274 174.002 81.8274 174.109 81.7208 174.322C81.6143 174.535 81.5077 174.748 81.1881 174.854C80.975 174.961 80.8685 174.748 80.7619 174.641C80.6554 174.535 80.6554 174.428 80.6554 174.322C80.6554 174.109 80.5488 173.895 80.5488 173.682C80.5488 172.191 80.7619 170.805 80.8685 169.42C80.8685 168.781 80.975 168.142 80.8685 167.502C80.8685 167.183 80.7619 166.863 80.5488 166.863C80.3357 166.756 80.0161 166.756 79.803 166.863C79.3768 167.183 79.2703 167.822 79.1637 168.355C79.0572 168.887 78.9506 169.42 78.8441 169.953C78.5245 172.084 78.0983 173.895 77.8852 175.387C77.7786 176.133 77.7786 176.772 77.8852 177.305C77.9917 177.838 78.2048 178.371 78.3114 178.69C78.4179 179.01 78.5245 179.33 78.5245 179.543C78.631 179.756 78.631 179.862 78.631 179.862C78.631 179.862 78.631 179.756 78.5245 179.543C78.4179 179.33 78.3114 179.01 78.2048 178.69C78.0983 178.264 77.8852 177.838 77.7786 177.305C77.6721 176.772 77.6721 176.027 77.7786 175.281C77.9917 173.789 78.3114 171.977 78.631 169.846C78.7376 169.314 78.7376 168.781 78.9506 168.142C79.0572 167.822 79.0572 167.609 79.1637 167.289C79.2703 166.969 79.3768 166.65 79.6965 166.437C80.0161 166.224 80.4423 166.33 80.7619 166.437C81.1881 166.65 81.1881 167.076 81.2947 167.396C81.4012 168.035 81.4012 168.781 81.2947 169.42C81.1881 170.805 80.975 172.191 81.0816 173.682C81.0816 173.895 81.0816 174.002 81.1881 174.215C81.1881 174.428 81.2947 174.428 81.2947 174.428C81.2947 174.428 81.5077 174.322 81.5077 174.109C81.6143 174.002 81.7208 173.789 81.7208 173.576C82.0405 172.83 82.147 172.084 82.3601 171.338C82.4667 170.592 82.5732 169.74 82.6798 168.887C82.7863 168.035 82.8928 167.183 82.9994 166.437C83.1059 165.584 83.319 164.732 83.4256 163.879C83.6387 163.027 83.7452 162.175 84.1714 161.216C84.1714 161.109 84.3845 160.896 84.491 160.896C84.5976 160.789 84.7041 160.789 84.9172 160.789C85.2369 160.683 85.5565 160.789 85.7696 160.896C86.3023 161.216 86.4089 161.748 86.5154 162.281C86.622 162.814 86.5154 163.24 86.5154 163.773C86.5154 164.199 86.4089 164.732 86.4089 165.158C86.3023 167.076 86.1958 168.994 86.5154 170.912C86.5154 171.125 86.622 171.338 86.7285 171.551C86.7285 171.658 86.835 171.764 86.835 171.764C86.835 171.978 86.835 171.764 86.835 171.871C86.835 171.871 86.835 171.871 86.835 171.764C86.835 171.764 87.0481 171.445 87.0481 171.232C87.1547 171.019 87.1547 170.805 87.2612 170.486C87.4743 169.527 87.6874 168.568 87.794 167.502C88.1136 165.478 88.3267 163.453 88.5398 161.322C88.5398 160.683 88.5398 159.937 88.966 159.191C89.2856 158.871 89.7118 158.658 90.2445 158.871C90.6707 159.085 90.8838 159.511 90.9903 159.83C91.31 161.002 91.31 162.068 91.31 163.24C91.31 164.306 91.2034 165.478 91.0969 166.543C90.9903 167.609 90.8838 168.674 90.6707 169.74C90.5642 170.273 90.4576 170.805 90.4576 171.338C90.3511 171.658 90.4576 171.658 90.4576 171.764C90.5642 171.871 90.7773 171.871 90.8838 171.764C90.9903 171.658 90.9903 171.551 90.9903 171.232L91.0969 170.486C91.0969 169.953 91.2034 169.42 91.2034 168.994C91.31 167.928 91.4165 166.969 91.6296 166.011C91.8427 165.052 92.0558 163.986 92.3754 163.027C92.5885 162.601 92.6951 162.068 93.0147 161.642C93.1213 161.429 93.3344 161.216 93.5474 161.002C93.7605 160.896 94.0802 160.683 94.5064 160.896C94.826 161.109 94.9325 161.429 95.0391 161.642C95.0391 161.855 95.1456 162.175 95.0391 162.388C95.0391 162.92 94.9325 163.347 94.9325 163.773C94.826 164.732 94.6129 165.584 94.5064 166.543C94.1867 168.355 93.7605 170.06 93.9736 171.764C93.9736 171.978 94.0802 172.191 94.0802 172.297C94.0802 172.404 94.1867 172.404 94.1867 172.51C94.1867 172.617 94.1867 172.51 94.1867 172.51C94.1867 172.404 94.1867 172.51 94.1867 172.404C94.3998 172.191 94.5064 171.764 94.6129 171.338C94.826 170.592 95.0391 169.74 95.2522 168.994C95.4653 168.248 95.6784 167.502 95.8915 166.756C95.998 166.437 96.2111 166.011 96.4242 165.691C96.5307 165.478 96.6373 165.371 96.8504 165.265C96.9569 165.158 97.0635 165.158 97.17 165.158C97.2766 165.158 97.3831 165.158 97.4896 165.158C97.7027 165.158 98.0224 165.371 98.0224 165.584C98.1289 165.797 98.1289 166.011 98.1289 166.224C98.1289 166.65 98.1289 166.969 98.0224 167.289C97.9158 168.035 97.8093 168.674 97.7027 169.314C97.4896 170.592 97.17 171.764 96.8504 172.936C96.2111 175.174 95.4653 176.986 94.9325 178.584C94.3998 180.076 93.9736 181.248 93.654 182.1C93.5474 182.526 93.3344 182.739 93.3344 182.953C92.5885 183.911 92.5885 184.018 92.5885 184.018Z" fill="#EB996E"/>
<path d="M43.7905 209.165C45.4953 215.132 48.7982 224.402 52.4208 234.205C52.9535 235.59 54.8713 235.697 55.5106 234.311L64.2474 215.878C64.2474 215.878 62.1164 200.641 62.3295 201.28C62.5426 201.813 44.3233 203.198 44.3233 203.198L43.7905 209.165Z" fill="#FF7213"/>
<path d="M67.4436 210.656C67.4436 210.656 67.2305 210.443 66.8043 210.337C66.3782 210.23 65.6323 210.23 65.0996 210.763L64.8865 210.976L64.78 210.656C64.3538 209.484 63.7145 207.886 63.0752 206.181C61.6901 202.239 60.6247 199.042 60.7312 198.936C60.8378 198.936 62.1163 202.026 63.5014 205.968C64.1407 207.673 64.6734 209.271 64.9931 210.443L64.6734 210.337C64.9931 210.017 65.4192 209.804 65.8454 209.804C66.2716 209.804 66.5913 209.804 66.8043 209.911C67.3371 210.337 67.4436 210.656 67.4436 210.656Z" fill="#263238"/>
<path d="M55.0843 228.238C54.9778 228.238 55.5105 227.172 56.3629 225.574C57.2152 223.976 58.3872 221.845 59.7723 219.394C61.1574 217.05 62.3294 214.919 63.2884 213.32C64.2473 211.829 64.78 210.87 64.8865 210.87C64.9931 210.87 64.4604 211.935 63.608 213.533C62.7556 215.132 61.5836 217.263 60.1985 219.714C58.8134 222.058 57.6414 224.189 56.6825 225.787C55.7236 227.385 55.0843 228.344 55.0843 228.238Z" fill="#263238"/>
<path d="M49.2243 225.468C49.2243 225.468 49.757 225.041 50.7159 224.402C51.6748 223.763 53.1665 222.91 54.8712 221.845L54.7647 222.164C53.8058 219.927 52.6338 217.263 51.4618 214.386C49.9701 210.763 48.585 207.46 47.6261 205.009L47.9457 205.116C46.5606 205.862 45.3886 206.501 44.6428 206.821C43.897 207.247 43.3643 207.46 43.3643 207.353C43.3643 207.353 43.7904 207.034 44.5363 206.608C45.2821 206.181 46.3475 205.542 47.7326 204.69L47.9457 204.583L48.0523 204.796C49.1177 207.247 50.5028 210.55 51.9945 214.066C53.1665 216.943 54.2319 219.607 55.1909 221.845L55.2974 222.058L55.0843 222.164C53.273 223.23 51.8879 223.976 50.8225 224.615C49.8636 225.254 49.2243 225.574 49.2243 225.468Z" fill="#FAFAFA"/>
<path d="M96.6372 436.017C99.8335 435.911 102.497 433.354 102.71 430.157C104.522 400.642 112.726 266.49 111.127 262.335C109.316 257.647 104.415 241.131 104.415 241.131L60.9443 239.106C60.9443 239.106 50.0766 256.261 48.5849 262.761C47.1998 268.622 7.77784 392.863 2.87673 419.182C2.344 421.846 3.94219 424.51 6.60584 425.362L96.6372 436.017Z" fill="#263238"/>
<path d="M69.4679 240.065C69.4679 240.065 69.3613 240.278 69.2548 240.491C69.1483 240.811 68.9352 241.237 68.6155 241.877C68.0828 243.049 67.2304 244.754 66.165 246.991C65.7388 248.163 65.206 249.442 64.5668 250.827C63.9275 252.212 63.2882 253.704 62.7555 255.409C62.1162 257.007 61.4769 258.819 60.8377 260.63C60.1984 262.548 59.5591 264.466 58.9198 266.597C58.2806 268.728 57.6413 270.966 57.002 273.203C56.3627 275.548 55.7235 277.998 55.0842 280.449C54.5515 283.006 53.9122 285.564 53.2729 288.227C52.7402 290.891 52.1009 293.662 51.5682 296.539C50.3962 302.292 49.2242 308.26 48.0521 314.546C46.7736 320.726 45.495 327.226 44.0034 333.832C43.2576 337.136 42.4052 340.332 41.6594 343.529C40.807 346.725 39.9547 349.815 38.9957 352.905C37.1845 358.979 35.1601 364.733 33.0292 370.274C28.8739 381.142 24.5055 390.839 20.7764 398.724C17.0473 406.715 13.7443 413.108 11.5069 417.477C10.3349 419.608 9.48251 421.313 8.94978 422.485C8.63014 423.018 8.41705 423.444 8.3105 423.764C8.20396 424.083 8.09741 424.19 8.09741 424.19C8.09741 424.19 8.20396 423.977 8.3105 423.764C8.41705 423.444 8.63014 423.018 8.94978 422.485C9.48251 421.313 10.3349 419.608 11.5069 417.37C13.6378 412.895 16.8342 406.502 20.5633 398.51C24.2924 390.519 28.5542 380.929 32.7095 369.954C34.7339 364.52 36.7583 358.659 38.5696 352.692C39.5285 349.709 40.3808 346.512 41.2332 343.422C41.979 340.226 42.8314 337.029 43.5772 333.726C45.0689 327.12 46.3474 320.726 47.626 314.546C48.9045 308.366 49.97 302.292 51.142 296.539C51.6747 293.662 52.314 290.891 52.9533 288.227C53.5925 285.564 54.2318 282.9 54.7645 280.342C55.4038 277.785 56.0431 275.441 56.6824 273.097C57.3216 270.753 58.0675 268.515 58.6002 266.49C59.346 264.359 59.9853 262.441 60.6246 260.523C61.2639 258.606 62.0097 256.901 62.5424 255.302C63.1817 253.598 63.821 252.106 64.3537 250.827C64.993 249.442 65.5257 248.163 65.9519 247.098C67.0173 244.86 67.8697 243.155 68.509 241.983C68.8286 241.45 69.0417 241.024 69.1483 240.704C69.3613 240.172 69.4679 240.065 69.4679 240.065Z" fill="#455A64"/>
<path d="M31.0049 427.919C31.0049 427.919 31.0049 427.706 31.1114 427.386C31.218 427.067 31.3245 426.534 31.5376 426.001C31.8573 424.723 32.39 422.911 33.0293 420.567C34.3078 415.772 36.2256 408.953 38.5696 400.535C40.9137 392.117 43.5773 381.995 46.5606 370.806C48.0522 365.159 49.5439 359.299 51.1421 353.225C52.6337 347.152 54.2319 340.758 55.8301 334.259C57.4283 327.759 58.9199 321.472 60.4116 315.292C61.7967 309.112 63.1818 303.251 64.5669 297.604C67.124 286.309 69.3614 276.187 71.2793 267.556C73.0905 259.032 74.5822 252.106 75.6476 247.311C76.1804 244.967 76.5 243.049 76.8197 241.77C76.9262 241.131 77.0327 240.704 77.1393 240.385C77.2458 240.065 77.2458 239.852 77.2458 239.852C77.2458 239.852 77.2458 240.065 77.1393 240.385C77.0327 240.704 77.0327 241.237 76.9262 241.877C76.7131 243.155 76.2869 245.073 75.8607 247.417C75.328 249.868 74.7953 252.745 74.156 256.155C73.4102 259.564 72.6644 263.4 71.7054 267.769C69.8942 276.293 67.6567 286.523 65.0996 297.817C63.821 303.465 62.4359 309.432 61.0508 315.505C59.5592 321.685 58.0676 327.972 56.4694 334.472C54.8712 340.971 53.273 347.258 51.7813 353.438C50.2897 359.512 48.6915 365.372 47.1999 371.02C44.2166 382.208 41.4464 392.224 39.1024 400.748C37.9304 405.01 36.8649 408.74 35.906 412.149C34.9471 415.452 34.0947 418.329 33.4554 420.674C32.7096 423.018 32.1769 424.829 31.8572 426.108C31.6442 426.747 31.5376 427.173 31.4311 427.493C31.1114 427.813 31.0049 427.919 31.0049 427.919Z" fill="#455A64"/>
<path d="M82.8929 240.065C82.8929 240.065 82.8929 240.278 82.9994 240.598C82.9994 240.918 83.106 241.45 83.2125 242.09C83.319 242.729 83.4256 243.581 83.5321 244.434C83.6387 245.393 83.6387 246.458 83.7452 247.737C83.7452 248.376 83.8518 249.016 83.8518 249.655C83.8518 250.294 83.8518 251.04 83.8518 251.786C83.8518 252.532 83.8518 253.278 83.8518 254.13C83.8518 254.983 83.7452 255.835 83.7452 256.688C83.7452 257.54 83.6387 258.499 83.6387 259.351C83.5321 260.31 83.4256 261.269 83.4256 262.228C83.319 264.253 82.8929 266.277 82.6798 268.515C82.0405 272.884 81.1881 277.572 80.0161 282.687C78.8441 287.695 77.5656 293.129 76.1805 298.776C74.7954 304.424 73.4103 310.391 72.2383 316.571C71.0663 322.751 70.1073 329.251 69.255 335.963C68.4026 342.676 67.6568 349.176 67.0175 355.463C66.3782 361.749 65.6324 367.823 64.8866 373.577C64.4604 376.454 64.1408 379.224 63.7146 381.995C63.2884 384.765 62.8622 387.322 62.436 389.88C61.9033 392.437 61.4771 394.888 61.0509 397.232C60.5182 399.576 60.092 401.814 59.5593 403.945C59.0266 406.076 58.4938 408.1 57.9611 410.018C57.4284 411.936 56.7891 413.748 56.3629 415.346C56.0433 416.198 55.8302 416.944 55.6171 417.797C55.2975 418.543 55.0844 419.288 54.7647 420.034C54.232 421.419 53.8058 422.698 53.3796 423.87C52.4207 426.108 51.6749 427.919 51.1422 429.091C50.9291 429.624 50.716 430.157 50.5029 430.477C50.3963 430.796 50.2898 430.903 50.2898 430.903C50.2898 430.903 50.2898 430.69 50.5029 430.477C50.6094 430.157 50.8225 429.731 51.0356 429.091C51.5683 427.919 52.3142 426.108 53.1665 423.87C53.5927 422.698 54.0189 421.419 54.5516 420.034C54.7647 419.288 55.0844 418.649 55.2975 417.797C55.5105 417.051 55.8302 416.198 56.0433 415.346C56.576 413.641 57.1087 411.936 57.6415 410.018C58.1742 408.1 58.6004 406.076 59.2397 403.945C59.6658 401.814 60.1986 399.576 60.7313 397.232C61.264 394.888 61.5837 392.437 62.1164 389.88C62.5426 387.322 62.9688 384.658 63.3949 381.995C63.7146 379.224 64.1408 376.454 64.567 373.577C65.3128 367.823 65.9521 361.749 66.5913 355.463C67.2306 349.176 67.9764 342.676 68.8288 335.963C69.6812 329.251 70.6401 322.857 71.8121 316.571C72.9841 310.391 74.4757 304.424 75.7543 298.776C77.1394 293.129 78.4179 287.801 79.5899 282.687C80.7619 277.679 81.6143 272.884 82.2536 268.515C82.5732 266.384 82.8929 264.253 82.9994 262.335C83.106 261.376 83.2125 260.417 83.319 259.458C83.4256 258.499 83.4256 257.647 83.4256 256.794C83.4256 255.942 83.5321 255.089 83.5321 254.237C83.5321 253.384 83.5321 252.639 83.5321 251.893C83.5321 251.147 83.5321 250.401 83.5321 249.762C83.5321 249.122 83.4256 248.483 83.4256 247.844C83.319 246.565 83.319 245.499 83.319 244.54C83.2125 243.581 83.106 242.836 83.106 242.196C82.9994 241.557 82.9994 241.131 82.9994 240.704C82.8929 240.278 82.8929 240.065 82.8929 240.065Z" fill="#455A64"/>
<path d="M78.0981 434.739C78.0981 434.739 78.0981 434.525 77.9915 434.206C77.885 433.886 77.885 433.353 77.6719 432.714C77.5653 432.075 77.4588 431.329 77.2457 430.37C77.0326 429.411 76.8195 428.345 76.713 427.173C76.6064 425.895 76.3933 424.616 76.2868 423.124C76.0737 421.632 76.0737 420.034 75.9671 418.223C75.9671 417.37 75.8606 416.411 75.8606 415.452C75.8606 414.493 75.8606 413.534 75.8606 412.575C75.8606 411.616 75.8606 410.551 75.8606 409.485C75.8606 408.42 75.9671 407.354 75.9671 406.289C75.9671 405.223 76.0737 404.051 76.0737 402.879C76.1802 401.707 76.2868 400.535 76.3933 399.363C76.4999 396.912 76.8195 394.461 77.1392 391.904C77.4588 389.347 77.885 386.683 78.2046 383.912C78.6308 381.142 79.057 378.372 79.6963 375.495C81.8272 363.987 84.7039 351.52 87.3676 338.308C90.0312 325.095 91.8425 312.415 93.0145 300.801C94.1865 289.186 94.6127 278.638 94.7192 269.9C94.7192 265.531 94.7192 261.482 94.7192 257.966C94.6127 254.45 94.6127 251.466 94.5061 249.016C94.3996 246.565 94.2931 244.647 94.2931 243.368C94.2931 242.729 94.2931 242.196 94.1865 241.877C94.1865 241.557 94.1865 241.344 94.1865 241.344C94.1865 241.344 94.1865 241.557 94.2931 241.877C94.2931 242.196 94.3996 242.729 94.3996 243.368C94.5061 244.647 94.6127 246.565 94.7192 249.016C94.8258 251.466 94.9323 254.45 95.0389 257.966C95.1454 261.482 95.1454 265.425 95.1454 269.9C95.0389 278.744 94.6127 289.293 93.5472 300.907C92.4818 312.522 90.6705 325.308 88.0068 338.521C85.3432 351.733 82.4665 364.2 80.3355 375.708C79.8028 378.585 79.3766 381.355 78.8439 384.126C78.4177 386.896 77.9915 389.453 77.6719 392.117C77.3522 394.674 77.0326 397.125 76.9261 399.576C76.8195 400.748 76.713 401.92 76.6064 403.092C76.6064 404.264 76.4999 405.33 76.4999 406.502C76.4999 407.567 76.3933 408.633 76.3933 409.698C76.3933 410.764 76.3933 411.723 76.3933 412.789C76.3933 413.748 76.3933 414.707 76.3933 415.665C76.3933 416.624 76.4999 417.477 76.4999 418.329C76.6064 420.034 76.6064 421.739 76.8195 423.231C76.9261 424.723 77.1392 426.108 77.2457 427.28C77.3522 428.558 77.5653 429.624 77.6719 430.476C77.7784 431.435 77.9915 432.181 78.0981 432.821C78.2046 433.46 78.3112 433.886 78.3112 434.312C78.0981 434.632 78.0981 434.739 78.0981 434.739Z" fill="#455A64"/>
<path d="M101.964 241.024C101.964 241.024 102.071 241.131 102.071 241.45C102.177 241.77 102.284 242.303 102.497 242.836C102.71 243.475 102.923 244.221 103.136 245.18C103.456 246.139 103.669 247.204 103.882 248.376C104.095 249.548 104.415 250.934 104.628 252.425C104.841 253.917 105.054 255.515 105.267 257.22C105.374 258.925 105.587 260.843 105.693 262.761C105.693 264.786 105.907 266.81 105.8 269.048C105.8 273.416 105.48 278.211 104.841 283.433C104.202 288.547 103.349 293.981 102.391 299.735C101.325 305.489 100.153 311.456 99.0876 317.636C97.9156 323.816 96.8502 330.316 95.9978 336.922C95.0389 343.529 94.2931 350.029 93.6538 356.315C93.0145 362.602 92.5883 368.675 92.2687 374.429C91.949 380.183 91.736 385.724 91.6294 390.945C91.5229 396.06 91.4163 400.961 91.5229 405.33C91.5229 409.699 91.6294 413.641 91.736 417.157C91.8425 420.674 91.949 423.657 92.0556 426.108C92.1621 428.559 92.2687 430.477 92.3752 431.755C92.3752 432.395 92.3752 432.821 92.4818 433.247C92.4818 433.567 92.4818 433.78 92.4818 433.78C92.4818 433.78 92.4818 433.567 92.3752 433.247C92.3752 432.927 92.2687 432.395 92.2687 431.755C92.1621 430.477 92.0556 428.559 91.8425 426.108C91.736 423.657 91.5229 420.674 91.4163 417.157C91.3098 413.641 91.2032 409.699 91.0967 405.33C91.0967 400.961 91.0967 396.166 91.2032 390.945C91.3098 385.724 91.5229 380.29 91.8425 374.429C92.1621 368.675 92.5883 362.495 93.2276 356.209C93.8669 349.922 94.6127 343.422 95.5716 336.709C96.5305 330.103 97.4894 323.603 98.6614 317.423C99.8334 311.243 101.005 305.169 102.071 299.522C103.136 293.768 103.989 288.334 104.628 283.219C105.267 278.105 105.587 273.31 105.587 268.941C105.693 266.704 105.48 264.679 105.48 262.655C105.374 260.737 105.161 258.819 105.054 257.114C104.841 255.409 104.628 253.811 104.415 252.319C104.202 250.827 103.882 249.548 103.669 248.27C103.456 247.098 103.243 246.032 102.923 245.073C102.71 244.114 102.497 243.368 102.284 242.729C102.177 242.09 101.964 241.663 101.964 241.344C102.071 241.131 101.964 241.024 101.964 241.024Z" fill="#455A64"/>
<path d="M428.102 191.051L321.556 206.075C317.614 206.607 313.991 203.837 313.352 199.895L299.181 99.5211C298.648 95.5786 301.419 91.9558 305.361 91.3165L411.907 76.2924C415.849 75.7597 419.471 78.53 420.111 82.4725L434.281 182.846C434.814 186.895 432.15 190.518 428.102 191.051Z" fill="#FF7213"/>
<path d="M389.425 155.675C389.425 155.675 389.106 155.781 388.573 155.888C388.04 155.994 387.188 156.101 386.229 156.314C384.098 156.634 381.221 157.06 377.599 157.593C370.247 158.658 360.019 160.15 348.512 161.855H348.299L348.192 161.642C347.766 160.15 347.34 158.552 346.807 156.953C342.865 143.101 339.349 130.741 337.005 122.75L337.218 122.856C333.915 123.282 331.358 123.602 329.44 123.922C328.588 124.028 327.842 124.135 327.416 124.135C326.99 124.135 326.67 124.241 326.67 124.241C326.67 124.241 326.883 124.135 327.416 124.135C327.948 124.028 328.588 123.922 329.44 123.815C331.251 123.495 333.915 123.176 337.218 122.643H337.325V122.75C339.669 130.848 343.291 143.101 347.34 156.953C347.766 158.552 348.299 160.15 348.725 161.642L348.405 161.429C359.912 159.83 370.141 158.339 377.492 157.38C381.115 156.847 384.098 156.527 386.123 156.207C387.081 156.101 387.934 155.994 388.467 155.888C389.212 155.675 389.425 155.675 389.425 155.675Z" fill="#EBEBEB"/>
<path d="M346.168 153.224C346.168 153.224 346.274 153.224 346.381 153.224C346.594 153.224 346.701 153.117 347.02 153.117C347.553 153.011 348.405 152.904 349.364 152.691C351.495 152.372 354.372 151.945 358.101 151.306C365.559 150.241 376.107 148.642 388.254 146.831L388.04 147.044C388.254 141.823 388.36 136.175 388.573 130.422C388.68 127.438 388.786 124.455 388.893 121.684L389.212 122.004C375.042 124.028 362.576 125.733 353.626 127.012C349.151 127.651 345.635 128.077 343.078 128.397C341.906 128.504 340.947 128.717 340.201 128.717C339.882 128.717 339.669 128.823 339.456 128.823C339.242 128.823 339.242 128.823 339.242 128.823C339.242 128.823 339.349 128.823 339.456 128.717C339.669 128.717 339.882 128.61 340.201 128.61C340.841 128.504 341.8 128.397 343.078 128.184C345.635 127.758 349.151 127.225 353.626 126.586C362.576 125.307 375.042 123.496 389.212 121.365H389.532V121.684C389.426 124.455 389.319 127.438 389.212 130.422C388.999 136.282 388.786 141.929 388.68 147.044V147.257H388.467C376.32 148.962 365.772 150.454 358.314 151.519C354.585 152.052 351.602 152.372 349.577 152.691C348.618 152.798 347.766 152.904 347.233 153.011C347.02 153.011 346.807 153.011 346.594 153.117C346.168 153.224 346.168 153.224 346.168 153.224Z" fill="#EBEBEB"/>
<path d="M360.339 171.232C360.339 171.232 360.232 170.912 360.019 170.273C359.806 169.74 359.167 168.887 358.208 168.355C357.249 167.822 355.757 167.609 354.479 168.355C353.2 168.994 352.241 170.592 352.454 172.297C352.667 174.002 354.052 175.281 355.437 175.494C356.929 175.813 358.208 175.281 359.06 174.428C359.912 173.682 360.125 172.723 360.232 172.084C360.339 171.551 360.339 171.232 360.339 171.232C360.339 171.232 360.445 171.551 360.445 172.297C360.445 172.936 360.125 174.002 359.273 174.854C358.421 175.707 356.929 176.453 355.331 176.133C353.733 175.813 352.135 174.428 351.815 172.51C351.495 170.592 352.667 168.781 354.159 168.035C355.65 167.289 357.249 167.502 358.314 168.142C359.38 168.781 359.912 169.633 360.125 170.273C360.445 170.805 360.339 171.232 360.339 171.232Z" fill="#EBEBEB"/>
<path d="M386.655 167.396C386.655 167.396 386.549 167.076 386.336 166.437C386.122 165.904 385.483 165.051 384.524 164.519C383.565 163.986 382.074 163.773 380.795 164.519C379.517 165.158 378.558 166.756 378.771 168.461C378.984 170.166 380.369 171.445 381.754 171.658C383.246 171.978 384.524 171.445 385.377 170.592C386.229 169.846 386.442 168.887 386.549 168.248C386.655 167.822 386.655 167.396 386.655 167.396C386.655 167.396 386.762 167.715 386.762 168.461C386.762 169.101 386.442 170.166 385.59 171.019C384.737 171.871 383.246 172.617 381.648 172.297C380.049 171.977 378.451 170.592 378.132 168.674C377.812 166.756 378.984 164.945 380.476 164.199C381.967 163.453 383.565 163.666 384.631 164.306C385.696 164.945 386.229 165.797 386.442 166.437C386.762 166.969 386.762 167.396 386.655 167.396Z" fill="#EBEBEB"/>
<path d="M396.078 124.455C399.681 119.007 398.185 111.669 392.737 108.066C387.289 104.463 379.951 105.959 376.349 111.407C372.746 116.856 374.241 124.193 379.69 127.796C385.138 131.4 392.475 129.904 396.078 124.455Z" fill="#FAFAFA"/>
<path d="M391.982 112.734C392.089 112.734 391.556 113.586 390.704 114.865C389.852 116.143 388.68 117.848 387.401 119.66C386.868 120.406 386.442 121.045 386.016 121.684L385.909 121.897L385.696 121.791C382.82 119.873 380.795 118.488 380.902 118.381C381.008 118.274 383.139 119.553 386.016 121.365L385.696 121.471C386.122 120.832 386.655 120.192 387.081 119.447C388.36 117.529 389.638 115.93 390.491 114.652C391.237 113.373 391.876 112.627 391.982 112.734Z" fill="#FF7213"/>
<path d="M398.589 322.857L316.655 302.186C312.819 301.227 310.475 297.285 311.434 293.449L330.825 216.517C331.784 212.681 335.726 210.337 339.562 211.296L421.496 231.967C425.332 232.926 427.676 236.869 426.717 240.705L407.325 317.636C406.473 321.579 402.531 323.923 398.589 322.857Z" fill="#455A64"/>
<path d="M347.127 254.13L347.873 274.482L385.164 283.859L395.605 267.13C395.605 267.13 391.983 264.892 389.319 264.786L393.688 244.434C394.114 242.41 392.409 240.705 390.385 241.024L386.336 241.664L365.24 236.336L363.109 234.525C361.511 233.139 359.06 233.992 358.527 236.016L353.626 256.048C353.946 256.048 350.856 254.344 347.127 254.13Z" fill="#FAFAFA"/>
<path d="M357.568 267.236C359.06 270.007 361.511 272.244 364.281 273.63C367.157 275.015 370.247 275.654 373.444 275.761C375.148 275.867 377.066 275.654 378.238 274.482C379.517 273.203 379.623 271.285 379.623 269.474C379.623 267.236 379.73 264.892 379.091 262.655C378.451 260.417 377.173 258.392 375.148 257.327C372.378 255.942 369.075 256.901 366.305 258.392C362.789 260.417 359.806 263.294 357.781 266.81" fill="#E0E0E0"/>
<path d="M349.81 275.013L347.847 274.518L343.496 291.774L345.46 292.269L349.81 275.013Z" fill="#263238"/>
<path d="M356.758 276.677L354.795 276.182L352.582 284.965L354.545 285.46L356.758 276.677Z" fill="#263238"/>
<path d="M376.569 281.694L374.606 281.199L372.393 289.982L374.356 290.476L376.569 281.694Z" fill="#263238"/>
<path d="M385.289 283.959L383.326 283.464L378.977 300.719L380.94 301.214L385.289 283.959Z" fill="#263238"/>
<path d="M358.527 265.532C358.421 265.532 359.912 259.032 361.937 251.04C363.961 243.049 365.666 236.656 365.879 236.656C365.986 236.656 364.494 243.155 362.47 251.147C360.445 259.138 358.634 265.532 358.527 265.532Z" fill="#263238"/>
<path d="M379.623 270.859C379.517 270.859 381.008 264.359 383.033 256.368C385.057 248.376 386.762 241.983 386.975 241.983C387.082 241.983 385.59 248.483 383.565 256.474C381.541 264.466 379.73 270.859 379.623 270.859Z" fill="#263238"/>
<path d="M389.426 264.892C389.426 264.892 389.106 264.892 388.36 264.892C388.147 264.892 388.041 264.892 387.827 264.892C387.614 264.892 387.401 264.892 387.188 264.999C386.975 264.999 386.655 265.105 386.442 265.105C386.123 265.212 385.91 265.212 385.59 265.318C384.418 265.638 383.033 266.277 381.861 267.556C380.689 268.728 379.837 270.54 379.517 272.564V272.884L379.304 272.777C376.321 272.031 372.911 271.179 369.288 270.326C365.24 269.261 361.404 268.302 358.101 267.45L357.888 267.343L357.995 267.13C358.421 265.318 358.314 263.507 357.888 262.015C357.462 260.524 356.823 259.351 356.183 258.392C354.905 256.581 353.626 255.942 353.733 255.835C353.733 255.835 354.052 255.942 354.585 256.368C355.118 256.688 355.757 257.327 356.503 258.286C357.249 259.245 357.888 260.417 358.314 262.015C358.74 263.507 358.954 265.425 358.527 267.343L358.314 267.023C361.617 267.876 365.453 268.835 369.502 269.794C373.018 270.753 376.427 271.605 379.517 272.351L379.197 272.564C379.517 270.433 380.476 268.622 381.754 267.343C383.033 266.064 384.418 265.425 385.697 265.105C386.016 264.999 386.336 264.999 386.549 264.892C386.869 264.892 387.082 264.892 387.295 264.786C387.508 264.786 387.721 264.786 387.934 264.786C388.147 264.786 388.36 264.786 388.467 264.786C389.106 264.786 389.426 264.786 389.426 264.892Z" fill="#263238"/>
<path d="M357.675 267.237C357.675 267.343 356.929 267.237 355.757 267.45C354.585 267.663 353.093 268.196 351.708 269.261C350.323 270.327 349.471 271.818 349.045 272.884C348.618 273.949 348.512 274.695 348.405 274.695C348.299 274.695 348.299 273.949 348.725 272.777C349.045 271.605 349.897 270.113 351.389 268.835C352.88 267.663 354.585 267.13 355.757 267.023C356.929 266.917 357.675 267.13 357.675 267.237Z" fill="#263238"/>
<path d="M384.738 284.178C384.631 284.178 384.844 283.326 384.844 282.047C384.844 280.769 384.631 278.957 383.672 277.146C382.82 275.334 381.435 274.056 380.476 273.31C379.41 272.564 378.665 272.244 378.665 272.138C378.665 272.031 379.517 272.244 380.689 272.99C381.861 273.736 383.246 275.015 384.205 276.933C385.164 278.744 385.377 280.769 385.27 282.047C385.164 283.432 384.844 284.178 384.738 284.178Z" fill="#263238"/>
<path d="M304.828 459.779L170.793 459.14C154.705 459.033 141.706 445.927 141.706 429.837L143.091 93.6606C143.198 77.571 156.303 64.4649 172.391 64.5714L306.426 65.2108C322.515 65.3173 335.513 78.4234 335.513 94.513L334.128 430.69C334.128 446.779 320.916 459.885 304.828 459.779Z" fill="#263238"/>
<path d="M305.254 74.694L279.257 74.5875C275.741 74.5875 272.971 77.4644 272.971 81.1938V85.8822C272.971 89.505 270.094 92.4885 266.684 92.4885L215.969 92.2754C212.453 92.2754 209.682 89.2919 209.682 85.6691V80.9807C209.682 77.3579 206.912 74.3744 203.396 74.3744H194.233L171.432 74.2678C160.138 74.2678 150.976 83.3249 150.869 94.6196L149.484 422.698C149.484 433.993 158.54 443.156 169.834 443.263L303.656 443.902C314.95 443.902 324.113 434.845 324.219 423.551L325.604 95.472C325.604 83.8576 316.548 74.694 305.254 74.694Z" fill="#FAFAFA"/>
<path d="M168.236 109.537C168.129 109.537 167.916 109.431 167.81 109.324L165.785 107.193C165.679 107.086 165.679 106.98 165.679 106.767C165.679 106.66 165.785 106.447 165.892 106.34L167.916 104.423C168.129 104.209 168.449 104.209 168.662 104.423C168.875 104.636 168.875 104.955 168.662 105.168L166.957 106.767L168.662 108.472C168.875 108.685 168.875 109.004 168.662 109.217C168.449 109.431 168.342 109.537 168.236 109.537Z" fill="#263238"/>
<path d="M278.493 419.19H197.898C188.415 419.19 180.744 411.518 180.744 402.035V398.945C180.744 389.461 188.415 381.79 197.898 381.79H278.493C287.975 381.79 295.647 389.461 295.647 398.945V402.035C295.753 411.518 287.975 419.19 278.493 419.19Z" fill="#FF7213"/>
<path fill-rule="evenodd" clip-rule="evenodd" d="M249.947 399.525C252.085 401.657 252.091 405.119 249.959 407.257C249.281 407.937 248.239 408.096 247.39 407.648L243.58 405.638C242.779 405.216 242.302 404.363 242.361 403.46L242.417 402.594C242.447 402.141 242.209 401.708 241.791 401.532C239.63 400.627 237.18 400.631 235.022 401.543C234.604 401.72 234.368 402.154 234.399 402.607L234.458 403.473C234.52 404.375 234.045 405.23 233.246 405.655L229.442 407.676C228.594 408.127 227.552 407.971 226.872 407.294C224.733 405.162 224.728 401.7 226.86 399.562L227.615 398.804C233.563 392.837 243.222 392.822 249.189 398.77L249.947 399.525Z" fill="#FFD1B1"/>
<path d="M191.986 263.3C190.546 263.3 189.313 262.986 188.286 262.36C187.259 261.726 186.469 260.846 185.916 259.72C185.369 258.593 185.096 257.286 185.096 255.8C185.096 254.313 185.369 253.006 185.916 251.88C186.469 250.753 187.259 249.876 188.286 249.25C189.313 248.616 190.546 248.3 191.986 248.3C193.646 248.3 195.029 248.716 196.136 249.55C197.243 250.376 198.019 251.493 198.466 252.9L196.036 253.57C195.756 252.63 195.279 251.896 194.606 251.37C193.933 250.836 193.059 250.57 191.986 250.57C191.019 250.57 190.213 250.786 189.566 251.22C188.926 251.653 188.443 252.263 188.116 253.05C187.796 253.83 187.633 254.746 187.626 255.8C187.626 256.853 187.786 257.773 188.106 258.56C188.433 259.34 188.919 259.946 189.566 260.38C190.213 260.813 191.019 261.03 191.986 261.03C193.059 261.03 193.933 260.763 194.606 260.23C195.279 259.696 195.756 258.963 196.036 258.03L198.466 258.7C198.019 260.106 197.243 261.226 196.136 262.06C195.029 262.886 193.646 263.3 191.986 263.3Z" fill="#FF7213"/>
<path d="M205.432 263.3C204.352 263.3 203.408 263.056 202.602 262.57C201.795 262.083 201.168 261.413 200.722 260.56C200.282 259.7 200.062 258.713 200.062 257.6C200.062 256.466 200.288 255.473 200.742 254.62C201.195 253.766 201.825 253.1 202.632 252.62C203.438 252.14 204.372 251.9 205.432 251.9C206.518 251.9 207.465 252.143 208.272 252.63C209.078 253.116 209.705 253.79 210.152 254.65C210.598 255.503 210.822 256.486 210.822 257.6C210.822 258.72 210.595 259.71 210.142 260.57C209.695 261.423 209.068 262.093 208.262 262.58C207.455 263.06 206.512 263.3 205.432 263.3ZM205.432 261.04C206.392 261.04 207.105 260.72 207.572 260.08C208.038 259.44 208.272 258.613 208.272 257.6C208.272 256.553 208.035 255.72 207.562 255.1C207.088 254.473 206.378 254.16 205.432 254.16C204.785 254.16 204.252 254.306 203.832 254.6C203.418 254.886 203.112 255.29 202.912 255.81C202.712 256.323 202.612 256.92 202.612 257.6C202.612 258.646 202.848 259.483 203.322 260.11C203.802 260.73 204.505 261.04 205.432 261.04Z" fill="#FF7213"/>
<path d="M220.495 263V257.8C220.495 257.46 220.472 257.083 220.425 256.67C220.378 256.256 220.268 255.86 220.095 255.48C219.928 255.093 219.675 254.776 219.335 254.53C219.002 254.283 218.548 254.16 217.975 254.16C217.668 254.16 217.365 254.21 217.065 254.31C216.765 254.41 216.492 254.583 216.245 254.83C216.005 255.07 215.812 255.403 215.665 255.83C215.518 256.25 215.445 256.79 215.445 257.45L214.015 256.84C214.015 255.92 214.192 255.086 214.545 254.34C214.905 253.593 215.432 253 216.125 252.56C216.818 252.113 217.672 251.89 218.685 251.89C219.485 251.89 220.145 252.023 220.665 252.29C221.185 252.556 221.598 252.896 221.905 253.31C222.212 253.723 222.438 254.163 222.585 254.63C222.732 255.096 222.825 255.54 222.865 255.96C222.912 256.373 222.935 256.71 222.935 256.97V263H220.495ZM213.005 263V252.2H215.155V255.55H215.445V263H213.005Z" fill="#FF7213"/>
<path d="M233.014 263V257.8C233.014 257.46 232.991 257.083 232.944 256.67C232.898 256.256 232.788 255.86 232.614 255.48C232.448 255.093 232.194 254.776 231.854 254.53C231.521 254.283 231.068 254.16 230.494 254.16C230.188 254.16 229.884 254.21 229.584 254.31C229.284 254.41 229.011 254.583 228.764 254.83C228.524 255.07 228.331 255.403 228.184 255.83C228.038 256.25 227.964 256.79 227.964 257.45L226.534 256.84C226.534 255.92 226.711 255.086 227.064 254.34C227.424 253.593 227.951 253 228.644 252.56C229.338 252.113 230.191 251.89 231.204 251.89C232.004 251.89 232.664 252.023 233.184 252.29C233.704 252.556 234.118 252.896 234.424 253.31C234.731 253.723 234.958 254.163 235.104 254.63C235.251 255.096 235.344 255.54 235.384 255.96C235.431 256.373 235.454 256.71 235.454 256.97V263H233.014ZM225.524 263V252.2H227.674V255.55H227.964V263H225.524Z" fill="#FF7213"/>
<path d="M242.798 263.3C241.705 263.3 240.745 263.063 239.918 262.59C239.091 262.116 238.445 261.46 237.978 260.62C237.518 259.78 237.288 258.813 237.288 257.72C237.288 256.54 237.515 255.516 237.968 254.65C238.421 253.776 239.051 253.1 239.858 252.62C240.665 252.14 241.598 251.9 242.658 251.9C243.778 251.9 244.728 252.163 245.508 252.69C246.295 253.21 246.878 253.946 247.258 254.9C247.638 255.853 247.781 256.976 247.688 258.27H245.298V257.39C245.291 256.216 245.085 255.36 244.678 254.82C244.271 254.28 243.631 254.01 242.758 254.01C241.771 254.01 241.038 254.316 240.558 254.93C240.078 255.536 239.838 256.426 239.838 257.6C239.838 258.693 240.078 259.54 240.558 260.14C241.038 260.74 241.738 261.04 242.658 261.04C243.251 261.04 243.761 260.91 244.188 260.65C244.621 260.383 244.955 260 245.188 259.5L247.568 260.22C247.155 261.193 246.515 261.95 245.648 262.49C244.788 263.03 243.838 263.3 242.798 263.3ZM239.078 258.27V256.45H246.508V258.27H239.078Z" fill="#FF7213"/>
<path d="M254.609 263.3C253.496 263.3 252.546 263.053 251.759 262.56C250.973 262.06 250.369 261.38 249.949 260.52C249.536 259.66 249.326 258.686 249.319 257.6C249.326 256.493 249.543 255.513 249.969 254.66C250.403 253.8 251.016 253.126 251.809 252.64C252.603 252.146 253.546 251.9 254.639 251.9C255.866 251.9 256.903 252.21 257.749 252.83C258.603 253.443 259.159 254.283 259.419 255.35L257.019 256C256.833 255.42 256.523 254.97 256.089 254.65C255.656 254.323 255.163 254.16 254.609 254.16C253.983 254.16 253.466 254.31 253.059 254.61C252.653 254.903 252.353 255.31 252.159 255.83C251.966 256.35 251.869 256.94 251.869 257.6C251.869 258.626 252.099 259.456 252.559 260.09C253.019 260.723 253.703 261.04 254.609 261.04C255.249 261.04 255.753 260.893 256.119 260.6C256.493 260.306 256.773 259.883 256.959 259.33L259.419 259.88C259.086 260.98 258.503 261.826 257.669 262.42C256.836 263.006 255.816 263.3 254.609 263.3Z" fill="#FF7213"/>
<path d="M267.753 263C267.04 263.133 266.34 263.19 265.653 263.17C264.973 263.156 264.363 263.033 263.823 262.8C263.283 262.56 262.873 262.183 262.593 261.67C262.347 261.203 262.217 260.726 262.203 260.24C262.19 259.753 262.183 259.203 262.183 258.59V249.2H264.583V258.45C264.583 258.883 264.587 259.263 264.593 259.59C264.607 259.916 264.677 260.183 264.803 260.39C265.043 260.79 265.427 261.013 265.953 261.06C266.48 261.106 267.08 261.08 267.753 260.98V263ZM260.223 254.09V252.2H267.753V254.09H260.223Z" fill="#FF7213"/>
<path d="M274.439 263.3C273.345 263.3 272.385 263.063 271.559 262.59C270.732 262.116 270.085 261.46 269.619 260.62C269.159 259.78 268.929 258.813 268.929 257.72C268.929 256.54 269.155 255.516 269.609 254.65C270.062 253.776 270.692 253.1 271.499 252.62C272.305 252.14 273.239 251.9 274.299 251.9C275.419 251.9 276.369 252.163 277.149 252.69C277.935 253.21 278.519 253.946 278.899 254.9C279.279 255.853 279.422 256.976 279.329 258.27H276.939V257.39C276.932 256.216 276.725 255.36 276.319 254.82C275.912 254.28 275.272 254.01 274.399 254.01C273.412 254.01 272.679 254.316 272.199 254.93C271.719 255.536 271.479 256.426 271.479 257.6C271.479 258.693 271.719 259.54 272.199 260.14C272.679 260.74 273.379 261.04 274.299 261.04C274.892 261.04 275.402 260.91 275.829 260.65C276.262 260.383 276.595 260 276.829 259.5L279.209 260.22C278.795 261.193 278.155 261.95 277.289 262.49C276.429 263.03 275.479 263.3 274.439 263.3ZM270.719 258.27V256.45H278.149V258.27H270.719Z" fill="#FF7213"/>
<path d="M285.89 263.3C284.897 263.3 284.03 263.05 283.29 262.55C282.55 262.05 281.977 261.37 281.57 260.51C281.163 259.65 280.96 258.68 280.96 257.6C280.96 256.506 281.163 255.533 281.57 254.68C281.983 253.82 282.567 253.143 283.32 252.65C284.073 252.15 284.96 251.9 285.98 251.9C287.007 251.9 287.867 252.15 288.56 252.65C289.26 253.143 289.79 253.82 290.15 254.68C290.51 255.54 290.69 256.513 290.69 257.6C290.69 258.673 290.51 259.643 290.15 260.51C289.79 261.37 289.253 262.05 288.54 262.55C287.827 263.05 286.943 263.3 285.89 263.3ZM286.26 261.14C286.907 261.14 287.427 260.993 287.82 260.7C288.22 260.4 288.51 259.983 288.69 259.45C288.877 258.916 288.97 258.3 288.97 257.6C288.97 256.893 288.877 256.276 288.69 255.75C288.51 255.216 288.227 254.803 287.84 254.51C287.453 254.21 286.953 254.06 286.34 254.06C285.693 254.06 285.16 254.22 284.74 254.54C284.32 254.853 284.01 255.28 283.81 255.82C283.61 256.353 283.51 256.946 283.51 257.6C283.51 258.26 283.607 258.86 283.8 259.4C284 259.933 284.303 260.356 284.71 260.67C285.117 260.983 285.633 261.14 286.26 261.14ZM288.97 263V255.42H288.67V248.6H291.1V263H288.97Z" fill="#FF7213"/>
<path d="M214.965 299.36C213.845 299.36 212.845 299.108 211.965 298.604C211.093 298.092 210.401 297.4 209.889 296.528C209.385 295.648 209.133 294.648 209.133 293.528V287.192C209.133 286.072 209.385 285.072 209.889 284.192C210.401 283.312 211.093 282.62 211.965 282.116C212.845 281.612 213.845 281.36 214.965 281.36C216.085 281.36 217.085 281.612 217.965 282.116C218.845 282.62 219.537 283.312 220.041 284.192C220.545 285.072 220.797 286.072 220.797 287.192V293.528C220.797 294.648 220.545 295.648 220.041 296.528C219.537 297.4 218.845 298.092 217.965 298.604C217.085 299.108 216.085 299.36 214.965 299.36ZM214.965 297.308C215.645 297.308 216.261 297.144 216.813 296.816C217.365 296.488 217.805 296.048 218.133 295.496C218.461 294.936 218.625 294.32 218.625 293.648V287.06C218.625 286.38 218.461 285.764 218.133 285.212C217.805 284.66 217.365 284.22 216.813 283.892C216.261 283.564 215.645 283.4 214.965 283.4C214.293 283.4 213.677 283.564 213.117 283.892C212.565 284.22 212.125 284.66 211.797 285.212C211.469 285.764 211.305 286.38 211.305 287.06V293.648C211.305 294.32 211.469 294.936 211.797 295.496C212.125 296.048 212.565 296.488 213.117 296.816C213.677 297.144 214.293 297.308 214.965 297.308Z" fill="#263238"/>
<path d="M228.988 299.36C227.868 299.36 226.868 299.108 225.988 298.604C225.116 298.092 224.424 297.4 223.912 296.528C223.408 295.648 223.156 294.648 223.156 293.528V287.192C223.156 286.072 223.408 285.072 223.912 284.192C224.424 283.312 225.116 282.62 225.988 282.116C226.868 281.612 227.868 281.36 228.988 281.36C230.108 281.36 231.108 281.612 231.988 282.116C232.868 282.62 233.56 283.312 234.064 284.192C234.568 285.072 234.82 286.072 234.82 287.192V293.528C234.82 294.648 234.568 295.648 234.064 296.528C233.56 297.4 232.868 298.092 231.988 298.604C231.108 299.108 230.108 299.36 228.988 299.36ZM228.988 297.308C229.668 297.308 230.284 297.144 230.836 296.816C231.388 296.488 231.828 296.048 232.156 295.496C232.484 294.936 232.648 294.32 232.648 293.648V287.06C232.648 286.38 232.484 285.764 232.156 285.212C231.828 284.66 231.388 284.22 230.836 283.892C230.284 283.564 229.668 283.4 228.988 283.4C228.316 283.4 227.7 283.564 227.14 283.892C226.588 284.22 226.148 284.66 225.82 285.212C225.492 285.764 225.328 286.38 225.328 287.06V293.648C225.328 294.32 225.492 294.936 225.82 295.496C226.148 296.048 226.588 296.488 227.14 296.816C227.7 297.144 228.316 297.308 228.988 297.308Z" fill="#263238"/>
<path d="M238.14 297.2V294.848H240.492V297.2H238.14ZM238.152 290.192V287.84H240.504V290.192H238.152Z" fill="#263238"/>
<path d="M249.535 299.36C248.415 299.36 247.415 299.108 246.535 298.604C245.663 298.092 244.971 297.4 244.459 296.528C243.955 295.648 243.703 294.648 243.703 293.528V287.192C243.703 286.072 243.955 285.072 244.459 284.192C244.971 283.312 245.663 282.62 246.535 282.116C247.415 281.612 248.415 281.36 249.535 281.36C250.655 281.36 251.655 281.612 252.535 282.116C253.415 282.62 254.107 283.312 254.611 284.192C255.115 285.072 255.367 286.072 255.367 287.192V293.528C255.367 294.648 255.115 295.648 254.611 296.528C254.107 297.4 253.415 298.092 252.535 298.604C251.655 299.108 250.655 299.36 249.535 299.36ZM249.535 297.308C250.215 297.308 250.831 297.144 251.383 296.816C251.935 296.488 252.375 296.048 252.703 295.496C253.031 294.936 253.195 294.32 253.195 293.648V287.06C253.195 286.38 253.031 285.764 252.703 285.212C252.375 284.66 251.935 284.22 251.383 283.892C250.831 283.564 250.215 283.4 249.535 283.4C248.863 283.4 248.247 283.564 247.687 283.892C247.135 284.22 246.695 284.66 246.367 285.212C246.039 285.764 245.875 286.38 245.875 287.06V293.648C245.875 294.32 246.039 294.936 246.367 295.496C246.695 296.048 247.135 296.488 247.687 296.816C248.247 297.144 248.863 297.308 249.535 297.308Z" fill="#263238"/>
<path d="M262.467 299.336C261.611 299.336 260.815 299.18 260.079 298.868C259.343 298.548 258.707 298.1 258.171 297.524C257.643 296.94 257.255 296.248 257.007 295.448L259.059 294.86C259.323 295.66 259.763 296.268 260.379 296.684C260.995 297.1 261.687 297.304 262.455 297.296C263.159 297.28 263.767 297.12 264.279 296.816C264.799 296.504 265.199 296.08 265.479 295.544C265.767 295.008 265.911 294.388 265.911 293.684C265.911 292.612 265.591 291.744 264.951 291.08C264.311 290.408 263.471 290.072 262.431 290.072C262.143 290.072 261.839 290.112 261.519 290.192C261.207 290.272 260.915 290.384 260.643 290.528L259.611 288.836L266.019 283.04L266.295 283.76H257.691V281.72H267.879V283.772L262.419 289.004L262.395 288.248C263.539 288.168 264.539 288.356 265.395 288.812C266.251 289.268 266.915 289.92 267.387 290.768C267.867 291.616 268.107 292.588 268.107 293.684C268.107 294.788 267.859 295.764 267.363 296.612C266.867 297.46 266.195 298.128 265.347 298.616C264.499 299.096 263.539 299.336 262.467 299.336Z" fill="#263238"/>
<path d="M240.155 222.804C255.572 222.804 268.07 210.305 268.07 194.887C268.07 179.468 255.572 166.969 240.155 166.969C224.737 166.969 212.24 179.468 212.24 194.887C212.24 210.305 224.737 222.804 240.155 222.804Z" fill="#FF7213"/>
<path d="M253.899 183.166C254.219 183.485 248.998 190.411 242.285 198.829C240.794 200.534 239.409 202.239 238.13 203.837L237.597 204.476L236.958 203.837C231.631 198.403 228.008 194.354 228.328 194.034C228.541 193.821 232.59 197.444 238.13 202.665L236.958 202.772C238.237 201.173 239.622 199.468 241.007 197.764C247.826 189.452 253.579 182.846 253.899 183.166Z" fill="white"/>
<path d="M279.79 183.698C278.937 180.715 275.102 181.035 275.102 181.035L275.208 183.059C277.446 182.633 278.831 185.297 278.831 185.297L279.79 183.698Z" fill="#FF7213"/>
<path d="M199.028 189.878C198.176 186.895 194.34 187.215 194.34 187.215L194.446 189.239C196.684 188.813 198.069 191.477 198.069 191.477L199.028 189.878Z" fill="#E0E0E0"/>
<path d="M243.564 149.281C247.932 150.667 250.703 145.552 250.703 145.552L248.039 144.06C246.76 147.15 242.285 146.831 242.285 146.831L243.564 149.281Z" fill="#E0E0E0"/>
<path d="M218.952 154.822C216.928 155.035 216.608 157.593 216.608 157.593L217.993 157.806C217.993 156.314 219.911 155.675 219.911 155.675L218.952 154.822Z" fill="#FF7213"/>
<path d="M303.763 173.682C304.082 171.658 301.632 170.805 301.632 170.805L301.099 172.084C302.591 172.51 302.697 174.428 302.697 174.428L303.763 173.682Z" fill="#E0E0E0"/>
<path d="M230.992 127.864C231.311 125.84 228.861 124.987 228.861 124.987L228.328 126.266C229.82 126.692 229.926 128.61 229.926 128.61L230.992 127.864Z" fill="#FF7213"/>
<path d="M180.169 160.896C179.85 164.093 184.005 164.838 184.005 164.838L184.751 162.707C182.194 162.494 181.874 159.511 181.874 159.511L180.169 160.896Z" fill="#FF7213"/>
<path d="M274.782 149.282C276.806 149.388 277.552 146.937 277.552 146.937L276.274 146.511C276.06 148.003 274.036 148.323 274.036 148.323L274.782 149.282Z" fill="#FF7213"/>
<path d="M286.076 157.699C286.076 157.806 285.33 157.913 284.371 157.913C283.412 157.913 282.666 157.806 282.666 157.699C282.666 157.593 283.412 157.486 284.371 157.486C285.33 157.486 286.076 157.593 286.076 157.699Z" fill="#E0E0E0"/>
<path d="M287.887 153.011C287.993 153.011 288.1 153.757 288.1 154.716C288.1 155.675 287.993 156.421 287.887 156.421C287.78 156.421 287.674 155.675 287.674 154.716C287.674 153.757 287.78 153.011 287.887 153.011Z" fill="#E0E0E0"/>
<path d="M289.805 157.593C289.805 157.486 290.551 157.38 291.51 157.38C292.469 157.38 293.214 157.486 293.214 157.593C293.214 157.699 292.469 157.806 291.51 157.806C290.551 157.699 289.805 157.593 289.805 157.593Z" fill="#E0E0E0"/>
<path d="M287.994 162.175C287.887 162.175 287.781 161.429 287.781 160.47C287.781 159.511 287.887 158.765 287.994 158.765C288.1 158.765 288.207 159.511 288.207 160.47C288.1 161.429 288.1 162.175 287.994 162.175Z" fill="#E0E0E0"/>
<path d="M290.764 160.15C290.657 160.257 290.338 159.937 290.018 159.511C289.698 159.085 289.485 158.765 289.592 158.658C289.698 158.552 290.018 158.871 290.338 159.298C290.551 159.724 290.764 160.15 290.764 160.15Z" fill="#E0E0E0"/>
<path d="M290.551 154.929C290.657 155.035 290.338 155.355 290.018 155.675C289.698 155.994 289.379 156.208 289.272 156.208C289.166 156.101 289.485 155.781 289.805 155.462C290.124 155.142 290.551 154.822 290.551 154.929Z" fill="#E0E0E0"/>
<path d="M286.715 156.314C286.609 156.421 286.289 156.208 285.969 155.995C285.65 155.675 285.437 155.462 285.437 155.355C285.437 155.249 285.863 155.462 286.182 155.675C286.502 155.888 286.715 156.208 286.715 156.314Z" fill="#E0E0E0"/>
<path d="M286.502 158.552C286.609 158.658 286.395 158.978 286.076 159.298C285.756 159.617 285.437 159.83 285.33 159.83C285.223 159.724 285.437 159.404 285.756 159.085C286.182 158.765 286.395 158.552 286.502 158.552Z" fill="#E0E0E0"/>
<path d="M193.274 148.109C193.274 148.216 192.528 148.322 191.569 148.322C190.611 148.322 189.865 148.216 189.865 148.109C189.865 148.003 190.611 147.896 191.569 147.896C192.422 148.003 193.274 148.109 193.274 148.109Z" fill="#FF7213"/>
<path d="M195.085 143.528C195.192 143.528 195.299 144.273 195.299 145.232C195.299 146.191 195.192 146.937 195.085 146.937C194.979 146.937 194.872 146.191 194.872 145.232C194.872 144.273 194.979 143.528 195.085 143.528Z" fill="#FF7213"/>
<path d="M197.003 148.003C197.003 147.896 197.749 147.79 198.708 147.79C199.667 147.79 200.413 147.896 200.413 148.003C200.413 148.109 199.667 148.216 198.708 148.216C197.749 148.216 197.003 148.109 197.003 148.003Z" fill="#FF7213"/>
<path d="M195.192 152.691C195.086 152.691 194.979 151.945 194.979 150.986C194.979 150.027 195.086 149.281 195.192 149.281C195.299 149.281 195.405 150.027 195.405 150.986C195.299 151.945 195.299 152.691 195.192 152.691Z" fill="#FF7213"/>
<path d="M197.962 150.667C197.856 150.773 197.536 150.454 197.216 150.027C196.897 149.601 196.684 149.282 196.79 149.175C196.897 149.068 197.216 149.388 197.536 149.814C197.749 150.24 197.962 150.667 197.962 150.667Z" fill="#FF7213"/>
<path d="M197.749 145.446C197.856 145.552 197.536 145.872 197.216 146.191C196.897 146.511 196.577 146.724 196.471 146.724C196.364 146.618 196.684 146.298 197.003 145.978C197.323 145.552 197.643 145.339 197.749 145.446Z" fill="#FF7213"/>
<path d="M193.807 146.724C193.7 146.831 193.381 146.618 193.061 146.404C192.741 146.085 192.528 145.872 192.528 145.765C192.635 145.659 192.954 145.872 193.274 146.085C193.7 146.404 193.913 146.724 193.807 146.724Z" fill="#FF7213"/>
<path d="M193.7 149.068C193.807 149.175 193.594 149.495 193.274 149.814C192.955 150.134 192.635 150.347 192.528 150.347C192.422 150.24 192.635 149.921 192.955 149.601C193.274 149.281 193.594 149.068 193.7 149.068Z" fill="#FF7213"/>
<path d="M311.114 103.783C311.114 103.89 307.704 104.103 303.549 104.103C299.394 104.103 295.984 103.996 295.984 103.783C295.984 103.57 299.394 103.464 303.549 103.464C307.811 103.57 311.114 103.677 311.114 103.783Z" fill="#263238"/>
<path d="M311.114 106.98C311.114 107.086 307.704 107.299 303.549 107.299C299.394 107.299 295.984 107.193 295.984 106.98C295.984 106.873 299.394 106.66 303.549 106.66C307.811 106.66 311.114 106.767 311.114 106.98Z" fill="#263238"/>
<path d="M311.114 110.07C311.114 110.176 307.704 110.39 303.549 110.39C299.394 110.39 295.984 110.283 295.984 110.07C295.984 109.963 299.394 109.75 303.549 109.75C307.811 109.857 311.114 109.963 311.114 110.07Z" fill="#263238"/>
<path d="M413.292 388.068C416.595 389.454 418.939 392.437 420.111 395.847C421.283 399.15 421.389 402.879 421.07 406.396C420.324 413.215 416.382 420.141 412.226 425.575C406.473 420.567 405.194 411.83 404.768 407.354C404.129 400.215 407.325 387.003 413.292 388.068Z" fill="#FF7213"/>
<path d="M418.832 436.763C417.873 432.927 419.471 428.665 422.455 426.001C425.438 423.337 429.593 422.272 433.535 422.592C435.347 422.698 437.371 423.231 438.33 424.723C439.289 426.108 439.182 428.132 438.437 429.624C437.691 431.116 436.306 432.288 434.814 433.14C429.913 436.337 424.479 438.468 418.832 436.763Z" fill="#FF7213"/>
<path d="M411.48 457.648C411.48 457.648 411.48 457.115 411.694 456.263C411.907 455.304 412.12 454.025 412.439 452.427C413.079 449.23 413.931 444.755 416.382 440.28C418.832 435.911 422.242 432.608 425.012 431.009C426.397 430.157 427.675 429.731 428.528 429.411C428.954 429.305 429.274 429.198 429.593 429.198C429.806 429.198 429.913 429.091 429.913 429.198C429.913 429.305 427.889 429.624 425.118 431.329C422.348 433.034 419.045 436.231 416.701 440.493C414.251 444.755 413.398 449.23 412.652 452.427C412.333 454.025 412.013 455.304 411.8 456.156C411.694 457.222 411.587 457.648 411.48 457.648Z" fill="#263238"/>
<path d="M411.694 398.297C411.694 398.297 411.694 398.51 411.8 398.937C411.8 399.363 411.907 400.002 411.907 400.642C412.013 402.133 412.12 404.371 412.12 407.141C412.333 412.576 412.439 420.141 412.439 428.452C412.439 436.763 412.226 444.329 412.013 449.763C411.907 452.533 411.8 454.664 411.694 456.263C411.694 457.008 411.587 457.541 411.587 457.967C411.587 458.394 411.587 457.967 411.587 457.967C411.694 457.328 411.48 458.394 411.48 457.967C411.48 457.541 411.48 456.902 411.48 456.156C411.48 454.558 411.587 452.32 411.587 449.656C411.694 444.222 411.907 436.657 411.907 428.345C411.907 420.034 411.907 412.469 411.8 407.035C411.8 404.371 411.694 402.133 411.694 400.535C411.694 399.789 411.694 399.256 411.694 398.724C411.694 398.51 411.694 398.297 411.694 398.297Z" fill="#263238"/>
<path d="M408.923 440.919C407.645 432.714 402.104 425.256 394.54 421.633C392.622 420.674 390.065 420.141 388.573 421.526C386.975 422.911 387.295 425.575 388.147 427.493C391.343 435.804 399.974 441.558 408.817 441.452" fill="#FF7213"/>
<path d="M395.499 428.026C395.499 428.026 395.925 428.132 396.671 428.559C397.097 428.772 397.523 428.985 398.056 429.305C398.588 429.624 399.228 429.944 399.76 430.37C400.4 430.796 401.039 431.329 401.785 431.862C402.531 432.395 403.17 433.14 403.916 433.78C405.301 435.272 406.792 436.976 407.964 439.001C409.136 441.025 409.989 443.05 410.628 445.074C410.948 446.033 411.161 446.992 411.267 447.845C411.48 448.697 411.48 449.55 411.587 450.296C411.694 451.041 411.694 451.787 411.694 452.32C411.694 452.959 411.694 453.492 411.694 453.918C411.587 454.771 411.587 455.197 411.587 455.197C411.48 455.197 411.694 453.279 411.374 450.296C411.267 449.55 411.161 448.697 410.948 447.845C410.841 446.992 410.522 446.033 410.202 445.074C409.563 443.156 408.71 441.132 407.538 439.107C406.366 437.083 404.981 435.378 403.596 433.993C402.85 433.247 402.211 432.608 401.572 432.075C400.932 431.436 400.187 431.009 399.654 430.583C397.097 428.878 395.392 428.132 395.499 428.026Z" fill="#263238"/>
</g>
<defs>
<clipPath id="clip0_461_1244">
<rect width="459" height="465" fill="white"/>
</clipPath>
</defs>
</svg>
