<svg width="149" height="43" viewBox="0 0 149 43" fill="none" xmlns="http://www.w3.org/2000/svg">
<path d="M143.136 43H5.50524C2.47874 43 0 40.5799 0 37.625V5.375C0 2.4201 2.47874 4.63461e-06 5.50524 4.63461e-06H143.136C146.163 4.63461e-06 148.642 2.4201 148.642 5.375V37.625C148.642 40.5799 146.163 43 143.136 43Z" fill="black"/>
<path d="M143.136 0.861348C145.685 0.861348 147.759 2.88638 147.759 5.375V37.625C147.759 40.1136 145.685 42.1387 143.136 42.1387H5.50524C2.95632 42.1387 0.882215 40.1136 0.882215 37.625V5.375C0.882215 2.88638 2.95632 0.861348 5.50524 0.861348H143.136ZM143.136 4.63461e-06H5.50524C2.47874 4.63461e-06 0 2.4201 0 5.375V37.625C0 40.5799 2.47874 43 5.50524 43H143.136C146.163 43 148.642 40.5799 148.642 37.625V5.375C148.642 2.4201 146.163 4.63461e-06 143.136 4.63461e-06Z" fill="#A6A6A6"/>
<path d="M52.2089 11.012C52.2089 11.9097 51.9336 12.6286 51.3913 13.1647C50.7679 13.8003 49.9558 14.1201 48.9608 14.1201C48.0097 14.1201 47.1977 13.7949 46.5316 13.154C45.8641 12.5036 45.531 11.7054 45.531 10.75C45.531 9.7946 45.8641 8.99641 46.5316 8.35141C47.1977 7.70507 48.0097 7.37988 48.9608 7.37988C49.4342 7.37988 49.8857 7.47529 50.3164 7.65266C50.7458 7.83138 51.0954 8.07326 51.3487 8.37157L50.7734 8.93863C50.3316 8.42935 49.7301 8.17807 48.9608 8.17807C48.2671 8.17807 47.6657 8.41457 47.1551 8.8916C46.6499 9.36998 46.3967 9.98945 46.3967 10.75C46.3967 11.5106 46.6499 12.1354 47.1551 12.6138C47.6657 13.0854 48.2671 13.3273 48.9608 13.3273C49.6971 13.3273 50.3164 13.0854 50.805 12.6084C51.1271 12.2926 51.3101 11.8573 51.3583 11.3009H48.9608V10.5243H52.1593C52.1979 10.6922 52.2089 10.8548 52.2089 11.012Z" fill="white" stroke="white" stroke-width="0.16" stroke-miterlimit="10"/>
<path d="M57.2835 8.3193H54.279V10.3618H56.9876V11.1385H54.279V13.181H57.2835V13.9725H53.4285V7.52783H57.2835V8.3193Z" fill="white" stroke="white" stroke-width="0.16" stroke-miterlimit="10"/>
<path d="M60.8646 13.9725H60.014V8.3193H58.1711V7.52783H62.7088V8.3193H60.8646V13.9725Z" fill="white" stroke="white" stroke-width="0.16" stroke-miterlimit="10"/>
<path d="M65.9927 13.9725V7.52783H66.8419V13.9725H65.9927Z" fill="white" stroke="white" stroke-width="0.16" stroke-miterlimit="10"/>
<path d="M70.606 13.9725H69.7624V8.3193H67.9126V7.52783H72.4558V8.3193H70.606V13.9725Z" fill="white" stroke="white" stroke-width="0.16" stroke-miterlimit="10"/>
<path d="M81.0469 13.1432C80.3959 13.7949 79.5894 14.1201 78.6274 14.1201C77.6598 14.1201 76.8533 13.7949 76.2023 13.1432C75.5527 12.4929 75.2292 11.6947 75.2292 10.75C75.2292 9.80535 75.5527 9.00716 76.2023 8.35679C76.8533 7.70507 77.6598 7.37988 78.6274 7.37988C79.5839 7.37988 80.3904 7.70507 81.0414 8.36216C81.6965 9.01791 82.02 9.81073 82.02 10.75C82.02 11.6947 81.6965 12.4929 81.0469 13.1432ZM76.8313 12.603C77.3212 13.0854 77.9172 13.3273 78.6274 13.3273C79.332 13.3273 79.9335 13.0854 80.4179 12.603C80.9065 12.1206 81.1543 11.5012 81.1543 10.75C81.1543 9.99885 80.9065 9.37938 80.4179 8.89698C79.9335 8.41457 79.332 8.1727 78.6274 8.1727C77.9172 8.1727 77.3212 8.41457 76.8313 8.89698C76.3427 9.37938 76.095 9.99885 76.095 10.75C76.095 11.5012 76.3427 12.1206 76.8313 12.603Z" fill="white" stroke="white" stroke-width="0.16" stroke-miterlimit="10"/>
<path d="M83.2131 13.9725V7.52783H84.2454L87.4549 12.54H87.4921L87.4549 11.3011V7.52783H88.3041V13.9725H87.4178L84.0568 8.71302H84.0197L84.0568 9.95733V13.9725H83.2131Z" fill="white" stroke="white" stroke-width="0.16" stroke-miterlimit="10"/>
<path d="M75.0199 23.3839C72.4338 23.3839 70.3212 25.3055 70.3212 27.9567C70.3212 30.5864 72.4338 32.5281 75.0199 32.5281C77.6115 32.5281 79.7241 30.5864 79.7241 27.9567C79.7241 25.3055 77.6115 23.3839 75.0199 23.3839ZM75.0199 30.7275C73.6009 30.7275 72.3801 29.584 72.3801 27.9567C72.3801 26.3079 73.6009 25.1846 75.0199 25.1846C76.4389 25.1846 77.6652 26.3079 77.6652 27.9567C77.6652 29.584 76.4389 30.7275 75.0199 30.7275ZM64.7678 23.3839C62.1762 23.3839 60.0691 25.3055 60.0691 27.9567C60.0691 30.5864 62.1762 32.5281 64.7678 32.5281C67.358 32.5281 69.4665 30.5864 69.4665 27.9567C69.4665 25.3055 67.358 23.3839 64.7678 23.3839ZM64.7678 30.7275C63.3474 30.7275 62.1225 29.584 62.1225 27.9567C62.1225 26.3079 63.3474 25.1846 64.7678 25.1846C66.1868 25.1846 67.4075 26.3079 67.4075 27.9567C67.4075 29.584 66.1868 30.7275 64.7678 30.7275ZM52.5682 24.7855V26.7285H57.3206C57.1816 27.8143 56.8099 28.6125 56.2402 29.1688C55.5465 29.8406 54.4661 30.5864 52.5682 30.5864C49.6435 30.5864 47.3533 28.2819 47.3533 25.4264C47.3533 22.571 49.6435 20.2664 52.5682 20.2664C54.1495 20.2664 55.3001 20.8698 56.1493 21.6518L57.5518 20.2826C56.364 19.1753 54.784 18.3247 52.5682 18.3247C48.5576 18.3247 45.187 21.5107 45.187 25.4264C45.187 29.3421 48.5576 32.5281 52.5682 32.5281C54.7359 32.5281 56.364 31.8348 57.644 30.534C58.9556 29.2534 59.3644 27.4528 59.3644 25.9989C59.3644 25.5474 59.3258 25.1321 59.257 24.7855H52.5682ZM102.454 26.2918C102.067 25.2692 100.874 23.3839 98.4433 23.3839C96.0348 23.3839 94.0295 25.237 94.0295 27.9567C94.0295 30.5179 96.0141 32.5281 98.6746 32.5281C100.826 32.5281 102.067 31.2476 102.578 30.5018L100.981 29.4631C100.449 30.2236 99.7233 30.7275 98.6746 30.7275C97.6327 30.7275 96.8853 30.2612 96.4064 29.3421L102.67 26.8118L102.454 26.2918ZM96.0678 27.8143C96.0142 26.0513 97.4703 25.1483 98.5135 25.1483C99.3311 25.1483 100.025 25.5474 100.256 26.1185L96.0678 27.8143ZM90.9768 32.25H93.0358V18.8125H90.9768V32.25ZM87.6049 24.4025H87.5361C87.0736 23.8677 86.1914 23.3839 85.0739 23.3839C82.7286 23.3839 80.5843 25.3942 80.5843 27.9715C80.5843 30.534 82.7286 32.5281 85.0739 32.5281C86.1914 32.5281 87.0736 32.0404 87.5361 31.4894H87.6049V32.1452C87.6049 33.8934 86.6484 34.8327 85.1055 34.8327C83.8476 34.8327 83.0672 33.9458 82.7451 33.2L80.9546 33.9297C81.4707 35.1417 82.8374 36.6333 85.1055 36.6333C87.5196 36.6333 89.5565 35.2466 89.5565 31.8724V23.6621H87.6049V24.4025ZM85.25 30.7275C83.8311 30.7275 82.6433 29.5679 82.6433 27.9715C82.6433 26.3603 83.8311 25.1846 85.25 25.1846C86.6484 25.1846 87.7508 26.3603 87.7508 27.9715C87.7508 29.5679 86.6484 30.7275 85.25 30.7275ZM112.094 18.8125H107.169V32.25H109.223V27.1585H112.094C114.374 27.1585 116.611 25.5474 116.611 22.9848C116.611 20.4236 114.369 18.8125 112.094 18.8125ZM112.147 25.2894H109.223V20.6817H112.147C113.68 20.6817 114.556 21.9246 114.556 22.9848C114.556 24.0249 113.68 25.2894 112.147 25.2894ZM124.841 23.3584C123.357 23.3584 121.814 23.998 121.18 25.4157L123.002 26.1615C123.394 25.4157 124.116 25.1738 124.878 25.1738C125.943 25.1738 127.024 25.7986 127.04 26.9019V27.043C126.669 26.8333 125.873 26.5229 124.895 26.5229C122.932 26.5229 120.932 27.5778 120.932 29.5464C120.932 31.347 122.54 32.5066 124.347 32.5066C125.729 32.5066 126.491 31.8979 126.97 31.1898H127.04V32.2285H129.024V27.0739C129.024 24.6914 127.201 23.3584 124.841 23.3584ZM124.593 30.7221C123.922 30.7221 122.986 30.397 122.986 29.584C122.986 28.5439 124.153 28.1448 125.163 28.1448C126.067 28.1448 126.491 28.3397 127.04 28.5963C126.879 29.8406 125.782 30.7221 124.593 30.7221ZM136.249 23.6527L133.889 29.4778H133.819L131.378 23.6527H129.164L132.83 31.7931L130.738 36.3229H132.884L138.534 23.6527H136.249ZM117.739 32.25H119.798V18.8125H117.739V32.25Z" fill="white"/>
<path d="M11.4894 8.104C11.1659 8.43457 10.9788 8.94922 10.9788 9.61572V33.3894C10.9788 34.0559 11.1659 34.5705 11.4894 34.9011L11.5692 34.9736L25.2139 21.6571V21.3426L11.5692 8.02607L11.4894 8.104Z" fill="url(#paint0_linear_458_73)"/>
<path d="M29.7573 26.0981L25.2141 21.6571V21.3426L29.7628 16.9015L29.8647 16.9593L35.2515 19.9518C36.7889 20.8011 36.7889 22.1986 35.2515 23.0532L29.8647 26.0404L29.7573 26.0981Z" fill="url(#paint1_linear_458_73)"/>
<path d="M29.8646 26.0404L25.2141 21.4999L11.4895 34.9011C12.0001 35.4252 12.8328 35.4883 13.7797 34.9643L29.8646 26.0404Z" fill="url(#paint2_linear_458_73)"/>
<path d="M29.8646 16.9595L13.7797 8.03563C12.8328 7.51694 12.0001 7.5801 11.4895 8.10416L25.2141 21.5L29.8646 16.9595Z" fill="url(#paint3_linear_458_73)"/>
<defs>
<linearGradient id="paint0_linear_458_73" x1="24.0025" y1="33.6369" x2="5.96654" y2="15.164" gradientUnits="userSpaceOnUse">
<stop stop-color="#00A0FF"/>
<stop offset="0.0066" stop-color="#00A1FF"/>
<stop offset="0.2601" stop-color="#00BEFF"/>
<stop offset="0.5122" stop-color="#00D2FF"/>
<stop offset="0.7604" stop-color="#00DFFF"/>
<stop offset="1" stop-color="#00E3FF"/>
</linearGradient>
<linearGradient id="paint1_linear_458_73" x1="37.2534" y1="21.4983" x2="10.6115" y2="21.4983" gradientUnits="userSpaceOnUse">
<stop stop-color="#FFE000"/>
<stop offset="0.4087" stop-color="#FFBD00"/>
<stop offset="0.7754" stop-color="#FFA500"/>
<stop offset="1" stop-color="#FF9C00"/>
</linearGradient>
<linearGradient id="paint2_linear_458_73" x1="27.3358" y1="19.0316" x2="2.87763" y2="-6.01924" gradientUnits="userSpaceOnUse">
<stop stop-color="#FF3A44"/>
<stop offset="1" stop-color="#C31162"/>
</linearGradient>
<linearGradient id="paint3_linear_458_73" x1="8.03474" y1="42.8106" x2="18.9564" y2="31.6244" gradientUnits="userSpaceOnUse">
<stop stop-color="#32A071"/>
<stop offset="0.0685" stop-color="#2DA771"/>
<stop offset="0.4762" stop-color="#15CF74"/>
<stop offset="0.8009" stop-color="#06E775"/>
<stop offset="1" stop-color="#00F076"/>
</linearGradient>
</defs>
</svg>
