<svg width="461" height="409" viewBox="0 0 461 409" fill="none" xmlns="http://www.w3.org/2000/svg">
<g clip-path="url(#clip0_460_420)">
<path d="M404.6 90.9997C404.6 90.9997 405.2 90.9997 406.1 91.4997C407 91.8997 408.3 92.7997 409.1 94.4997C409.5 95.2997 409.7 96.2997 409.7 97.3997C409.7 98.4997 409.4 99.5997 408.7 100.7C408.4 101.2 408 101.7 407.5 102.1C407 102.5 406.5 102.9 405.9 103.1C404.7 103.7 403.2 103.8 401.9 103.5C400.5 103.2 399.3 102.4 398.4 101.4C398 100.9 397.6 100.3 397.4 99.7997C397.1 99.1997 397 98.5997 396.9 97.9997C396.7 96.7997 397 95.5997 397.4 94.5997C397.8 93.5997 398.5 92.7997 399.2 92.1997C400.6 90.9997 402.2 90.6997 403.2 90.6997C404 90.7997 404.6 90.9997 404.6 90.9997C404.6 90.9997 404 90.8997 403 90.8997C402 90.8997 400.5 91.2997 399.2 92.3997C398.5 92.9997 397.9 93.6997 397.5 94.6997C397.1 95.6997 396.9 96.7997 397.1 97.8997C397.2 98.4997 397.3 99.0997 397.6 99.5997C397.8 100.2 398.2 100.7 398.6 101.2C399.4 102.2 400.6 102.9 401.9 103.2C403.2 103.5 404.6 103.3 405.7 102.8C406.3 102.6 406.8 102.2 407.3 101.8C407.8 101.4 408.2 101 408.5 100.5C409.1 99.4997 409.4 98.3997 409.5 97.3997C409.6 96.3997 409.3 95.3997 409 94.5997C408.3 92.9997 407.1 91.9997 406.2 91.5997C405.1 91.0997 404.6 90.9997 404.6 90.9997Z" fill="#E0E0E0"/>
<path d="M409.7 84.1998C409.7 84.1998 409.7 84.0998 409.7 83.9998C409.7 83.7998 409.7 83.5998 409.7 83.2998C409.7 82.6998 409.7 81.7998 409.7 80.5998V80.6998C408.2 80.3998 406.3 79.9998 403.9 79.3998L404 79.2998C403.5 80.2998 403 81.3998 402.5 82.4998V82.5998H402.4C401.2 82.6998 399.9 82.8998 398.6 83.2998H398.5L398.4 83.1998C397.6 82.3998 396.8 81.5998 395.9 80.6998H396.1C394.5 81.6998 392.9 82.7998 391.1 83.8998L391.2 83.6998C391.6 84.6998 392 85.8998 392.4 87.0998V87.1998L392.3 87.2998C391.5 88.1998 390.7 89.1998 390.1 90.3998V90.4998H390C388.9 90.4998 387.7 90.4998 386.4 90.4998L386.6 90.3998C386.2 92.1998 385.8 94.1998 385.3 96.1998L385.2 95.9998C386.2 96.4998 387.3 96.9998 388.4 97.4998H388.5V97.5998C388.5 98.7998 388.8 100.1 389.2 101.3V101.4L389.1 101.5C388.3 102.3 387.5 103.2 386.6 104V103.8C387.6 105.4 388.7 107.1 389.8 108.8L389.6 108.7C390.7 108.3 391.8 107.9 393 107.5H393.1L393.2 107.6C394.1 108.4 395.1 109.2 396.3 109.8C396.3 109.9 396.2 109.6 396.4 110V110.1V110.2V110.4V110.8V111.7C396.4 112.3 396.4 112.9 396.4 113.5L396.3 113.3C398.2 113.7 400.2 114.2 402.1 114.6L401.9 114.7C402.4 113.6 402.9 112.5 403.4 111.5V111.4H403.5C404.8 111.4 406 111.1 407.2 110.8H407.3L407.4 110.9C408.3 111.8 409.1 112.6 409.9 113.4H409.7C411.4 112.3 413.1 111.3 414.7 110.2L414.6 110.4C414.2 109.3 413.8 108.1 413.4 107V106.9L413.5 106.8C414.4 105.8 415.1 104.8 415.7 103.7V103.6H415.8C417 103.6 418.2 103.6 419.4 103.6L419.3 103.7C419.8 101.7 420.2 99.7998 420.6 97.8998L420.7 98.0998C419.6 97.5998 418.5 97.0998 417.5 96.5998H417.4V96.4998C417.3 95.0998 417.1 93.8998 416.8 92.6998V92.5998L416.9 92.4998C417.8 91.5998 418.6 90.7998 419.4 89.9998V90.0998C418.2 88.1998 417.1 86.4998 416.3 85.0998H416.4C415.1 85.5998 413.9 85.9998 413 86.2998C412.1 85.3998 411.2 84.8998 410.7 84.4998C410.4 84.2998 410.2 84.1998 410.1 84.0998C409.7 84.1998 409.7 84.1998 409.7 84.1998C409.7 84.1998 409.8 84.1998 409.9 84.2998C410 84.3998 410.3 84.4998 410.5 84.5998C411.1 84.8998 411.9 85.4998 412.8 86.2998H412.7C413.6 85.9998 414.7 85.5998 416.1 85.0998H416.2V85.1998C417.1 86.5998 418.2 88.1998 419.4 90.1998V90.2998L419.3 90.3998C418.5 91.1998 417.7 91.9998 416.8 92.8998V92.7998C417.2 93.9998 417.4 95.1998 417.5 96.5998L417.4 96.4998C418.4 96.9998 419.5 97.4998 420.6 97.9998H420.7V98.0998C420.3 99.8998 419.9 101.8 419.4 103.9V104H419.3C418.1 104 417 104 415.7 104L415.8 103.9C415.2 105 414.5 106.1 413.6 107.1V106.9C414 108 414.4 109.1 414.8 110.3V110.4L414.7 110.5C413.1 111.5 411.4 112.6 409.7 113.7L409.6 113.8L409.5 113.7C408.7 112.9 407.8 112 407 111.2H407.2C406 111.6 404.7 111.8 403.4 111.9L403.6 111.8C403.1 112.9 402.6 113.9 402.1 115L402 115.1H401.9C400 114.7 398.1 114.2 396.1 113.8H396V113.7C396 113.1 396 112.5 396 111.9V111V110.6V110.4V110.3V110.2C396.2 110.5 396.1 110.3 396.1 110.4C394.9 109.8 393.8 109 392.9 108.2H393.1C391.9 108.6 390.8 109 389.7 109.4H389.6L389.5 109.3C388.4 107.6 387.3 105.9 386.3 104.3L386.2 104.2L386.3 104.1C387.2 103.2 388 102.4 388.8 101.6V101.8C388.4 100.5 388.2 99.1998 388.1 97.9998L388.2 98.0998C387.1 97.5998 386 96.9998 385 96.5998L384.9 96.4998V96.3998C385.4 94.3998 385.8 92.3998 386.2 90.5998V90.4998H386.3C387.5 90.4998 388.8 90.4998 389.9 90.4998L389.8 90.5998C390.4 89.3998 391.2 88.2998 392 87.3998V87.5998C391.6 86.3998 391.2 85.2998 390.8 84.1998V84.0998L390.9 83.9998C392.7 82.8998 394.3 81.7998 395.9 80.8998L396 80.7998L396.1 80.8998C397 81.7998 397.8 82.5998 398.6 83.3998H398.5C399.8 82.9998 401.1 82.7998 402.3 82.6998L402.2 82.7998C402.8 81.5998 403.3 80.5998 403.7 79.5998V79.4998H403.8C406.1 79.9998 408.1 80.4998 409.6 80.7998C409.6 81.8998 409.6 82.7998 409.6 83.3998C409.6 83.6998 409.6 83.8998 409.6 84.0998C409.7 84.0998 409.7 84.1998 409.7 84.1998Z" fill="#E0E0E0"/>
<path d="M444.6 372.3C444.6 372.3 444.6 371.9 444.6 371.2C444.6 370.5 444.6 369.4 444.6 368C444.6 365.2 444.6 361.2 444.6 355.9C444.6 345.5 444.5 330.4 444.5 312L444.7 312.2C416.8 312.2 380.3 312.2 340.6 312.2L340.8 312C340.8 333.3 340.8 353.7 340.8 372.2L340.6 372C371.1 372 397.1 372.1 415.5 372.1C424.7 372.1 432 372.1 437 372.2C439.5 372.2 441.4 372.2 442.7 372.2C443.3 372.2 443.8 372.2 444.2 372.2C444.4 372.3 444.6 372.3 444.6 372.3C444.6 372.3 444.4 372.3 444.1 372.3C443.8 372.3 443.3 372.3 442.6 372.3C441.3 372.3 439.4 372.3 436.9 372.3C431.9 372.3 424.6 372.3 415.4 372.4C397 372.4 370.9 372.5 340.4 372.5H340.2V372.3C340.2 353.7 340.2 333.4 340.2 312.1V311.9H340.4C380.1 311.9 416.6 311.9 444.5 311.9H444.7V312.1C444.7 330.6 444.6 345.7 444.6 356.1C444.6 361.3 444.6 365.4 444.6 368.1C444.6 369.5 444.6 370.5 444.6 371.2C444.6 371.9 444.6 372.3 444.6 372.3Z" fill="#E0E0E0"/>
<path d="M444.6 319.3C444.6 319.4 421.3 319.5 392.6 319.5C363.9 319.5 340.6 319.4 340.6 319.3C340.6 319.2 363.9 319.1 392.6 319.1C421.4 319.1 444.6 319.2 444.6 319.3Z" fill="#E0E0E0"/>
<path d="M381.7 329.2H349.5V361.4H381.7V329.2Z" fill="#F5F5F5"/>
<path d="M437.1 334.5C437.1 334.5 436.9 334.5 436.6 334.5C436.2 334.5 435.8 334.5 435.2 334.5C434 334.5 432.3 334.5 430.2 334.6C425.9 334.6 420.1 334.6 413.7 334.7C407.3 334.7 401.5 334.7 397.2 334.6C395.1 334.6 393.4 334.5 392.2 334.5C391.6 334.5 391.2 334.5 390.8 334.5C390.5 334.5 390.3 334.5 390.3 334.5C390.3 334.5 390.5 334.5 390.8 334.5C391.2 334.5 391.6 334.5 392.2 334.5C393.4 334.5 395.1 334.5 397.2 334.4C401.5 334.4 407.3 334.4 413.7 334.3C420.1 334.3 425.9 334.3 430.2 334.4C432.3 334.4 434 334.5 435.2 334.5C435.8 334.5 436.2 334.5 436.6 334.5C436.9 334.5 437.1 334.5 437.1 334.5Z" fill="#E0E0E0"/>
<path d="M438.1 341.7C438.1 341.7 437.9 341.7 437.6 341.7C437.2 341.7 436.8 341.7 436.2 341.7C434.9 341.7 433.2 341.7 431.1 341.8C426.7 341.8 420.8 341.8 414.3 341.9C407.8 341.9 401.8 341.9 397.5 341.8C395.4 341.8 393.7 341.7 392.4 341.7C391.8 341.7 391.4 341.7 391 341.7C390.7 341.7 390.5 341.7 390.5 341.7C390.5 341.7 390.7 341.7 391 341.7C391.4 341.7 391.8 341.7 392.4 341.7C393.7 341.7 395.4 341.7 397.5 341.6C401.9 341.6 407.8 341.6 414.3 341.5C420.8 341.5 426.8 341.5 431.1 341.6C433.2 341.6 434.9 341.7 436.2 341.7C436.8 341.7 437.2 341.7 437.6 341.7C437.9 341.7 438.1 341.7 438.1 341.7Z" fill="#E0E0E0"/>
<path d="M438.1 348.9C438.1 348.9 437.9 348.9 437.6 348.9C437.2 348.9 436.8 348.9 436.2 348.9C434.9 348.9 433.2 348.9 431.1 349C426.7 349 420.8 349 414.3 349.1C407.8 349.1 401.8 349.1 397.5 349C395.4 349 393.7 348.9 392.4 348.9C391.8 348.9 391.4 348.9 391 348.9C390.7 348.9 390.5 348.9 390.5 348.9C390.5 348.9 390.7 348.9 391 348.9C391.4 348.9 391.8 348.9 392.4 348.9C393.7 348.9 395.4 348.9 397.5 348.8C401.9 348.8 407.8 348.8 414.3 348.7C420.8 348.7 426.8 348.7 431.1 348.8C433.2 348.8 434.9 348.9 436.2 348.9C436.8 348.9 437.2 348.9 437.6 348.9C437.9 348.9 438.1 348.9 438.1 348.9Z" fill="#E0E0E0"/>
<path d="M438.1 356.1C438.1 356.1 437.9 356.1 437.6 356.1C437.2 356.1 436.8 356.1 436.2 356.1C434.9 356.1 433.2 356.1 431.1 356.2C426.7 356.2 420.8 356.2 414.3 356.3C407.8 356.3 401.8 356.3 397.5 356.2C395.4 356.2 393.7 356.1 392.4 356.1C391.8 356.1 391.4 356.1 391 356.1C390.7 356.1 390.5 356.1 390.5 356.1C390.5 356.1 390.7 356.1 391 356.1C391.4 356.1 391.8 356.1 392.4 356.1C393.7 356.1 395.4 356.1 397.5 356C401.9 356 407.8 356 414.3 355.9C420.8 355.9 426.8 355.9 431.1 356C433.2 356 434.9 356.1 436.2 356.1C436.8 356.1 437.2 356.1 437.6 356.1C437.9 356.1 438.1 356.1 438.1 356.1Z" fill="#E0E0E0"/>
<path d="M174.125 73.9001C191.035 56.9906 191.035 29.5748 174.125 12.6653C157.216 -4.24426 129.8 -4.24425 112.891 12.6653C95.9811 29.5748 95.9811 56.9906 112.891 73.9001C129.8 90.8097 157.216 90.8097 174.125 73.9001Z" fill="#F5F5F5"/>
<path d="M163.1 44.6C163.1 44.6 162.6 44.7 161.6 44.7C160.5 44.7 159.1 44.8 157.4 44.8C153.8 44.8 148.9 44.9 143.2 44.9H142.9V44.6C142.9 43.7 142.9 42.8 142.9 41.8C142.9 35.5 142.9 29.9 143 25.7C143 23.7 143.1 22.1 143.1 20.8C143.1 19.7 143.2 19 143.2 19C143.2 19 143.3 19.6 143.3 20.8C143.3 22 143.4 23.7 143.4 25.7C143.5 29.8 143.5 35.5 143.5 41.8C143.5 42.8 143.5 43.7 143.5 44.6L143.2 44.3C148.8 44.3 153.8 44.3 157.4 44.4C159.1 44.4 160.5 44.5 161.6 44.5C162.6 44.5 163.1 44.6 163.1 44.6Z" fill="#E0E0E0"/>
<path d="M143.4 7.1001C143.6 7.1001 143.7 8.7001 143.7 10.7001C143.7 12.7001 143.6 14.3001 143.4 14.3001C143.2 14.3001 143.1 12.7001 143.1 10.7001C143.1 8.7001 143.2 7.1001 143.4 7.1001Z" fill="#E0E0E0"/>
<path d="M163.1 12.8999C163.2 12.9999 162.2 14.1999 160.8 15.5999C159.4 16.9999 158.2 17.9999 158.1 17.8999C158 17.7999 159 16.5999 160.4 15.1999C161.8 13.8999 163 12.7999 163.1 12.8999Z" fill="#E0E0E0"/>
<path d="M174.6 25.5001C174.7 25.6001 173.3 26.5001 171.6 27.5001C169.9 28.5001 168.6 29.4001 168.5 29.2001C168.4 29.1001 169.6 28.0001 171.3 27.0001C173.1 26.0001 174.6 25.4001 174.6 25.5001Z" fill="#E0E0E0"/>
<path d="M181.4 44.1999C181.4 44.3999 179.2 44.4999 176.4 44.4999C173.7 44.4999 171.4 44.3999 171.4 44.1999C171.4 43.9999 173.6 43.8999 176.4 43.8999C179.2 43.9999 181.4 44.0999 181.4 44.1999Z" fill="#E0E0E0"/>
<path d="M112.6 43.5998C112.6 43.7998 110.5 43.8998 107.9 43.8998C105.3 43.8998 103.2 43.7998 103.2 43.5998C103.2 43.3998 105.3 43.2998 107.9 43.2998C110.5 43.2998 112.6 43.3998 112.6 43.5998Z" fill="#E0E0E0"/>
<path d="M117.5 57.5C117.6 57.6 116 59.1 114 60.7C111.9 62.4 110.2 63.6 110.1 63.5C110 63.4 111.6 61.9 113.6 60.3C115.7 58.6 117.4 57.4 117.5 57.5Z" fill="#E0E0E0"/>
<path d="M129.5 68.2998C129.6 68.3998 128.5 70.1998 127.1 72.4998C125.7 74.7998 124.7 76.6998 124.5 76.5998C124.4 76.4998 125.2 74.4998 126.6 72.1998C128 69.7998 129.4 68.1998 129.5 68.2998Z" fill="#E0E0E0"/>
<path d="M143.4 82.1001C143.2 82.1001 143.1 79.9001 143.1 77.1001C143.1 74.4001 143.2 72.1001 143.4 72.1001C143.6 72.1001 143.7 74.3001 143.7 77.1001C143.7 79.9001 143.5 82.1001 143.4 82.1001Z" fill="#E0E0E0"/>
<path d="M164.7 75.5001C164.6 75.6001 162.7 74.5001 160.6 72.7001C158.5 70.9001 157.2 69.1001 157.3 69.0001C157.4 68.9001 159 70.5001 161 72.2001C163.1 74.1001 164.8 75.4001 164.7 75.5001Z" fill="#E0E0E0"/>
<path d="M174.8 64.7C174.7 64.8 173.2 63.5 171.5 61.8C169.8 60.1 168.5 58.6 168.6 58.5C168.7 58.4 170.2 59.7 171.9 61.4C173.6 63.1 174.9 64.6 174.8 64.7Z" fill="#E0E0E0"/>
<path d="M117 30.2003C116.9 30.3003 115.6 29.2003 114.1 27.7003C112.6 26.2003 111.5 24.9003 111.6 24.8003C111.7 24.7003 113 25.8003 114.5 27.3003C116 28.8003 117.2 30.1003 117 30.2003Z" fill="#E0E0E0"/>
<path d="M129.4 17.2C129.3 17.3 128 16.2 126.6 14.8C125.1 13.3 124 12.1 124.1 12C124.2 11.9 125.5 13 126.9 14.4C128.4 15.8 129.5 17.1 129.4 17.2Z" fill="#E0E0E0"/>
<g opacity="0.8">
<g opacity="0.8">
<g opacity="0.8">
<path opacity="0.8" fill-rule="evenodd" clip-rule="evenodd" d="M378.9 21.0999C381.2 22.2999 383.3 23.7999 385.1 25.4999L391.8 23.0999L398 32.9999L393 37.9999C393.8 40.3999 394.2 42.8999 394.3 45.4999L400.7 48.4999L398.1 59.8999H391C389.8 62.1999 388.3 64.2999 386.6 66.0999L389 72.7999L379.1 79.0999L374.1 74.0999C371.7 74.8999 369.2 75.2999 366.6 75.3999L363.6 81.7999L352.2 79.1999V72.0999C349.9 70.8999 347.8 69.3999 346 67.6999L339.3 70.0999L333 60.1999L338 55.1999C337.2 52.7999 336.8 50.2999 336.7 47.6999L330.3 44.6999L332.9 33.2999H340C341.2 30.9999 342.7 28.8999 344.4 27.0999L342 20.3999L351.9 14.0999L356.9 19.0999C359.3 18.2999 361.8 17.8999 364.4 17.7999L367.4 11.3999L378.8 13.9999L378.9 21.0999ZM368.8 34.4999C362 32.9999 355.3 37.1999 353.8 43.9999C352.3 50.7999 356.5 57.4999 363.3 58.9999C370.1 60.4999 376.8 56.2999 378.3 49.4999C379.8 42.6999 375.6 35.9999 368.8 34.4999Z" fill="#EBEBEB"/>
</g>
</g>
</g>
<path d="M43.8 121.4H117.8C117.8 121.4 111.3 109.5 92.2 111.2C74 112.9 73.1 105.3 63.8 104.4C54.6 103.5 46.9 110.6 43.8 121.4Z" fill="#F5F5F5"/>
<path d="M203.9 255.9H263.8C263.8 255.9 258.5 246.3 243.1 247.7C228.4 249 227.6 243 220.1 242.2C212.7 241.4 206.4 247.2 203.9 255.9Z" fill="#F5F5F5"/>
<path d="M460.3 403.6C460.3 403.7 357.3 403.9 230.2 403.9C103 403.9 0 403.8 0 403.6C0 403.5 103 403.3 230.2 403.3C357.2 403.4 460.3 403.5 460.3 403.6Z" fill="#263238"/>
<path d="M435.4 103.9H290.1V201.2H435.4V103.9Z" fill="white"/>
<path d="M435.3 201.2C435.3 201.2 435.3 200.6 435.3 199.4C435.3 198.2 435.3 196.5 435.3 194.3C435.3 189.8 435.3 183.2 435.2 174.7C435.2 157.8 435.1 133.5 435.1 103.9L435.3 104.1C395.3 104.1 344.8 104.1 290 104.2L290.3 103.9C290.3 138.6 290.3 171.5 290.3 201.2L290.1 201C332.9 201 369.2 201.1 394.8 201.1C407.6 201.1 417.8 201.1 424.7 201.2C428.2 201.2 430.8 201.2 432.7 201.2C433.6 201.2 434.3 201.2 434.8 201.2C435.1 201.2 435.3 201.2 435.3 201.2C435.3 201.2 435.1 201.2 434.6 201.2C434.1 201.2 433.5 201.2 432.6 201.2C430.8 201.2 428.1 201.2 424.7 201.2C417.8 201.2 407.6 201.2 394.9 201.3C369.3 201.3 332.9 201.4 290.1 201.4H289.9V201.2C289.9 171.5 289.9 138.6 289.9 103.9V103.6H290.2C344.9 103.6 395.4 103.6 435.5 103.7H435.7V103.9C435.7 133.6 435.6 157.9 435.6 174.8C435.6 183.2 435.6 189.8 435.5 194.3C435.5 196.5 435.5 198.2 435.5 199.4C435.4 200.6 435.3 201.2 435.3 201.2Z" fill="#FF7213"/>
<path d="M290.1 112.6C290.1 112.5 322.6 112.3 362.7 112.3C402.8 112.3 435.3 112.4 435.3 112.6C435.3 112.8 402.8 112.9 362.7 112.9C322.6 112.9 290.1 112.8 290.1 112.6Z" fill="#FF7213"/>
<g opacity="0.3">
<path opacity="0.3" d="M295.8 108.2C295.8 108.8 295.3 109.4 294.6 109.4C294 109.4 293.4 108.9 293.4 108.2C293.4 107.6 293.9 107 294.6 107C295.3 107.1 295.8 107.6 295.8 108.2Z" fill="#FF7213"/>
</g>
<g opacity="0.3">
<path opacity="0.3" d="M299.8 108.2C299.8 108.8 299.3 109.4 298.6 109.4C298 109.4 297.4 108.9 297.4 108.2C297.4 107.6 297.9 107 298.6 107C299.3 107.1 299.8 107.6 299.8 108.2Z" fill="#FF7213"/>
</g>
<g opacity="0.3">
<path opacity="0.3" d="M303.7 108.2C303.7 108.8 303.2 109.4 302.5 109.4C301.9 109.4 301.3 108.9 301.3 108.2C301.3 107.6 301.8 107 302.5 107C303.2 107.1 303.7 107.6 303.7 108.2Z" fill="#FF7213"/>
</g>
<g opacity="0.3">
<path opacity="0.3" d="M341.3 122.8H302.5V161.6H341.3V122.8Z" fill="#FF7213"/>
</g>
<path d="M415.4 133.7C415.4 133.8 400.3 134 381.6 134C363 134 347.8 133.9 347.8 133.7C347.8 133.6 362.9 133.4 381.6 133.4C400.3 133.5 415.4 133.6 415.4 133.7Z" fill="#FF7213"/>
<path d="M415.4 140.9C415.4 141 400.3 141.2 381.6 141.2C363 141.2 347.8 141.1 347.8 140.9C347.8 140.8 362.9 140.6 381.6 140.6C400.3 140.7 415.4 140.8 415.4 140.9Z" fill="#FF7213"/>
<path d="M415.4 148.1C415.4 148.2 400.3 148.4 381.6 148.4C363 148.4 347.8 148.3 347.8 148.1C347.8 147.9 362.9 147.8 381.6 147.8C400.3 147.9 415.4 148 415.4 148.1Z" fill="#FF7213"/>
<path d="M387.8 155.3C387.8 155.3 387.2 155.4 386.2 155.4C385.1 155.4 383.7 155.4 381.9 155.5C378.3 155.5 373.3 155.6 367.8 155.6C362.3 155.6 357.3 155.6 353.7 155.5C352 155.5 350.5 155.4 349.4 155.4C348.4 155.4 347.8 155.3 347.8 155.3C347.8 155.3 348.4 155.2 349.4 155.2C350.5 155.2 351.9 155.2 353.7 155.1C357.3 155.1 362.3 155 367.8 155C373.3 155 378.3 155 381.9 155.1C383.6 155.1 385.1 155.2 386.2 155.2C387.2 155.3 387.8 155.3 387.8 155.3Z" fill="#FF7213"/>
<g opacity="0.3">
<path opacity="0.3" d="M323.2 174.6H305V192.8H323.2V174.6Z" fill="#FF7213"/>
</g>
<g opacity="0.3">
<path opacity="0.3" d="M356.2 174.6H338V192.8H356.2V174.6Z" fill="#FF7213"/>
</g>
<g opacity="0.3">
<path opacity="0.3" d="M389.2 174.6H371V192.8H389.2V174.6Z" fill="#FF7213"/>
</g>
<g opacity="0.3">
<path opacity="0.3" d="M422.3 174.6H404.1V192.8H422.3V174.6Z" fill="#FF7213"/>
</g>
<path d="M153.8 139H24.3999V191.6H153.8V139Z" fill="white"/>
<path d="M153.8 191.6C153.8 191.6 153.8 191.3 153.8 190.7C153.8 190.1 153.8 189.2 153.8 188C153.8 185.6 153.8 182.1 153.8 177.5C153.8 168.4 153.8 155.3 153.7 139.1L153.8 139.2C120.9 139.2 74.9999 139.2 24.4 139.3L24.6 139.1C24.6 157.5 24.6 175.3 24.6 191.7L24.4 191.5C61.9 191.5 94.2 191.6 117.2 191.6C128.7 191.6 137.8 191.6 144.1 191.7C147.2 191.7 149.7 191.7 151.3 191.7C152.1 191.7 152.7 191.7 153.2 191.7C153.6 191.5 153.8 191.6 153.8 191.6C153.8 191.6 153.6 191.6 153.2 191.6C152.8 191.6 152.2 191.6 151.4 191.6C149.8 191.6 147.4 191.6 144.2 191.6C137.9 191.6 128.8 191.6 117.3 191.7C94.3 191.7 61.9 191.8 24.4 191.8H24.2V191.6C24.2 175.2 24.2 157.4 24.2 139V138.8H24.4C75.1 138.8 120.9 138.8 153.8 138.9H153.9V139C153.9 155.3 153.8 168.4 153.8 177.5C153.8 182 153.8 185.5 153.8 187.9C153.8 189.1 153.8 190 153.8 190.6C153.8 191.2 153.8 191.6 153.8 191.6Z" fill="#FF7213"/>
<path d="M24.5 146.1C24.5 146 53.4 145.9 89.1 145.9C124.8 145.9 153.7 146 153.7 146.1C153.7 146.2 124.8 146.3 89.1 146.3C53.4 146.3 24.5 146.2 24.5 146.1Z" fill="#FF7213"/>
<g opacity="0.3">
<path opacity="0.3" d="M29.8999 142.9C29.8999 143.4 29.4999 143.8 28.9999 143.8C28.4999 143.8 28.0999 143.4 28.0999 142.9C28.0999 142.4 28.4999 142 28.9999 142C29.4999 142 29.8999 142.4 29.8999 142.9Z" fill="#FF7213"/>
</g>
<g opacity="0.3">
<path opacity="0.3" d="M33.0998 142.9C33.0998 143.4 32.6998 143.8 32.1998 143.8C31.6998 143.8 31.2998 143.4 31.2998 142.9C31.2998 142.4 31.6998 142 32.1998 142C32.6998 142 33.0998 142.4 33.0998 142.9Z" fill="#FF7213"/>
</g>
<g opacity="0.3">
<path opacity="0.3" d="M36.2998 142.9C36.2998 143.4 35.8998 143.8 35.3998 143.8C34.8998 143.8 34.4998 143.4 34.4998 142.9C34.4998 142.4 34.8998 142 35.3998 142C35.8998 142 36.2998 142.4 36.2998 142.9Z" fill="#FF7213"/>
</g>
<g opacity="0.3">
<path opacity="0.3" d="M66.6999 154.6H35.3999V185.9H66.6999V154.6Z" fill="#FF7213"/>
</g>
<path d="M144.8 163C144.8 163.1 128.7 163.2 108.9 163.2C89.1 163.2 73 163.1 73 163C73 162.9 89.1 162.8 108.9 162.8C128.7 162.8 144.8 162.9 144.8 163Z" fill="#FF7213"/>
<path d="M144.8 169.4C144.8 169.5 128.7 169.6 108.9 169.6C89.1 169.6 73 169.5 73 169.4C73 169.3 89.1 169.2 108.9 169.2C128.7 169.2 144.8 169.2 144.8 169.4Z" fill="#FF7213"/>
<path d="M119.2 175.7C119.2 175.7 119 175.7 118.7 175.7C118.3 175.7 117.9 175.7 117.4 175.7C116.2 175.7 114.5 175.7 112.4 175.8C108.2 175.8 102.4 175.8 96 175.9C89.6 175.9 83.9 175.9 79.6 175.8C77.5 175.8 75.9 175.8 74.6 175.7C74.1 175.7 73.6 175.7 73.3 175.7C73 175.7 72.8 175.7 72.8 175.7C72.8 175.7 73 175.7 73.3 175.7C73.7 175.7 74.1 175.7 74.6 175.7C75.8 175.7 77.5 175.7 79.6 175.6C83.8 175.6 89.6 175.6 96 175.5C102.4 175.5 108.1 175.5 112.4 175.6C114.5 175.6 116.1 175.6 117.4 175.7C117.9 175.7 118.4 175.7 118.7 175.7C119.1 175.7 119.2 175.7 119.2 175.7Z" fill="#FF7213"/>
<path d="M248.9 72.9C246.7 71.5 243.8 72.3 241.6 73.8C239.4 75.2 237.6 77.2 235.1 78.2C230.5 80 224.6 77.9 221 81.2C218.7 83.3 218.5 86.9 216.8 89.4C213.9 93.8 206.9 95.4 206.4 100.6C206.1 103.6 208.5 106.5 211.4 107.4C214.3 108.3 217.6 107.4 220.1 105.7C223.1 103.7 225.4 100.7 228.8 99.6C232.3 98.5 236.5 99.4 239.3 97C242 94.6 241.6 90.1 243.6 87.1C244.6 85.5 246.3 84.3 247.8 83C249.3 81.7 250.7 80.2 250.9 78.2C251 76.3 250.2 73 248.9 72.9Z" fill="#F5F5F5"/>
<path d="M192.5 285.4C192.6 285.3 193 285.7 193.4 286.3C193.8 286.9 194 287.4 193.9 287.5C193.8 287.6 193.4 287.2 193 286.6C192.6 286 192.4 285.4 192.5 285.4Z" fill="#263238"/>
<path d="M188.2 276.4C188.3 276.4 188.9 277.3 189.4 278.6C189.9 279.9 190.2 281 190.1 281C190 281.1 189.4 280.1 188.9 278.8C188.4 277.5 188.1 276.4 188.2 276.4Z" fill="#263238"/>
<path d="M185.9 266.6C186 266.6 186.4 267.7 186.6 269C186.9 270.4 186.9 271.5 186.8 271.5C186.7 271.5 186.3 270.5 186.1 269.1C185.9 267.8 185.8 266.7 185.9 266.6Z" fill="#263238"/>
<path d="M185.6 256.6C185.7 256.6 185.8 257.7 185.8 259.1C185.8 260.5 185.6 261.6 185.5 261.6C185.4 261.6 185.3 260.5 185.3 259.1C185.3 257.8 185.4 256.6 185.6 256.6Z" fill="#263238"/>
<path d="M187.2 246.8C187.3 246.8 187.2 248 186.9 249.3C186.6 250.6 186.3 251.7 186.1 251.7C186 251.7 186.1 250.6 186.4 249.2C186.7 247.8 187.1 246.7 187.2 246.8Z" fill="#263238"/>
<path d="M190.8 237.5C190.9 237.6 190.6 238.6 190 239.9C189.4 241.2 188.9 242.1 188.7 242.1C188.6 242 188.9 241 189.5 239.7C190.1 238.4 190.7 237.4 190.8 237.5Z" fill="#263238"/>
<path d="M196.3 229.1C196.4 229.2 195.8 230.2 195 231.3C194.2 232.4 193.4 233.2 193.3 233.2C193.2 233.1 193.7 232.1 194.6 231C195.4 229.9 196.2 229 196.3 229.1Z" fill="#263238"/>
<path d="M203 221.7C203.1 221.8 202.4 222.7 201.5 223.7C200.5 224.7 199.7 225.4 199.6 225.3C199.5 225.2 200.2 224.3 201.1 223.3C202.1 222.3 202.9 221.6 203 221.7Z" fill="#263238"/>
<path d="M210.1 214.6C210.2 214.7 209.5 215.6 208.5 216.6C207.5 217.6 206.7 218.3 206.6 218.2C206.5 218.1 207.2 217.2 208.2 216.2C209.1 215.2 210 214.5 210.1 214.6Z" fill="#263238"/>
<path d="M216.6 207.1C216.7 207.2 216.1 208.1 215.2 209.2C214.3 210.3 213.5 211.1 213.4 211C213.3 210.9 213.9 210 214.8 208.9C215.7 207.8 216.5 207 216.6 207.1Z" fill="#263238"/>
<path d="M221.7 198.5C221.8 198.6 221.5 199.6 220.9 200.9C220.3 202.1 219.6 203 219.4 203C219.3 202.9 219.8 201.9 220.4 200.7C221.1 199.4 221.6 198.4 221.7 198.5Z" fill="#263238"/>
<path d="M224.2 188.8C224.3 188.8 224.4 189.9 224.1 191.3C223.9 192.7 223.5 193.7 223.3 193.7C223.2 193.7 223.3 192.6 223.6 191.2C223.8 189.9 224 188.8 224.2 188.8Z" fill="#263238"/>
<path d="M223.4 178.9C223.5 178.9 223.9 179.9 224.1 181.3C224.3 182.7 224.3 183.8 224.1 183.8C224 183.8 223.8 182.7 223.6 181.4C223.4 180 223.3 178.9 223.4 178.9Z" fill="#263238"/>
<path d="M219.5 169.7C219.6 169.6 220.4 170.5 221 171.7C221.7 172.9 222 174 221.9 174.1C221.8 174.2 221.2 173.2 220.6 172C219.9 170.8 219.4 169.8 219.5 169.7Z" fill="#263238"/>
<path d="M212.5 162.6C212.6 162.5 213.6 163 214.7 163.9C215.8 164.8 216.5 165.7 216.4 165.8C216.3 165.9 215.4 165.2 214.4 164.3C213.3 163.5 212.4 162.8 212.5 162.6Z" fill="#263238"/>
<path d="M203.4 158.6C203.4 158.5 204.6 158.6 205.9 159.1C207.2 159.6 208.2 160.1 208.1 160.3C208 160.4 207 160.1 205.7 159.6C204.5 159.1 203.4 158.7 203.4 158.6Z" fill="#263238"/>
<path d="M193.5 158.1C193.5 158 194.6 157.7 196 157.6C197.4 157.5 198.5 157.7 198.5 157.9C198.5 158 197.4 158.1 196 158.2C194.6 158.2 193.5 158.3 193.5 158.1Z" fill="#263238"/>
<path d="M184.3 161.8C184.2 161.7 185.1 160.9 186.3 160.3C187.5 159.6 188.6 159.3 188.7 159.5C188.8 159.6 187.8 160.1 186.6 160.8C185.3 161.4 184.4 161.9 184.3 161.8Z" fill="#263238"/>
<path d="M177.4 169C177.3 168.9 177.8 167.9 178.6 166.8C179.5 165.7 180.3 165 180.4 165.1C180.5 165.2 179.8 166.1 179 167.2C178.2 168.2 177.5 169.1 177.4 169Z" fill="#263238"/>
<path d="M174 178.3C173.9 178.3 173.9 177.1 174.2 175.8C174.5 174.4 175 173.4 175.2 173.5C175.3 173.6 175 174.6 174.7 176C174.4 177.3 174.2 178.4 174 178.3Z" fill="#263238"/>
<path d="M175.2 188.2C175.1 188.3 174.6 187.2 174.2 185.9C173.9 184.5 173.9 183.4 174 183.4C174.1 183.4 174.4 184.5 174.7 185.8C175.1 187.1 175.4 188.1 175.2 188.2Z" fill="#263238"/>
<path d="M180.3 196.7C180.2 196.8 179.4 196 178.6 194.9C177.8 193.8 177.3 192.7 177.4 192.7C177.5 192.6 178.2 193.5 179 194.6C179.8 195.7 180.4 196.7 180.3 196.7Z" fill="#263238"/>
<path d="M187.7 203.5C187.6 203.6 186.6 203.1 185.5 202.2C184.4 201.3 183.7 200.5 183.8 200.4C183.9 200.3 184.8 201 185.9 201.8C186.9 202.6 187.7 203.4 187.7 203.5Z" fill="#263238"/>
<path d="M196.3 208.5C196.2 208.6 195.2 208.2 194 207.6C192.8 207 191.8 206.4 191.9 206.2C192 206.1 193 206.5 194.2 207.1C195.4 207.7 196.4 208.3 196.3 208.5Z" fill="#263238"/>
<path d="M205.8 211.5C205.8 211.6 204.6 211.6 203.3 211.2C202 210.9 200.9 210.4 201 210.3C201 210.2 202.1 210.4 203.5 210.7C204.8 211 205.9 211.3 205.8 211.5Z" fill="#263238"/>
<path d="M215.8 212C215.8 212.1 214.7 212.4 213.3 212.4C211.9 212.4 210.8 212.2 210.8 212.1C210.8 212 211.9 211.9 213.3 211.9C214.7 211.9 215.8 211.9 215.8 212Z" fill="#263238"/>
<path d="M225.4 209.4C225.5 209.5 224.5 210.1 223.2 210.6C221.9 211.1 220.8 211.2 220.7 211.1C220.7 211 221.7 210.6 223 210.1C224.3 209.7 225.4 209.3 225.4 209.4Z" fill="#263238"/>
<path d="M233.8 204C233.9 204.1 233.1 205 232 205.8C230.9 206.7 229.9 207.2 229.8 207C229.7 206.9 230.6 206.2 231.7 205.3C232.8 204.5 233.7 203.9 233.8 204Z" fill="#263238"/>
<path d="M240.3 196.4C240.4 196.5 239.9 197.5 239.1 198.6C238.3 199.7 237.4 200.5 237.3 200.4C237.2 200.3 237.8 199.4 238.7 198.3C239.5 197.2 240.2 196.3 240.3 196.4Z" fill="#263238"/>
<path d="M244.6 187.4C244.7 187.4 244.5 188.6 244 189.8C243.5 191.1 242.9 192.1 242.7 192C242.6 191.9 243 190.9 243.5 189.6C244 188.4 244.5 187.4 244.6 187.4Z" fill="#263238"/>
<path d="M246.5 177.6C246.6 177.6 246.7 178.7 246.5 180.1C246.3 181.5 246 182.6 245.8 182.5C245.7 182.5 245.8 181.4 246 180C246.2 178.7 246.4 177.6 246.5 177.6Z" fill="#263238"/>
<path d="M246.3 167.6C246.4 167.6 246.6 168.7 246.8 170.1C246.9 171.5 246.9 172.6 246.7 172.6C246.6 172.6 246.4 171.5 246.2 170.1C246.1 168.8 246.1 167.6 246.3 167.6Z" fill="#263238"/>
<path d="M244.1 157.9C244.2 157.9 244.6 158.9 245 160.2C245.4 161.5 245.5 162.7 245.4 162.7C245.3 162.7 244.9 161.7 244.5 160.4C244.2 159 244 157.9 244.1 157.9Z" fill="#263238"/>
<path d="M240.3 148.6C240.4 148.5 241 149.5 241.6 150.7C242.2 152 242.5 153 242.4 153.1C242.3 153.2 241.7 152.2 241.2 150.9C240.6 149.7 240.2 148.7 240.3 148.6Z" fill="#263238"/>
<path d="M235.4 139.9C235.5 139.8 236.2 140.7 236.9 141.9C237.6 143.1 238.1 144.1 237.9 144.2C237.8 144.3 237.1 143.4 236.4 142.2C235.7 141 235.2 140 235.4 139.9Z" fill="#263238"/>
<path d="M230.4 131.2C230.5 131.1 231.2 132.1 231.8 133.3C232.5 134.5 232.9 135.5 232.8 135.6C232.7 135.7 232 134.7 231.4 133.5C230.7 132.3 230.3 131.3 230.4 131.2Z" fill="#263238"/>
<path d="M226.5 122C226.6 122 227.1 123 227.6 124.3C228.1 125.6 228.4 126.7 228.2 126.7C228.1 126.8 227.6 125.8 227.1 124.4C226.6 123.2 226.4 122.1 226.5 122Z" fill="#263238"/>
<path d="M224.8 112.2C224.9 112.2 225.1 113.3 225.2 114.7C225.3 116.1 225.4 117.2 225.3 117.2C225.2 117.2 224.8 116.1 224.7 114.8C224.6 113.3 224.7 112.2 224.8 112.2Z" fill="#263238"/>
<path d="M225.6 102.2C225.7 102.2 225.6 103.3 225.4 104.7C225.2 106.1 225 107.2 224.9 107.1C224.8 107.1 224.7 106 224.9 104.6C225.1 103.3 225.5 102.2 225.6 102.2Z" fill="#263238"/>
<path d="M228.9 92.8004C229 92.9004 228.6 93.9003 228.1 95.2003C227.6 96.5003 227.1 97.5004 227 97.4004C226.9 97.4004 227.1 96.2003 227.6 95.0003C228.1 93.7003 228.8 92.7004 228.9 92.8004Z" fill="#263238"/>
<path d="M234.5 84.5001C234.6 84.6001 233.9 85.5001 233.1 86.6001C232.3 87.7001 231.5 88.5001 231.4 88.5001C231.3 88.4001 231.8 87.4001 232.7 86.3001C233.5 85.2001 234.4 84.4001 234.5 84.5001Z" fill="#263238"/>
<path d="M242 77.9001C242.1 78.0001 241.2 78.7001 240.1 79.6001C239 80.4001 238.1 81.1001 238 81.0001C237.9 80.9001 238.7 80.1001 239.8 79.2001C240.9 78.4001 241.9 77.8001 242 77.9001Z" fill="#263238"/>
<path d="M250.9 73.4C250.9 73.5 249.9 74 248.7 74.6C247.4 75.1 246.4 75.6 246.3 75.4C246.2 75.3 247.2 74.6 248.5 74.1C249.7 73.5 250.8 73.3 250.9 73.4Z" fill="#263238"/>
<path d="M258.1 71.6002C258.1 71.7002 257.6 72.0002 256.9 72.1002C256.2 72.2002 255.7 72.2002 255.6 72.1002C255.6 72.0002 256.1 71.7002 256.8 71.6002C257.5 71.4002 258.1 71.4002 258.1 71.6002Z" fill="#263238"/>
<path d="M278.5 42.1001C278.5 42.1001 290.2 33.7001 306.5 39.1001C306.5 39.1001 307.8 52.6001 294.8 63.3001" fill="#FF7213"/>
<path d="M241.5 67.0002C242 67.7002 254.7 88.2002 254.7 88.2002L293 64.7002C299.7 60.6002 301.4 51.6002 296.7 45.3002C292.4 39.5002 284.4 38.2002 278.5 42.2002L241.5 67.0002Z" fill="#FF7213"/>
<path d="M254.7 88.2002L253.8 102.6C253.8 102.6 278.6 90.6002 272.4 77.2002L254.7 88.2002Z" fill="#263238"/>
<path d="M259.2 55.1001C259.2 55.1001 242.4 47.7001 228.5 58.6001L241.4 67.0001L259.2 55.1001Z" fill="#263238"/>
<path d="M259.1 67.0001L235.2 82.0001C235.2 82.0001 236 84.6001 236.7 84.4001C237.2 84.2001 255.2 73.6001 261.1 70.2001C262.1 69.6001 262.3 68.4001 261.6 67.5001C260.9 66.7001 259.9 66.5001 259.1 67.0001Z" fill="#263238"/>
<path d="M288.688 57.3996C289.662 53.2601 287.096 49.115 282.956 48.1411C278.817 47.1673 274.672 49.7335 273.698 53.873C272.724 58.0124 275.29 62.1576 279.43 63.1315C283.569 64.1053 287.714 61.539 288.688 57.3996Z" fill="#FAFAFA"/>
<path d="M288.8 55.7003C288.7 55.7003 288.8 55.0003 288.5 53.9003C288.2 52.8003 287.4 51.1003 285.7 49.8003C284.8 49.2003 283.8 48.6003 282.5 48.4003C281.3 48.2003 279.9 48.2003 278.6 48.7003C277.3 49.2003 276 50.1003 275.2 51.3003C274.3 52.5003 273.8 54.1003 273.8 55.7003C273.8 57.3003 274.3 58.9003 275.2 60.1003C276.1 61.3003 277.3 62.2003 278.6 62.7003C279.9 63.2003 281.3 63.2003 282.5 63.0003C283.7 62.8003 284.8 62.3003 285.7 61.6003C287.4 60.3003 288.2 58.6003 288.5 57.5003C288.8 56.4003 288.8 55.7003 288.8 55.7003C288.8 55.7003 288.8 55.9003 288.8 56.2003C288.8 56.5003 288.8 57.0003 288.6 57.6003C288.3 58.8003 287.6 60.6003 285.8 61.9003C284.9 62.6003 283.8 63.2003 282.5 63.4003C281.2 63.6003 279.8 63.6003 278.4 63.1003C277 62.6003 275.7 61.7003 274.7 60.4003C273.7 59.1003 273.2 57.4003 273.2 55.7003C273.2 54.0003 273.8 52.3003 274.7 51.0003C275.7 49.7003 277 48.7003 278.4 48.3003C279.8 47.8003 281.3 47.7003 282.5 48.0003C283.8 48.2003 284.9 48.8003 285.8 49.5003C287.6 50.9003 288.3 52.7003 288.6 53.8003C288.7 54.4003 288.8 54.9003 288.8 55.2003C288.8 55.5003 288.8 55.7003 288.8 55.7003Z" fill="#263238"/>
<path d="M298.1 60.8001C298 60.8001 297.9 59.3001 297.3 57.0001C297 55.8001 296.6 54.5001 296 53.0001C295.4 51.5001 294.6 50.0001 293.6 48.4001C292.6 46.9001 291.5 45.5001 290.4 44.3001C289.3 43.2001 288.3 42.2001 287.3 41.4001C285.4 39.9001 284.1 39.2001 284.2 39.1001C284.2 39.1001 284.6 39.2001 285.2 39.6001C285.5 39.8001 285.9 40.0001 286.3 40.2001C286.7 40.5001 287.2 40.7001 287.7 41.1001C288.7 41.8001 289.8 42.8001 290.9 43.9001C292 45.1001 293.1 46.4001 294.2 48.0001C295.2 49.6001 296 51.2001 296.6 52.7001C297.2 54.2001 297.6 55.6001 297.8 56.8001C297.9 57.4001 298 57.9001 298.1 58.4001C298.2 58.9001 298.2 59.3001 298.2 59.6001C298.2 60.4001 298.2 60.8001 298.1 60.8001Z" fill="#263238"/>
<path d="M296.1 61.8999C296 61.8999 295.9 60.3999 295.3 57.9999C295 56.7999 294.6 55.3999 293.9 53.8999C293.3 52.3999 292.5 50.7999 291.5 49.2999C290.5 47.6999 289.4 46.3999 288.3 45.1999C287.2 43.9999 286.1 42.9999 285.2 42.2999C283.3 40.7999 282 39.9999 282 39.8999C282 39.8999 282.4 39.9999 283 40.3999C283.3 40.5999 283.7 40.7999 284.1 40.9999C284.5 41.2999 285 41.5999 285.5 41.9999C286.5 42.6999 287.6 43.6999 288.8 44.8999C289.9 46.0999 291.1 47.4999 292.1 49.0999C293.1 50.6999 293.9 52.2999 294.5 53.7999C295.1 55.2999 295.5 56.6999 295.8 57.9999C296 58.5999 296 59.1999 296.1 59.5999C296.2 60.0999 296.2 60.4999 296.2 60.8999C296.1 61.4999 296.1 61.8999 296.1 61.8999Z" fill="#263238"/>
<path d="M62 379.8C61.1 376.4 63.4001 373 65.9001 370.6C68.4001 368.2 71.4 366 72.7 362.7C74.8 357.4 72 350.6 75.7 346.2C77.8 343.6 81.6 342.8 83.5 340C84.5 338.6 84.8 336.8 85.2 335.1C87.2 326.4 91.6001 318.2 97.8001 311.8C98.2001 319.6 96.4001 327.4 92.8001 334.3C91.3001 337.1 89.5 339.7 89 342.8C88.2 347.8 91 353 89.7 357.9C88.3 363.5 81.9 367.3 81.6 373.1C81.3 378 85.6 382.3 85.2 387.2C85.1 389.3 84.1 391.2 83 393C79.2 399.3 73.6 403.6 65.1 403.4L54.8 403.7L62 379.8Z" fill="#FF7213"/>
<g opacity="0.3">
<g opacity="0.3">
<g opacity="0.3">
<g opacity="0.3">
<path opacity="0.3" d="M62 379.8C61.1 376.4 63.4001 373 65.9001 370.6C68.4001 368.2 71.4 366 72.7 362.7C74.8 357.4 72 350.6 75.7 346.2C77.8 343.6 81.6 342.8 83.5 340C84.5 338.6 84.8 336.8 85.2 335.1C87.2 326.4 91.6001 318.2 97.8001 311.8C98.2001 319.6 96.4001 327.4 92.8001 334.3C91.3001 337.1 89.5 339.7 89 342.8C88.2 347.8 91 353 89.7 357.9C88.3 363.5 81.9 367.3 81.6 373.1C81.3 378 85.6 382.3 85.2 387.2C85.1 389.3 84.1 391.2 83 393C79.2 399.3 73.6 403.6 65.1 403.4L54.8 403.7L62 379.8Z" fill="black"/>
</g>
</g>
</g>
</g>
<path d="M52.7001 403.9C52.7001 403.9 51.7001 404.1 49.9001 403.8C49.0001 403.7 47.8001 403.4 46.5001 402.9C45.2001 402.4 43.8001 401.7 42.4001 400.6C41.7001 400 41.1001 399.3 40.7001 398.3C40.3001 397.3 40.3001 396.3 40.2001 395.2C40.2001 394.1 40.2001 393 40.0001 391.9C39.8001 390.8 39.4001 389.6 38.8001 388.6C37.6001 386.5 35.6001 384.4 34.9001 381.5C34.2001 378.6 34.7001 375.5 35.2001 372.4C35.7001 369.3 36.2001 365.9 35.0001 362.7C33.9001 359.5 31.7001 356.5 30.5001 352.9C29.4001 349.2 29.9001 345.3 29.7001 341.4C29.6001 339.4 29.2001 337.5 28.4001 335.7C27.6001 333.9 26.4001 332.1 25.5001 330.2C23.7001 326.3 23.4001 321.9 22.9001 317.6C22.7001 315.4 22.4001 313.2 22.2001 311C22.0001 308.8 21.8001 306.5 21.1001 304.4C20.5001 302.2 19.6001 300.1 18.7001 298C18.3001 296.9 17.8001 295.8 17.5001 294.7C17.3001 293.5 17.3001 292.3 17.2001 291.1C17.1001 288.7 17.2001 286.3 17.5001 283.9C17.8001 281.5 18.2001 279.2 18.5001 276.8C18.5001 276.7 18.5001 276.5 18.5001 276.4L18.6001 275.9L19.0001 276.1C21.2001 277.2 23.1001 278.9 24.5001 280.8C26.0001 282.7 27.0001 284.9 27.9001 287.1C29.6001 291.6 30.2001 296.2 31.0001 300.7C31.8001 305.1 32.9001 309.5 35.2001 313.2C36.3001 315 37.7001 316.7 38.9001 318.5C40.1001 320.3 41.1001 322.3 41.4001 324.4C42.0001 328.8 39.6001 332.6 40.0001 336.5C40.2001 338.4 40.9001 340.2 41.9001 341.9C42.8001 343.6 43.9001 345.1 45.0001 346.6C46.0001 348.1 47.0001 349.7 47.7001 351.4C48.4001 353.1 48.8001 354.8 48.9001 356.6C49.1001 360.1 48.6001 363.4 48.9001 366.5C49.1001 369.6 50.2001 372.5 51.4001 375C52.6001 377.6 54.0001 379.9 55.2001 382.1C55.8001 383.2 56.3001 384.3 56.7001 385.4C57.2001 386.5 57.4001 387.6 57.6001 388.7C57.9001 390.8 57.9001 392.8 57.6001 394.6C57.1001 398.1 55.8001 400.7 54.6001 402.1C54.3001 402.5 54.0001 402.7 53.8001 403C53.6001 403.3 53.3001 403.4 53.1001 403.6C52.9001 403.8 52.7001 403.9 52.7001 403.9C52.7001 403.8 53.6001 403.4 54.7001 401.9C55.8001 400.5 57.1001 397.9 57.5001 394.4C57.7001 392.7 57.7001 390.7 57.4001 388.6C57.2001 387.6 57.0001 386.5 56.5001 385.4C56.1001 384.3 55.5001 383.2 54.9001 382.1C53.7001 379.9 52.3001 377.6 51.1001 375C49.8001 372.4 48.7001 369.5 48.5001 366.3C48.2001 363.1 48.7001 359.8 48.5001 356.4C48.4001 354.7 48.0001 353 47.3001 351.4C46.6001 349.8 45.6001 348.2 44.6001 346.7C43.6001 345.2 42.5001 343.6 41.5001 341.9C40.5001 340.2 39.7001 338.3 39.6001 336.3C39.1001 332.2 41.5001 328.3 40.9001 324.3C40.6001 322.3 39.6001 320.4 38.5001 318.7C37.3001 316.9 36.0001 315.2 34.8001 313.3C32.5001 309.5 31.4001 305 30.5001 300.6C29.6001 296.1 29.1001 291.5 27.4001 287.2C26.6001 285 25.5001 282.9 24.1001 281C22.7001 279.1 20.9001 277.5 18.8001 276.5L19.3001 276.2C19.3001 276.3 19.3001 276.5 19.3001 276.6C19.0001 279 18.6001 281.4 18.3001 283.7C18.0001 286.1 17.9001 288.4 18.0001 290.7C18.1001 291.9 18.1001 293.1 18.3001 294.2C18.5001 295.3 19.0001 296.4 19.4001 297.4C20.3001 299.5 21.2001 301.7 21.9001 303.9C22.6001 306.1 22.8001 308.4 23.0001 310.6C23.2001 312.8 23.5001 315 23.7001 317.2C24.2001 321.5 24.5001 325.9 26.2001 329.7C27.1001 331.6 28.2001 333.3 29.1001 335.2C30.0001 337.1 30.4001 339.2 30.5001 341.2C30.7001 345.2 30.2001 349.1 31.2001 352.6C32.3001 356.1 34.5001 359.1 35.6001 362.4C36.8001 365.8 36.3001 369.3 35.8001 372.4C35.3001 375.5 34.8001 378.5 35.4001 381.3C36.0001 384.1 37.9001 386.1 39.2001 388.3C39.8001 389.4 40.3001 390.6 40.5001 391.8C40.7001 393 40.7001 394.1 40.7001 395.2C40.7001 396.3 40.8001 397.3 41.1001 398.2C41.4001 399.1 42.0001 399.8 42.7001 400.4C44.0001 401.5 45.5001 402.2 46.7001 402.7C48.0001 403.2 49.1001 403.5 50.0001 403.6C50.9001 403.8 51.6001 403.8 52.1001 403.8C52.5001 403.9 52.7001 403.9 52.7001 403.9Z" fill="#263238"/>
<path d="M20.7001 282C20.7001 282 20.7001 282.1 20.8001 282.3C20.9001 282.5 20.9001 282.9 21.0001 283.2C21.2001 284 21.4001 285.2 21.8001 286.8C22.2001 288.3 23.1001 290.1 23.9001 292.2C24.7001 294.3 25.6001 296.8 26.3001 299.5C27.1001 302.3 27.8001 305.3 28.5001 308.6C29.2001 311.9 30.0001 315.4 31.8001 318.7C32.6001 320.4 33.6001 322.1 34.3001 324C35.1001 325.9 35.5001 327.9 35.8001 329.9C36.3001 334 37.0001 338.2 38.0001 342.4C40.0001 350.9 42.0001 359 43.7001 366.3C45.5001 373.6 47.1001 380.2 48.5001 385.8C49.8001 391.3 50.9001 395.8 51.7001 399C52.1001 400.5 52.3001 401.7 52.5001 402.6C52.6001 403 52.6001 403.3 52.7001 403.5C52.7001 403.7 52.8001 403.8 52.7001 403.8C52.7001 403.8 52.7001 403.7 52.6001 403.5C52.5001 403.3 52.4001 403 52.3001 402.6C52.1001 401.7 51.8001 400.5 51.3001 399C50.5001 395.8 49.3001 391.4 47.9001 385.9C46.5001 380.3 44.8001 373.7 43.0001 366.4C41.2001 359 39.3001 351 37.2001 342.5C36.2001 338.2 35.5001 334 35.0001 329.9C34.7001 327.9 34.3001 325.9 33.6001 324.1C32.9001 322.3 32.0001 320.6 31.1001 318.9C29.3001 315.5 28.6001 311.9 27.9001 308.6C27.2001 305.3 26.6001 302.3 25.8001 299.5C25.1001 296.7 24.3001 294.3 23.5001 292.2C22.8001 290.1 21.9001 288.3 21.5001 286.7C21.2001 285.1 21.0001 283.9 20.8001 283.1C20.7001 282.7 20.7001 282.4 20.6001 282.2C20.7001 282.1 20.7001 282 20.7001 282Z" fill="#263238"/>
<path d="M50.9 403.9C44.2 399.8 42.3 387.7 45.2 380.3C48.1 373 53 366.3 53.8 358.5C54.4 352.5 52.5 346.3 53.9 340.4C55.8 332.5 63.6 326.4 63.6 318.2C63.6 313.6 61 309.3 61.2 304.7C61.5 299.1 65.8 294.7 68.5 289.8C72.6 282.3 72.9 273.3 74.4 264.9C75.8 256.4 79.1 247.4 86.7 243.3C87.8 250.5 89.6 255.4 89 265.2C88.8 268.7 84.7 275.4 84.1 283C83.7 287.6 83.5 292.2 83.2 296.8C82.9 301.3 82.6 305.8 81 310C79.8 313.2 77.8001 316.1 76.8001 319.4C75.1001 325.6 77.3001 332.3 75.8001 338.6C74.6001 343.9 70.9 348.5 70.1 353.9C69 361.5 73.9001 369.4 71.3001 376.7C70.0001 380.3 67.1 383.2 66.2 386.9C65.5 389.8 66.2 392.8 65.6 395.7C64.6 400.4 55.7 403.9 51 403.6" fill="#FF7213"/>
<path d="M84.7 250.5C84.7 250.5 84.7 250.6 84.7 250.9C84.7 251.2 84.6 251.6 84.5 252.1C84.3 253.1 84.2001 254.7 83.8001 256.6C83.4001 258.6 82.4 260.8 81.5 263.5C80.6 266.2 79.7 269.3 79 272.7C78.2 276.2 77.5001 280 76.8001 284.1C76.1001 288.2 75.3001 292.7 73.3001 297C72.3001 299.2 71.3 301.3 70.5 303.6C69.7 305.9 69.3 308.4 69 310.9C68.6 316 67.9001 321.3 66.9001 326.6C64.8001 337.2 62.7001 347.4 60.9001 356.6C59.0001 365.8 57.2001 374.1 55.7001 381C54.2001 387.9 53.0001 393.5 52.2001 397.5C51.8001 399.4 51.4001 400.9 51.2001 402C51.1001 402.5 51.0001 402.9 50.9001 403.2C50.8001 403.5 50.8 403.6 50.8 403.6C50.8 403.6 50.8 403.5 50.8 403.2C50.9 402.9 50.9 402.5 51 402C51.2 400.9 51.5001 399.4 51.9001 397.5C52.7001 393.6 53.8001 387.9 55.2001 381C56.6001 374 58.3001 365.7 60.2001 356.5C62.0001 347.3 64 337.1 66.1 326.5C67.1 321.2 67.8 315.9 68.2 310.8C68.5 308.3 68.9 305.7 69.7 303.4C70.5 301.1 71.6 298.9 72.6 296.8C74.7 292.6 75.4 288.2 76.2 284.1C76.9 280 77.6001 276.1 78.4001 272.7C79.2001 269.2 80.1 266.1 81 263.5C81.9 260.8 82.9001 258.6 83.4001 256.7C83.8001 254.8 84 253.2 84.2 252.2C84.3 251.7 84.4001 251.3 84.4001 251C84.7001 250.7 84.7 250.5 84.7 250.5Z" fill="#263238"/>
<path d="M389.6 246.6H382.6V269.1H389.6V246.6Z" fill="#FF7213"/>
<path d="M402.4 237.3H395.4V269.1H402.4V237.3Z" fill="#FF7213"/>
<path d="M416.1 233H409.1V269.1H416.1V233Z" fill="#FF7213"/>
<path d="M429.8 228.4H422.8V269.1H429.8V228.4Z" fill="#FF7213"/>
<path d="M147.7 275.8C147.7 275.8 148.3 275.8 149.2 276.3C150.1 276.7 151.4 277.6 152.2 279.3C152.6 280.1 152.8 281.1 152.8 282.2C152.8 283.3 152.5 284.4 151.8 285.5C151.5 286 151.1 286.5 150.6 286.9C150.1 287.3 149.6 287.7 149 287.9C147.8 288.5 146.3 288.6 145 288.3C143.6 288 142.4 287.2 141.5 286.2C141.1 285.7 140.7 285.1 140.5 284.6C140.2 284 140.1 283.4 140 282.8C139.8 281.6 140.1 280.4 140.5 279.4C140.9 278.4 141.6 277.6 142.3 277C143.7 275.8 145.3 275.5 146.3 275.5C147.1 275.6 147.7 275.8 147.7 275.8C147.7 275.8 147.1 275.7 146.1 275.7C145.1 275.7 143.6 276.1 142.3 277.2C141.6 277.8 141 278.5 140.6 279.5C140.2 280.5 140 281.6 140.2 282.7C140.3 283.3 140.4 283.9 140.7 284.4C140.9 285 141.3 285.5 141.7 286C142.5 287 143.7 287.7 145 288C146.3 288.3 147.7 288.1 148.8 287.6C149.4 287.4 149.9 287 150.4 286.6C150.9 286.2 151.3 285.8 151.6 285.3C152.2 284.3 152.5 283.2 152.6 282.2C152.7 281.2 152.4 280.2 152.1 279.4C151.4 277.8 150.2 276.8 149.3 276.4C148.2 275.9 147.7 275.8 147.7 275.8Z" fill="#263238"/>
<path d="M152.7 269C152.7 269 152.7 268.9 152.7 268.8C152.7 268.6 152.7 268.4 152.7 268.1C152.7 267.5 152.7 266.6 152.7 265.4V265.5C151.2 265.2 149.3 264.8 146.9 264.2L147 264.1C146.5 265.1 146 266.2 145.5 267.3V267.4H145.4C144.2 267.5 142.9 267.7 141.6 268.1H141.5L141.4 268C140.6 267.2 139.8 266.4 138.9 265.5H139.1C137.5 266.5 135.9 267.6 134.1 268.7L134.2 268.5C134.6 269.5 135 270.7 135.4 271.9V272L135.3 272.1C134.5 273 133.7 274 133.1 275.2V275.3H133C131.9 275.3 130.7 275.3 129.4 275.3L129.6 275.2C129.2 277 128.8 279 128.3 281L128.2 280.8C129.2 281.3 130.3 281.8 131.4 282.3H131.5V282.4C131.5 283.6 131.8 284.9 132.2 286.1V286.2L132.1 286.3C131.3 287.1 130.5 288 129.6 288.8V288.6C130.6 290.2 131.7 291.9 132.8 293.6L132.6 293.5C133.7 293.1 134.8 292.7 136 292.3H136.1L136.2 292.4C137.1 293.2 138.1 294 139.3 294.6C139.3 294.7 139.2 294.4 139.4 294.8V294.9V295V295.2V295.6V296.5C139.4 297.1 139.4 297.7 139.4 298.3L139.3 298.1C141.2 298.5 143.2 299 145.1 299.4L144.9 299.5C145.4 298.4 145.9 297.3 146.4 296.3V296.2H146.5C147.8 296.2 149 295.9 150.2 295.6H150.3L150.4 295.7C151.3 296.6 152.1 297.4 152.9 298.2H152.7C154.4 297.1 156.1 296.1 157.7 295L157.6 295.2C157.2 294.1 156.8 292.9 156.4 291.8V291.7L156.5 291.6C157.4 290.6 158.1 289.6 158.7 288.5V288.4H158.8C160 288.4 161.2 288.4 162.4 288.4L162.3 288.5C162.8 286.5 163.2 284.6 163.6 282.7L163.7 282.9C162.6 282.4 161.5 281.9 160.5 281.4H160.4V281.3C160.3 279.9 160.1 278.7 159.8 277.5V277.4L159.9 277.3C160.8 276.4 161.6 275.6 162.4 274.8V274.9C161.2 273 160.1 271.3 159.3 269.9H159.4C158.1 270.4 156.9 270.8 156 271.1C155.1 270.2 154.2 269.7 153.7 269.3C153.4 269.1 153.2 269 153.1 268.9C152.8 269 152.7 269 152.7 269C152.7 269 152.8 269 152.9 269.1C153 269.2 153.3 269.3 153.5 269.4C154.1 269.7 154.9 270.3 155.8 271.1H155.7C156.6 270.8 157.7 270.4 159.1 269.9H159.2V270C160.1 271.4 161.1 273 162.4 275V275.1L162.3 275.2C161.5 276 160.7 276.8 159.8 277.7V277.6C160.2 278.8 160.4 280 160.5 281.4L160.4 281.3C161.4 281.8 162.5 282.3 163.6 282.8H163.7V282.9C163.3 284.7 162.9 286.6 162.4 288.7V288.8H162.3C161.1 288.8 160 288.8 158.7 288.8L158.8 288.7C158.2 289.8 157.5 290.9 156.6 291.9V291.7C157 292.8 157.4 293.9 157.8 295.1V295.2L157.7 295.3C156.1 296.3 154.4 297.4 152.7 298.5L152.6 298.6L152.5 298.5C151.7 297.7 150.8 296.8 150 296H150.2C149 296.4 147.7 296.6 146.4 296.7L146.6 296.6C146.1 297.7 145.6 298.7 145.1 299.8L145 299.9H144.9C143 299.5 141.1 299 139.1 298.6H139V298.5C139 297.9 139 297.3 139 296.7V295.8V295.4V295.2V295.1V295C139.2 295.3 139.1 295.1 139.1 295.2C137.9 294.6 136.8 293.8 135.9 293H136.1C134.9 293.4 133.8 293.8 132.7 294.2H132.6L132.5 294.1C131.4 292.4 130.3 290.7 129.3 289.1L129.2 289L129.3 288.9C130.2 288 131 287.2 131.8 286.4V286.6C131.4 285.3 131.2 284 131.1 282.8L131.2 282.9C130.1 282.4 129 281.8 128 281.4L127.9 281.3V281.2C128.4 279.2 128.8 277.2 129.2 275.4V275.3H129.3C130.5 275.3 131.8 275.3 132.9 275.3L132.8 275.4C133.4 274.2 134.2 273.1 135 272.2V272.4C134.6 271.2 134.2 270.1 133.8 269V268.9L133.9 268.8C135.7 267.7 137.3 266.6 138.9 265.7L139 265.6L139.1 265.7C140 266.6 140.8 267.4 141.6 268.2H141.5C142.8 267.8 144.1 267.6 145.3 267.5L145.2 267.6C145.8 266.4 146.3 265.4 146.7 264.4V264.3H146.8C149.1 264.8 151.1 265.3 152.6 265.6C152.6 266.7 152.6 267.6 152.6 268.2C152.6 268.5 152.6 268.7 152.6 268.9C152.8 268.9 152.7 269 152.7 269Z" fill="#263238"/>
<path fill-rule="evenodd" clip-rule="evenodd" d="M141.9 224.1C143.2 224.8 144.3 225.6 145.4 226.6L149.1 225.3L152.6 230.8L149.8 233.6C150.2 234.9 150.5 236.4 150.5 237.8L154.1 239.5L152.7 245.9H148.8C148.1 247.2 147.3 248.3 146.3 249.4L147.6 253.1L142.1 256.6L139.3 253.8C138 254.2 136.5 254.5 135.1 254.5L133.4 258.1L127 256.7V252.8C125.7 252.1 124.6 251.3 123.5 250.3L119.8 251.6L116.3 246.1L119.1 243.3C118.7 242 118.4 240.5 118.4 239.1L114.8 237.4L116.2 231H120.1C120.8 229.7 121.6 228.6 122.6 227.5L121.3 223.8L126.8 220.3L129.6 223.1C130.9 222.7 132.4 222.4 133.8 222.4L135.5 218.8L141.9 220.2V224.1ZM136.2 231.6C132.4 230.8 128.7 233.1 127.8 236.9C127 240.7 129.3 244.4 133.1 245.3C136.9 246.1 140.6 243.8 141.5 240C142.4 236.2 140 232.5 136.2 231.6Z" fill="#FF7213"/>
<g opacity="0.8">
<g opacity="0.8">
<g opacity="0.8">
<path opacity="0.8" fill-rule="evenodd" clip-rule="evenodd" d="M141.9 224.1C143.2 224.8 144.3 225.6 145.4 226.6L149.1 225.3L152.6 230.8L149.8 233.6C150.2 234.9 150.5 236.4 150.5 237.8L154.1 239.5L152.7 245.9H148.8C148.1 247.2 147.3 248.3 146.3 249.4L147.6 253.1L142.1 256.6L139.3 253.8C138 254.2 136.5 254.5 135.1 254.5L133.4 258.1L127 256.7V252.8C125.7 252.1 124.6 251.3 123.5 250.3L119.8 251.6L116.3 246.1L119.1 243.3C118.7 242 118.4 240.5 118.4 239.1L114.8 237.4L116.2 231H120.1C120.8 229.7 121.6 228.6 122.6 227.5L121.3 223.8L126.8 220.3L129.6 223.1C130.9 222.7 132.4 222.4 133.8 222.4L135.5 218.8L141.9 220.2V224.1ZM136.2 231.6C132.4 230.8 128.7 233.1 127.8 236.9C127 240.7 129.3 244.4 133.1 245.3C136.9 246.1 140.6 243.8 141.5 240C142.4 236.2 140 232.5 136.2 231.6Z" fill="white"/>
</g>
</g>
</g>
<path fill-rule="evenodd" clip-rule="evenodd" d="M118.8 261.7C119.5 262.1 120.2 262.6 120.8 263.1L123 262.3L125 265.5L123.4 267.1C123.6 267.9 123.8 268.7 123.8 269.5L125.9 270.5L125.1 274.2H122.8C122.4 274.9 121.9 275.6 121.4 276.2L122.2 278.4L119 280.4L117.4 278.8C116.6 279 115.8 279.2 115 279.2L114 281.3L110.3 280.5V278.2C109.6 277.8 108.9 277.3 108.3 276.8L106.1 277.6L104.1 274.4L105.7 272.8C105.5 272 105.3 271.2 105.3 270.4L103.2 269.4L104 265.7H106.3C106.7 265 107.2 264.3 107.7 263.7L106.9 261.5L110.1 259.5L111.7 261.1C112.5 260.9 113.3 260.7 114.1 260.7L115.1 258.6L118.8 259.4V261.7ZM115.6 266C113.4 265.5 111.2 266.9 110.7 269.1C110.2 271.3 111.6 273.5 113.8 274C116 274.5 118.2 273.1 118.7 270.9C119.1 268.7 117.8 266.5 115.6 266Z" fill="#FF7213"/>
<g opacity="0.4">
<g opacity="0.4">
<g opacity="0.4">
<path opacity="0.4" fill-rule="evenodd" clip-rule="evenodd" d="M118.8 261.7C119.5 262.1 120.2 262.6 120.8 263.1L123 262.3L125 265.5L123.4 267.1C123.6 267.9 123.8 268.7 123.8 269.5L125.9 270.5L125.1 274.2H122.8C122.4 274.9 121.9 275.6 121.4 276.2L122.2 278.4L119 280.4L117.4 278.8C116.6 279 115.8 279.2 115 279.2L114 281.3L110.3 280.5V278.2C109.6 277.8 108.9 277.3 108.3 276.8L106.1 277.6L104.1 274.4L105.7 272.8C105.5 272 105.3 271.2 105.3 270.4L103.2 269.4L104 265.7H106.3C106.7 265 107.2 264.3 107.7 263.7L106.9 261.5L110.1 259.5L111.7 261.1C112.5 260.9 113.3 260.7 114.1 260.7L115.1 258.6L118.8 259.4V261.7ZM115.6 266C113.4 265.5 111.2 266.9 110.7 269.1C110.2 271.3 111.6 273.5 113.8 274C116 274.5 118.2 273.1 118.7 270.9C119.1 268.7 117.8 266.5 115.6 266Z" fill="white"/>
</g>
</g>
</g>
<path d="M339.7 224.9C343.9 223.8 347 219.5 346.8 215.2C346.7 213.2 345.9 211.3 346 209.4C346.1 206.4 348.1 203.8 349.7 201.2C351.2 198.6 352.2 195.1 350.5 192.6C349.4 191 347.3 190.3 345.9 188.9C344.5 187.5 343.9 185.6 343.2 183.8C342.5 182 341.5 180.2 339.8 179.2C338.1 178.2 335.5 178.7 334.9 180.5" fill="#263238"/>
<path d="M321.5 175.6C324.5 173.7 325.2 169.3 323.6 166.1C322 162.9 318.5 161 315 160.5C309.9 159.7 304.5 161.5 300.9 165.2C299 167.2 297.4 169.8 294.8 170.7C292.5 171.5 289.9 170.8 287.5 171.1C284.3 171.5 281.5 173.8 279.8 176.6C278.1 179.4 277.5 182.7 277.1 185.9C276.7 188.9 276.5 192.2 274.4 194.3C272.4 196.4 269.2 196.9 266.7 198.4C262 201.2 260.5 208.3 263.6 212.8C264.6 214.2 266 215.6 266.1 217.3C266.2 218.9 265.2 220.3 264.7 221.9C263.5 225.8 266.7 230.5 270.8 230.7C272.9 230.8 275.1 230 277 230.9C278.9 231.8 279.5 234.1 280.7 235.8C283 239.1 287.9 240.4 291.6 238.6C293.1 237.8 294.6 236.6 296.3 236.7C298 236.8 299.3 238.3 301 238.6C303.2 239 305.3 237.4 306.6 235.6C307.9 233.8 308.8 231.7 310.5 230.2C312.7 228.3 315.7 227.8 318.5 226.8C324.6 224.7 329.7 219.9 332.1 213.9C334.5 207.9 334.2 200.9 331.3 195.2" fill="#263238"/>
<path d="M328.1 179.5C330.6 179.8 332.4 181.9 332.4 184.4L329.5 249.1C329.4 256.7 318.2 261 310 260.8C301.7 260.6 301.5 256.6 301.4 249.3C301.2 237.2 301.2 232.6 301.2 232.7C301.2 232.7 290.8 230.9 288.6 217.3C287.5 210.5 287.9 199.4 288.5 190.4C289 182.2 294.5 172.2 302.6 173.1L328.1 179.5Z" fill="#FFBE9D"/>
<path d="M291.6 199.1C291.6 200 292.3 200.8 293.3 200.9C294.3 201 295.1 200.3 295.1 199.3C295.1 198.4 294.4 197.6 293.4 197.5C292.4 197.5 291.6 198.2 291.6 199.1Z" fill="#263238"/>
<path d="M291 196.1C291.2 196.3 292.5 195.4 294.4 195.4C296.3 195.4 297.7 196.4 297.9 196.1C298 196 297.8 195.6 297.2 195.1C296.6 194.7 295.6 194.2 294.4 194.2C293.2 194.2 292.2 194.6 291.7 195.1C291.1 195.6 290.9 196 291 196.1Z" fill="#263238"/>
<path d="M310.3 199.1C310.3 200 311 200.8 312 200.9C313 201 313.8 200.3 313.8 199.3C313.8 198.4 313.1 197.6 312.1 197.5C311.2 197.5 310.3 198.2 310.3 199.1Z" fill="#263238"/>
<path d="M309.5 196.5C309.7 196.7 311 195.8 312.9 195.8C314.8 195.8 316.2 196.8 316.4 196.5C316.5 196.4 316.3 196 315.7 195.5C315.1 195.1 314.1 194.6 312.9 194.6C311.7 194.6 310.7 195 310.2 195.5C309.5 196 309.3 196.4 309.5 196.5Z" fill="#263238"/>
<path d="M302.6 210.4C302.6 210.3 301.4 210.1 299.5 209.8C299 209.7 298.6 209.7 298.5 209.3C298.4 209 298.6 208.4 298.8 207.9C299.3 206.7 299.7 205.5 300.2 204.2C302.2 199 303.6 194.7 303.4 194.7C303.2 194.6 301.4 198.8 299.4 204C298.9 205.3 298.5 206.5 298 207.7C297.8 208.2 297.5 208.9 297.7 209.6C297.8 210 298.2 210.2 298.5 210.3C298.8 210.4 299.1 210.4 299.3 210.4C301.4 210.5 302.6 210.5 302.6 210.4Z" fill="#263238"/>
<path d="M301.3 232.6C301.3 232.6 310.5 233.2 319.5 227.8C319.5 227.8 314.9 237.4 301.3 236.1V232.6Z" fill="#EB996E"/>
<path d="M303.4 214.9C304.1 214 305.3 213.5 306.4 213.6C307.2 213.7 308 214.1 308.5 214.7C309 215.4 309.1 216.3 308.6 216.9C308.1 217.6 307 217.8 306.1 217.5C305.2 217.2 304.4 216.7 303.7 216.1C303.5 215.9 303.3 215.8 303.2 215.5C303.2 215.5 303.2 215.2 303.4 214.9Z" fill="#FF7213"/>
<path d="M308.1 211.7C307.8 211.7 307.8 213.7 306 215.2C304.3 216.6 302.1 216.4 302.1 216.7C302.1 216.8 302.6 217.1 303.5 217.1C304.4 217.1 305.7 216.8 306.8 216C307.9 215.1 308.3 213.9 308.4 213.1C308.5 212.2 308.3 211.7 308.1 211.7Z" fill="#263238"/>
<path d="M308.6 193.2C308.8 193.7 310.7 193.5 312.9 193.7C315.1 193.9 316.9 194.6 317.2 194.1C317.3 193.9 317 193.4 316.3 192.9C315.6 192.4 314.5 191.9 313.1 191.8C311.8 191.7 310.6 191.9 309.8 192.2C308.9 192.5 308.5 192.9 308.6 193.2Z" fill="#263238"/>
<path d="M291.7 190.6C292 191 293.3 190.6 294.9 190.6C296.5 190.5 297.8 190.9 298.1 190.4C298.2 190.2 298 189.8 297.5 189.4C296.9 189 296 188.7 294.9 188.7C293.8 188.7 292.9 189.1 292.4 189.6C291.7 190 291.5 190.4 291.7 190.6Z" fill="#263238"/>
<path d="M319.2 175.1C322.3 173 326.4 172 330 173.1C333.6 174.1 336.6 177.4 336.8 181.1C336.9 183.5 335.8 186.1 336.9 188.2C337.9 190.3 340.4 191.1 342.2 192.6C345 194.9 345.8 199.2 344.1 202.4C342.6 205.1 339.5 207.1 339.2 210.2C339 213.1 341.4 215.5 342 218.4C342.7 221.5 340.9 224.8 338.4 226.9C335.9 229 332.8 230.1 329.7 231.2C327.3 232.1 324.7 232.9 322.2 232.4C319.2 231.7 317 229 316.6 226C316.2 223 317.4 220 319.4 217.8C321.1 215.9 323.6 214.2 324 211.7C324.7 207.7 319.9 204.5 320.2 200.5C320.3 198.4 321.8 196.7 323 195C324.2 193.3 325.3 191.2 324.5 189.2C323.5 186.7 320.2 186 318.2 184.2C316.5 182.7 315.9 180.2 316.5 178C317.2 175.9 319.2 174.2 321.4 173.8" fill="#263238"/>
<path d="M320.6 172C320.6 174.7 319.4 177.4 317.3 179.2C315.2 180.9 312.3 181.7 309.6 181.2C307.5 180.8 305.2 179.8 303.4 180.9C301.5 182.1 301.4 184.9 299.7 186.4C297.3 188.5 293.5 186.5 290.4 187.4C288 188.1 286.6 190.3 285 192.2C283.4 194.1 281.1 195.9 278.7 195.2C278.8 193.1 279 190.9 279.6 188.9C280.2 186.9 281.4 184.9 283.2 183.8C284.2 183.2 285.3 182.8 286.2 182C288.2 180.4 288.6 177.7 289.8 175.5C291.4 172.7 294.4 170.7 297.6 170.3C300.3 170 303 170.8 305.6 170.2C307.5 169.7 309.2 168.5 311.2 168.1C315 167.4 318.5 170.1 321.3 172.8" fill="#263238"/>
<path d="M345.5 204.5C345.4 204.5 345.9 204 345.8 202.9C345.7 201.9 344.9 200.4 343.1 199.8C342.2 199.4 341.2 199.2 340.1 199C339 198.7 337.8 198.4 336.7 197.6C335.6 196.8 335 195.4 334.9 194C334.8 192.6 335 191.2 335.1 189.7C335.1 189 335.1 188.3 335 187.6C334.9 186.9 334.6 186.3 334.2 185.8C333.4 184.8 332.1 184.3 330.9 183.9C329.7 183.5 328.5 183.1 327.6 182.5C326.6 181.9 325.8 181.2 325.1 180.5C323.8 179.1 323.1 177.6 322.7 176.6C322.5 176.1 322.4 175.7 322.4 175.4C322.3 175.1 322.3 175 322.3 175C322.3 175 322.5 175.6 322.9 176.5C323.3 177.5 324.1 178.8 325.4 180.2C326.7 181.6 328.6 182.8 331.1 183.4C332.3 183.8 333.7 184.3 334.6 185.4C335 186 335.4 186.7 335.5 187.4C335.6 188.1 335.6 188.9 335.6 189.6C335.5 191.1 335.3 192.5 335.4 193.8C335.5 195.1 336 196.4 336.9 197.1C337.9 197.8 339 198.2 340.1 198.5C341.2 198.8 342.2 199 343.1 199.4C344 199.8 344.8 200.3 345.2 201C345.7 201.6 345.9 202.3 345.9 202.9C345.9 203.5 345.8 203.9 345.7 204.1C345.6 204.4 345.5 204.5 345.5 204.5Z" fill="#455A64"/>
<path d="M265.3 213C265.3 213 265.2 213 265.1 212.9C265 212.8 264.8 212.7 264.6 212.4C264.3 211.8 264.2 210.8 264.9 209.7C265.2 209.2 265.7 208.6 266.4 208.3C267 207.9 267.8 207.7 268.6 207.4C269.4 207.1 270.2 206.7 270.9 206.1C271.6 205.5 272 204.5 272.2 203.5C272.4 202.5 272.5 201.4 272.7 200.2C272.9 199 273.2 197.8 274.1 196.8C275.7 194.7 278.3 193.6 280.2 191.6C281.2 190.6 281.9 189.4 282.3 188C282.8 186.6 283 185.2 283.3 183.6C283.7 180.6 284.1 177.3 286.2 174.5C287.2 173.1 288.7 172.1 290.3 171.8C291.9 171.5 293.5 171.7 295 171.9C296.5 172.1 298 172.3 299.4 172.2C300.8 172 302.1 171.3 303 170.3C304.9 168.3 305.9 165.6 308.2 164.2C310.4 162.8 313 162.7 315.1 163.3C317.2 163.9 318.8 165.3 319.6 166.8C320.5 168.3 320.8 169.8 320.8 171C320.8 172.2 320.6 173.1 320.4 173.7C320.2 174.3 320 174.6 320 174.6C320 174.6 320.1 174.3 320.3 173.7C320.5 173.1 320.7 172.2 320.6 171C320.5 169.8 320.2 168.4 319.4 166.9C318.6 165.5 317.1 164.1 315 163.6C313 163.1 310.5 163.2 308.5 164.6C307.5 165.3 306.6 166.2 305.9 167.3C305.1 168.4 304.4 169.6 303.4 170.6C302.9 171.1 302.3 171.6 301.7 172C301 172.3 300.3 172.6 299.5 172.7C298 172.9 296.4 172.7 294.9 172.5C293.4 172.3 291.8 172.1 290.3 172.4C288.8 172.7 287.4 173.6 286.5 174.9C285.6 176.2 285 177.7 284.6 179.2C284.2 180.7 284 182.3 283.8 183.8C283.6 185.3 283.3 186.8 282.8 188.2C282.3 189.6 281.6 190.9 280.5 192C278.4 194 275.9 195.1 274.4 197.1C273.6 198.1 273.3 199.2 273.1 200.3C272.9 201.4 272.8 202.6 272.6 203.6C272.4 204.7 271.9 205.7 271.2 206.3C270.5 207 269.6 207.3 268.8 207.6C268 207.9 267.3 208.1 266.6 208.5C266 208.8 265.5 209.3 265.2 209.8C264.6 210.8 264.6 211.8 264.8 212.3C265 212.9 265.3 213 265.3 213Z" fill="#455A64"/>
<path d="M231.9 306.8L256.1 304.6C256.1 304.6 271 265.5 289.3 256L301.2 276.7L275.8 324.4H226.2L231.9 306.8Z" fill="#FF7213"/>
<path opacity="0.3" d="M231.9 306.8L256.1 304.6C256.1 304.6 271 265.5 289.3 256L301.2 276.7L275.8 324.4H226.2L231.9 306.8Z" fill="black"/>
<path d="M241.4 317.8C241.3 317.7 242.2 316 243.4 313.9C244.6 311.8 245.8 310.2 245.9 310.3C246 310.4 245.1 312.1 243.9 314.2C242.7 316.3 241.5 317.9 241.4 317.8Z" fill="#FAFAFA"/>
<path d="M258.5 317.3C258.4 317.4 257.1 315.9 255.5 314C254 312.1 252.8 310.5 253 310.4C253.1 310.3 254.4 311.8 256 313.7C257.5 315.7 258.6 317.3 258.5 317.3Z" fill="#FAFAFA"/>
<path d="M261.5 308.4C261.4 308.4 261.2 307 261.2 305.2C261.2 303.5 261.3 302 261.5 302C261.7 302 261.8 303.4 261.8 305.2C261.8 307 261.6 308.4 261.5 308.4Z" fill="#FAFAFA"/>
<path d="M253 322.4C252.9 322.5 251.9 322 250.7 321.2C249.5 320.4 248.6 319.7 248.7 319.6C248.8 319.5 249.8 320 251 320.8C252.2 321.5 253.1 322.2 253 322.4Z" fill="#FAFAFA"/>
<path d="M266.9 286.4C267 286.5 266.3 288.4 265.2 290.8C264.1 293.2 263.2 295 263.1 294.9C263 294.8 263.7 292.9 264.8 290.5C265.8 288.2 266.7 286.3 266.9 286.4Z" fill="#FAFAFA"/>
<path d="M276.7 270.5C276.8 270.6 275.9 271.4 274.8 272.3C273.6 273.2 272.6 273.8 272.6 273.7C272.5 273.6 273.4 272.8 274.5 271.9C275.6 271 276.6 270.4 276.7 270.5Z" fill="#FAFAFA"/>
<path d="M312.8 321.3L325.3 271C327.5 262.2 336.1 256.7 344.9 258.3C354 259.9 360.2 268.6 358.8 277.8L351.2 327C349.3 337.3 341.1 345.3 330.8 346.9L320.9 348.4L312.8 321.3Z" fill="#FF7213"/>
<path d="M352 255C351.9 255.1 350.6 253.5 347.6 252.8C346.1 252.5 344.2 252.4 342.2 252.8C340.2 253.3 338.2 254.3 336.4 255.8C332.7 258.9 330.8 262.8 329.4 265.6C328.7 267 328.2 268.2 327.9 269C327.5 269.8 327.3 270.2 327.3 270.2C327.3 270.2 327.4 269.7 327.7 268.9C328 268.1 328.5 266.9 329.1 265.4C329.7 264 330.5 262.3 331.7 260.5C332.8 258.7 334.3 256.9 336.1 255.3C338 253.7 340.1 252.7 342.2 252.2C344.3 251.7 346.2 251.9 347.8 252.3C349.3 252.7 350.5 253.4 351.2 253.9C351.5 254.2 351.8 254.4 352 254.6C352 254.9 352.1 255 352 255Z" fill="#263238"/>
<path d="M281.5 266.3C281.5 266.3 281.4 266.5 281.2 266.8C280.9 267.1 280.6 267.6 280.1 268.1C279.2 269.2 277.9 270.8 276.4 272.9C273.4 277.1 269.7 283.3 267.9 291C266.2 298.7 266.1 305.9 265.8 311C265.7 313.6 265.6 315.7 265.4 317.1C265.3 317.8 265.3 318.3 265.3 318.8C265.3 319.2 265.2 319.4 265.2 319.4C265.2 319.4 265.2 319.2 265.2 318.8C265.2 318.4 265.2 317.8 265.2 317.1C265.2 315.6 265.3 313.5 265.4 311C265.6 305.9 265.6 298.6 267.4 290.9C269.2 283.1 273 276.9 276.1 272.7C277.6 270.6 279 269 280 268C280.5 267.5 280.9 267.1 281.1 266.8C281.3 266.4 281.5 266.3 281.5 266.3Z" fill="#263238"/>
<path d="M361.3 266.2C359.9 257.2 355 255 349.8 252.2C348.1 251.3 340 249.2 333.6 247.6C333 243.7 331.9 236.7 331.6 235.3C331.3 233.2 298.8 238.4 298.4 239.2C298.1 239.7 297.4 247.8 296.9 253.2L289.1 255.9L279 268.8L273.7 276.3C270.6 280.6 268.3 285.5 267.2 290.7C265.9 296.4 265.7 302 265.7 308.1L264.1 341.1L331.9 360.3L337.2 326.8L354.7 303C356.3 293.4 363 277.3 361.3 266.2Z" fill="#FF7213"/>
<path d="M303.4 254.2C303.3 254.2 303.2 253.3 302.9 251.9C302.7 250.5 302.4 248.5 302.2 246.3C302.1 245.2 302 244.2 301.9 243.2C301.8 242.3 301.7 241.4 301.7 240.7C301.7 240 301.9 239.4 302.2 239C302.5 238.7 302.7 238.6 302.7 238.6C302.7 238.6 302.6 238.8 302.4 239.1C302.2 239.4 302.1 240 302.1 240.7C302.1 241.4 302.3 242.2 302.4 243.2C302.5 244.2 302.6 245.2 302.8 246.3C303.1 248.5 303.3 250.5 303.4 251.9C303.5 253.3 303.5 254.2 303.4 254.2Z" fill="#263238"/>
<path d="M312.1 252.2C312 252.2 311.7 251.4 311.4 250.1C311 248.8 310.7 246.9 310.5 244.8C310.3 242.7 310.3 240.8 310.4 239.4C310.5 238 310.7 237.2 310.7 237.2C310.9 237.2 310.6 240.6 311 244.7C311.3 248.9 312.2 252.2 312.1 252.2Z" fill="#263238"/>
<path d="M328.2 249.9C328 249.9 328.7 246.5 328 242.4C327.3 238.3 325.5 235.4 325.7 235.3C325.8 235.3 326.3 235.9 326.9 237.2C327.5 238.4 328.2 240.2 328.6 242.3C329 244.4 328.9 246.3 328.8 247.7C328.5 249.1 328.2 249.9 328.2 249.9Z" fill="#263238"/>
<path d="M282.1 279.3C282 279.2 283.1 277.3 284.8 275.1C286.4 272.9 288 271.3 288.1 271.4C288.2 271.5 286.9 273.3 285.2 275.4C283.5 277.6 282.2 279.4 282.1 279.3Z" fill="#FAFAFA"/>
<path d="M297.4 266.8C297.3 266.9 296.1 265.5 294.7 263.7C293.3 261.9 292.3 260.4 292.4 260.3C292.5 260.2 293.7 261.6 295.1 263.4C296.5 265.2 297.5 266.8 297.4 266.8Z" fill="#FAFAFA"/>
<path d="M313.3 259C313.4 259.1 311.9 260.5 310.1 262.2C308.3 263.9 306.9 265.4 306.8 265.3C306.7 265.2 307.9 263.6 309.7 261.8C311.6 260.1 313.3 258.9 313.3 259Z" fill="#FAFAFA"/>
<path d="M308.9 249.5C308.8 249.6 307.7 248.8 306.4 247.6C305.1 246.4 304.2 245.4 304.3 245.3C304.4 245.2 305.5 246 306.8 247.2C308 248.4 309 249.4 308.9 249.5Z" fill="#FAFAFA"/>
<path d="M322.8 242.1C322.8 242.2 321.3 242.7 319.4 243.1C317.5 243.5 316 243.7 315.9 243.6C315.9 243.5 317.4 243 319.3 242.6C321.3 242.1 322.8 241.9 322.8 242.1Z" fill="#FAFAFA"/>
<path d="M325.6 264.2C325.5 264.2 325.3 262.6 325.2 260.7C325.1 258.8 325.1 257.2 325.3 257.2C325.4 257.2 325.6 258.8 325.7 260.7C325.8 262.6 325.8 264.2 325.6 264.2Z" fill="#FAFAFA"/>
<path d="M320.5 274.9C320.4 274.9 319.6 273.1 318.7 270.9C317.9 268.6 317.3 266.7 317.4 266.7C317.5 266.7 318.3 268.5 319.2 270.7C320.1 272.9 320.7 274.8 320.5 274.9Z" fill="#FAFAFA"/>
<path d="M306.7 282.4C306.6 282.5 305.7 280.6 304.8 278.2C303.9 275.8 303.2 273.8 303.4 273.8C303.5 273.7 304.4 275.6 305.3 278C306.2 280.3 306.8 282.3 306.7 282.4Z" fill="#FAFAFA"/>
<path d="M293.6 290.9C293.5 290.9 293 289.1 292.5 286.7C292 284.4 291.7 282.4 291.9 282.4C292 282.4 292.5 284.2 293 286.6C293.5 288.9 293.8 290.8 293.6 290.9Z" fill="#FAFAFA"/>
<path d="M278.1 291.2C278 291.3 277 289.6 276 287.5C275 285.4 274.2 283.6 274.4 283.6C274.5 283.5 275.5 285.2 276.5 287.3C277.5 289.4 278.3 291.2 278.1 291.2Z" fill="#FAFAFA"/>
<path d="M277.8 301.1C277.9 301.2 276 302.3 273.7 303.4C271.4 304.5 269.5 305.4 269.4 305.2C269.3 305.1 271.2 304 273.5 302.9C275.8 301.8 277.7 301 277.8 301.1Z" fill="#FAFAFA"/>
<path d="M278 316.9C277.9 317 277.1 315.3 276.6 313.3C276 311.2 275.9 309.5 276 309.4C276.1 309.4 276.5 311.1 277.1 313.1C277.6 315.2 278.1 316.8 278 316.9Z" fill="#FAFAFA"/>
<path d="M274.8 327.9C274.7 328 273.2 326.8 271.5 325.3C269.8 323.7 268.5 322.4 268.6 322.3C268.7 322.2 270.2 323.4 271.9 324.9C273.6 326.5 274.9 327.8 274.8 327.9Z" fill="#FAFAFA"/>
<path d="M295.2 320.4C295.2 320.5 292.9 321.2 290.3 322.4C287.6 323.6 285.6 324.8 285.5 324.7C285.4 324.6 287.4 323.1 290.1 321.9C292.8 320.7 295.2 320.2 295.2 320.4Z" fill="#FAFAFA"/>
<path d="M289.2 314.9C289.1 314.9 288.4 313.4 287.7 311.5C287 309.6 286.6 308 286.7 307.9C286.8 307.9 287.5 309.4 288.2 311.3C288.9 313.2 289.4 314.9 289.2 314.9Z" fill="#FAFAFA"/>
<path d="M301.4 301.4C301.5 301.5 300.3 303.6 298.7 306.2C297.1 308.8 295.6 310.8 295.5 310.8C295.4 310.7 296.6 308.6 298.2 306C299.8 303.3 301.2 301.3 301.4 301.4Z" fill="#FAFAFA"/>
<path d="M314.4 302.7C314.3 302.8 312.7 300.8 311.1 298.2C309.5 295.5 308.5 293.2 308.7 293.1C308.8 293 310 295.3 311.6 297.9C313.1 300.5 314.5 302.6 314.4 302.7Z" fill="#FAFAFA"/>
<path d="M322.2 289.8C322.2 289.9 320.5 290.4 318.4 290.5C316.3 290.6 314.5 290.3 314.5 290.2C314.5 290.1 316.2 290.1 318.3 290C320.4 289.9 322.1 289.7 322.2 289.8Z" fill="#FAFAFA"/>
<path d="M340.7 275.2C340.8 275.3 338.6 276.5 335.8 277.8C333 279.1 330.7 280.1 330.7 280C330.6 279.9 332.8 278.7 335.6 277.4C338.3 276 340.6 275.1 340.7 275.2Z" fill="#FAFAFA"/>
<path d="M341.9 265.9C341.8 265.8 342.6 264 343.7 261.8C344.8 259.6 345.8 257.8 345.9 257.9C346 258 345.2 259.8 344.1 262C343 264.2 342 266 341.9 265.9Z" fill="#FAFAFA"/>
<path d="M353.7 273.2C353.6 273.2 353 271.2 352.2 268.7C351.4 266.2 350.7 264.2 350.9 264.1C351 264 351.9 266 352.7 268.5C353.4 271 353.8 273.2 353.7 273.2Z" fill="#FAFAFA"/>
<path d="M355.5 282.9C355.5 283 353.6 283.9 351.1 284.5C348.6 285.1 346.5 285.3 346.5 285.2C346.5 285.1 348.5 284.6 351 284C353.5 283.4 355.5 282.7 355.5 282.9Z" fill="#FAFAFA"/>
<path d="M335.4 294.7C335.2 294.7 335.7 292.2 335.8 289.2C335.9 286.2 335.7 283.7 335.9 283.7C336 283.7 336.5 286.1 336.4 289.2C336.2 292.3 335.5 294.7 335.4 294.7Z" fill="#FAFAFA"/>
<path d="M331.3 306.9C331.2 307 329.4 305.5 327.6 303.3C325.8 301.1 324.6 299.1 324.8 299C324.9 298.9 326.2 300.8 328 302.9C329.9 305.1 331.4 306.8 331.3 306.9Z" fill="#FAFAFA"/>
<path d="M351.5 304.3C351.6 304.4 349.7 305.3 347.3 306.3C344.9 307.3 343 308 342.9 307.8C342.8 307.7 344.7 306.8 347.1 305.8C349.5 304.9 351.5 304.2 351.5 304.3Z" fill="#FAFAFA"/>
<path d="M344.3 327.2C344.2 327.2 344.1 324.7 344.1 321.7C344.1 318.7 344.3 316.2 344.4 316.2C344.5 316.2 344.6 318.7 344.6 321.7C344.6 324.7 344.5 327.2 344.3 327.2Z" fill="#FAFAFA"/>
<path d="M328.8 325.9C328.7 325.9 328.9 323.3 329.7 320.2C330.5 317.1 331.5 314.7 331.6 314.8C331.7 314.9 331 317.3 330.2 320.3C329.4 323.4 328.9 325.9 328.8 325.9Z" fill="#FAFAFA"/>
<path d="M329.5 331.9C329.5 332.1 327 332.3 324 332.8C321 333.3 318.5 333.9 318.5 333.7C318.5 333.6 320.9 332.8 323.9 332.3C327 331.8 329.5 331.8 329.5 331.9Z" fill="#FAFAFA"/>
<path d="M312.3 328C312.2 327.9 313.5 326.4 315.3 324.6C317 322.8 318.5 321.4 318.6 321.5C318.7 321.6 317.4 323.1 315.6 324.9C313.9 326.8 312.4 328.1 312.3 328Z" fill="#FAFAFA"/>
<path d="M301.2 338.9C301.1 338.9 300.6 337.1 299.8 335C299 332.9 298.3 331.2 298.4 331.1C298.5 331 299.5 332.6 300.3 334.8C301.1 337 301.4 338.8 301.2 338.9Z" fill="#FAFAFA"/>
<path d="M319.2 345C319.1 345.1 316.9 344.3 314.2 343.1C311.5 341.9 309.3 340.8 309.4 340.7C309.5 340.6 311.7 341.4 314.4 342.6C317.1 343.8 319.2 344.9 319.2 345Z" fill="#FAFAFA"/>
<path d="M287.9 343.2C287.8 343.2 288.2 341.5 288.8 339.5C289.5 337.5 290.1 336 290.2 336C290.3 336 289.9 337.7 289.3 339.7C288.7 341.7 288 343.3 287.9 343.2Z" fill="#FAFAFA"/>
<path d="M308.5 346.7C308.5 346.9 305.6 346.4 302.1 346.2C298.6 346 295.7 346.2 295.7 346C295.7 345.9 298.6 345.5 302.2 345.7C305.7 345.9 308.5 346.6 308.5 346.7Z" fill="#FAFAFA"/>
<path d="M312.8 317.2C312.8 317.2 312.8 317.1 312.8 316.8C312.8 316.5 312.8 316.2 313 315.7C313.1 315.2 313.4 314.6 314.1 314.2C314.7 313.8 315.6 313.6 316.5 313.8L316.3 313.9C317.4 310.1 319.1 304.5 320.9 298.2C322.5 292.3 323.6 286.9 324.4 283C324.8 281.1 325.1 279.5 325.3 278.4C325.5 277.3 325.7 276.7 325.7 276.7C325.7 276.7 325.7 277.3 325.5 278.4C325.3 279.5 325.1 281.1 324.7 283.1C324 287 323 292.5 321.3 298.4C319.5 304.7 317.7 310.3 316.5 314.1V314.2H316.3C315.5 314 314.6 314.2 314.1 314.5C313.5 314.8 313.2 315.4 313.1 315.8C312.8 316.7 312.9 317.2 312.8 317.2Z" fill="#263238"/>
<path d="M335.2 331.1C335.1 331.1 334.5 329.8 333.2 327.8C331.9 325.8 329.9 323.1 327.2 320.7C324.5 318.3 321.7 316.5 319.6 315.4C317.5 314.3 316.1 313.8 316.1 313.8C316.1 313.8 316.5 313.9 317.1 314.1C317.7 314.3 318.7 314.6 319.8 315.1C322 316.1 324.9 317.8 327.6 320.3C330.3 322.8 332.3 325.5 333.5 327.6C334.1 328.6 334.5 329.5 334.8 330.1C335.1 330.8 335.2 331.1 335.2 331.1Z" fill="#263238"/>
<g opacity="0.2">
<path opacity="0.2" d="M316.7 313.1C320.5 313.4 323.7 313.7 327.2 315C330.8 316.3 334.1 318.9 335.4 322.5C335.7 323.4 335.9 324.5 335.2 325.1C334.7 325.6 333.9 325.6 333.3 325.4C332.7 325.2 332.1 324.7 331.6 324.3C329.4 322.3 327.1 320.5 324.8 318.5C322.5 316.5 319.2 314.5 316.2 314" fill="black"/>
</g>
<path d="M309.5 306.7C309.5 306.7 309.2 307 308.5 307.3C307.8 307.6 306.8 308.1 305.4 308.5C302.7 309.3 298.8 309.7 294.6 308.6C290.4 307.5 287.2 305.2 285.2 303.2C284.2 302.2 283.5 301.3 283.1 300.7C282.7 300.1 282.5 299.7 282.5 299.7C282.6 299.6 283.5 301.1 285.5 303C287.5 304.9 290.7 307.1 294.7 308.1C298.7 309.1 302.6 308.8 305.3 308.1C307.9 307.4 309.4 306.6 309.5 306.7Z" fill="#263238"/>
<g opacity="0.2">
<path opacity="0.2" d="M283 300.4C284.7 304.1 286.7 307.7 289.9 310.2C291.7 311.6 293.9 312.8 296.2 312.8C299.5 312.9 302.4 310.6 305 308.4C296.7 309.8 287.4 306.1 283 300.4Z" fill="black"/>
</g>
<path d="M320 251.4C319.8 251.4 320 248 319.6 243.8C319.2 239.6 318.4 236.3 318.5 236.2C318.6 236.2 318.9 237 319.2 238.3C319.5 239.7 319.9 241.5 320.1 243.7C320.3 245.8 320.3 247.7 320.2 249.1C320.2 250.6 320.1 251.4 320 251.4Z" fill="#263238"/>
<path d="M201.4 385.3C201.4 385.3 190.5 387.6 180.8 386.2C171.7 384.8 151.3 386.2 151.3 398.2C151.3 411.6 178.5 408.3 189.1 406.1C199.7 404 210.3 402.1 210.3 402.1L201.4 385.3Z" fill="#FF7213"/>
<path d="M177 402.4C176.9 402.4 176.3 400.3 175.7 397.7C175.1 395.1 174.8 393 174.9 392.9C175 392.9 175.6 395 176.2 397.6C176.8 400.2 177.1 402.4 177 402.4Z" fill="#263238"/>
<path d="M180.7 402.6C180.6 402.6 180.1 400.5 179.8 397.8C179.4 395.1 179.3 393 179.4 393C179.5 393 180 395.1 180.3 397.8C180.7 400.4 180.8 402.5 180.7 402.6Z" fill="#263238"/>
<path d="M184.3 401.2C184.2 401.2 183.8 399.4 183.5 397C183.2 394.7 183.1 392.8 183.3 392.8C183.4 392.8 183.8 394.6 184.1 397C184.3 399.3 184.4 401.1 184.3 401.2Z" fill="#263238"/>
<path d="M189.9 399.8C189.8 399.9 189 398.3 188.5 396.2C188 394.1 188 392.4 188.1 392.4C188.2 392.4 188.5 394.1 189 396.1C189.5 398.1 190 399.7 189.9 399.8Z" fill="#263238"/>
<path d="M191.1 394.9C191.1 394.9 191.6 394.8 192.5 394.8C193.4 394.8 194.8 395 196.3 395.5C196.7 395.6 197.1 395.8 197.5 396.1C197.9 396.4 198.2 396.9 198.2 397.4C198.2 398.6 196.9 399.4 195.7 399.2C194.5 399 193.6 398.1 192.9 397.2C192.1 396.3 191.6 395.1 191.3 393.9C190.7 391.4 191.1 388.8 192.5 387C192.7 386.8 193 386.6 193.3 386.5C193.6 386.4 194 386.6 194.2 386.8C194.6 387.2 194.8 387.8 194.9 388.3C195 389.3 195 390.2 194.8 391C194.4 392.6 193.6 393.8 193 394.4C192.7 394.7 192.4 395 192.2 395.1C192 395.2 191.9 395.3 191.9 395.3C191.9 395.3 192.3 395 192.9 394.3C193.5 393.6 194.2 392.5 194.5 390.9C194.7 390.1 194.7 389.2 194.6 388.3C194.5 387.9 194.4 387.4 194 387.1C193.7 386.8 193.3 386.9 193 387.3C191.8 389 191.4 391.4 191.9 393.8C192.2 395 192.7 396.1 193.4 397C194.1 397.9 194.9 398.7 195.9 398.9C196.8 399.1 197.9 398.4 197.8 397.6C197.8 397.2 197.6 396.8 197.2 396.6C196.9 396.3 196.5 396.1 196.1 396C194.6 395.4 193.3 395.2 192.4 395.1C191.6 394.9 191.1 394.9 191.1 394.9Z" fill="#263238"/>
<path d="M209.2 400.3C209.2 400.3 209.1 400.3 208.9 400.4C208.7 400.5 208.4 400.5 208.1 400.6C207.3 400.8 206.3 401 204.9 401.3C202.2 401.9 198.2 402.7 193.2 403.7C188.3 404.6 182.4 405.7 175.7 406.6C172.4 407 168.9 407.4 165.2 407.1C163.4 407 161.5 406.7 159.7 406C158.8 405.7 157.9 405.3 157.1 404.8C156.3 404.3 155.4 403.8 154.8 402.9C154.5 402.6 154.1 402.2 153.9 401.8C152.8 400 152.8 397.8 153.3 395.9C153.9 394 155.3 392.5 156.8 391.3C158.3 390.2 160 389.4 161.8 388.8C162.7 388.6 163.5 388.3 164.4 388.1C165.3 387.9 166.1 387.7 167 387.6C173.8 386.5 180 387.1 185.2 387.1C187.8 387.1 190.1 387.1 192.2 387C194.2 386.8 196 386.6 197.4 386.3C198.1 386.2 198.7 386 199.3 385.9C199.8 385.8 200.3 385.6 200.6 385.5C200.9 385.4 201.2 385.3 201.4 385.3C201.6 385.3 201.7 385.2 201.7 385.2C201.7 385.2 201.6 385.2 201.4 385.3C201.2 385.4 200.9 385.5 200.6 385.6C200.2 385.7 199.8 385.9 199.3 386C198.8 386.1 198.1 386.3 197.4 386.4C196 386.7 194.2 387 192.2 387.1C190.1 387.3 187.8 387.3 185.2 387.3C180 387.3 173.8 386.8 167.1 387.9C166.3 388 165.4 388.2 164.6 388.4C163.8 388.6 162.9 388.9 162.1 389.1C160.4 389.7 158.8 390.4 157.3 391.5C155.8 392.6 154.6 394 154 395.8C153.4 397.6 153.5 399.6 154.5 401.2C154.7 401.6 155.1 401.9 155.4 402.2C156 402.9 156.8 403.5 157.5 403.9C158.3 404.4 159.2 404.7 160 405C161.8 405.6 163.6 405.9 165.4 406C169 406.3 172.5 405.9 175.8 405.5C182.4 404.6 188.3 403.6 193.3 402.7C198.2 401.8 202.2 401 205 400.5C206.3 400.2 207.4 400 208.2 399.9C208.5 399.8 208.8 399.8 209 399.7C209.1 400.3 209.2 400.3 209.2 400.3Z" fill="#263238"/>
<path d="M169.5 406.8C169.4 406.8 169.4 405.7 169.2 404C169.1 402.3 168.9 399.9 168.5 397.3C168.2 394.7 167.7 392.4 167.4 390.7C167.1 389 166.8 388 166.9 388C167 388 167.3 389 167.7 390.7C168.1 392.4 168.6 394.7 169 397.3C169.3 399.9 169.5 402.3 169.5 404C169.6 405.7 169.5 406.8 169.5 406.8Z" fill="#263238"/>
<path opacity="0.4" d="M198 385.8L204.9 403.1L210.3 402.1L200 385.3L198 385.8Z" fill="black"/>
<path d="M287.8 338.6C286.7 339 215.5 319 186.7 310.9C179.1 308.8 171 310 164.4 314.3L164.1 314.5C154.4 320.8 149.7 332.4 152.3 343.7C154 350.8 158.4 357 164.6 360.8C183.6 372.4 223.8 396.9 225 396.4C226.6 395.8 276.8 394.5 276.8 394.5L216.5 351L245.2 369.6L287.8 338.6Z" fill="#263238"/>
<path d="M228.4 316.9L243.5 309.1L258.3 318.4L313.8 320.2L321.8 347.2L241.4 328.6C241.4 328.6 226.8 329.9 225.7 326.6C224.7 323.3 228.4 316.9 228.4 316.9Z" fill="#FFBE9D"/>
<path d="M273.9 360.2L266.4 384.8L267.3 392.3C280.9 406 302.6 407.5 318 395.7C327.3 388.5 332.8 377.4 332.7 365.7L332.6 340L273.9 360.2Z" fill="#263238"/>
<path d="M229.3 360.4C229.2 360.5 220.5 354.2 209.9 346.3C199.3 338.4 190.7 331.9 190.8 331.7C190.9 331.6 199.6 337.9 210.2 345.8C220.9 353.8 229.4 360.3 229.3 360.4Z" fill="#455A64"/>
<path d="M242.5 314C242.5 314.1 239.2 315.3 235.1 316.6C231 317.9 227.6 318.9 227.5 318.7C227.5 318.6 230.8 317.4 234.9 316.1C239.1 314.8 242.4 313.8 242.5 314Z" fill="#EB996E"/>
<path d="M243.6 318.6C243.6 318.7 242.6 318.8 241 319.1C239.4 319.4 237.2 319.8 234.8 320.3C232.4 320.9 230.3 321.5 228.7 321.9C227.2 322.4 226.2 322.7 226.2 322.6C226.2 322.5 227.1 322.1 228.6 321.6C230.1 321 232.3 320.4 234.7 319.8C237.1 319.2 239.3 318.9 241 318.7C242.6 318.5 243.6 318.5 243.6 318.6Z" fill="#EB996E"/>
<path d="M242.3 322.8C242.3 322.9 238.6 323.8 234 324.7C229.4 325.6 225.6 326.2 225.6 326.1C225.6 326 229.3 325.1 233.9 324.2C238.5 323.3 242.3 322.7 242.3 322.8Z" fill="#EB996E"/>
<path d="M222.7 280.6L236.7 326.5C236.9 327 237.3 327.4 237.9 327.4L275.9 330.3C276.6 330.4 277.1 330.9 277.1 331.6V334C277.1 334.7 276.5 335.3 275.7 335.3L171.7 333.3C171.2 333.3 170.7 333 170.5 332.4L152.2 284.5C151.9 283.7 152.5 282.7 153.4 282.7L221.3 279.5C222 279.6 222.5 280 222.7 280.6Z" fill="#455A64"/>
<path d="M193.4 300.4C192.7 300.6 191.5 301.6 191.3 302.7C191.2 303.8 191.7 304.9 192.6 305.6C193.7 306.4 195.3 306.5 196.4 305.7C197.5 304.9 198 303.5 197.4 301.9C197.1 300.6 194.8 299.7 193.4 300.4Z" fill="#E0E0E0"/>
<path d="M210.3 402.1L199.3 384L280.1 320.7C285.1 316.6 291.3 314.1 297.7 313.5C317.8 311.7 334.7 328.4 333 348.5L331.7 363.9L278.1 381.1L210.3 402.1Z" fill="#263238"/>
<path d="M313.9 359.2C313.9 359.2 313.8 359.3 313.7 359.4C313.5 359.5 313.3 359.7 313 359.9C312.4 360.4 311.5 361.1 310.4 362C309.8 362.4 309.2 362.9 308.5 363.5C307.8 364 307 364.5 306.2 365.1C305.4 365.7 304.5 366.3 303.5 366.9C303 367.2 302.5 367.6 302 367.9C301.5 368.2 300.9 368.5 300.4 368.9C298.2 370.2 295.8 371.7 293.1 373.1C291.8 373.8 290.4 374.6 289 375.3C287.6 376 286.1 376.7 284.5 377.4C278.3 380.2 271.5 383 264.1 385.5C249.3 390.6 235.7 394.2 225.9 397.2C223.4 397.9 221.2 398.6 219.3 399.2C217.4 399.8 215.7 400.3 214.3 400.8C213 401.2 211.9 401.6 211.2 401.8C210.9 401.9 210.6 402 210.4 402.1C210.2 402.2 210.1 402.2 210.1 402.2C210.1 402.2 210.2 402.2 210.4 402.1C210.6 402 210.9 401.9 211.2 401.8C211.9 401.5 213 401.2 214.3 400.7C215.6 400.2 217.3 399.7 219.2 399C221.1 398.4 223.3 397.7 225.8 396.9C235.6 393.8 249.2 390.1 263.9 385.1C271.3 382.6 278.2 379.8 284.3 377C285.8 376.3 287.3 375.6 288.8 374.9C290.2 374.2 291.6 373.4 292.9 372.8C295.6 371.5 298 370 300.2 368.7C300.7 368.4 301.3 368.1 301.8 367.8C302.3 367.5 302.8 367.1 303.3 366.8C304.3 366.2 305.2 365.6 306 365C306.8 364.4 307.6 363.9 308.3 363.4C309 362.9 309.6 362.4 310.2 362C311.3 361.2 312.2 360.5 312.8 360C313.1 359.8 313.3 359.6 313.5 359.5C313.8 359.2 313.9 359.2 313.9 359.2Z" fill="#455A64"/>
<path d="M315.8 367.601C315.8 367.601 315.5 367.801 315 368.001C314.5 368.201 313.7 368.601 312.7 368.901C310.7 369.601 307.9 370.501 304.8 371.201C301.6 371.901 298.7 372.201 296.6 372.401C295.5 372.501 294.7 372.501 294.1 372.501C293.5 372.501 293.2 372.501 293.2 372.401C293.2 372.301 294.5 372.201 296.6 372.001C298.7 371.801 301.6 371.401 304.7 370.701C307.8 370.001 310.6 369.201 312.6 368.601C314.6 368.001 315.8 367.601 315.8 367.601Z" fill="#455A64"/>
<path d="M276.8 323.7C276.9 323.8 259.6 337.4 238.2 354C216.8 370.7 199.3 384.1 199.3 383.9C199.2 383.8 216.5 370.2 237.9 353.5C259.3 337 276.8 323.6 276.8 323.7Z" fill="#455A64"/>
<path d="M272.2 390.9C268.3 388.8 264 390.1 260.3 391.3C257.8 392.1 255.3 393.4 252.8 392.7C251 392.2 249.6 390.7 248.3 389.4C242.7 384.2 235 381.4 227.4 381.9C225.2 382 223.1 382.9 221.7 384.5C217.9 388.6 220.8 394 224.2 397.5C230.2 403.6 238.4 407.6 246.9 408.5C254 409.2 263.7 408.3 270.9 405.2C275.3 403.3 277.6 398.1 275.3 393.8C274.4 392.6 273.5 391.6 272.2 390.9Z" fill="#FF7213"/>
<g opacity="0.4">
<path opacity="0.4" d="M272.2 394.2C268.3 392.1 264 393.4 260.3 394.6C257.8 395.4 255.3 396.7 252.8 396C251 395.5 249.6 394 248.3 392.7C242.7 387.5 235 384.7 227.4 385.2C225.2 385.3 223.1 386.2 221.7 387.8C220.9 388.7 220.4 389.7 220.1 390.7C220.7 393.2 222.3 395.6 224.2 397.5C230.2 403.6 238.4 407.6 246.9 408.5C254 409.2 263.7 408.3 270.9 405.2C273.6 404.1 275.4 401.7 276 399.1C275.8 398.4 275.6 397.8 275.3 397.1C274.4 395.9 273.4 394.9 272.2 394.2Z" fill="black"/>
</g>
<path d="M275.8 399.1C275.7 399.1 275.7 398.2 274.9 396.8C274.4 396.1 273.8 395.4 272.8 394.8C271.9 394.2 270.6 393.6 269.2 393.4C266.3 393.1 263 394.3 259.3 395.3C257.5 395.8 255.5 396.5 253.3 396.3C252.2 396.2 251.2 395.8 250.2 395.2C249.2 394.6 248.4 393.9 247.5 393.2C244.3 390.1 240.5 388.1 236.9 386.9C235.1 386.3 233.3 385.9 231.6 385.7C229.9 385.5 228.3 385.5 226.9 385.7C225.5 385.9 224.3 386.4 223.3 387C222.3 387.6 221.6 388.3 221.1 388.9C220.1 390.1 219.7 391 219.7 391C219.7 391 220 390.1 221 388.8C221.5 388.2 222.2 387.4 223.2 386.8C224.2 386.2 225.5 385.7 226.9 385.4C228.4 385.1 230 385.2 231.7 385.4C233.4 385.6 235.2 386 237.1 386.6C238.9 387.2 240.8 388 242.7 389.1C243.6 389.6 244.5 390.2 245.4 390.9C246.3 391.6 247.1 392.3 247.9 393C248.7 393.7 249.6 394.4 250.5 395C251.4 395.5 252.4 395.9 253.4 396C255.4 396.3 257.4 395.6 259.2 395.1C262.9 394.1 266.3 392.9 269.3 393.3C272.3 393.8 274.2 395.6 275.1 396.9C275.5 397.6 275.7 398.2 275.8 398.7C275.9 398.9 275.9 399.1 275.8 399.1Z" fill="#263238"/>
<path d="M275.8 399.1C275.7 399.1 275.7 398.2 274.9 396.8C274.4 396.1 273.8 395.4 272.8 394.8C271.9 394.2 270.6 393.6 269.2 393.4C266.3 393.1 263 394.3 259.3 395.3C257.5 395.8 255.5 396.5 253.3 396.3C252.2 396.2 251.2 395.8 250.2 395.2C249.2 394.6 248.4 393.9 247.5 393.2C244.3 390.1 240.5 388.1 236.9 386.9C235.1 386.3 233.3 385.9 231.6 385.7C229.9 385.5 228.3 385.5 226.9 385.7C225.5 385.9 224.3 386.4 223.3 387C222.3 387.6 221.6 388.3 221.1 388.9C220.1 390.1 219.7 391 219.7 391C219.7 391 220 390.1 221 388.8C221.5 388.2 222.2 387.4 223.2 386.8C224.2 386.2 225.5 385.7 226.9 385.4C228.4 385.1 230 385.2 231.7 385.4C233.4 385.6 235.2 386 237.1 386.6C238.9 387.2 240.8 388 242.7 389.1C243.6 389.6 244.5 390.2 245.4 390.9C246.3 391.6 247.1 392.3 247.9 393C248.7 393.7 249.6 394.4 250.5 395C251.4 395.5 252.4 395.9 253.4 396C255.4 396.3 257.4 395.6 259.2 395.1C262.9 394.1 266.3 392.9 269.3 393.3C272.3 393.8 274.2 395.6 275.1 396.9C275.5 397.6 275.7 398.2 275.8 398.7C275.9 398.9 275.9 399.1 275.8 399.1Z" fill="#263238"/>
<path d="M227.8 398.201C227.8 398.101 228.5 397.601 229.8 396.801C231.1 396.001 232.9 395.001 234.9 394.101C237 393.101 238.9 392.401 240.3 391.901C241.7 391.401 242.6 391.201 242.6 391.201C242.6 391.301 241.8 391.601 240.4 392.201C239 392.801 237.1 393.601 235.1 394.501C233.1 395.501 231.2 396.401 229.9 397.101C228.6 397.801 227.8 398.301 227.8 398.201Z" fill="#263238"/>
<path d="M229.1 402.101C229 402.001 232.4 400.201 236.7 398.201C240.9 396.101 244.4 394.601 244.5 394.701C244.6 394.801 241.2 396.601 236.9 398.601C232.7 400.601 229.2 402.201 229.1 402.101Z" fill="#263238"/>
<path d="M245.2 403.8C245.1 403.9 241 401.5 236 398.3C231 395.1 227 392.5 227.1 392.4C227.2 392.3 231.3 394.7 236.3 397.9C241.2 401 245.2 403.6 245.2 403.8Z" fill="#263238"/>
<path d="M247.5 399.7C247.5 399.8 246.7 399.2 245.5 398.3C244.3 397.4 242.6 396.2 240.7 394.9C238.8 393.6 237.1 392.5 235.9 391.6C234.7 390.8 233.9 390.2 233.9 390.2C233.9 390.1 234.8 390.6 236.1 391.3C237.4 392.1 239.2 393.2 241 394.5C242.9 395.8 244.5 397.1 245.7 398C246.9 399 247.5 399.7 247.5 399.7Z" fill="#263238"/>
</g>
<defs>
<clipPath id="clip0_460_420">
<rect width="460.3" height="408.8" fill="white"/>
</clipPath>
</defs>
</svg>
