<svg width="156" height="39" viewBox="0 0 156 39" fill="none" xmlns="http://www.w3.org/2000/svg">
<path d="M13.2952 36.2888C11.9966 36.2888 10.8278 35.9296 9.78881 35.2114C8.78233 34.4931 8.05182 33.53 7.59729 32.322L0 10.725H6.08757L12.5647 30.1182C12.7271 30.5426 12.9868 30.7549 13.344 30.7549C13.6686 30.7549 13.9284 30.5426 14.1232 30.1182L20.649 10.725H26.6392L18.9932 32.322C18.5387 33.53 17.7919 34.4931 16.753 35.2114C15.7465 35.9296 14.5939 36.2888 13.2952 36.2888Z" fill="white"/>
<path d="M60.1288 35.7011V10.725H65.7294V35.7011H60.1288ZM62.9047 7.24796C61.9307 7.24796 61.0866 6.88883 60.3723 6.17056C59.658 5.45229 59.3009 4.60343 59.3009 3.62398C59.3009 2.64452 59.658 1.79566 60.3723 1.0774C61.0866 0.359133 61.9307 0 62.9047 0C63.9112 0 64.7554 0.359133 65.4372 1.0774C66.1515 1.79566 66.5086 2.64452 66.5086 3.62398C66.5086 4.60343 66.1515 5.45229 65.4372 6.17056C64.7554 6.88883 63.9112 7.24796 62.9047 7.24796Z" fill="white"/>
<path d="M76.4888 35.7011C75.4174 35.7011 74.4596 35.4399 73.6154 34.9175C72.7713 34.3952 72.0895 33.6932 71.57 32.8117C71.083 31.9302 70.8395 30.9671 70.8395 29.9223C70.8395 28.8449 71.0992 27.8981 71.6187 27.0819C72.1382 26.233 72.8525 25.4985 73.7616 24.8781L84.5731 17.7771C84.8653 17.5812 85.0601 17.4016 85.1575 17.2384C85.2549 17.0425 85.3036 16.8466 85.3036 16.6507C85.3036 16.3569 85.1899 16.0957 84.9627 15.8672C84.7679 15.6386 84.4919 15.5243 84.1348 15.5243H72.057V10.725H85.7906C86.8295 10.725 87.7711 10.9862 88.6152 11.5086C89.4594 12.031 90.1249 12.7329 90.6119 13.6144C91.1314 14.4959 91.3912 15.459 91.3912 16.5038C91.3912 17.5485 91.1314 18.4954 90.6119 19.3442C90.0925 20.1931 89.3782 20.9277 88.4691 21.548L77.7063 28.649C77.4141 28.8449 77.2031 29.0408 77.0732 29.2367C76.9758 29.3999 76.9271 29.5795 76.9271 29.7754C76.9271 30.0692 77.0407 30.3304 77.268 30.559C77.4953 30.7875 77.7875 30.9018 78.1446 30.9018H90.9041V35.7011H76.4888Z" fill="white"/>
<path d="M109.742 35.7011C106.95 35.7011 104.499 35.1787 102.388 34.134C100.31 33.0566 98.6871 31.5874 97.5183 29.7264C96.3495 27.8328 95.7651 25.6617 95.7651 23.2131C95.7651 20.6338 96.2845 18.3648 97.3235 16.4059C98.3624 14.4469 99.791 12.9125 101.609 11.8024C103.427 10.6924 105.521 10.1373 107.892 10.1373C110.554 10.1373 112.745 10.7087 114.466 11.8514C116.187 12.9941 117.453 14.5286 118.265 16.4548C119.109 18.3811 119.531 20.5359 119.531 22.9192C119.531 23.7028 119.466 24.4047 119.336 25.025H101.707C101.999 26.9513 102.892 28.4205 104.385 29.4326C105.879 30.412 107.664 30.9018 109.742 30.9018H116.414V35.7011H109.742ZM101.658 21.2052H113.93C113.898 20.1604 113.671 19.1483 113.249 18.1689C112.826 17.1568 112.177 16.3406 111.301 15.7202C110.456 15.0999 109.32 14.7898 107.892 14.7898C106.593 14.7898 105.489 15.1162 104.58 15.7692C103.703 16.3895 103.021 17.1894 102.534 18.1689C102.047 19.1483 101.755 20.1604 101.658 21.2052Z" fill="white"/>
<path d="M137.326 35.7011C134.534 35.7011 132.083 35.1787 129.973 34.134C127.895 33.0566 126.271 31.5874 125.103 29.7264C123.934 27.8328 123.349 25.6617 123.349 23.2131C123.349 20.6338 123.869 18.3648 124.908 16.4059C125.947 14.4469 127.375 12.9125 129.193 11.8024C131.012 10.6924 133.106 10.1373 135.476 10.1373C138.138 10.1373 140.33 10.7087 142.05 11.8514C143.771 12.9941 145.037 14.5286 145.849 16.4548C146.693 18.3811 147.115 20.5359 147.115 22.9192C147.115 23.7028 147.05 24.4047 146.92 25.025H129.291C129.583 26.9513 130.476 28.4205 131.969 29.4326C133.463 30.412 135.249 30.9018 137.326 30.9018H143.998V35.7011H137.326ZM129.242 21.2052H141.515C141.482 20.1604 141.255 19.1483 140.833 18.1689C140.411 17.1568 139.761 16.3406 138.885 15.7202C138.041 15.0999 136.904 14.7898 135.476 14.7898C134.177 14.7898 133.073 15.1162 132.164 15.7692C131.288 16.3895 130.606 17.1894 130.119 18.1689C129.632 19.1483 129.34 20.1604 129.242 21.2052Z" fill="white"/>
<path fill-rule="evenodd" clip-rule="evenodd" d="M44.5177 36.0443C45.9626 35.7764 47.3008 35.2883 48.5323 34.5801C50.5455 33.4084 52.1204 31.8462 53.2569 29.8934C54.3934 27.9081 54.9616 25.695 54.9616 23.254C54.9616 20.813 54.3934 18.6162 53.2569 16.6634C52.1204 14.6781 50.5455 13.1158 48.5323 11.9767C46.5516 10.8051 44.2949 10.2192 41.7621 10.2192C39.1969 10.2192 36.9077 10.8051 34.8945 11.9767C32.9137 13.1158 31.3551 14.6781 30.2186 16.6634C29.0822 18.6162 28.5139 20.813 28.5139 23.254C28.5139 25.695 29.0822 27.9081 30.2186 29.8934C30.4313 30.2589 30.6588 30.6106 30.901 30.9487C31.1579 29.6755 31.6068 28.3328 32.3304 27.2068C32.9352 26.2657 33.6439 25.5989 34.3298 25.1271C34.2192 24.5261 34.1639 23.9017 34.1639 23.254C34.1639 21.7243 34.4724 20.3411 35.0893 19.1044C35.7387 17.8351 36.6154 16.8424 37.7195 16.1264C38.856 15.3778 40.2035 15.0035 41.7621 15.0035C43.2883 15.0035 44.6196 15.3778 45.7561 16.1264C46.8925 16.8424 47.7693 17.8351 48.3862 19.1044C49.0032 20.3411 49.3116 21.7243 49.3116 23.254C49.3116 24.7837 49.0032 26.1832 48.3862 27.4525C47.9374 28.3521 47.3512 29.1226 46.6275 29.7639C46.5482 30.4688 46.406 31.4432 46.1522 32.7392C45.8645 34.2087 45.1832 35.2937 44.5177 36.0443Z" fill="#AEAEAE"/>
<path d="M36.0346 28.2006C34.5612 28.4425 33.5413 29.839 33.5413 31.3456V33.4524C34.7806 33.4524 35.7887 32.4348 35.7887 31.1839V30.4278H37.2871V31.1839C37.2871 33.2686 35.6066 34.9648 33.5413 34.9648V37.2333H34.2904C37.1867 37.2333 39.5346 34.8635 39.5346 31.9401V31.1839C39.5346 29.3468 37.912 27.8924 36.0346 28.2006Z" fill="#AEAEAE"/>
<path d="M47.026 23.0595C47.026 22.0732 45.7503 21.1035 44.8794 20.791V23.8157H47.026V23.0595Z" fill="#AEAEAE"/>
<path fill-rule="evenodd" clip-rule="evenodd" d="M40.2836 20.5474H44.0295V30.428C44.0295 32.9381 42.2938 35.0292 39.971 35.5734C40.6348 34.5198 41.0328 33.2789 41.0328 31.9404V31.1842C41.0328 28.6826 39.0168 26.6476 36.5378 26.6473V24.3282C36.5378 22.2401 38.2149 20.5474 40.2836 20.5474ZM41.5021 24.1998C42.035 24.1998 42.467 23.7638 42.467 23.2258C42.467 22.6879 42.035 22.2519 41.5021 22.2519C40.9691 22.2519 40.5371 22.6879 40.5371 23.2258C40.5371 23.7638 40.9691 24.1998 41.5021 24.1998Z" fill="#AEAEAE"/>
<path d="M155.752 35.2892V32.0576H154.946L154.007 34.5127L153.053 32.0576H152.238V35.2892H152.766V32.591H152.781L153.829 35.2892H154.162L155.209 32.591H155.225V35.2892H155.752ZM151.587 32.489V32.0576H149.058V32.489H150.059V35.2892H150.586V32.489H151.587Z" fill="white"/>
<path d="M151.48 10.4689V9.3786H152.179C152.266 9.3786 152.354 9.38644 152.442 9.40213C152.535 9.41258 152.616 9.43612 152.683 9.47272C152.755 9.50932 152.812 9.56161 152.853 9.62959C152.9 9.69757 152.923 9.78908 152.923 9.90411C152.923 10.0401 152.897 10.1473 152.846 10.2257C152.799 10.2989 152.734 10.3538 152.652 10.3904C152.569 10.427 152.473 10.4506 152.365 10.461C152.261 10.4662 152.15 10.4689 152.031 10.4689H151.48ZM150.953 8.9472V12.3748H151.48V10.9002H152.039L152.962 12.3748H153.528L152.559 10.861C152.812 10.8349 153.024 10.7512 153.195 10.61C153.365 10.4636 153.451 10.2362 153.451 9.92765C153.451 9.59822 153.352 9.35245 153.156 9.19035C152.965 9.02825 152.667 8.9472 152.264 8.9472H150.953ZM149.689 10.6493C149.689 10.2989 149.748 9.97209 149.867 9.66881C149.991 9.36552 150.159 9.10407 150.371 8.88445C150.588 8.6596 150.842 8.48443 151.131 8.35893C151.426 8.2282 151.744 8.16284 152.085 8.16284C152.422 8.16284 152.734 8.2282 153.024 8.35893C153.314 8.48443 153.564 8.6596 153.776 8.88445C153.994 9.10407 154.162 9.36552 154.281 9.66881C154.405 9.97209 154.467 10.2989 154.467 10.6493C154.467 11.0101 154.405 11.3447 154.281 11.6532C154.162 11.9565 153.994 12.2206 153.776 12.4454C153.564 12.6703 153.314 12.8481 153.024 12.9788C152.734 13.1043 152.422 13.167 152.085 13.167C151.744 13.167 151.426 13.1043 151.131 12.9788C150.842 12.8481 150.588 12.6703 150.371 12.4454C150.159 12.2206 149.991 11.9565 149.867 11.6532C149.748 11.3447 149.689 11.0101 149.689 10.6493ZM149.161 10.6493C149.161 11.0728 149.239 11.465 149.394 11.8258C149.549 12.1814 149.758 12.4925 150.022 12.7592C150.291 13.0206 150.601 13.2246 150.953 13.371C151.31 13.5174 151.687 13.5906 152.085 13.5906C152.484 13.5906 152.859 13.5174 153.21 13.371C153.562 13.2246 153.87 13.0206 154.133 12.7592C154.397 12.4925 154.606 12.1814 154.762 11.8258C154.917 11.465 154.994 11.0728 154.994 10.6493C154.994 10.2362 154.917 9.85182 154.762 9.49625C154.606 9.14067 154.397 8.83216 154.133 8.57071C153.87 8.30926 153.562 8.10532 153.21 7.95891C152.859 7.80727 152.484 7.73145 152.085 7.73145C151.687 7.73145 151.31 7.80727 150.953 7.95891C150.601 8.10532 150.291 8.30926 150.022 8.57071C149.758 8.83216 149.549 9.14067 149.394 9.49625C149.239 9.85182 149.161 10.2362 149.161 10.6493Z" fill="white"/>
</svg>
