<svg width="212" height="53" viewBox="0 0 212 53" fill="none" xmlns="http://www.w3.org/2000/svg">
<path d="M18.0679 49.3155C16.303 49.3155 14.7146 48.8275 13.3027 47.8514C11.935 46.8752 10.9422 45.5664 10.3245 43.9247L0 14.575H8.27285L17.0752 40.9299C17.2958 41.5067 17.6487 41.7951 18.1341 41.7951C18.5753 41.7951 18.9283 41.5067 19.193 40.9299L28.0615 14.575H36.202L25.8113 43.9247C25.1936 45.5664 24.1788 46.8752 22.7669 47.8514C21.3991 48.8275 19.8328 49.3155 18.0679 49.3155Z" fill="#FF7A00"/>
<path d="M81.7135 48.5169V14.575H89.3245V48.5169H81.7135ZM85.4859 9.84979C84.1623 9.84979 83.0151 9.36174 82.0444 8.38563C81.0738 7.40953 80.5884 6.25595 80.5884 4.9249C80.5884 3.59384 81.0738 2.44026 82.0444 1.46416C83.0151 0.488053 84.1623 0 85.4859 0C86.8537 0 88.0009 0.488053 88.9274 1.46416C89.8981 2.44026 90.3835 3.59384 90.3835 4.9249C90.3835 6.25595 89.8981 7.40953 88.9274 8.38563C88.0009 9.36174 86.8537 9.84979 85.4859 9.84979Z" fill="#FF7A00"/>
<path d="M103.946 48.5169C102.49 48.5169 101.189 48.1619 100.042 47.452C98.8943 46.7421 97.9678 45.7882 97.2618 44.5903C96.6 43.3923 96.2691 42.0835 96.2691 40.6637C96.2691 39.1995 96.6221 37.9128 97.328 36.8036C98.034 35.65 99.0046 34.6517 100.24 33.8087L114.933 24.1586C115.33 23.8924 115.594 23.6484 115.727 23.4265C115.859 23.1603 115.925 22.8941 115.925 22.6279C115.925 22.2286 115.771 21.8736 115.462 21.5631C115.197 21.2525 114.822 21.0972 114.337 21.0972H97.9236V14.575H116.587C117.999 14.575 119.279 14.93 120.426 15.6399C121.573 16.3498 122.477 17.3037 123.139 18.5016C123.845 19.6996 124.198 21.0084 124.198 22.4282C124.198 23.848 123.845 25.1347 123.139 26.2883C122.433 27.4419 121.463 28.4402 120.227 29.2832L105.601 38.9333C105.204 39.1995 104.917 39.4657 104.74 39.7319C104.608 39.9538 104.542 40.1978 104.542 40.464C104.542 40.8633 104.696 41.2183 105.005 41.5289C105.314 41.8394 105.711 41.9947 106.197 41.9947H123.536V48.5169H103.946Z" fill="#FF7A00"/>
<path d="M149.137 48.5169C145.342 48.5169 142.011 47.807 139.143 46.3872C136.319 44.923 134.113 42.9265 132.525 40.3975C130.936 37.8241 130.142 34.8736 130.142 31.5459C130.142 28.0408 130.848 24.9572 132.26 22.2951C133.672 19.633 135.613 17.5477 138.084 16.0392C140.555 14.5307 143.401 13.7764 146.622 13.7764C150.24 13.7764 153.218 14.5528 155.556 16.1057C157.895 17.6586 159.616 19.7439 160.719 22.3617C161.866 24.9794 162.439 27.9077 162.439 31.1466C162.439 32.2115 162.351 33.1654 162.175 34.0084H138.217C138.614 36.6261 139.827 38.6227 141.857 39.9981C143.886 41.3292 146.313 41.9947 149.137 41.9947H158.204V48.5169H149.137ZM138.15 28.8173H154.828C154.784 27.3975 154.475 26.0221 153.902 24.691C153.328 23.3156 152.446 22.2064 151.255 21.3634C150.107 20.5204 148.563 20.0989 146.622 20.0989C144.857 20.0989 143.357 20.5426 142.121 21.43C140.93 22.2729 140.004 23.36 139.342 24.691C138.68 26.0221 138.283 27.3975 138.15 28.8173Z" fill="#FF7A00"/>
<path d="M186.623 48.5169C182.829 48.5169 179.497 47.807 176.629 46.3872C173.806 44.923 171.6 42.9265 170.011 40.3975C168.423 37.8241 167.629 34.8736 167.629 31.5459C167.629 28.0408 168.335 24.9572 169.746 22.2951C171.158 19.633 173.1 17.5477 175.571 16.0392C178.041 14.5307 180.887 13.7764 184.108 13.7764C187.726 13.7764 190.704 14.5528 193.043 16.1057C195.381 17.6586 197.102 19.7439 198.205 22.3617C199.352 24.9794 199.926 27.9077 199.926 31.1466C199.926 32.2115 199.838 33.1654 199.661 34.0084H175.703C176.1 36.6261 177.313 38.6227 179.343 39.9981C181.373 41.3292 183.799 41.9947 186.623 41.9947H195.69V48.5169H186.623ZM175.637 28.8173H192.315C192.271 27.3975 191.962 26.0221 191.388 24.691C190.815 23.3156 189.932 22.2064 188.741 21.3634C187.594 20.5204 186.049 20.0989 184.108 20.0989C182.343 20.0989 180.843 20.5426 179.608 21.43C178.416 22.2729 177.49 23.36 176.828 24.691C176.166 26.0221 175.769 27.3975 175.637 28.8173Z" fill="#FF7A00"/>
<path fill-rule="evenodd" clip-rule="evenodd" d="M60.4982 48.9833C62.4618 48.6192 64.2804 47.9559 65.954 46.9935C68.6899 45.4012 70.8301 43.2782 72.3746 40.6244C73.919 37.9264 74.6912 34.9188 74.6912 31.6016C74.6912 28.2844 73.919 25.2989 72.3746 22.6451C70.8301 19.9471 68.6899 17.8241 65.954 16.2761C63.2623 14.6838 60.1954 13.8877 56.7535 13.8877C53.2674 13.8877 50.1564 14.6838 47.4205 16.2761C44.7288 17.8241 42.6107 19.9471 41.0662 22.6451C39.5217 25.2989 38.7495 28.2844 38.7495 31.6016C38.7495 34.9188 39.5217 37.9264 41.0662 40.6244C41.3552 41.121 41.6643 41.5991 41.9935 42.0585C42.3426 40.3282 42.9527 38.5035 43.936 36.9734C44.7579 35.6944 45.7211 34.7882 46.6532 34.1471C46.5028 33.3303 46.4277 32.4818 46.4277 31.6016C46.4277 29.5228 46.8469 27.6431 47.6853 25.9623C48.5678 24.2374 49.7593 22.8884 51.2596 21.9153C52.8041 20.8981 54.6354 20.3894 56.7535 20.3894C58.8275 20.3894 60.6367 20.8981 62.1811 21.9153C63.7256 22.8884 64.917 24.2374 65.7554 25.9623C66.5939 27.6431 67.0131 29.5228 67.0131 31.6016C67.0131 33.6804 66.5939 35.5823 65.7554 37.3072C65.1456 38.5298 64.3489 39.5769 63.3654 40.4484C63.2577 41.4064 63.0644 42.7305 62.7195 44.4917C62.3285 46.4887 61.4026 47.9632 60.4982 48.9833Z" fill="#43AC17"/>
<path d="M48.9699 38.3241C46.9676 38.6529 45.5815 40.5507 45.5815 42.5982V45.4612C47.2657 45.4612 48.6358 44.0783 48.6358 42.3784V41.3508H50.672V42.3784C50.672 45.2114 48.3883 47.5165 45.5815 47.5165V50.5993H46.5996C50.5356 50.5993 53.7263 47.3788 53.7263 43.406V42.3784C53.7263 39.8817 51.5213 37.9052 48.9699 38.3241Z" fill="#43AC17"/>
<path d="M63.907 31.337C63.907 29.9966 62.1732 28.6788 60.9897 28.2542V32.3646H63.907V31.337Z" fill="#43AC17"/>
<path fill-rule="evenodd" clip-rule="evenodd" d="M54.7443 27.9231H59.8347V41.3506C59.8347 44.7618 57.476 47.6036 54.3194 48.343C55.2215 46.9112 55.7624 45.2249 55.7624 43.4059V42.3783C55.7624 38.9787 53.0226 36.2132 49.6538 36.2127V33.0612C49.6538 30.2235 51.9328 27.9231 54.7443 27.9231ZM56.4001 32.8867C57.1243 32.8867 57.7114 32.2941 57.7114 31.5631C57.7114 30.8321 57.1243 30.2395 56.4001 30.2395C55.6758 30.2395 55.0887 30.8321 55.0887 31.5631C55.0887 32.2941 55.6758 32.8867 56.4001 32.8867Z" fill="#43AC17"/>
<path d="M211.663 47.9568V43.5652H210.567L209.291 46.9015L207.995 43.5652H206.888V47.9568H207.605V44.29H207.626L209.049 47.9568H209.502L210.925 44.29H210.946V47.9568H211.663ZM206.002 44.1514V43.5652H202.566V44.1514H203.926V47.9568H204.643V44.1514H206.002Z" fill="#F17D29"/>
<path d="M205.858 14.2271V12.7455H206.807C206.926 12.7455 207.046 12.7562 207.165 12.7775C207.292 12.7917 207.4 12.8237 207.492 12.8734C207.59 12.9232 207.668 12.9942 207.724 13.0866C207.787 13.179 207.819 13.3033 207.819 13.4597C207.819 13.6444 207.783 13.7901 207.713 13.8967C207.65 13.9962 207.562 14.0708 207.45 14.1206C207.337 14.1703 207.207 14.2023 207.06 14.2165C206.919 14.2236 206.768 14.2271 206.606 14.2271H205.858ZM205.141 12.1593V16.8173H205.858V14.8134H206.617L207.871 16.8173H208.641L207.323 14.7601C207.668 14.7246 207.956 14.6109 208.188 14.419C208.419 14.22 208.535 13.9109 208.535 13.4917C208.535 13.044 208.402 12.71 208.135 12.4897C207.875 12.2694 207.471 12.1593 206.923 12.1593H205.141ZM203.423 14.4723C203.423 13.9962 203.504 13.5521 203.665 13.1399C203.834 12.7277 204.062 12.3724 204.351 12.074C204.646 11.7684 204.99 11.5304 205.384 11.3598C205.784 11.1822 206.216 11.0933 206.68 11.0933C207.137 11.0933 207.562 11.1822 207.956 11.3598C208.349 11.5304 208.69 11.7684 208.978 12.074C209.273 12.3724 209.502 12.7277 209.663 13.1399C209.832 13.5521 209.916 13.9962 209.916 14.4723C209.916 14.9626 209.832 15.4174 209.663 15.8367C209.502 16.2488 209.273 16.6077 208.978 16.9133C208.69 17.2188 208.349 17.4604 207.956 17.6381C207.562 17.8086 207.137 17.8939 206.68 17.8939C206.216 17.8939 205.784 17.8086 205.384 17.6381C204.99 17.4604 204.646 17.2188 204.351 16.9133C204.062 16.6077 203.834 16.2488 203.665 15.8367C203.504 15.4174 203.423 14.9626 203.423 14.4723ZM202.706 14.4723C202.706 15.0479 202.811 15.5809 203.022 16.0712C203.233 16.5544 203.518 16.9772 203.876 17.3396C204.242 17.6949 204.663 17.9721 205.141 18.1711C205.626 18.37 206.139 18.4695 206.68 18.4695C207.221 18.4695 207.731 18.37 208.209 18.1711C208.687 17.9721 209.105 17.6949 209.463 17.3396C209.822 16.9772 210.106 16.5544 210.317 16.0712C210.528 15.5809 210.633 15.0479 210.633 14.4723C210.633 13.9109 210.528 13.3886 210.317 12.9054C210.106 12.4222 209.822 12.0029 209.463 11.6476C209.105 11.2923 208.687 11.0152 208.209 10.8162C207.731 10.6101 207.221 10.5071 206.68 10.5071C206.139 10.5071 205.626 10.6101 205.141 10.8162C204.663 11.0152 204.242 11.2923 203.876 11.6476C203.518 12.0029 203.233 12.4222 203.022 12.9054C202.811 13.3886 202.706 13.9109 202.706 14.4723Z" fill="#FF8B37"/>
</svg>
