<svg width="149" height="24" viewBox="0 0 149 24" fill="none" xmlns="http://www.w3.org/2000/svg">
<g clip-path="url(#clip0_932_8365)">
<path d="M35.4622 0C30.405 0 27.2227 3.84597 27.2227 8.55742C27.2227 13.3184 30.405 17.2535 35.4622 17.2535C39.557 17.2535 42.4882 14.9666 43.4256 11.3497L40.451 11.3274C39.9919 13.4782 37.7516 14.5753 35.3941 14.5753C32.0755 14.5753 30.1524 11.9898 30.1524 8.55742C30.1524 5.12504 32.1214 2.65354 35.3941 2.65354C37.9955 2.65354 39.7207 4.34868 40.0028 6.33603H42.8547C42.7384 2.49257 39.6499 0 35.4622 0Z" fill="black"/>
<path d="M50.5756 4.61987C47.3277 4.61987 44.7422 7.23008 44.7422 10.7789C44.7422 14.5295 47.3277 16.9787 50.5756 16.9787C53.7558 16.9787 56.3437 14.5295 56.3437 10.7789C56.3437 7.23008 53.7558 4.61987 50.5756 4.61987ZM50.5756 14.5765C48.6985 14.5765 47.3028 13.0448 47.3028 10.7801C47.3028 8.57979 48.6985 7.02455 50.5756 7.02455C52.3849 7.02455 53.7803 8.58099 53.7803 10.7801C53.7803 13.0448 52.3837 14.5765 50.5756 14.5765Z" fill="black"/>
<path d="M71.476 4.39331C69.2868 4.39331 67.7884 5.86804 67.4021 7.45669H67.0605C67.2287 5.95222 65.6514 4.39331 63.6738 4.39331C62.2398 4.39331 61.3768 4.98023 60.7737 5.94108H60.2253C60.2735 5.52009 60.2711 5.11024 60.2164 4.84898H57.6309V16.7497H60.2164V11.1664C60.2164 8.12533 61.477 6.84007 63.4212 6.84007C65.2056 6.84007 65.5038 8.00773 65.5038 11.5107V16.7497H68.0672V11.419C68.0672 7.96191 69.4626 6.84007 71.34 6.84007C73.0102 6.84007 73.491 8.00773 73.491 11.3732V16.7509H76.0537V10.3195C76.0552 5.99559 74.6808 4.39331 71.476 4.39331Z" fill="black"/>
<path d="M91.8723 4.39331C89.6801 4.39331 88.1846 5.86804 87.7953 7.45669H87.4563C87.6251 5.95222 86.0448 4.39331 84.0671 4.39331C82.6331 4.39331 81.7728 4.98023 81.1698 5.94108H80.6208C80.6666 5.52009 80.6643 5.11024 80.6126 4.84898H78.0273V16.7497H80.6126V11.1664C80.6126 8.12533 81.8696 6.84007 83.8173 6.84007C85.6016 6.84007 85.9001 8.00773 85.9001 11.5107V16.7497H88.4606V11.419C88.4606 7.96191 89.8563 6.84007 91.7336 6.84007C93.4038 6.84007 93.8846 8.00773 93.8846 11.3732V16.7509H96.4473V10.3195C96.4488 5.99559 95.0763 4.39331 91.8723 4.39331Z" fill="black"/>
<path d="M108.782 4.85132H106.218V10.9831C106.218 13.9139 105.029 14.8748 103.014 14.8748C101.301 14.8748 101.002 13.8917 101.002 10.78V4.85132H98.416V11.7384C98.416 15.7899 99.9258 17.2076 102.536 17.2076C104.238 17.2076 105.366 16.3248 105.961 15.2822H106.268C106.236 15.4778 106.22 15.6536 106.22 15.7688C106.22 16.2716 106.242 16.6133 106.334 16.752H108.945V16.5675C108.876 16.3855 108.876 16.0437 108.876 15.5843L108.782 4.85132Z" fill="black"/>
<path d="M117.73 4.39331C116.054 4.39331 115.058 4.93316 114.392 5.94108H113.844C113.882 5.57457 113.871 5.21549 113.816 4.84898H111.256V16.7497H113.816V10.9597C113.816 7.91481 115.718 6.84007 117.135 6.84007C119.083 6.84007 119.514 7.93963 119.514 11.533V16.7497H122.077V10.3195C122.077 6.15529 120.866 4.39331 117.73 4.39331Z" fill="black"/>
<path d="M126.933 4.8501H124.369V16.7507H126.933V4.8501Z" fill="black"/>
<path d="M136.183 16.4982L135.612 14.3697C135.014 14.6681 134.581 14.8501 134.099 14.8501C133.412 14.8501 133.276 14.4155 133.276 13.3184V7.1161H136.227V4.85137H132.942C133.593 4.03908 133.729 2.14334 133.344 1.4165H130.758V4.85137H128.904V7.1161H130.76V13.914C130.76 15.8123 131.607 17.0938 133.939 17.0938C134.854 17.0938 135.749 16.7942 136.183 16.4982Z" fill="black"/>
<path d="M125.652 0.366699C124.829 0.366699 124.164 1.03163 124.164 1.85258C124.164 2.676 124.829 3.34094 125.652 3.34094C126.472 3.34094 127.138 2.676 127.138 1.85258C127.138 1.03163 126.473 0.366699 125.652 0.366699Z" fill="black"/>
<path d="M145.5 19.5318C145.05 20.0581 144.358 20.6833 143.375 20.6833C142.453 20.6833 141.245 20.0965 141.066 18.5759H138.578C138.595 19.0724 138.644 19.5863 138.85 20.0989C139.084 20.7366 139.514 21.3483 140.077 21.7767C141.231 22.6348 142.548 22.8119 143.789 22.771C145.094 22.7054 146.48 22.1296 147.401 20.9979C148.284 19.9194 148.501 18.6056 148.501 17.4478L148.499 11.4672V4.8501H145.994V11.1936C145.933 13.9474 144.761 14.8735 142.801 14.8735C141.085 14.8735 140.789 13.8904 140.789 10.7788V4.8501H138.201V11.7371C138.201 15.7886 139.714 17.2089 142.321 17.2089C144.219 17.2089 145.412 16.1093 145.937 14.9194L146.008 14.699V16.8857C146.008 18.3059 145.937 19.018 145.5 19.5318Z" fill="black"/>
<path d="M0.593134 19.9678C2.76878 16.4425 5.19331 14.7919 8.9985 15.78C11.3129 16.383 13.5802 17.2412 16.3749 17.2412C19.7183 17.2412 21.2933 16.5626 21.7119 16.3422C21.7874 16.3038 21.832 16.2307 21.832 16.1441V9.97888C21.832 9.86998 21.718 9.79693 21.6227 9.84268C21.0878 10.1002 19.5103 10.6959 16.3762 10.6959C12.1858 10.6959 9.1905 8.72705 5.41745 8.72705C2.22394 8.72705 0.555986 9.49603 0.121351 9.72628C0.0445779 9.76715 0 9.84028 0 9.92443V19.948C0 20.1795 0.397485 20.2822 0.593134 19.9678Z" fill="black"/>
<path d="M21.827 7.46243C21.827 7.54418 21.7813 7.6197 21.7107 7.65803C21.2872 7.87478 19.7146 8.55458 16.3712 8.55458C12.1834 8.55458 9.18555 6.58823 5.4125 6.58823C2.42206 6.58823 0.768967 7.25936 0.214222 7.53548C0.113921 7.58505 0 7.51688 0 7.40546V1.23783C0 1.1561 0.0433395 1.08305 0.116398 1.04466C0.551033 0.808163 2.21899 0.0454102 5.4125 0.0454102C9.18427 0.0454102 12.1834 2.01173 16.3712 2.01173C19.5053 2.01173 21.0854 1.41366 21.6153 1.1623C21.7131 1.11648 21.827 1.18706 21.827 1.29479V7.46243Z" fill="black"/>
</g>
<defs>
<clipPath id="clip0_932_8365">
<rect width="148.5" height="24" fill="white"/>
</clipPath>
</defs>
</svg>
