<svg width="55" height="55" viewBox="0 0 55 55" fill="none" xmlns="http://www.w3.org/2000/svg">
<g clip-path="url(#clip0_603_40)">
<path fill-rule="evenodd" clip-rule="evenodd" d="M55 16.8133C55 9.75019 49.2742 4.02441 42.2111 4.02441C39.9654 4.02441 37.9821 5.48911 37.3217 7.63556L34.3584 17.2663C33.736 19.2891 34.3609 21.4888 35.9536 22.8825L37.4818 24.2196C38.28 24.9181 38.6066 26.0278 38.2063 27.0099C36.1376 32.084 32.0839 36.1378 27.0098 38.2064C26.0277 38.6067 24.918 38.2801 24.2195 37.4819L22.8823 35.9537C21.4887 34.361 19.289 33.7361 17.2662 34.3586L7.63544 37.3219C5.489 37.9823 4.02429 39.9655 4.02429 42.2112C4.02429 49.2743 9.75007 55.0001 16.8132 55.0001H19.317C39.0242 55.0001 55 39.0243 55 19.3171V16.8133Z" fill="#FFC299"/>
<path fill-rule="evenodd" clip-rule="evenodd" d="M29.3031 15.0028C29.1173 14.0037 28.1996 13.4146 27.1833 13.4146H26.8293C19.4207 13.4146 13.4147 19.4206 13.4147 26.8292V27.2103C13.4147 28.2124 13.9886 29.1211 14.9731 29.3082C15.6037 29.428 16.4257 29.5215 17.4391 29.5121C18.4206 29.5031 19.2225 29.4109 19.8451 29.2976C20.859 29.113 21.4635 28.1862 21.4635 27.1556V26.8292C21.4635 23.8658 23.8659 21.4633 26.8293 21.4633H27.1833C28.1996 21.4633 29.1173 20.8742 29.3031 19.875C29.4196 19.2484 29.5123 18.4363 29.5123 17.4389C29.5123 16.4416 29.4196 15.6294 29.3031 15.0028Z" fill="#FF7213"/>
<path fill-rule="evenodd" clip-rule="evenodd" d="M29.3031 1.5883C29.1173 0.589199 28.1996 0 27.1833 0H25.4878C11.4113 0 0 11.4113 0 25.4878V27.1833C0 28.1996 0.589199 29.1173 1.5883 29.3031C2.21492 29.4195 3.02695 29.5122 4.0244 29.5122C5.02184 29.5122 5.83387 29.4195 6.46049 29.3031C7.4596 29.1173 8.04879 28.1996 8.04879 27.1833V25.4878C8.04879 15.8565 15.8565 8.04879 25.4878 8.04879H27.1833C28.1996 8.04879 29.1173 7.4596 29.3031 6.4605C29.4195 5.83387 29.5122 5.02184 29.5122 4.0244C29.5122 3.02695 29.4195 2.21492 29.3031 1.5883Z" fill="#FF7213"/>
</g>
<defs>
<clipPath id="clip0_603_40">
<rect width="55" height="55" fill="white"/>
</clipPath>
</defs>
</svg>
