<svg width="106" height="16" viewBox="0 0 106 16" fill="none" xmlns="http://www.w3.org/2000/svg">
<g clip-path="url(#clip0_806_956)">
<path d="M11.9125 4.69688L16.4031 5.35938C16.775 5.4125 17.0875 5.675 17.2062 6.03438C17.325 6.39688 17.2281 6.79063 16.9593 7.05938L13.7031 10.2531L14.4718 14.8344C14.5343 15.2094 14.3812 15.5906 14.0687 15.8125C13.7593 16.0344 13.35 16.0625 13.0156 15.8844L9.00309 13.7438L4.99371 15.8844C4.65621 16.0625 4.24684 16.0344 3.93746 15.8125C3.62809 15.5906 3.47184 15.2094 3.53746 14.8344L4.30621 10.2531L1.04934 7.05938C0.780275 6.79063 0.68465 6.39688 0.802775 6.03438C0.920587 5.675 1.23215 5.4125 1.60684 5.35938L6.09371 4.69688L8.10621 0.561564C8.27184 0.217314 8.62184 -0.0012207 9.00309 -0.0012207C9.38746 -0.0012207 9.73746 0.217314 9.90309 0.561564L11.9125 4.69688Z" fill="#FF8533"/>
</g>
<g clip-path="url(#clip1_806_956)">
<path d="M33.9125 4.69688L38.4031 5.35938C38.775 5.4125 39.0875 5.675 39.2062 6.03438C39.325 6.39688 39.2281 6.79063 38.9593 7.05938L35.7031 10.2531L36.4718 14.8344C36.5343 15.2094 36.3812 15.5906 36.0687 15.8125C35.7593 16.0344 35.35 16.0625 35.0156 15.8844L31.0031 13.7438L26.9937 15.8844C26.6562 16.0625 26.2468 16.0344 25.9375 15.8125C25.6281 15.5906 25.4718 15.2094 25.5375 14.8344L26.3062 10.2531L23.0493 7.05938C22.7803 6.79063 22.6846 6.39688 22.8028 6.03438C22.9206 5.675 23.2321 5.4125 23.6068 5.35938L28.0937 4.69688L30.1062 0.561564C30.2718 0.217314 30.6218 -0.0012207 31.0031 -0.0012207C31.3875 -0.0012207 31.7375 0.217314 31.9031 0.561564L33.9125 4.69688Z" fill="#FF8533"/>
</g>
<g clip-path="url(#clip2_806_956)">
<path d="M55.9125 4.69688L60.4031 5.35938C60.775 5.4125 61.0875 5.675 61.2062 6.03438C61.325 6.39688 61.2281 6.79063 60.9593 7.05938L57.7031 10.2531L58.4718 14.8344C58.5343 15.2094 58.3812 15.5906 58.0687 15.8125C57.7593 16.0344 57.35 16.0625 57.0156 15.8844L53.0031 13.7438L48.9937 15.8844C48.6562 16.0625 48.2468 16.0344 47.9375 15.8125C47.6281 15.5906 47.4718 15.2094 47.5375 14.8344L48.3062 10.2531L45.0493 7.05938C44.7803 6.79063 44.6846 6.39688 44.8028 6.03438C44.9206 5.675 45.2321 5.4125 45.6068 5.35938L50.0937 4.69688L52.1062 0.561564C52.2718 0.217314 52.6218 -0.0012207 53.0031 -0.0012207C53.3875 -0.0012207 53.7375 0.217314 53.9031 0.561564L55.9125 4.69688Z" fill="#FF8533"/>
</g>
<g clip-path="url(#clip3_806_956)">
<path d="M77.9125 4.69688L82.4031 5.35938C82.775 5.4125 83.0875 5.675 83.2062 6.03438C83.325 6.39688 83.2281 6.79063 82.9593 7.05938L79.7031 10.2531L80.4718 14.8344C80.5343 15.2094 80.3812 15.5906 80.0687 15.8125C79.7593 16.0344 79.35 16.0625 79.0156 15.8844L75.0031 13.7438L70.9937 15.8844C70.6562 16.0625 70.2468 16.0344 69.9375 15.8125C69.6281 15.5906 69.4718 15.2094 69.5375 14.8344L70.3062 10.2531L67.0493 7.05938C66.7803 6.79063 66.6846 6.39688 66.8028 6.03438C66.9206 5.675 67.2321 5.4125 67.6068 5.35938L72.0937 4.69688L74.1062 0.561564C74.2718 0.217314 74.6218 -0.0012207 75.0031 -0.0012207C75.3875 -0.0012207 75.7375 0.217314 75.9031 0.561564L77.9125 4.69688Z" fill="#FF8533"/>
</g>
<g clip-path="url(#clip4_806_956)">
<path d="M99.9125 4.69688L104.403 5.35938C104.775 5.4125 105.087 5.675 105.206 6.03438C105.325 6.39688 105.228 6.79063 104.959 7.05938L101.703 10.2531L102.472 14.8344C102.534 15.2094 102.381 15.5906 102.069 15.8125C101.759 16.0344 101.35 16.0625 101.016 15.8844L97.0031 13.7438L92.9937 15.8844C92.6562 16.0625 92.2468 16.0344 91.9375 15.8125C91.6281 15.5906 91.4718 15.2094 91.5375 14.8344L92.3062 10.2531L89.0493 7.05938C88.7803 6.79063 88.6846 6.39688 88.8028 6.03438C88.9206 5.675 89.2321 5.4125 89.6068 5.35938L94.0937 4.69688L96.1062 0.561564C96.2718 0.217314 96.6218 -0.0012207 97.0031 -0.0012207C97.3875 -0.0012207 97.7375 0.217314 97.9031 0.561564L99.9125 4.69688Z" fill="#FF8533"/>
</g>
<defs>
<clipPath id="clip0_806_956">
<rect width="18" height="16" fill="white"/>
</clipPath>
<clipPath id="clip1_806_956">
<rect width="18" height="16" fill="white" transform="translate(22)"/>
</clipPath>
<clipPath id="clip2_806_956">
<rect width="18" height="16" fill="white" transform="translate(44)"/>
</clipPath>
<clipPath id="clip3_806_956">
<rect width="18" height="16" fill="white" transform="translate(66)"/>
</clipPath>
<clipPath id="clip4_806_956">
<rect width="18" height="16" fill="white" transform="translate(88)"/>
</clipPath>
</defs>
</svg>
