<svg width="109" height="28" viewBox="0 0 109 28" fill="none" xmlns="http://www.w3.org/2000/svg">
<path d="M17.2666 0.917254V4.01384H10.6207V22.4847H6.61872V4.01384H0.0996094V0.917254H17.2666ZM80.5745 22.4666H84.5765V7.97963H80.5745V22.4666ZM30.0875 19.533C28.3672 19.4605 27.6429 18.5732 27.6429 16.5631V7.99774H23.6771V16.9796C23.6771 20.4746 25.6328 22.4666 29.0372 22.4666H38.3632V7.97963H34.3612V19.4062L30.0875 19.533ZM55.8743 7.99774H40.5362V22.4847H44.5382V11.0581H49.0292V22.4847H52.6328L52.6147 11.0581H54.4256C54.5885 11.0581 54.7153 11.0581 54.8058 11.0581C56.5805 11.1305 57.2867 11.9997 57.2867 14.0279V22.4666H61.2525V13.4847C61.2344 9.98969 59.2787 7.99774 55.8743 7.99774ZM14.0071 12.9776V22.4666H17.9729V13.5209C17.9729 11.9816 18.5161 11.2211 19.7475 11.0762V11.0581H20.7797H21.9024V7.99774H18.6248C15.3833 7.99774 14.0071 9.48265 14.0071 12.9776ZM71.9729 7.99774C75.1962 7.99774 78.6731 10.207 78.6731 15.042C78.6731 19.37 75.7757 22.4122 71.6107 22.4122H67.4638V27.7H63.4618V7.99774H71.9729ZM71.4658 19.2613C73.6207 18.8448 74.7616 17.3599 74.7616 15.205C74.7616 13.0863 73.5664 11.6376 71.4658 11.2211C71.2485 11.1849 71.0312 11.1486 70.7596 11.1486H67.5V19.2251L70.5423 19.3519H70.7052C70.9769 19.3338 71.2304 19.2975 71.4658 19.2613ZM95.8401 7.99774C99.5704 8.17883 102.069 10.6597 102.069 14.1728V22.4666H93.7032C92.49 22.4666 91.3129 22.1949 90.2988 21.6698C87.9266 20.4384 86.5503 18.0118 86.5503 15.0058C86.5503 10.1708 89.9729 7.99774 93.3592 7.99774H95.0614C95.4779 7.99774 95.8038 7.99774 95.8401 7.99774ZM98.1761 13.9917C98.1399 12.2352 96.7093 11.2754 94.8441 11.2754H94.3914C92.1278 11.2754 90.5342 12.6154 90.5342 15.0782C90.5342 17.3056 91.7475 18.8267 93.8843 19.2251C94.1197 19.2794 94.3914 19.2975 94.663 19.2975L98.1942 19.1708V13.9917H98.1761ZM84.8119 3.1084C84.8119 1.76836 83.7254 0.699951 82.4034 0.699951C81.0634 0.699951 79.995 1.78647 79.995 3.1084C79.995 4.44844 81.0815 5.51685 82.4034 5.51685C83.7435 5.51685 84.8119 4.43033 84.8119 3.1084ZM106.796 20.7281L107.339 21.5249H107.683L107.14 20.7281H107.194C107.556 20.6738 107.701 20.5108 107.719 20.203C107.719 20.1124 107.701 20.04 107.665 19.9494C107.629 19.877 107.574 19.8046 107.52 19.7684C107.466 19.7321 107.393 19.6959 107.303 19.6778C107.212 19.6597 107.104 19.6597 106.959 19.6597H105.89V21.543H106.216V20.7824V20.7462H106.796V20.7281ZM106.198 19.8951H106.904C107.013 19.8951 107.067 19.8951 107.122 19.8951C107.158 19.8951 107.212 19.9132 107.249 19.9313C107.339 19.9676 107.393 20.0581 107.375 20.1668C107.375 20.2754 107.321 20.3659 107.249 20.4022C107.212 20.4203 107.158 20.4384 107.122 20.4384C107.086 20.4384 107.013 20.4384 106.904 20.4384H106.234H106.198V19.8951ZM108.752 20.6014C108.752 20.04 108.516 19.5148 108.154 19.1527C107.774 18.7724 107.267 18.5551 106.705 18.5551C106.144 18.5551 105.619 18.7905 105.257 19.1527C104.876 19.533 104.659 20.04 104.659 20.6014C104.659 21.1627 104.894 21.6879 105.257 22.0501C105.637 22.4303 106.144 22.6476 106.705 22.6476C107.267 22.6476 107.792 22.4122 108.154 22.0501C108.516 21.6879 108.752 21.1808 108.752 20.6014ZM106.705 22.376C105.727 22.376 104.949 21.5792 104.931 20.6195C104.931 19.6416 105.727 18.8448 106.705 18.8448C107.683 18.8448 108.462 19.6416 108.462 20.6195C108.462 21.5792 107.665 22.376 106.705 22.376Z" fill="#3C4147"/>
</svg>
