<svg width="55" height="55" viewBox="0 0 55 55" fill="none" xmlns="http://www.w3.org/2000/svg">
<path d="M32.9999 39.875H21.9999L19.8197 47.5054C19.4825 48.686 18.4035 49.5 17.1756 49.5H15.0829C13.4914 49.5 12.1042 50.5831 11.7181 52.1271C11.3533 53.5863 12.457 55 13.9613 55H41.0386C42.5428 55 43.6465 53.5863 43.2816 52.1271C42.8957 50.5831 41.5084 49.5 39.917 49.5H37.8242C36.5964 49.5 35.5174 48.686 35.1801 47.5054L32.9999 39.875Z" fill="#FF7213"/>
<path d="M0.673034 5.97829C0.946948 3.55916 2.6413 1.74872 5.04263 1.34757C8.74609 0.728887 15.6284 0 27.5 0C39.3716 0 46.2539 0.728887 49.9573 1.34757C52.3586 1.74872 54.053 3.55916 54.3269 5.97829C54.6603 8.92237 55 13.9077 55 22C55 30.0923 54.6603 35.0776 54.3269 38.0216C54.053 40.4408 52.3587 42.2512 49.9573 42.6525C46.2539 43.2711 39.3716 44 27.5 44C15.6284 44 8.74609 43.2711 5.04263 42.6525C2.6413 42.2512 0.946948 40.4408 0.673034 38.0216C0.33968 35.0776 0 30.0923 0 22C0 13.9077 0.33968 8.92237 0.673034 5.97829Z" fill="#FF7213"/>
<path fill-rule="evenodd" clip-rule="evenodd" d="M16.6038 11.6936C16.6038 8.67413 19.0516 6.22632 22.0711 6.22632C23.0312 6.22632 23.879 6.85249 24.1613 7.77011L25.4281 11.8873C25.6942 12.7521 25.4271 13.6925 24.7462 14.2883L24.0929 14.8599C23.7516 15.1585 23.612 15.6329 23.7832 16.0528C24.6675 18.222 26.4005 19.955 28.5698 20.8394C28.9896 21.0105 29.464 20.8708 29.7626 20.5296L30.3342 19.8763C30.93 19.1954 31.8704 18.9283 32.7352 19.1944L36.8524 20.4612C37.77 20.7435 38.3962 21.5914 38.3962 22.5514C38.3962 25.571 35.9484 28.0188 32.9288 28.0188H31.8584C23.4335 28.0188 16.6038 21.189 16.6038 12.7641V11.6936Z" fill="#FFC299"/>
<path d="M54.7333 33C54.6151 35.1069 54.4706 36.7514 54.3272 38.0182C54.0535 40.4374 52.3586 42.2513 49.9573 42.6525C46.2539 43.2711 39.3716 44 27.4999 44C15.6283 44 8.74601 43.2711 5.0426 42.6525C2.64128 42.2513 0.946387 40.4374 0.672611 38.0182C0.52924 36.7514 0.384728 35.1069 0.266602 33H54.7333Z" fill="#FFC299"/>
</svg>
