<svg width="55" height="56" viewBox="0 0 55 56" fill="none" xmlns="http://www.w3.org/2000/svg">
<path d="M38.1473 25.469C31.8579 25.469 28.0628 25.7242 25.8618 25.9716C24.1265 26.1666 22.854 27.4202 22.6382 29.153C22.4125 30.9644 22.1948 33.7906 22.1948 37.9535C22.1948 42.1164 22.4125 44.9425 22.6382 46.754C22.854 48.4869 24.1305 49.741 25.8658 49.9359C27.4713 50.1163 29.9239 50.3006 33.572 50.3872C34.5642 50.4108 35.5224 50.7775 36.2667 51.4339L40.2855 54.9779C41.4898 56.04 43.3925 55.3954 43.7032 53.8199L44.1768 51.4176C44.3015 50.7854 44.8476 50.3231 45.4914 50.2946C47.6683 50.1985 49.271 50.066 50.431 49.9356C52.1663 49.7407 53.4406 48.4869 53.6564 46.754C53.8821 44.9427 54.0998 42.1164 54.0998 37.9535C54.0998 33.7906 53.8821 30.9644 53.6564 29.153C53.4406 27.4202 52.1681 26.1666 50.4328 25.9716C48.2318 25.7242 44.4367 25.469 38.1473 25.469Z" fill="#FF7213"/>
<path d="M23.5819 0.5C14.7172 0.5 9.20444 0.83521 5.89044 1.17607C3.05973 1.46722 0.999388 3.56701 0.673569 6.39394C0.333573 9.34391 0 13.7983 0 19.9204C0 26.0425 0.333573 30.4969 0.673569 33.4468C0.999388 36.2738 3.06192 38.3739 5.89264 38.665C7.28272 38.8078 9.05948 38.9498 11.3079 39.0664C11.9843 39.1015 12.5449 39.6155 12.6273 40.2878L12.9986 43.316C13.3515 46.1954 16.8731 47.3946 18.9099 45.3291L23.6013 40.5718C24.3797 39.7825 25.4447 39.3377 26.5532 39.3276C33.7051 39.2624 38.347 38.9657 41.2739 38.6647C44.1046 38.3735 46.1645 36.2738 46.4902 33.4468C46.8302 30.4969 47.1638 26.0425 47.1638 19.9204C47.1638 13.7983 46.8302 9.34391 46.4902 6.39394C46.1645 3.56701 44.1042 1.46722 41.2733 1.17607C37.9594 0.83521 32.4466 0.5 23.5819 0.5Z" fill="#FFC299"/>
<path d="M11.0974 14.3718C11.0974 12.8395 12.3395 11.5974 13.8718 11.5974H33.2922C34.8244 11.5974 36.0665 12.8395 36.0665 14.3718C36.0665 15.904 34.8244 17.1461 33.2922 17.1461H13.8718C12.3395 17.1461 11.0974 15.904 11.0974 14.3718Z" fill="#FF7213"/>
<path d="M11.0974 26.8564C11.0974 25.3241 12.3395 24.082 13.8718 24.082H24.9691C26.5014 24.082 27.7435 25.3241 27.7435 26.8564C27.7435 28.3886 26.5014 29.6307 24.9691 29.6307H13.8718C12.3395 29.6307 11.0974 28.3886 11.0974 26.8564Z" fill="#FF7213"/>
</svg>
