<svg width="55" height="55" viewBox="0 0 55 55" fill="none" xmlns="http://www.w3.org/2000/svg">
<path d="M40.3963 0.517694C43.5418 0.833315 45.8524 3.07006 46.2598 6.20496C46.765 10.0913 47.2857 16.7131 47.2857 27.5C47.2857 38.2869 46.765 44.9087 46.2598 48.7951C45.8524 51.93 43.5418 54.1667 40.3963 54.4823C37.6474 54.7581 33.5521 55 27.6429 55C21.7336 55 17.6384 54.7581 14.8894 54.4823C11.7439 54.1666 9.43327 51.93 9.02583 48.7951C8.52063 44.9087 8 38.2869 8 27.5C8 16.7131 8.52064 10.0913 9.02583 6.20496C9.43327 3.07006 11.7439 0.833315 14.8894 0.517694C17.6384 0.241856 21.7336 0 27.6429 0C33.5521 0 37.6474 0.241856 40.3963 0.517694Z" fill="#FFC299"/>
<path d="M14.865 42.114C14.9969 44.1697 16.1884 45.8973 18.201 46.3358C20.1241 46.7547 23.1247 47.1427 27.6428 47.1427C32.161 47.1427 35.1616 46.7547 37.0846 46.3358C39.0972 45.8973 40.2888 44.1697 40.4207 42.114C40.5783 39.6548 40.7381 35.5104 40.7381 28.8094C40.7381 22.1084 40.5783 17.9641 40.4207 15.5048C40.2888 13.4491 39.0972 11.7216 37.0846 11.283C35.1616 10.8641 32.161 10.4761 27.6428 10.4761C23.1247 10.4761 20.1241 10.8641 18.201 11.283C16.1884 11.7216 14.9969 13.4491 14.865 15.5048C14.7074 17.9641 14.5476 22.1084 14.5476 28.8094C14.5476 35.5104 14.7074 39.6548 14.865 42.114Z" fill="#FF7213"/>
<path fill-rule="evenodd" clip-rule="evenodd" d="M34.9905 0.145933L34.7614 1.97945C34.608 3.20645 33.8749 4.28662 32.6831 4.61587C31.5385 4.93206 29.8584 5.2381 27.6427 5.2381C25.4269 5.2381 23.7468 4.93206 22.6023 4.61587C21.4104 4.28662 20.6774 3.20645 20.5241 1.97945L20.2949 0.145946C22.3559 0.0564666 24.7876 0 27.6428 0C30.4979 0 32.9296 0.0564666 34.9905 0.145933Z" fill="#FF7213"/>
</svg>
