<svg width="55" height="55" viewBox="0 0 55 55" fill="none" xmlns="http://www.w3.org/2000/svg">
<path d="M0.671215 48.1932C0.997447 50.7587 2.71913 52.8433 5.25328 53.3592C9.00491 54.1228 15.8499 55 27.4991 55C39.1482 55 45.9932 54.1228 49.7448 53.3592C52.279 52.8435 54.0007 50.7587 54.327 48.1932C54.8737 43.894 54.9757 40.176 54.9947 38.9378C54.9992 38.6442 54.9834 38.3529 54.9518 38.0611C53.57 25.3004 51.6272 13.2006 50.4916 6.58435C49.9453 3.40178 47.5375 0.954663 44.3229 0.648918C40.8487 0.318505 35.4404 0 27.4991 0C19.5579 0 14.1495 0.318505 10.6753 0.648918C7.46073 0.954663 5.05289 3.40176 4.50664 6.58434C3.37104 13.2006 1.42815 25.3004 0.0463461 38.0611C0.0147486 38.353 -0.00107758 38.6442 0.00344617 38.9377C0.0224762 40.1758 0.124501 43.894 0.671215 48.1932Z" fill="#FFC299"/>
<path d="M27.5 55C15.8509 55 9.00584 54.1228 5.2542 53.3592C2.72005 52.8433 0.998374 50.7587 0.672141 48.1932C-4.11421e-05 42.9073 0 38.5 0 38.5H15.8929C17.6241 38.5 19.1609 39.6077 19.7083 41.25C20.2558 42.8923 21.7927 44 23.5238 44H31.4762C33.2074 44 34.7442 42.8923 35.2917 41.25C35.8391 39.6077 37.3759 38.5 39.1071 38.5H55C55 38.5 55 42.9073 54.3279 48.1932C54.0016 50.7587 52.28 52.8435 49.7457 53.3592C45.9942 54.1228 39.1491 55 27.5 55Z" fill="#FF7213"/>
<path fill-rule="evenodd" clip-rule="evenodd" d="M23.2412 24.0804C22.0616 22.9306 20.7305 21.6781 19.3738 20.4886C18.4834 19.708 17.2602 19.4035 16.2889 20.0808C15.9726 20.3013 15.6233 20.5814 15.2523 20.9363C14.8305 21.3399 14.5085 21.7297 14.2632 22.0828C13.6096 23.0237 13.8948 24.2179 14.6277 25.0983C18.6975 29.9883 23.0244 33.3747 25.4825 35.1042C26.7064 35.9652 28.3004 35.9652 29.5243 35.1042C31.9824 33.3747 36.3092 29.9883 40.3791 25.0983C41.112 24.2179 41.3971 23.0237 40.7436 22.0828C40.4983 21.7297 40.1763 21.3399 39.7544 20.9363C39.3834 20.5814 39.0342 20.3013 38.7178 20.0808C37.7465 19.4035 36.5233 19.708 35.633 20.4886C34.2764 21.678 32.9454 22.9303 31.7659 24.0801C31.5707 19.5727 31.247 14.5916 30.8897 10.6992C30.7615 9.30339 29.5831 8.25 28.1815 8.25H26.8261C25.4246 8.25 24.2463 9.30311 24.1181 10.6989C23.7604 14.5915 23.4365 19.5729 23.2412 24.0804Z" fill="#FF7213"/>
</svg>
